<svg xmlns="http://www.w3.org/2000/svg" xmlns:xlink="http://www.w3.org/1999/xlink" width="500" zoomAndPan="magnify" viewBox="0 0 375 374.999991" height="500" preserveAspectRatio="xMidYMid meet" version="1.2"><defs><clipPath id="209d31c5b5"><path d="M 17.101562 13.84375 L 357.601562 13.84375 L 357.601562 361 L 17.101562 361 Z M 17.101562 13.84375 "/></clipPath></defs><g id="4119f8b4f4"><g clip-rule="nonzero" clip-path="url(#209d31c5b5)"><path style=" stroke:none;fill-rule:nonzero;fill:#ffffff;fill-opacity:1;" d="M 192.34375 295.4375 L 27.285156 295.4375 C 21.671875 295.4375 17.117188 290.882812 17.117188 285.269531 L 17.117188 278.011719 C 17.117188 241.277344 32.132812 207.894531 56.324219 183.703125 C 70.6875 169.355469 88.273438 158.226562 107.878906 151.558594 C 104.070312 148.9375 100.523438 145.976562 97.269531 142.722656 C 83.621094 129.058594 75.164062 110.203125 75.164062 89.363281 C 75.164062 68.523438 83.605469 49.652344 97.269531 36.003906 C 110.921875 22.335938 129.792969 13.894531 150.632812 13.894531 C 171.472656 13.894531 190.34375 22.335938 203.992188 36.003906 C 217.660156 49.652344 226.101562 68.523438 226.101562 89.363281 C 226.101562 110.203125 217.660156 129.074219 203.992188 142.722656 C 200.738281 145.976562 197.175781 148.9375 193.386719 151.558594 C 199.8125 153.753906 206.027344 156.421875 211.980469 159.53125 C 212.257812 159.675781 212.515625 159.824219 212.761719 159.984375 C 229.386719 168.804688 243.964844 181.003906 255.515625 195.664062 C 261.453125 194.328125 267.636719 193.613281 273.980469 193.613281 C 297.082031 193.613281 317.984375 202.984375 333.117188 218.113281 C 348.246094 233.242188 357.617188 254.164062 357.617188 277.25 C 357.617188 300.351562 348.246094 321.253906 333.117188 336.382812 C 317.984375 351.515625 297.082031 360.886719 273.980469 360.886719 C 250.894531 360.886719 229.988281 351.515625 214.84375 336.382812 C 203.796875 325.355469 195.84375 311.234375 192.328125 295.453125 Z M 226.460938 280.8125 C 222.488281 276.84375 222.488281 270.414062 226.460938 266.445312 C 230.429688 262.476562 236.871094 262.476562 240.824219 266.445312 L 267 292.605469 L 306.011719 253.59375 C 309.980469 249.625 316.425781 249.625 320.394531 253.59375 C 324.363281 257.5625 324.363281 263.988281 320.394531 267.960938 L 274.191406 314.160156 C 270.222656 318.132812 263.78125 318.132812 259.828125 314.160156 L 226.476562 280.8125 Z M 318.75 232.476562 C 307.296875 221.023438 291.46875 213.933594 273.980469 213.933594 C 256.507812 213.933594 240.679688 221.007812 229.226562 232.476562 C 217.773438 243.929688 210.679688 259.761719 210.679688 277.234375 C 210.679688 294.722656 217.773438 310.550781 229.226562 322.003906 C 240.679688 333.457031 256.507812 340.535156 273.980469 340.535156 C 291.46875 340.535156 307.296875 333.457031 318.75 322.003906 C 330.203125 310.550781 337.296875 294.722656 337.296875 277.234375 C 337.296875 259.761719 330.21875 243.929688 318.75 232.476562 Z M 318.75 232.476562 "/></g></g></svg>