<svg xmlns="http://www.w3.org/2000/svg" xmlns:xlink="http://www.w3.org/1999/xlink" width="500" zoomAndPan="magnify" viewBox="0 0 375 374.999991" height="500" preserveAspectRatio="xMidYMid meet" version="1.0"><defs><clipPath id="d2cadd1810"><path d="M 51 29.128906 L 324 29.128906 L 324 301 L 51 301 Z M 51 29.128906 " clip-rule="nonzero"/></clipPath></defs><g clip-path="url(#d2cadd1810)"><path fill="#000000" d="M 187.582031 29.128906 C 185.355469 29.132812 183.125 29.191406 180.902344 29.300781 C 178.675781 29.414062 176.453125 29.578125 174.234375 29.800781 C 172.015625 30.019531 169.804688 30.292969 167.601562 30.621094 C 165.394531 30.949219 163.199219 31.332031 161.015625 31.769531 C 158.828125 32.203125 156.65625 32.695312 154.492188 33.234375 C 152.332031 33.777344 150.183594 34.375 148.050781 35.019531 C 145.917969 35.667969 143.804688 36.367188 141.703125 37.121094 C 139.605469 37.871094 137.527344 38.671875 135.46875 39.523438 C 133.410156 40.378906 131.375 41.28125 129.359375 42.234375 C 127.34375 43.1875 125.355469 44.1875 123.390625 45.238281 C 121.421875 46.289062 119.484375 47.386719 117.574219 48.53125 C 115.660156 49.675781 113.78125 50.867188 111.925781 52.105469 C 110.074219 53.339844 108.25 54.621094 106.460938 55.949219 C 104.671875 57.273438 102.914062 58.644531 101.191406 60.058594 C 99.46875 61.46875 97.78125 62.921875 96.128906 64.417969 C 94.480469 65.914062 92.867188 67.449219 91.289062 69.019531 C 89.714844 70.59375 88.175781 72.207031 86.679688 73.855469 C 85.183594 75.503906 83.726562 77.191406 82.3125 78.910156 C 80.898438 80.632812 79.527344 82.386719 78.199219 84.171875 C 76.871094 85.960938 75.585938 87.78125 74.347656 89.628906 C 73.109375 91.480469 71.917969 93.359375 70.769531 95.269531 C 69.625 97.179688 68.523438 99.113281 67.472656 101.078125 C 66.421875 103.039062 65.417969 105.027344 64.464844 107.039062 C 63.511719 109.050781 62.605469 111.085938 61.753906 113.140625 C 60.898438 115.195312 60.09375 117.273438 59.34375 119.367188 C 58.589844 121.460938 57.890625 123.574219 57.242188 125.703125 C 56.59375 127.835938 55.996094 129.980469 55.453125 132.136719 C 54.910156 134.296875 54.421875 136.46875 53.984375 138.648438 C 53.546875 140.832031 53.164062 143.023438 52.835938 145.226562 C 52.507812 147.429688 52.234375 149.636719 52.011719 151.851562 C 51.792969 154.066406 51.625 156.285156 51.515625 158.507812 C 51.402344 160.730469 51.34375 162.957031 51.34375 165.183594 C 58.515625 345.628906 316.652344 345.628906 323.824219 165.183594 C 323.820312 162.957031 323.765625 160.730469 323.652344 158.507812 C 323.542969 156.285156 323.375 154.066406 323.15625 151.851562 C 322.933594 149.636719 322.660156 147.429688 322.332031 145.226562 C 322 143.023438 321.617188 140.832031 321.183594 138.648438 C 320.746094 136.46875 320.257812 134.296875 319.710938 132.136719 C 319.167969 129.980469 318.574219 127.835938 317.925781 125.703125 C 317.277344 123.574219 316.578125 121.460938 315.824219 119.367188 C 315.070312 117.273438 314.269531 115.195312 313.414062 113.140625 C 312.5625 111.085938 311.65625 109.050781 310.703125 107.039062 C 309.75 105.027344 308.746094 103.039062 307.695312 101.078125 C 306.644531 99.113281 305.542969 97.179688 304.398438 95.269531 C 303.25 93.359375 302.058594 91.480469 300.820312 89.628906 C 299.582031 87.78125 298.296875 85.960938 296.96875 84.171875 C 295.640625 82.386719 294.269531 80.632812 292.855469 78.910156 C 291.441406 77.191406 289.984375 75.503906 288.488281 73.855469 C 286.992188 72.207031 285.453125 70.59375 283.878906 69.019531 C 282.300781 67.449219 280.6875 65.914062 279.035156 64.417969 C 277.386719 62.921875 275.699219 61.46875 273.976562 60.058594 C 272.253906 58.644531 270.496094 57.273438 268.707031 55.949219 C 266.914062 54.621094 265.09375 53.339844 263.242188 52.105469 C 261.386719 50.867188 259.503906 49.675781 257.59375 48.53125 C 255.683594 47.386719 253.742188 46.289062 251.777344 45.238281 C 249.8125 44.1875 247.824219 43.1875 245.808594 42.234375 C 243.792969 41.28125 241.757812 40.378906 239.699219 39.523438 C 237.640625 38.671875 235.5625 37.871094 233.460938 37.121094 C 231.363281 36.367188 229.25 35.667969 227.117188 35.019531 C 224.984375 34.375 222.835938 33.777344 220.675781 33.234375 C 218.511719 32.695312 216.339844 32.203125 214.152344 31.769531 C 211.96875 31.332031 209.773438 30.949219 207.566406 30.621094 C 205.363281 30.292969 203.152344 30.019531 200.933594 29.800781 C 198.714844 29.578125 196.492188 29.414062 194.265625 29.300781 C 192.039062 29.191406 189.8125 29.132812 187.582031 29.128906 Z M 264.453125 119.925781 L 164.0625 220.175781 C 163.417969 220.925781 162.644531 221.5 161.742188 221.902344 C 160.835938 222.304688 159.890625 222.492188 158.902344 222.46875 C 157.933594 222.464844 157 222.277344 156.105469 221.90625 C 155.210938 221.535156 154.421875 221.003906 153.738281 220.320312 L 110.714844 177.355469 C 110.378906 177.023438 110.078125 176.660156 109.816406 176.269531 C 109.550781 175.875 109.328125 175.460938 109.144531 175.027344 C 108.964844 174.589844 108.828125 174.140625 108.734375 173.675781 C 108.640625 173.210938 108.59375 172.746094 108.59375 172.273438 C 108.59375 171.800781 108.640625 171.332031 108.734375 170.867188 C 108.828125 170.402344 108.964844 169.953125 109.144531 169.519531 C 109.328125 169.082031 109.550781 168.667969 109.816406 168.273438 C 110.078125 167.882812 110.378906 167.519531 110.714844 167.1875 C 111.039062 166.84375 111.390625 166.539062 111.773438 166.269531 C 112.160156 166 112.570312 165.769531 113 165.582031 C 113.433594 165.398438 113.878906 165.257812 114.339844 165.160156 C 114.800781 165.066406 115.265625 165.019531 115.734375 165.019531 C 116.207031 165.019531 116.671875 165.066406 117.132812 165.160156 C 117.589844 165.257812 118.039062 165.398438 118.46875 165.582031 C 118.902344 165.769531 119.308594 166 119.695312 166.269531 C 120.078125 166.539062 120.433594 166.84375 120.753906 167.1875 L 158.902344 205.28125 L 254.699219 109.902344 C 255.394531 109.476562 256.140625 109.175781 256.9375 109.003906 C 257.734375 108.832031 258.535156 108.796875 259.34375 108.898438 C 260.152344 109 260.921875 109.230469 261.652344 109.59375 C 262.378906 109.957031 263.027344 110.429688 263.597656 111.015625 C 264.164062 111.597656 264.621094 112.257812 264.960938 112.996094 C 265.304688 113.738281 265.515625 114.511719 265.589844 115.320312 C 265.667969 116.132812 265.609375 116.929688 265.414062 117.722656 C 265.21875 118.511719 264.898438 119.246094 264.453125 119.925781 Z M 264.453125 119.925781 " fill-opacity="1" fill-rule="nonzero"/></g></svg>