<svg xmlns="http://www.w3.org/2000/svg" xmlns:xlink="http://www.w3.org/1999/xlink" width="500" zoomAndPan="magnify" viewBox="0 0 375 374.999991" height="500" preserveAspectRatio="xMidYMid meet" version="1.0"><defs><clipPath id="108da4ed26"><path d="M 49.132812 66.792969 L 325.882812 66.792969 L 325.882812 343.542969 L 49.132812 343.542969 Z M 49.132812 66.792969 " clip-rule="nonzero"/></clipPath></defs><g clip-path="url(#108da4ed26)"><path fill="#ffffff" d="M 187.496094 343.519531 C 263.914062 343.519531 325.859375 281.574219 325.859375 205.15625 C 325.859375 128.742188 263.914062 66.792969 187.496094 66.792969 C 111.082031 66.792969 49.132812 128.742188 49.132812 205.15625 C 49.132812 281.574219 111.082031 343.519531 187.496094 343.519531 Z M 161.777344 229.003906 C 158.292969 232.476562 152.65625 232.476562 149.171875 229.003906 L 125.050781 204.957031 C 122.117188 202.03125 118.378906 200.566406 113.84375 200.566406 C 109.304688 200.566406 105.570312 202.03125 102.632812 204.957031 C 99.699219 207.882812 98.230469 211.609375 98.230469 216.128906 C 98.230469 220.652344 99.699219 224.378906 102.632812 227.304688 L 144.265625 268.804688 C 147.46875 272 151.203125 273.59375 155.472656 273.59375 C 159.742188 273.59375 163.480469 272 166.683594 268.804688 L 272.359375 163.457031 C 275.296875 160.53125 276.765625 156.804688 276.765625 152.28125 C 276.765625 147.761719 275.296875 144.035156 272.359375 141.109375 C 269.425781 138.183594 265.6875 136.71875 261.152344 136.71875 C 256.617188 136.71875 252.878906 138.183594 249.945312 141.109375 Z M 161.777344 229.003906 " fill-opacity="1" fill-rule="evenodd"/></g></svg>