<svg xmlns="http://www.w3.org/2000/svg" xmlns:xlink="http://www.w3.org/1999/xlink" width="500" zoomAndPan="magnify" viewBox="0 0 375 374.999991" height="500" preserveAspectRatio="xMidYMid meet" version="1.2"><g id="e10b03f168"><path style=" stroke:none;fill-rule:evenodd;fill:#a6a6a6;fill-opacity:1;" d="M 210.046875 187.445312 L 277.839844 119.648438 C 284.078125 113.410156 284.089844 103.28125 277.851562 97.039062 C 271.621094 90.8125 261.484375 90.800781 255.238281 97.050781 L 187.445312 164.84375 L 119.652344 97.050781 C 113.414062 90.8125 103.28125 90.796875 97.042969 97.039062 C 90.8125 103.269531 90.804688 113.402344 97.050781 119.648438 L 164.84375 187.445312 L 97.050781 255.238281 C 90.8125 261.476562 90.800781 271.605469 97.042969 277.847656 C 103.269531 284.078125 113.40625 284.085938 119.652344 277.839844 L 187.445312 210.046875 L 255.238281 277.839844 C 261.476562 284.078125 271.609375 284.089844 277.851562 277.847656 C 284.078125 271.621094 284.085938 261.484375 277.839844 255.238281 Z M 210.046875 187.445312 "/></g></svg>