<svg xmlns="http://www.w3.org/2000/svg" xmlns:xlink="http://www.w3.org/1999/xlink" width="500" zoomAndPan="magnify" viewBox="0 0 375 374.999991" height="500" preserveAspectRatio="xMidYMid meet" version="1.2"><defs><clipPath id="431e336567"><path d="M 34.722656 25 L 339.972656 25 L 339.972656 350 L 34.722656 350 Z M 34.722656 25 "/></clipPath></defs><g id="89a1aa8b9c"><g clip-rule="nonzero" clip-path="url(#431e336567)"><path style=" stroke:none;fill-rule:nonzero;fill:#ffffff;fill-opacity:1;" d="M 69.152344 349.058594 L 258.269531 349.058594 C 277.253906 349.058594 292.6875 333.621094 292.6875 314.636719 L 292.6875 301.78125 L 305.542969 301.78125 C 324.527344 301.78125 339.972656 286.339844 339.972656 267.355469 L 339.972656 60.039062 C 339.972656 41.058594 324.527344 25.617188 305.542969 25.617188 L 116.425781 25.617188 C 97.445312 25.617188 82.007812 41.058594 82.007812 60.039062 L 82.007812 72.894531 L 69.152344 72.894531 C 50.167969 72.894531 34.722656 88.335938 34.722656 107.320312 L 34.722656 314.636719 C 34.722656 333.621094 50.167969 349.058594 69.152344 349.058594 Z M 103.570312 60.039062 C 103.570312 52.949219 109.339844 47.179688 116.425781 47.179688 L 305.542969 47.179688 C 312.640625 47.179688 318.410156 52.949219 318.410156 60.039062 L 318.410156 267.355469 C 318.410156 274.449219 312.640625 280.21875 305.542969 280.21875 L 292.6875 280.21875 L 292.6875 107.320312 C 292.6875 88.335938 277.253906 72.894531 258.269531 72.894531 L 103.570312 72.894531 Z M 56.285156 107.320312 C 56.285156 100.230469 62.054688 94.460938 69.152344 94.460938 L 258.269531 94.460938 C 265.355469 94.460938 271.125 100.230469 271.125 107.320312 L 271.125 314.636719 C 271.125 321.726562 265.355469 327.496094 258.269531 327.496094 L 69.152344 327.496094 C 62.054688 327.496094 56.285156 321.726562 56.285156 314.636719 Z M 56.285156 107.320312 "/></g><path style=" stroke:none;fill-rule:nonzero;fill:#ffffff;fill-opacity:1;" d="M 107.296875 221.761719 L 152.929688 221.761719 L 152.929688 267.390625 C 152.929688 273.34375 157.753906 278.171875 163.710938 278.171875 C 169.671875 278.171875 174.492188 273.34375 174.492188 267.390625 L 174.492188 221.761719 L 220.113281 221.761719 C 226.074219 221.761719 230.894531 216.933594 230.894531 210.980469 C 230.894531 205.027344 226.074219 200.199219 220.113281 200.199219 L 174.492188 200.199219 L 174.492188 154.566406 C 174.492188 148.613281 169.671875 143.785156 163.710938 143.785156 C 157.753906 143.785156 152.929688 148.613281 152.929688 154.566406 L 152.929688 200.199219 L 107.296875 200.199219 C 101.339844 200.199219 96.515625 205.027344 96.515625 210.980469 C 96.515625 216.933594 101.339844 221.761719 107.296875 221.761719 Z M 107.296875 221.761719 "/></g></svg>