<svg xmlns="http://www.w3.org/2000/svg" xmlns:xlink="http://www.w3.org/1999/xlink" width="500" zoomAndPan="magnify" viewBox="0 0 375 374.999991" height="500" preserveAspectRatio="xMidYMid meet" version="1.0"><defs><clipPath id="ee09d60434"><path d="M 62 68.039062 L 322.019531 68.039062 L 322.019531 328 L 62 328 Z M 62 68.039062 " clip-rule="nonzero"/></clipPath></defs><g clip-path="url(#ee09d60434)"><path fill="#737373" d="M 192.558594 68.15625 C 190.4375 68.15625 188.316406 68.207031 186.199219 68.3125 C 184.078125 68.417969 181.964844 68.574219 179.855469 68.78125 C 177.742188 68.988281 175.640625 69.25 173.539062 69.558594 C 171.441406 69.871094 169.355469 70.234375 167.273438 70.648438 C 165.191406 71.0625 163.125 71.523438 161.066406 72.039062 C 159.007812 72.554688 156.964844 73.121094 154.9375 73.738281 C 152.90625 74.351562 150.894531 75.019531 148.894531 75.734375 C 146.898438 76.445312 144.921875 77.210938 142.960938 78.023438 C 141 78.832031 139.0625 79.691406 137.144531 80.601562 C 135.226562 81.507812 133.332031 82.460938 131.464844 83.460938 C 129.59375 84.460938 127.746094 85.503906 125.929688 86.59375 C 124.109375 87.6875 122.316406 88.820312 120.554688 90 C 118.789062 91.175781 117.058594 92.398438 115.351562 93.660156 C 113.648438 94.925781 111.976562 96.230469 110.339844 97.574219 C 108.699219 98.921875 107.09375 100.304688 105.523438 101.730469 C 103.949219 103.15625 102.414062 104.617188 100.914062 106.117188 C 99.414062 107.617188 97.953125 109.152344 96.527344 110.722656 C 95.105469 112.296875 93.71875 113.902344 92.375 115.539062 C 91.027344 117.179688 89.722656 118.851562 88.460938 120.554688 C 87.195312 122.257812 85.976562 123.992188 84.796875 125.757812 C 83.617188 127.519531 82.484375 129.3125 81.394531 131.128906 C 80.304688 132.949219 79.257812 134.792969 78.257812 136.664062 C 77.257812 138.535156 76.304688 140.429688 75.398438 142.347656 C 74.492188 144.265625 73.632812 146.203125 72.820312 148.164062 C 72.007812 150.121094 71.246094 152.101562 70.53125 154.097656 C 69.816406 156.09375 69.152344 158.109375 68.535156 160.136719 C 67.917969 162.167969 67.355469 164.210938 66.839844 166.269531 C 66.324219 168.328125 65.859375 170.394531 65.445312 172.476562 C 65.03125 174.554688 64.667969 176.644531 64.355469 178.742188 C 64.046875 180.839844 63.785156 182.945312 63.578125 185.054688 C 63.371094 187.167969 63.214844 189.28125 63.109375 191.402344 C 63.007812 193.519531 62.953125 195.640625 62.953125 197.761719 C 62.953125 199.882812 63.007812 202 63.109375 204.121094 C 63.214844 206.238281 63.371094 208.351562 63.578125 210.464844 C 63.785156 212.574219 64.046875 214.679688 64.355469 216.777344 C 64.667969 218.875 65.03125 220.964844 65.445312 223.042969 C 65.859375 225.125 66.324219 227.195312 66.839844 229.25 C 67.355469 231.308594 67.917969 233.351562 68.535156 235.382812 C 69.152344 237.410156 69.816406 239.425781 70.53125 241.421875 C 71.246094 243.417969 72.007812 245.398438 72.820312 247.355469 C 73.632812 249.316406 74.492188 251.253906 75.398438 253.171875 C 76.304688 255.089844 77.257812 256.984375 78.257812 258.855469 C 79.257812 260.726562 80.304688 262.570312 81.394531 264.390625 C 82.484375 266.207031 83.617188 268 84.796875 269.761719 C 85.976562 271.527344 87.195312 273.261719 88.460938 274.964844 C 89.722656 276.667969 91.027344 278.339844 92.371094 279.980469 C 93.71875 281.617188 95.105469 283.222656 96.527344 284.796875 C 97.953125 286.367188 99.414062 287.902344 100.914062 289.402344 C 102.414062 290.902344 103.949219 292.363281 105.519531 293.789062 C 107.09375 295.214844 108.699219 296.597656 110.339844 297.945312 C 111.976562 299.289062 113.648438 300.59375 115.351562 301.859375 C 117.058594 303.121094 118.789062 304.34375 120.554688 305.519531 C 122.316406 306.699219 124.109375 307.832031 125.929688 308.925781 C 127.746094 310.015625 129.59375 311.058594 131.464844 312.058594 C 133.332031 313.058594 135.226562 314.011719 137.144531 314.917969 C 139.0625 315.828125 141 316.6875 142.960938 317.496094 C 144.921875 318.308594 146.898438 319.074219 148.894531 319.789062 C 150.894531 320.5 152.90625 321.167969 154.9375 321.78125 C 156.964844 322.398438 159.007812 322.964844 161.066406 323.480469 C 163.125 323.996094 165.191406 324.460938 167.273438 324.871094 C 169.355469 325.285156 171.441406 325.648438 173.539062 325.960938 C 175.640625 326.273438 177.742188 326.53125 179.855469 326.738281 C 181.964844 326.945312 184.078125 327.101562 186.199219 327.207031 C 188.316406 327.3125 190.4375 327.363281 192.558594 327.363281 C 194.679688 327.363281 196.796875 327.3125 198.917969 327.207031 C 201.035156 327.101562 203.148438 326.945312 205.261719 326.738281 C 207.371094 326.53125 209.476562 326.273438 211.574219 325.960938 C 213.671875 325.648438 215.761719 325.285156 217.84375 324.871094 C 219.921875 324.460938 221.992188 323.996094 224.046875 323.480469 C 226.105469 322.964844 228.148438 322.398438 230.179688 321.78125 C 232.210938 321.167969 234.222656 320.5 236.21875 319.789062 C 238.21875 319.074219 240.195312 318.308594 242.15625 317.496094 C 244.113281 316.6875 246.054688 315.828125 247.96875 314.917969 C 249.886719 314.011719 251.78125 313.058594 253.652344 312.058594 C 255.523438 311.058594 257.367188 310.015625 259.1875 308.925781 C 261.007812 307.832031 262.796875 306.699219 264.5625 305.519531 C 266.324219 304.34375 268.058594 303.121094 269.761719 301.859375 C 271.464844 300.59375 273.136719 299.289062 274.777344 297.945312 C 276.417969 296.597656 278.023438 295.214844 279.59375 293.789062 C 281.164062 292.363281 282.703125 290.902344 284.199219 289.402344 C 285.699219 287.902344 287.164062 286.367188 288.585938 284.796875 C 290.011719 283.222656 291.398438 281.617188 292.742188 279.980469 C 294.089844 278.339844 295.394531 276.667969 296.65625 274.964844 C 297.917969 273.261719 299.140625 271.527344 300.320312 269.761719 C 301.496094 268 302.632812 266.207031 303.722656 264.390625 C 304.8125 262.570312 305.859375 260.726562 306.859375 258.855469 C 307.859375 256.984375 308.8125 255.089844 309.71875 253.171875 C 310.625 251.253906 311.484375 249.316406 312.296875 247.355469 C 313.105469 245.398438 313.871094 243.417969 314.585938 241.421875 C 315.300781 239.425781 315.964844 237.410156 316.582031 235.382812 C 317.195312 233.351562 317.761719 231.308594 318.277344 229.25 C 318.792969 227.195312 319.257812 225.125 319.671875 223.042969 C 320.085938 220.964844 320.445312 218.875 320.757812 216.777344 C 321.070312 214.679688 321.328125 212.574219 321.535156 210.464844 C 321.746094 208.351562 321.902344 206.238281 322.003906 204.121094 C 322.109375 202 322.160156 199.882812 322.160156 197.761719 C 322.160156 195.640625 322.105469 193.519531 322 191.402344 C 321.894531 189.285156 321.734375 187.171875 321.527344 185.058594 C 321.316406 182.949219 321.054688 180.847656 320.742188 178.75 C 320.429688 176.652344 320.066406 174.5625 319.652344 172.484375 C 319.238281 170.402344 318.769531 168.335938 318.253906 166.28125 C 317.738281 164.222656 317.171875 162.179688 316.554688 160.152344 C 315.9375 158.121094 315.273438 156.109375 314.554688 154.113281 C 313.839844 152.117188 313.078125 150.140625 312.265625 148.179688 C 311.453125 146.222656 310.59375 144.285156 309.683594 142.367188 C 308.777344 140.453125 307.824219 138.558594 306.824219 136.6875 C 305.824219 134.820312 304.777344 132.972656 303.6875 131.15625 C 302.597656 129.335938 301.460938 127.546875 300.285156 125.785156 C 299.105469 124.019531 297.882812 122.289062 296.621094 120.585938 C 295.355469 118.882812 294.050781 117.210938 292.707031 115.570312 C 291.363281 113.933594 289.976562 112.328125 288.550781 110.757812 C 287.128906 109.183594 285.667969 107.648438 284.167969 106.152344 C 282.667969 104.652344 281.132812 103.1875 279.5625 101.765625 C 277.988281 100.339844 276.386719 98.957031 274.746094 97.609375 C 273.105469 96.265625 271.4375 94.960938 269.734375 93.699219 C 268.03125 92.433594 266.296875 91.210938 264.535156 90.035156 C 262.769531 88.855469 260.980469 87.722656 259.160156 86.628906 C 257.34375 85.539062 255.5 84.496094 253.628906 83.496094 C 251.757812 82.492188 249.867188 81.539062 247.949219 80.632812 C 246.03125 79.726562 244.09375 78.867188 242.136719 78.054688 C 240.179688 77.242188 238.199219 76.476562 236.203125 75.761719 C 234.207031 75.046875 232.195312 74.378906 230.167969 73.761719 C 228.136719 73.148438 226.09375 72.578125 224.039062 72.0625 C 221.980469 71.546875 219.914062 71.082031 217.835938 70.667969 C 215.753906 70.25 213.667969 69.886719 211.570312 69.574219 C 209.472656 69.261719 207.367188 69 205.257812 68.792969 C 203.148438 68.582031 201.035156 68.425781 198.914062 68.316406 C 196.796875 68.210938 194.679688 68.160156 192.558594 68.15625 Z M 248.71875 206.488281 L 136.574219 206.488281 C 136 206.488281 135.433594 206.433594 134.871094 206.320312 C 134.308594 206.210938 133.761719 206.042969 133.230469 205.824219 C 132.703125 205.605469 132.199219 205.335938 131.722656 205.019531 C 131.246094 204.699219 130.804688 204.335938 130.398438 203.933594 C 129.996094 203.527344 129.632812 203.085938 129.316406 202.609375 C 128.996094 202.132812 128.726562 201.628906 128.507812 201.101562 C 128.289062 200.570312 128.121094 200.023438 128.011719 199.460938 C 127.898438 198.902344 127.84375 198.332031 127.84375 197.761719 C 127.84375 197.1875 127.898438 196.617188 128.011719 196.058594 C 128.121094 195.496094 128.289062 194.949219 128.507812 194.417969 C 128.726562 193.890625 128.996094 193.386719 129.316406 192.910156 C 129.632812 192.433594 129.996094 191.992188 130.398438 191.585938 C 130.804688 191.183594 131.246094 190.820312 131.722656 190.5 C 132.199219 190.183594 132.703125 189.914062 133.230469 189.695312 C 133.761719 189.476562 134.308594 189.308594 134.871094 189.199219 C 135.433594 189.085938 136 189.03125 136.574219 189.03125 L 248.890625 189.03125 C 249.464844 189.03125 250.03125 189.085938 250.59375 189.199219 C 251.15625 189.308594 251.703125 189.476562 252.234375 189.695312 C 252.761719 189.914062 253.265625 190.183594 253.742188 190.5 C 254.21875 190.820312 254.660156 191.183594 255.066406 191.585938 C 255.46875 191.992188 255.832031 192.433594 256.148438 192.910156 C 256.46875 193.386719 256.738281 193.890625 256.957031 194.417969 C 257.175781 194.949219 257.339844 195.496094 257.453125 196.058594 C 257.566406 196.617188 257.621094 197.1875 257.621094 197.761719 C 257.621094 198.332031 257.566406 198.902344 257.453125 199.460938 C 257.339844 200.023438 257.175781 200.570312 256.957031 201.101562 C 256.738281 201.628906 256.46875 202.132812 256.148438 202.609375 C 255.832031 203.085938 255.46875 203.527344 255.066406 203.933594 C 254.660156 204.335938 254.21875 204.699219 253.742188 205.019531 C 253.265625 205.335938 252.761719 205.605469 252.234375 205.824219 C 251.703125 206.042969 251.15625 206.210938 250.59375 206.320312 C 250.03125 206.433594 249.464844 206.488281 248.890625 206.488281 Z M 248.71875 206.488281 " fill-opacity="1" fill-rule="nonzero"/></g></svg>