<svg xmlns="http://www.w3.org/2000/svg" xmlns:xlink="http://www.w3.org/1999/xlink" width="500" zoomAndPan="magnify" viewBox="0 0 375 374.999991" height="500" preserveAspectRatio="xMidYMid meet" version="1.2"><defs><clipPath id="2bb9a7241e"><path d="M 26.152344 26.152344 L 348.652344 26.152344 L 348.652344 348.652344 L 26.152344 348.652344 Z M 26.152344 26.152344 "/></clipPath></defs><g id="497cc70ed4"><g clip-rule="nonzero" clip-path="url(#2bb9a7241e)"><path style=" stroke:none;fill-rule:nonzero;fill:#ffffff;fill-opacity:1;" d="M 116.109375 165.898438 L 255.972656 165.898438 C 268.511719 165.929688 278.621094 176.121094 278.5625 188.632812 C 278.503906 201.085938 268.425781 211.164062 255.972656 211.222656 L 116.109375 211.222656 C 103.597656 211.164062 93.492188 201 93.546875 188.460938 C 93.578125 176.007812 103.65625 165.929688 116.109375 165.898438 Z M 182.675781 26.207031 C 95.4375 28.613281 26.007812 100.105469 26.152344 187.371094 C 25.980469 276.273438 97.902344 348.480469 186.800781 348.652344 C 275.699219 348.824219 347.90625 276.902344 348.078125 188.003906 C 348.078125 187.800781 348.078125 187.601562 348.078125 187.371094 C 348.222656 98.5 276.273438 26.292969 187.371094 26.152344 C 185.796875 26.152344 184.25 26.179688 182.675781 26.207031 "/></g></g></svg>