<svg xmlns="http://www.w3.org/2000/svg" xmlns:xlink="http://www.w3.org/1999/xlink" width="500" zoomAndPan="magnify" viewBox="0 0 375 374.999991" height="500" preserveAspectRatio="xMidYMid meet" version="1.0"><defs><clipPath id="aadf3f84ec"><path d="M 60 84 L 325.164062 84 L 325.164062 349 L 60 349 Z M 60 84 " clip-rule="nonzero"/></clipPath></defs><g clip-path="url(#aadf3f84ec)"><path fill="#ff3131" d="M 192.667969 84.050781 C 190.5 84.050781 188.335938 84.105469 186.171875 84.210938 C 184.011719 84.316406 181.851562 84.476562 179.695312 84.691406 C 177.539062 84.902344 175.390625 85.167969 173.246094 85.484375 C 171.105469 85.800781 168.972656 86.171875 166.847656 86.59375 C 164.722656 87.019531 162.609375 87.492188 160.507812 88.019531 C 158.40625 88.546875 156.320312 89.121094 154.246094 89.75 C 152.175781 90.378906 150.117188 91.058594 148.078125 91.789062 C 146.039062 92.519531 144.019531 93.296875 142.019531 94.128906 C 140.015625 94.957031 138.039062 95.832031 136.078125 96.761719 C 134.121094 97.6875 132.1875 98.660156 130.277344 99.679688 C 128.367188 100.703125 126.480469 101.769531 124.625 102.882812 C 122.765625 103.996094 120.9375 105.15625 119.136719 106.359375 C 117.335938 107.5625 115.566406 108.808594 113.824219 110.097656 C 112.085938 111.390625 110.378906 112.722656 108.703125 114.09375 C 107.027344 115.46875 105.390625 116.882812 103.785156 118.339844 C 102.179688 119.792969 100.609375 121.285156 99.078125 122.816406 C 97.546875 124.347656 96.054688 125.917969 94.601562 127.523438 C 93.144531 129.128906 91.730469 130.765625 90.355469 132.441406 C 88.984375 134.117188 87.652344 135.824219 86.359375 137.5625 C 85.070312 139.304688 83.824219 141.074219 82.621094 142.875 C 81.417969 144.675781 80.257812 146.503906 79.144531 148.363281 C 78.03125 150.222656 76.964844 152.105469 75.941406 154.015625 C 74.921875 155.925781 73.949219 157.859375 73.019531 159.816406 C 72.09375 161.777344 71.21875 163.753906 70.390625 165.757812 C 69.558594 167.757812 68.78125 169.777344 68.050781 171.816406 C 67.320312 173.855469 66.640625 175.914062 66.011719 177.984375 C 65.382812 180.058594 64.808594 182.144531 64.28125 184.246094 C 63.753906 186.347656 63.28125 188.460938 62.855469 190.585938 C 62.433594 192.710938 62.0625 194.84375 61.746094 196.984375 C 61.429688 199.128906 61.164062 201.277344 60.953125 203.433594 C 60.738281 205.589844 60.578125 207.75 60.472656 209.910156 C 60.367188 212.074219 60.3125 214.242188 60.3125 216.40625 C 60.3125 218.574219 60.367188 220.738281 60.472656 222.902344 C 60.578125 225.0625 60.738281 227.222656 60.953125 229.378906 C 61.164062 231.535156 61.429688 233.683594 61.746094 235.828125 C 62.0625 237.96875 62.433594 240.101562 62.855469 242.226562 C 63.28125 244.351562 63.753906 246.464844 64.28125 248.566406 C 64.808594 250.667969 65.382812 252.753906 66.011719 254.828125 C 66.640625 256.898438 67.320312 258.957031 68.050781 260.996094 C 68.78125 263.035156 69.558594 265.054688 70.390625 267.054688 C 71.21875 269.058594 72.09375 271.035156 73.019531 272.996094 C 73.949219 274.953125 74.921875 276.886719 75.941406 278.796875 C 76.964844 280.707031 78.03125 282.59375 79.144531 284.449219 C 80.257812 286.308594 81.417969 288.136719 82.621094 289.9375 C 83.824219 291.738281 85.070312 293.511719 86.359375 295.25 C 87.652344 296.988281 88.984375 298.695312 90.355469 300.371094 C 91.730469 302.046875 93.144531 303.683594 94.601562 305.289062 C 96.054688 306.894531 97.546875 308.464844 99.078125 309.996094 C 100.609375 311.527344 102.179688 313.019531 103.785156 314.472656 C 105.390625 315.929688 107.027344 317.34375 108.703125 318.71875 C 110.378906 320.089844 112.085938 321.421875 113.824219 322.714844 C 115.566406 324.003906 117.335938 325.25 119.136719 326.453125 C 120.9375 327.65625 122.765625 328.816406 124.625 329.929688 C 126.480469 331.042969 128.367188 332.109375 130.277344 333.132812 C 132.1875 334.152344 134.121094 335.125 136.078125 336.054688 C 138.039062 336.980469 140.015625 337.855469 142.019531 338.6875 C 144.019531 339.515625 146.039062 340.292969 148.078125 341.023438 C 150.117188 341.753906 152.175781 342.433594 154.246094 343.0625 C 156.320312 343.691406 158.40625 344.269531 160.507812 344.792969 C 162.609375 345.320312 164.722656 345.792969 166.847656 346.21875 C 168.972656 346.640625 171.105469 347.011719 173.246094 347.328125 C 175.390625 347.644531 177.539062 347.910156 179.695312 348.125 C 181.851562 348.335938 184.011719 348.496094 186.171875 348.601562 C 188.335938 348.707031 190.5 348.761719 192.667969 348.761719 C 194.835938 348.761719 197 348.707031 199.164062 348.601562 C 201.324219 348.496094 203.484375 348.335938 205.640625 348.125 C 207.796875 347.910156 209.945312 347.644531 212.089844 347.328125 C 214.230469 347.011719 216.363281 346.640625 218.488281 346.21875 C 220.613281 345.792969 222.726562 345.320312 224.828125 344.792969 C 226.929688 344.269531 229.015625 343.691406 231.089844 343.0625 C 233.160156 342.433594 235.21875 341.753906 237.257812 341.023438 C 239.296875 340.292969 241.316406 339.515625 243.316406 338.6875 C 245.320312 337.855469 247.296875 336.980469 249.257812 336.054688 C 251.214844 335.125 253.148438 334.152344 255.058594 333.132812 C 256.96875 332.109375 258.855469 331.042969 260.710938 329.929688 C 262.570312 328.816406 264.398438 327.65625 266.199219 326.453125 C 268 325.25 269.769531 324.003906 271.511719 322.714844 C 273.25 321.421875 274.957031 320.089844 276.632812 318.71875 C 278.308594 317.34375 279.945312 315.929688 281.550781 314.472656 C 283.15625 313.019531 284.726562 311.527344 286.257812 309.996094 C 287.789062 308.464844 289.28125 306.894531 290.734375 305.289062 C 292.191406 303.683594 293.605469 302.046875 294.980469 300.371094 C 296.351562 298.695312 297.683594 296.988281 298.976562 295.25 C 300.265625 293.511719 301.511719 291.738281 302.714844 289.9375 C 303.917969 288.136719 305.078125 286.308594 306.191406 284.449219 C 307.304688 282.59375 308.371094 280.707031 309.394531 278.796875 C 310.414062 276.886719 311.386719 274.953125 312.316406 272.996094 C 313.242188 271.035156 314.117188 269.058594 314.945312 267.054688 C 315.777344 265.054688 316.554688 263.035156 317.285156 260.996094 C 318.015625 258.957031 318.695312 256.898438 319.324219 254.828125 C 319.953125 252.753906 320.527344 250.667969 321.054688 248.566406 C 321.582031 246.464844 322.054688 244.351562 322.480469 242.226562 C 322.902344 240.101562 323.273438 237.96875 323.589844 235.828125 C 323.90625 233.683594 324.171875 231.535156 324.382812 229.378906 C 324.597656 227.222656 324.757812 225.0625 324.863281 222.902344 C 324.96875 220.738281 325.023438 218.574219 325.023438 216.40625 C 325.019531 214.242188 324.964844 212.078125 324.855469 209.914062 C 324.75 207.75 324.585938 205.59375 324.375 203.4375 C 324.160156 201.28125 323.894531 199.132812 323.574219 196.992188 C 323.253906 194.851562 322.882812 192.71875 322.460938 190.59375 C 322.035156 188.46875 321.558594 186.359375 321.03125 184.257812 C 320.503906 182.15625 319.925781 180.070312 319.296875 178 C 318.667969 175.925781 317.984375 173.871094 317.253906 171.832031 C 316.523438 169.796875 315.746094 167.777344 314.914062 165.773438 C 314.085938 163.773438 313.207031 161.796875 312.28125 159.839844 C 311.355469 157.882812 310.378906 155.949219 309.359375 154.039062 C 308.335938 152.128906 307.269531 150.246094 306.15625 148.390625 C 305.042969 146.53125 303.882812 144.703125 302.679688 142.902344 C 301.476562 141.101562 300.230469 139.332031 298.9375 137.59375 C 297.648438 135.855469 296.316406 134.148438 294.941406 132.472656 C 293.570312 130.800781 292.15625 129.160156 290.699219 127.554688 C 289.246094 125.953125 287.753906 124.382812 286.222656 122.851562 C 284.691406 121.320312 283.121094 119.828125 281.519531 118.375 C 279.914062 116.917969 278.273438 115.503906 276.601562 114.132812 C 274.925781 112.757812 273.21875 111.425781 271.480469 110.136719 C 269.742188 108.84375 267.972656 107.597656 266.171875 106.394531 C 264.371094 105.191406 262.542969 104.03125 260.6875 102.917969 C 258.828125 101.804688 256.945312 100.738281 255.035156 99.714844 C 253.125 98.695312 251.191406 97.71875 249.234375 96.792969 C 247.277344 95.867188 245.300781 94.988281 243.300781 94.160156 C 241.300781 93.328125 239.28125 92.550781 237.242188 91.820312 C 235.203125 91.089844 233.148438 90.40625 231.074219 89.777344 C 229.003906 89.148438 226.917969 88.570312 224.816406 88.042969 C 222.714844 87.515625 220.605469 87.039062 218.480469 86.613281 C 216.355469 86.191406 214.222656 85.820312 212.082031 85.5 C 209.941406 85.179688 207.792969 84.914062 205.636719 84.699219 C 203.480469 84.488281 201.324219 84.324219 199.160156 84.21875 C 196.996094 84.109375 194.832031 84.054688 192.667969 84.050781 Z M 250.019531 225.320312 L 135.496094 225.320312 C 134.910156 225.320312 134.328125 225.265625 133.753906 225.148438 C 133.179688 225.035156 132.625 224.867188 132.082031 224.640625 C 131.542969 224.417969 131.027344 224.144531 130.542969 223.820312 C 130.054688 223.492188 129.605469 223.125 129.191406 222.710938 C 128.777344 222.296875 128.40625 221.847656 128.082031 221.359375 C 127.757812 220.871094 127.484375 220.359375 127.257812 219.816406 C 127.035156 219.277344 126.867188 218.71875 126.75 218.144531 C 126.636719 217.570312 126.582031 216.992188 126.582031 216.40625 C 126.582031 215.820312 126.636719 215.242188 126.75 214.667969 C 126.867188 214.09375 127.035156 213.535156 127.257812 212.996094 C 127.484375 212.453125 127.757812 211.941406 128.082031 211.453125 C 128.40625 210.96875 128.777344 210.515625 129.191406 210.101562 C 129.605469 209.6875 130.054688 209.320312 130.542969 208.992188 C 131.027344 208.667969 131.542969 208.394531 132.082031 208.171875 C 132.625 207.945312 133.179688 207.777344 133.753906 207.664062 C 134.328125 207.546875 134.910156 207.492188 135.496094 207.492188 L 250.199219 207.492188 C 250.78125 207.492188 251.363281 207.546875 251.9375 207.664062 C 252.511719 207.777344 253.070312 207.945312 253.609375 208.171875 C 254.148438 208.394531 254.664062 208.667969 255.152344 208.992188 C 255.636719 209.320312 256.085938 209.6875 256.5 210.101562 C 256.914062 210.515625 257.285156 210.96875 257.609375 211.453125 C 257.933594 211.941406 258.210938 212.453125 258.433594 212.996094 C 258.65625 213.535156 258.828125 214.09375 258.941406 214.667969 C 259.054688 215.242188 259.113281 215.820312 259.113281 216.40625 C 259.113281 216.992188 259.054688 217.570312 258.941406 218.144531 C 258.828125 218.71875 258.65625 219.277344 258.433594 219.816406 C 258.210938 220.359375 257.933594 220.871094 257.609375 221.359375 C 257.285156 221.847656 256.914062 222.296875 256.5 222.710938 C 256.085938 223.125 255.636719 223.492188 255.152344 223.820312 C 254.664062 224.144531 254.148438 224.417969 253.609375 224.640625 C 253.070312 224.867188 252.511719 225.035156 251.9375 225.148438 C 251.363281 225.265625 250.78125 225.320312 250.199219 225.320312 Z M 250.019531 225.320312 " fill-opacity="1" fill-rule="nonzero"/></g></svg>