<svg xmlns="http://www.w3.org/2000/svg" xmlns:xlink="http://www.w3.org/1999/xlink" width="500" zoomAndPan="magnify" viewBox="0 0 375 374.999991" height="500" preserveAspectRatio="xMidYMid meet" version="1.0"><defs><clipPath id="5c724466c1"><path d="M 58 75.207031 L 317 75.207031 L 317 333 L 58 333 Z M 58 75.207031 " clip-rule="nonzero"/></clipPath></defs><g clip-path="url(#5c724466c1)"><path fill="#737373" d="M 188.371094 75.210938 C 235.472656 75.65625 281.230469 103.914062 302.480469 146.007812 C 320.164062 181.03125 320.558594 224.316406 303.519531 259.664062 C 275.707031 317.34375 201.109375 348.921875 138.191406 322.742188 C 97.117188 305.65625 66.289062 265.957031 60.113281 221.859375 C 54.425781 181.257812 69.519531 138.320312 99.335938 110.226562 C 122.675781 88.234375 154.335938 75.515625 186.710938 75.210938 C 187.269531 75.207031 187.820312 75.207031 188.371094 75.210938 Z M 104.054688 141.351562 C 94.679688 153.46875 87.894531 167.554688 84.78125 182.75 C 77.761719 217.023438 89.234375 254.464844 114.285156 278.925781 C 143.234375 307.195312 189.15625 316.570312 227.167969 301.027344 C 235.464844 297.632812 243.261719 293.109375 250.375 287.675781 Z M 271.238281 266.625 C 281.675781 252.746094 288.808594 236.394531 291.324219 219.210938 C 297.8125 174.9375 272.542969 127.808594 231.839844 108.789062 C 217.835938 102.246094 202.46875 98.945312 186.863281 98.996094 C 164.523438 99.207031 142.875 107.257812 125.171875 120.558594 Z M 271.238281 266.625 " fill-opacity="1" fill-rule="evenodd"/></g></svg>