<svg xmlns="http://www.w3.org/2000/svg" xmlns:xlink="http://www.w3.org/1999/xlink" width="500" zoomAndPan="magnify" viewBox="0 0 375 374.999991" height="500" preserveAspectRatio="xMidYMid meet" version="1.0"><path fill="#ffffff" d="M 308.265625 134.816406 C 285.804688 128.847656 248.058594 128.222656 248.058594 128.222656 C 242.402344 127.210938 239.125 128.769531 234.757812 118.59375 C 230.390625 108.414062 222.710938 86.578125 204.496094 62.203125 C 195.449219 51.753906 180.320312 46.058594 166.632812 62.203125 C 155.363281 75.617188 136.449219 118.59375 136.449219 118.59375 C 133.71875 123.660156 135.824219 126.273438 123.152344 128.222656 C 110.476562 130.175781 83.53125 132.554688 60.171875 139.570312 C 42.625 143.902344 41.105469 162.464844 48.472656 175.566406 C 55.882812 188.707031 92.773438 221.777344 92.773438 221.777344 C 96.75 225.949219 98.625 231.679688 97.84375 237.375 C 97.84375 237.375 86.066406 286.277344 89.1875 300.78125 C 92.304688 315.289062 101.820312 325.195312 119.796875 323.011719 C 137.777344 320.828125 177.394531 295.207031 177.394531 295.207031 C 182.582031 292.710938 188.625 292.710938 193.8125 295.207031 C 193.8125 295.207031 231.5625 317.160156 251.449219 323.050781 C 271.296875 328.9375 281.320312 311.46875 282.0625 300.820312 C 281.28125 278.046875 273.40625 237.414062 273.40625 237.414062 C 272.625 231.71875 271.257812 227.078125 278.472656 221.816406 C 285.6875 216.511719 308.65625 196.117188 322.734375 175.605469 C 333.886719 159.382812 330.730469 140.78125 308.265625 134.816406 Z M 308.265625 134.816406 " fill-opacity="1" fill-rule="nonzero"/></svg>