<svg xmlns="http://www.w3.org/2000/svg" xmlns:xlink="http://www.w3.org/1999/xlink" width="500" zoomAndPan="magnify" viewBox="0 0 375 374.999991" height="500" preserveAspectRatio="xMidYMid meet" version="1.0"><defs><clipPath id="2b633f9fdc"><path d="M 50.898438 70.117188 L 323.898438 70.117188 L 323.898438 343.117188 L 50.898438 343.117188 Z M 50.898438 70.117188 " clip-rule="nonzero"/></clipPath></defs><g clip-path="url(#2b633f9fdc)"><path fill="#ffffff" d="M 187.5 70.117188 C 112.175781 70.117188 50.898438 131.390625 50.898438 206.714844 C 50.898438 282.039062 112.175781 343.316406 187.5 343.316406 C 262.820312 343.316406 324.097656 282.039062 324.097656 206.714844 C 324.097656 131.390625 262.820312 70.117188 187.5 70.117188 Z M 187.5 70.117188 " fill-opacity="1" fill-rule="nonzero"/></g><path fill="#00bf63" d="M 256.730469 177.765625 L 182.742188 251.757812 C 180.519531 253.980469 177.605469 255.09375 174.691406 255.09375 C 171.777344 255.09375 168.863281 253.980469 166.644531 251.757812 L 129.648438 214.761719 C 125.199219 210.3125 125.199219 203.117188 129.648438 198.667969 C 134.101562 194.214844 141.292969 194.214844 145.746094 198.667969 L 174.691406 227.613281 L 240.636719 161.671875 C 245.085938 157.21875 252.28125 157.21875 256.730469 161.671875 C 261.183594 166.121094 261.183594 173.316406 256.730469 177.765625 Z M 256.730469 177.765625 " fill-opacity="1" fill-rule="nonzero"/></svg>