<svg xmlns="http://www.w3.org/2000/svg" xmlns:xlink="http://www.w3.org/1999/xlink" width="500" zoomAndPan="magnify" viewBox="0 0 375 374.999991" height="500" preserveAspectRatio="xMidYMid meet" version="1.0"><defs><clipPath id="5076cfd276"><path d="M 52.25 67 L 323 67 L 323 337.75 L 52.25 337.75 Z M 52.25 67 " clip-rule="nonzero"/></clipPath></defs><g clip-path="url(#5076cfd276)"><path fill="#737373" d="M 187.496094 337.492188 C 112.785156 337.492188 52.25 276.957031 52.25 202.246094 C 52.25 127.535156 112.785156 67 187.496094 67 C 262.207031 67 322.742188 127.535156 322.742188 202.246094 C 322.742188 276.957031 262.207031 337.492188 187.496094 337.492188 " fill-opacity="1" fill-rule="nonzero"/></g><path fill="#ffffff" d="M 203.433594 202.246094 L 240.945312 164.738281 C 245.347656 160.335938 245.347656 153.203125 240.945312 148.800781 C 236.542969 144.398438 229.410156 144.398438 225.007812 148.800781 L 187.496094 186.308594 L 149.988281 148.800781 C 145.585938 144.398438 138.453125 144.398438 134.050781 148.800781 C 129.648438 153.203125 129.648438 160.335938 134.050781 164.738281 L 171.558594 202.246094 L 134.050781 239.757812 C 129.648438 244.160156 129.648438 251.292969 134.050781 255.695312 C 136.25 257.894531 139.15625 258.996094 142.019531 258.996094 C 144.925781 258.996094 147.785156 257.894531 149.988281 255.695312 L 187.496094 218.183594 L 225.007812 255.695312 C 227.207031 257.894531 230.070312 258.996094 232.976562 258.996094 C 235.835938 258.996094 238.742188 257.894531 240.945312 255.695312 C 245.347656 251.292969 245.347656 244.160156 240.945312 239.757812 L 203.433594 202.246094 " fill-opacity="1" fill-rule="nonzero"/></svg>