<svg xmlns="http://www.w3.org/2000/svg" xmlns:xlink="http://www.w3.org/1999/xlink" width="500" zoomAndPan="magnify" viewBox="0 0 375 374.999991" height="500" preserveAspectRatio="xMidYMid meet" version="1.0"><defs><clipPath id="ce1d1c178e"><path d="M 50.824219 50.824219 L 323.824219 50.824219 L 323.824219 323.824219 L 50.824219 323.824219 Z M 50.824219 50.824219 " clip-rule="nonzero"/></clipPath></defs><g clip-path="url(#ce1d1c178e)"><path fill="#ffffff" d="M 187.5 316.4375 C 116.394531 316.4375 58.558594 258.601562 58.558594 187.5 C 58.558594 116.394531 116.394531 58.558594 187.5 58.558594 C 258.601562 58.558594 316.4375 116.394531 316.4375 187.5 C 316.4375 258.601562 258.601562 316.4375 187.5 316.4375 Z M 187.5 50.824219 C 112.132812 50.824219 50.824219 112.132812 50.824219 187.5 C 50.824219 262.863281 112.132812 324.175781 187.5 324.175781 C 262.863281 324.175781 324.175781 262.863281 324.175781 187.5 C 324.175781 112.132812 262.863281 50.824219 187.5 50.824219 " fill-opacity="1" fill-rule="nonzero"/></g><path fill="#ffffff" d="M 239.597656 226.570312 C 243.195312 230.167969 243.195312 236 239.597656 239.597656 C 236 243.195312 230.167969 243.195312 226.574219 239.597656 L 187.5 200.523438 L 148.425781 239.597656 C 144.828125 243.195312 138.996094 243.195312 135.398438 239.597656 C 131.800781 236 131.800781 230.167969 135.398438 226.570312 L 174.472656 187.5 L 135.398438 148.421875 C 131.800781 144.828125 131.800781 138.996094 135.398438 135.398438 C 138.996094 131.804688 144.828125 131.804688 148.425781 135.398438 L 187.5 174.472656 L 226.574219 135.398438 C 230.167969 131.804688 236 131.804688 239.597656 135.398438 C 243.195312 138.996094 243.195312 144.828125 239.597656 148.421875 L 200.523438 187.5 Z M 187.5 76.980469 C 126.351562 76.980469 76.980469 126.351562 76.980469 187.5 C 76.980469 248.644531 126.351562 298.019531 187.5 298.019531 C 248.644531 298.019531 298.019531 248.644531 298.019531 187.5 C 298.019531 126.351562 248.644531 76.980469 187.5 76.980469 " fill-opacity="1" fill-rule="nonzero"/></svg>