<svg xmlns="http://www.w3.org/2000/svg" xmlns:xlink="http://www.w3.org/1999/xlink" width="500" zoomAndPan="magnify" viewBox="0 0 375 374.999991" height="500" preserveAspectRatio="xMidYMid meet" version="1.2"><defs><clipPath id="cb22f633f1"><path d="M 75.214844 136.363281 L 225 136.363281 L 225 238 L 75.214844 238 Z M 75.214844 136.363281 "/></clipPath><clipPath id="cf4dbe2694"><path d="M 168.964844 66.410156 L 281.539062 66.410156 L 281.539062 96.777344 L 168.964844 96.777344 Z M 168.964844 66.410156 "/></clipPath><clipPath id="b34c176381"><path d="M 174.964844 66.410156 L 275.464844 66.410156 C 277.058594 66.410156 278.582031 67.039062 279.707031 68.164062 C 280.832031 69.292969 281.464844 70.816406 281.464844 72.410156 L 281.464844 90.777344 C 281.464844 92.367188 280.832031 93.894531 279.707031 95.019531 C 278.582031 96.144531 277.058594 96.777344 275.464844 96.777344 L 174.964844 96.777344 C 173.375 96.777344 171.847656 96.144531 170.722656 95.019531 C 169.597656 93.894531 168.964844 92.367188 168.964844 90.777344 L 168.964844 72.410156 C 168.964844 70.816406 169.597656 69.292969 170.722656 68.164062 C 171.847656 67.039062 173.375 66.410156 174.964844 66.410156 Z M 174.964844 66.410156 "/></clipPath><clipPath id="7afe2df584"><path d="M 168.964844 270.230469 L 281.539062 270.230469 L 281.539062 300.597656 L 168.964844 300.597656 Z M 168.964844 270.230469 "/></clipPath><clipPath id="cf0881a555"><path d="M 174.964844 270.230469 L 275.464844 270.230469 C 277.058594 270.230469 278.582031 270.863281 279.707031 271.988281 C 280.832031 273.113281 281.464844 274.640625 281.464844 276.230469 L 281.464844 294.597656 C 281.464844 296.191406 280.832031 297.714844 279.707031 298.839844 C 278.582031 299.964844 277.058594 300.597656 275.464844 300.597656 L 174.964844 300.597656 C 173.375 300.597656 171.847656 299.964844 170.722656 298.839844 C 169.597656 297.714844 168.964844 296.191406 168.964844 294.597656 L 168.964844 276.230469 C 168.964844 274.640625 169.597656 273.113281 170.722656 271.988281 C 171.847656 270.863281 173.375 270.230469 174.964844 270.230469 Z M 174.964844 270.230469 "/></clipPath><clipPath id="58939fbea7"><path d="M 249.050781 66.410156 L 281.464844 66.410156 L 281.464844 300.667969 L 249.050781 300.667969 Z M 249.050781 66.410156 "/></clipPath><clipPath id="fd29c681fb"><path d="M 255.050781 66.410156 L 275.464844 66.410156 C 277.058594 66.410156 278.582031 67.039062 279.707031 68.164062 C 280.835938 69.292969 281.464844 70.816406 281.464844 72.410156 L 281.464844 294.597656 C 281.464844 296.191406 280.835938 297.714844 279.707031 298.839844 C 278.582031 299.964844 277.058594 300.597656 275.464844 300.597656 L 255.050781 300.597656 C 253.457031 300.597656 251.933594 299.964844 250.808594 298.839844 C 249.683594 297.714844 249.050781 296.191406 249.050781 294.597656 L 249.050781 72.410156 C 249.050781 70.816406 249.683594 69.292969 250.808594 68.164062 C 251.933594 67.039062 253.457031 66.410156 255.050781 66.410156 Z M 255.050781 66.410156 "/></clipPath></defs><g id="747c09c8c9"><g clip-rule="nonzero" clip-path="url(#cb22f633f1)"><path style=" stroke:none;fill-rule:nonzero;fill:#ffffff;fill-opacity:1;" d="M 213.832031 176.347656 L 112.871094 176.347656 C 112.871094 176.347656 134.140625 155.234375 134.703125 154.511719 C 136.164062 152.640625 137.039062 150.292969 137.039062 147.738281 C 137.039062 144.917969 135.972656 142.355469 134.230469 140.398438 L 133.335938 139.503906 C 131.382812 137.761719 128.816406 136.691406 125.996094 136.691406 C 123.09375 136.691406 120.457031 137.824219 118.488281 139.65625 C 118.488281 139.65625 77.75 180.328125 77.542969 180.597656 C 76.101562 182.464844 75.238281 184.792969 75.238281 187.335938 C 75.238281 189.871094 76.101562 192.203125 77.539062 194.066406 C 78.125 194.820312 118.996094 235.515625 118.996094 235.515625 C 120.890625 237.054688 123.304688 237.976562 125.9375 237.976562 C 132.035156 237.976562 136.980469 233.035156 136.980469 226.9375 C 136.980469 224.261719 136.03125 221.808594 134.449219 219.898438 L 112.871094 198.320312 L 213.832031 198.320312 C 219.902344 198.320312 224.820312 193.402344 224.820312 187.335938 C 224.820312 181.265625 219.902344 176.347656 213.832031 176.347656 "/></g><g clip-rule="nonzero" clip-path="url(#cf4dbe2694)"><g clip-rule="nonzero" clip-path="url(#b34c176381)"><path style=" stroke:none;fill-rule:nonzero;fill:#ffffff;fill-opacity:1;" d="M 168.964844 66.410156 L 281.421875 66.410156 L 281.421875 96.777344 L 168.964844 96.777344 Z M 168.964844 66.410156 "/></g></g><g clip-rule="nonzero" clip-path="url(#7afe2df584)"><g clip-rule="nonzero" clip-path="url(#cf0881a555)"><path style=" stroke:none;fill-rule:nonzero;fill:#ffffff;fill-opacity:1;" d="M 168.964844 270.230469 L 281.421875 270.230469 L 281.421875 300.597656 L 168.964844 300.597656 Z M 168.964844 270.230469 "/></g></g><g clip-rule="nonzero" clip-path="url(#58939fbea7)"><g clip-rule="nonzero" clip-path="url(#fd29c681fb)"><path style=" stroke:none;fill-rule:nonzero;fill:#ffffff;fill-opacity:1;" d="M 249.050781 66.410156 L 281.464844 66.410156 L 281.464844 300.542969 L 249.050781 300.542969 Z M 249.050781 66.410156 "/></g></g></g></svg>