<svg xmlns="http://www.w3.org/2000/svg" xmlns:xlink="http://www.w3.org/1999/xlink" width="1080" zoomAndPan="magnify" viewBox="0 0 810 809.999993" height="1080" preserveAspectRatio="xMidYMid meet" version="1.0"><defs><clipPath id="7f6ab412a9"><path d="M 27.960938 105.882812 L 782.0625 105.882812 L 782.0625 231 L 27.960938 231 Z M 27.960938 105.882812 " clip-rule="nonzero"/></clipPath><clipPath id="a281c53c01"><path d="M 27.960938 355 L 782.0625 355 L 782.0625 480 L 27.960938 480 Z M 27.960938 355 " clip-rule="nonzero"/></clipPath><clipPath id="c5268873ed"><path d="M 27.960938 604 L 782.0625 604 L 782.0625 729.109375 L 27.960938 729.109375 Z M 27.960938 604 " clip-rule="nonzero"/></clipPath></defs><g clip-path="url(#7f6ab412a9)"><path fill="#ffffff" d="M 719.730469 230.527344 L 90.28125 230.527344 C 55.859375 230.527344 27.960938 202.628906 27.960938 168.203125 C 27.960938 133.792969 55.859375 105.894531 90.28125 105.894531 L 719.730469 105.894531 C 754.152344 105.894531 782.050781 133.792969 782.050781 168.203125 C 782.050781 202.628906 754.152344 230.527344 719.730469 230.527344 " fill-opacity="1" fill-rule="nonzero"/></g><g clip-path="url(#a281c53c01)"><path fill="#ffffff" d="M 719.730469 479.816406 L 90.28125 479.816406 C 55.859375 479.816406 27.960938 451.917969 27.960938 417.496094 C 27.960938 383.070312 55.859375 355.171875 90.28125 355.171875 L 719.730469 355.171875 C 754.152344 355.171875 782.050781 383.070312 782.050781 417.496094 C 782.050781 451.917969 754.152344 479.816406 719.730469 479.816406 " fill-opacity="1" fill-rule="nonzero"/></g><g clip-path="url(#c5268873ed)"><path fill="#ffffff" d="M 719.730469 729.109375 L 90.28125 729.109375 C 55.859375 729.109375 27.960938 701.210938 27.960938 666.785156 C 27.960938 632.363281 55.859375 604.464844 90.28125 604.464844 L 719.730469 604.464844 C 754.152344 604.464844 782.050781 632.363281 782.050781 666.785156 C 782.050781 701.210938 754.152344 729.109375 719.730469 729.109375 " fill-opacity="1" fill-rule="nonzero"/></g></svg>