<svg xmlns="http://www.w3.org/2000/svg" xmlns:xlink="http://www.w3.org/1999/xlink" width="1080" zoomAndPan="magnify" viewBox="0 0 810 809.999993" height="1080" preserveAspectRatio="xMidYMid meet" version="1.0"><defs><clipPath id="38c3ccebc6"><path d="M 130 248 L 683 248 L 683 565.160156 L 130 565.160156 Z M 130 248 " clip-rule="nonzero"/></clipPath></defs><g clip-path="url(#38c3ccebc6)"><path fill="#737373" d="M 670.230469 261.117188 C 669.308594 260.113281 668.335938 259.164062 667.3125 258.265625 C 666.292969 257.363281 665.230469 256.519531 664.121094 255.730469 C 663.011719 254.941406 661.867188 254.210938 660.683594 253.539062 C 659.5 252.867188 658.28125 252.257812 657.035156 251.710938 C 655.789062 251.164062 654.519531 250.683594 653.222656 250.269531 C 651.925781 249.855469 650.609375 249.507812 649.277344 249.230469 C 647.945312 248.949219 646.601562 248.742188 645.25 248.601562 C 643.894531 248.460938 642.539062 248.390625 641.175781 248.390625 C 639.816406 248.390625 638.457031 248.460938 637.105469 248.601562 C 635.75 248.742188 634.40625 248.949219 633.074219 249.230469 C 631.742188 249.507812 630.429688 249.855469 629.132812 250.269531 C 627.835938 250.683594 626.566406 251.164062 625.316406 251.710938 C 624.070312 252.257812 622.855469 252.867188 621.671875 253.539062 C 620.488281 254.210938 619.34375 254.941406 618.234375 255.730469 C 617.125 256.519531 616.0625 257.363281 615.039062 258.265625 C 614.019531 259.164062 613.046875 260.113281 612.125 261.117188 L 406.972656 466.664062 L 200.632812 261.117188 C 199.683594 260.164062 198.6875 259.261719 197.644531 258.410156 C 196.605469 257.554688 195.527344 256.757812 194.40625 256.007812 C 193.289062 255.261719 192.136719 254.570312 190.949219 253.9375 C 189.761719 253.304688 188.546875 252.730469 187.304688 252.214844 C 186.0625 251.699219 184.796875 251.246094 183.507812 250.859375 C 182.21875 250.46875 180.917969 250.140625 179.597656 249.878906 C 178.277344 249.617188 176.949219 249.417969 175.609375 249.289062 C 174.269531 249.15625 172.929688 249.089844 171.582031 249.089844 C 170.238281 249.089844 168.894531 249.15625 167.558594 249.289062 C 166.21875 249.421875 164.886719 249.617188 163.570312 249.882812 C 162.25 250.144531 160.945312 250.472656 159.660156 250.863281 C 158.371094 251.253906 157.105469 251.707031 155.863281 252.21875 C 154.621094 252.734375 153.40625 253.308594 152.21875 253.945312 C 151.03125 254.578125 149.878906 255.269531 148.761719 256.015625 C 147.644531 256.765625 146.5625 257.566406 145.523438 258.417969 C 144.484375 259.273438 143.488281 260.175781 142.535156 261.125 C 141.585938 262.078125 140.683594 263.074219 139.828125 264.113281 C 138.976562 265.152344 138.175781 266.230469 137.429688 267.351562 C 136.679688 268.46875 135.988281 269.621094 135.355469 270.808594 C 134.722656 271.996094 134.148438 273.210938 133.632812 274.453125 C 133.117188 275.695312 132.664062 276.960938 132.273438 278.246094 C 131.882812 279.535156 131.554688 280.839844 131.292969 282.15625 C 131.03125 283.476562 130.832031 284.804688 130.699219 286.144531 C 130.570312 287.484375 130.503906 288.828125 130.503906 290.171875 C 130.503906 291.515625 130.566406 292.859375 130.699219 294.199219 C 130.832031 295.539062 131.027344 296.867188 131.289062 298.1875 C 131.550781 299.503906 131.878906 300.808594 132.269531 302.097656 C 132.660156 303.382812 133.113281 304.648438 133.625 305.894531 C 134.140625 307.136719 134.714844 308.351562 135.347656 309.539062 C 135.984375 310.722656 136.671875 311.875 137.421875 312.996094 C 138.167969 314.113281 138.96875 315.195312 139.820312 316.234375 C 140.671875 317.273438 141.574219 318.269531 142.527344 319.222656 L 377.324219 554.019531 C 378.25 555.019531 379.21875 555.972656 380.242188 556.871094 C 381.261719 557.769531 382.328125 558.617188 383.433594 559.40625 C 384.542969 560.195312 385.691406 560.925781 386.875 561.597656 C 388.058594 562.269531 389.273438 562.878906 390.519531 563.425781 C 391.765625 563.972656 393.039062 564.453125 394.335938 564.867188 C 395.628906 565.28125 396.945312 565.628906 398.277344 565.90625 C 399.609375 566.1875 400.953125 566.394531 402.304688 566.535156 C 403.660156 566.675781 405.015625 566.746094 406.378906 566.746094 C 407.738281 566.746094 409.097656 566.675781 410.449219 566.535156 C 411.804688 566.394531 413.148438 566.1875 414.480469 565.90625 C 415.8125 565.628906 417.125 565.28125 418.421875 564.867188 C 419.71875 564.453125 420.992188 563.972656 422.238281 563.425781 C 423.484375 562.878906 424.699219 562.269531 425.882812 561.597656 C 427.066406 560.925781 428.214844 560.195312 429.320312 559.40625 C 430.429688 558.617188 431.496094 557.769531 432.515625 556.871094 C 433.535156 555.972656 434.507812 555.019531 435.433594 554.019531 L 670.230469 319.222656 C 671.230469 318.300781 672.179688 317.328125 673.082031 316.304688 C 673.980469 315.285156 674.824219 314.21875 675.617188 313.113281 C 676.40625 312.003906 677.136719 310.859375 677.808594 309.671875 C 678.480469 308.488281 679.089844 307.273438 679.636719 306.027344 C 680.179688 304.78125 680.660156 303.507812 681.078125 302.214844 C 681.492188 300.917969 681.835938 299.601562 682.117188 298.269531 C 682.394531 296.9375 682.605469 295.59375 682.746094 294.242188 C 682.886719 292.886719 682.957031 291.53125 682.957031 290.167969 C 682.957031 288.808594 682.886719 287.449219 682.746094 286.097656 C 682.605469 284.742188 682.394531 283.398438 682.117188 282.066406 C 681.835938 280.734375 681.492188 279.421875 681.078125 278.125 C 680.660156 276.828125 680.179688 275.554688 679.636719 274.308594 C 679.089844 273.0625 678.480469 271.847656 677.808594 270.664062 C 677.136719 269.480469 676.40625 268.332031 675.617188 267.226562 C 674.824219 266.117188 673.980469 265.050781 673.082031 264.03125 C 672.179688 263.011719 671.230469 262.039062 670.230469 261.117188 Z M 670.230469 261.117188 " fill-opacity="1" fill-rule="nonzero"/></g></svg>