<svg xmlns="http://www.w3.org/2000/svg" xmlns:xlink="http://www.w3.org/1999/xlink" width="1080" zoomAndPan="magnify" viewBox="0 0 810 809.999993" height="1080" preserveAspectRatio="xMidYMid meet" version="1.0"><defs><clipPath id="72fc423c9a"><path d="M 256 105.855469 L 555 105.855469 L 555 365 L 256 365 Z M 256 105.855469 " clip-rule="nonzero"/></clipPath></defs><path fill="#000000" d="M 377.796875 160.714844 L 114.414062 107.863281 C 109.859375 106.96875 105.664062 108.144531 102.085938 111.066406 C 98.484375 113.988281 96.914062 118.363281 96.914062 122.976562 L 96.914062 628.164062 C 96.914062 639.65625 105.007812 649.539062 116.304688 651.785156 L 370.238281 702.566406 C 377.320312 703.980469 382.75 702.148438 388.335938 697.554688 C 393.925781 692.964844 395.238281 686.164062 395.238281 678.925781 L 395.238281 184.359375 C 395.238281 172.863281 389.054688 162.964844 377.796875 160.714844 Z M 348.242188 461.238281 C 337.34375 461.238281 328.511719 452.410156 328.511719 441.535156 C 328.511719 430.617188 337.34375 421.808594 348.242188 421.808594 C 359.140625 421.808594 367.972656 430.617188 367.972656 441.535156 C 367.972656 452.410156 359.140625 461.238281 348.242188 461.238281 Z M 348.242188 461.238281 " fill-opacity="1" fill-rule="nonzero"/><g clip-path="url(#72fc423c9a)"><path fill="#000000" d="M 514.570312 364.34375 L 554.347656 364.34375 L 554.347656 145.625 C 554.347656 123.671875 536.527344 105.855469 514.570312 105.855469 L 256.019531 105.855469 L 415.128906 145.625 L 514.570312 145.625 Z M 514.570312 364.34375 " fill-opacity="1" fill-rule="nonzero"/></g><path fill="#000000" d="M 514.570312 602.949219 L 435.015625 602.949219 L 435.015625 642.71875 L 514.570312 642.71875 C 536.527344 642.71875 554.347656 624.902344 554.347656 602.949219 L 554.347656 523.414062 L 514.570312 523.414062 Z M 514.570312 602.949219 " fill-opacity="1" fill-rule="nonzero"/><path fill="#000000" d="M 713.453125 443.878906 L 594.121094 344.460938 L 594.121094 404.113281 L 474.792969 404.113281 C 463.792969 404.113281 454.902344 413 454.902344 423.996094 L 454.902344 463.765625 C 454.902344 474.757812 463.792969 483.648438 474.792969 483.648438 L 594.121094 483.648438 L 594.121094 543.296875 Z M 713.453125 443.878906 " fill-opacity="1" fill-rule="nonzero"/></svg>