<svg xmlns="http://www.w3.org/2000/svg" xmlns:xlink="http://www.w3.org/1999/xlink" width="1080" zoomAndPan="magnify" viewBox="0 0 810 809.999993" height="1080" preserveAspectRatio="xMidYMid meet" version="1.0"><defs><clipPath id="88094be54b"><path d="M 262 72.488281 L 547 72.488281 L 547 475 L 262 475 Z M 262 72.488281 " clip-rule="nonzero"/></clipPath><clipPath id="941afb3992"><path d="M 140.199219 140 L 669.699219 140 L 669.699219 737.738281 L 140.199219 737.738281 Z M 140.199219 140 " clip-rule="nonzero"/></clipPath><clipPath id="1202228ed3"><path d="M 140 136 L 679 136 L 679 674 L 140 674 Z M 140 136 " clip-rule="nonzero"/></clipPath><clipPath id="d0de030fd3"><path d="M 140.199219 644.8125 L 648.964844 136.050781 L 678.09375 165.183594 L 169.332031 673.945312 Z M 140.199219 644.8125 " clip-rule="nonzero"/></clipPath></defs><g clip-path="url(#88094be54b)"><path fill="#737373" d="M 546.179688 196.445312 C 537.132812 126.621094 477.148438 72.488281 404.929688 72.488281 C 326.457031 72.488281 262.484375 136.460938 262.484375 214.933594 L 262.484375 436.648438 C 262.484375 449.949219 264.34375 462.71875 267.671875 474.953125 Z M 546.179688 196.445312 " fill-opacity="1" fill-rule="nonzero"/></g><path fill="#737373" d="M 243.730469 498.894531 C 235.351562 479.210938 230.828125 458.195312 230.828125 436.648438 L 199.171875 436.648438 C 199.171875 467.105469 206.621094 496.5 219.65625 523.101562 Z M 243.730469 498.894531 " fill-opacity="1" fill-rule="nonzero"/><g clip-path="url(#941afb3992)"><path fill="#737373" d="M 404.929688 610.882812 C 367.820312 610.882812 332.042969 597.050781 302.648438 574.574219 C 294.269531 568.191406 286.289062 561.007812 279.242188 553.160156 L 299.722656 532.679688 C 307.039062 540.390625 315.019531 547.574219 323.796875 553.558594 C 346.941406 569.519531 375.003906 579.097656 405.0625 579.097656 C 483.535156 579.097656 547.507812 515.121094 547.507812 436.648438 L 547.507812 285.027344 L 669.605469 162.929688 L 647.128906 140.453125 L 547.507812 240.070312 L 280.835938 506.609375 L 236.148438 551.296875 L 140.386719 647.0625 L 162.863281 669.539062 L 256.496094 575.902344 C 263.8125 583.617188 271.527344 590.933594 279.90625 597.316406 C 311.160156 622.1875 348.933594 638.28125 389.101562 641.609375 L 389.101562 705.714844 L 341.621094 705.714844 L 341.621094 737.503906 L 468.238281 737.503906 L 468.238281 705.847656 L 420.757812 705.847656 L 420.757812 641.742188 C 523.566406 633.226562 610.816406 541.191406 610.816406 436.648438 L 579.164062 436.648438 C 579.164062 527.890625 496.167969 610.882812 404.929688 610.882812 Z M 404.929688 610.882812 " fill-opacity="1" fill-rule="nonzero"/></g><g clip-path="url(#1202228ed3)"><g clip-path="url(#d0de030fd3)"><path fill="#e43f31" d="M 140.199219 644.8125 L 648.980469 136.035156 L 678.113281 165.164062 L 169.332031 673.945312 Z M 140.199219 644.8125 " fill-opacity="1" fill-rule="nonzero"/></g></g></svg>