<svg xmlns="http://www.w3.org/2000/svg" xmlns:xlink="http://www.w3.org/1999/xlink" width="1080" zoomAndPan="magnify" viewBox="0 0 810 809.999993" height="1080" preserveAspectRatio="xMidYMid meet" version="1.0"><defs><clipPath id="c2440c6d50"><path d="M 173.808594 75.582031 L 636.558594 75.582031 L 636.558594 734.082031 L 173.808594 734.082031 Z M 173.808594 75.582031 " clip-rule="nonzero"/></clipPath></defs><g clip-path="url(#c2440c6d50)"><path fill="#1d7435" d="M 636.15625 369.871094 L 636.15625 393.726562 C 636.15625 513.394531 544.824219 612.105469 428.191406 623.703125 L 428.191406 687.492188 L 522.421875 687.492188 C 535.335938 687.492188 545.878906 698.035156 545.878906 710.949219 C 545.878906 723.863281 535.335938 734.410156 522.421875 734.410156 L 287.566406 734.410156 C 274.652344 734.410156 264.109375 723.863281 264.109375 710.949219 C 264.109375 698.035156 274.652344 687.492188 287.566406 687.492188 L 381.140625 687.492188 L 381.140625 623.570312 C 264.898438 611.710938 173.832031 513.128906 173.832031 393.726562 L 173.832031 369.871094 C 173.832031 356.957031 184.375 346.414062 197.289062 346.414062 C 210.207031 346.414062 220.75 356.957031 220.75 369.871094 L 220.75 393.726562 C 220.75 495.339844 303.382812 577.972656 404.996094 577.972656 C 506.605469 577.972656 589.238281 495.339844 589.238281 393.726562 L 589.238281 369.871094 C 589.238281 356.957031 599.785156 346.414062 612.699219 346.414062 C 625.613281 346.414062 636.15625 356.824219 636.15625 369.871094 Z M 404.996094 531.054688 C 478.535156 531.054688 538.238281 471.351562 538.238281 397.8125 L 538.238281 208.820312 C 538.238281 135.28125 478.535156 75.582031 404.996094 75.582031 C 331.453125 75.582031 271.753906 135.28125 271.753906 208.820312 L 271.753906 397.8125 C 271.753906 471.351562 331.453125 531.054688 404.996094 531.054688 Z M 404.996094 531.054688 " fill-opacity="1" fill-rule="nonzero"/></g></svg>