<svg xmlns="http://www.w3.org/2000/svg" xmlns:xlink="http://www.w3.org/1999/xlink" width="1080" zoomAndPan="magnify" viewBox="0 0 810 809.999993" height="1080" preserveAspectRatio="xMidYMid meet" version="1.0"><defs><clipPath id="526bf98955"><path d="M 333 659 L 478 659 L 478 716.519531 L 333 716.519531 Z M 333 659 " clip-rule="nonzero"/></clipPath><clipPath id="e9cc5d26de"><path d="M 121.609375 93.269531 L 688.609375 93.269531 L 688.609375 632 L 121.609375 632 Z M 121.609375 93.269531 " clip-rule="nonzero"/></clipPath></defs><g clip-path="url(#526bf98955)"><path fill="#1d7435" d="M 476.238281 662.453125 C 474.851562 660.433594 472.074219 659.046875 470.304688 659.296875 L 340.066406 660.054688 C 340.066406 660.054688 335.394531 661.316406 334.132812 663.335938 C 332.871094 665.355469 332.617188 667.878906 333.628906 670.023438 C 345.996094 698.421875 374.140625 716.71875 405.058594 716.71875 C 436.484375 716.71875 464.628906 698.042969 476.867188 669.140625 C 477.753906 666.871094 477.5 664.347656 476.238281 662.453125 Z M 476.238281 662.453125 " fill-opacity="1" fill-rule="nonzero"/></g><g clip-path="url(#e9cc5d26de)"><path fill="#1d7435" d="M 683.335938 592.535156 L 603.449219 525.902344 L 603.449219 348.332031 C 603.449219 258.351562 543.125 182.25 460.839844 158.019531 C 461.21875 155.371094 461.722656 152.71875 461.722656 149.941406 C 461.722656 118.644531 436.359375 93.277344 405.058594 93.277344 C 373.761719 93.277344 348.394531 118.644531 348.394531 149.941406 C 348.394531 152.71875 348.898438 155.371094 349.277344 158.019531 C 266.992188 182.25 206.667969 258.226562 206.667969 348.332031 L 206.667969 525.902344 L 126.65625 592.535156 C 123.375 595.1875 121.609375 599.226562 121.609375 603.390625 L 121.609375 617.523438 C 121.609375 625.347656 127.917969 631.660156 135.742188 631.660156 L 674.25 631.660156 C 682.074219 631.660156 688.386719 625.347656 688.386719 617.523438 L 688.386719 603.390625 C 688.386719 599.226562 686.492188 595.1875 683.335938 592.535156 Z M 376.917969 152.214844 C 376.917969 151.457031 376.664062 150.699219 376.664062 149.941406 C 376.664062 134.292969 389.410156 121.546875 405.058594 121.546875 C 420.707031 121.546875 433.328125 134.292969 433.328125 149.941406 C 433.328125 150.699219 433.203125 151.457031 433.078125 152.214844 C 423.863281 150.953125 414.523438 149.941406 404.933594 149.941406 C 395.339844 149.941406 386.128906 150.828125 376.917969 152.214844 Z M 376.917969 152.214844 " fill-opacity="1" fill-rule="nonzero"/></g></svg>