<svg xmlns="http://www.w3.org/2000/svg" xmlns:xlink="http://www.w3.org/1999/xlink" width="1080" zoomAndPan="magnify" viewBox="0 0 810 809.999993" height="1080" preserveAspectRatio="xMidYMid meet" version="1.0"><defs><clipPath id="d3ed2cccaa"><path d="M 134 430 L 676.375 430 L 676.375 710.742188 L 134 710.742188 Z M 134 430 " clip-rule="nonzero"/></clipPath><clipPath id="2a92c35108"><path d="M 257 99.492188 L 553 99.492188 L 553 395 L 257 395 Z M 257 99.492188 " clip-rule="nonzero"/></clipPath></defs><path fill="#292626" d="M 669.644531 703.855469 L 140.617188 703.855469 C 140.617188 703.855469 147.472656 441.949219 405.132812 437.207031 C 405.132812 437.207031 669.644531 436.96875 669.644531 703.855469 " fill-opacity="1" fill-rule="nonzero"/><g clip-path="url(#d3ed2cccaa)"><path fill="#292626" d="M 669.644531 703.855469 L 669.644531 697.265625 L 140.617188 697.265625 L 140.617188 703.855469 L 147.207031 704.039062 L 147.207031 703.90625 C 147.285156 700.480469 150.027344 635.847656 183.6875 572.296875 C 200.507812 540.507812 224.914062 509.035156 260.5 485.179688 C 296.085938 461.324219 342.925781 444.957031 405.238281 443.796875 L 405.132812 437.207031 L 405.132812 443.796875 C 405.132812 443.796875 406.132812 443.796875 408.03125 443.875 C 415.175781 444.113281 434.863281 445.273438 460.273438 450.675781 C 498.417969 458.820312 549.289062 476.585938 590.304688 514.832031 C 610.8125 533.996094 628.945312 558.222656 641.996094 589.167969 C 655.070312 620.113281 663.054688 657.804688 663.054688 703.855469 L 669.644531 703.855469 L 669.644531 697.265625 L 669.644531 703.855469 L 676.234375 703.855469 C 676.261719 636.191406 659.445312 584.789062 633.953125 546.175781 C 614.84375 517.234375 590.964844 495.484375 565.976562 479.25 C 528.464844 454.894531 488.503906 442.792969 457.824219 436.730469 C 427.140625 430.667969 405.710938 430.617188 405.132812 430.617188 L 405 430.617188 C 339.496094 431.800781 289.335938 449.464844 251.378906 475.425781 C 222.910156 494.90625 201.324219 518.972656 185.007812 544.039062 C 160.546875 581.652344 147.867188 621.429688 141.222656 651.847656 C 134.582031 682.292969 134.027344 703.378906 134.027344 703.695312 C 133.976562 705.488281 134.632812 707.203125 135.898438 708.46875 C 137.140625 709.734375 138.824219 710.445312 140.617188 710.445312 L 669.644531 710.445312 C 671.386719 710.445312 673.070312 709.757812 674.3125 708.519531 C 675.550781 707.308594 676.234375 705.59375 676.234375 703.855469 L 669.644531 703.855469 " fill-opacity="1" fill-rule="nonzero"/></g><path fill="#292626" d="M 264.296875 246.972656 C 264.296875 169.1875 327.347656 106.121094 405.132812 106.121094 C 482.917969 106.121094 545.96875 169.1875 545.96875 246.972656 C 545.96875 324.757812 482.917969 387.835938 405.132812 387.835938 C 327.347656 387.835938 264.296875 324.757812 264.296875 246.972656 " fill-opacity="1" fill-rule="nonzero"/><g clip-path="url(#2a92c35108)"><path fill="#292626" d="M 264.296875 246.972656 L 270.886719 246.972656 C 270.886719 209.859375 285.882812 176.355469 310.1875 152.027344 C 334.515625 127.722656 368.019531 112.699219 405.132812 112.699219 C 442.246094 112.699219 475.746094 127.722656 500.078125 152.027344 C 524.378906 176.355469 539.378906 209.859375 539.378906 246.972656 C 539.378906 284.058594 524.378906 317.589844 500.078125 341.890625 C 475.746094 366.222656 442.21875 381.21875 405.132812 381.246094 C 368.019531 381.21875 334.515625 366.222656 310.210938 341.890625 C 285.882812 317.589844 270.886719 284.058594 270.886719 246.972656 L 257.707031 246.972656 C 257.707031 328.394531 323.683594 394.398438 405.132812 394.425781 C 486.582031 394.398438 552.558594 328.394531 552.558594 246.972656 C 552.558594 165.523438 486.582031 99.53125 405.132812 99.53125 C 323.683594 99.53125 257.707031 165.523438 257.707031 246.972656 L 264.296875 246.972656 " fill-opacity="1" fill-rule="nonzero"/></g></svg>