<svg xmlns="http://www.w3.org/2000/svg" xmlns:xlink="http://www.w3.org/1999/xlink" width="1080" zoomAndPan="magnify" viewBox="0 0 810 809.999993" height="1080" preserveAspectRatio="xMidYMid meet" version="1.0"><defs><clipPath id="45571cb743"><path d="M 97.292969 97.292969 L 709 97.292969 L 709 710 L 97.292969 710 Z M 97.292969 97.292969 " clip-rule="nonzero"/></clipPath></defs><g clip-path="url(#45571cb743)"><path fill="#1d7435" d="M 492.847656 547.308594 L 643.578125 697.988281 C 658.503906 712.910156 682.738281 712.902344 697.664062 697.980469 C 712.582031 683.050781 712.578125 658.816406 697.652344 643.890625 L 547.023438 493.316406 C 577.324219 452.101562 595.238281 401.203125 595.238281 346.148438 C 595.238281 208.800781 483.730469 97.292969 346.378906 97.292969 C 209.03125 97.292969 97.519531 208.800781 97.519531 346.148438 C 97.519531 483.5 209.03125 595.007812 346.378906 595.007812 C 401.113281 595.007812 451.742188 577.300781 492.847656 547.308594 Z M 346.378906 173.78125 C 441.511719 173.78125 518.753906 251.015625 518.753906 346.148438 C 518.753906 441.285156 441.511719 518.523438 346.378906 518.523438 C 251.246094 518.523438 174.007812 441.285156 174.007812 346.148438 C 174.007812 251.015625 251.246094 173.78125 346.378906 173.78125 Z M 346.378906 173.78125 " fill-opacity="1" fill-rule="evenodd"/></g></svg>