<svg xmlns="http://www.w3.org/2000/svg" xmlns:xlink="http://www.w3.org/1999/xlink" width="1080" zoomAndPan="magnify" viewBox="0 0 810 809.999993" height="1080" preserveAspectRatio="xMidYMid meet" version="1.0"><defs><clipPath id="6673916b8a"><path d="M 123 124 L 688.386719 124 L 688.386719 688.386719 L 123 688.386719 Z M 123 124 " clip-rule="nonzero"/></clipPath><clipPath id="2fff18d733"><path d="M 124 123 L 688.386719 123 L 688.386719 688.386719 L 124 688.386719 Z M 124 123 " clip-rule="nonzero"/></clipPath></defs><g clip-path="url(#6673916b8a)"><path fill="#919198" d="M 644.765625 692.746094 L 621.34375 669.054688 C 441.699219 488.011719 168.097656 212.808594 149.28125 196.859375 L 123.855469 175.304688 L 166.628906 124.320312 L 192.1875 145.675781 C 218.28125 167.5625 622.675781 575.628906 668.722656 622.074219 L 692.210938 645.765625 Z M 644.765625 692.746094 " fill-opacity="1" fill-rule="nonzero"/></g><g clip-path="url(#2fff18d733)"><path fill="#919198" d="M 175.636719 692.277344 L 124.65625 649.4375 L 146.078125 623.945312 C 168.097656 597.851562 576.03125 193.457031 622.410156 147.410156 L 646.167969 123.921875 L 692.878906 171.367188 L 669.1875 194.789062 C 488.078125 374.300781 212.875 648.101562 196.925781 666.851562 Z M 175.636719 692.277344 " fill-opacity="1" fill-rule="nonzero"/></g></svg>