<svg xmlns="http://www.w3.org/2000/svg" xmlns:xlink="http://www.w3.org/1999/xlink" width="500" zoomAndPan="magnify" viewBox="0 0 375 374.999991" height="500" preserveAspectRatio="xMidYMid meet" version="1.2"><defs><clipPath id="e3b5ce9498"><path d="M 12.332031 69.351562 L 362.582031 69.351562 L 362.582031 298 L 12.332031 298 Z M 12.332031 69.351562 "/></clipPath></defs><g id="7c52eccde4"><g clip-rule="nonzero" clip-path="url(#e3b5ce9498)"><path style=" stroke:none;fill-rule:nonzero;fill:#ffffff;fill-opacity:1;" d="M 315.515625 69.351562 L 59.398438 69.351562 C 33.53125 69.351562 12.464844 90.398438 12.464844 116.285156 L 12.464844 250.953125 C 12.464844 276.816406 33.507812 297.882812 59.398438 297.882812 L 315.515625 297.882812 C 341.378906 297.882812 362.445312 276.839844 362.445312 250.953125 L 362.445312 116.285156 C 362.445312 90.421875 341.402344 69.351562 315.515625 69.351562 Z M 348.859375 250.953125 C 348.859375 269.335938 333.898438 284.296875 315.515625 284.296875 L 59.398438 284.296875 C 41.015625 284.296875 26.050781 269.335938 26.050781 250.953125 L 26.050781 116.285156 C 26.050781 97.902344 41.015625 82.9375 59.398438 82.9375 L 315.515625 82.9375 C 333.898438 82.9375 348.859375 97.902344 348.859375 116.285156 Z M 348.859375 250.953125 "/></g><path style=" stroke:none;fill-rule:nonzero;fill:#ffffff;fill-opacity:1;" d="M 128.246094 186.714844 C 123.082031 189.402344 117.207031 190.9375 110.988281 190.9375 C 104.769531 190.9375 98.894531 189.425781 93.730469 186.714844 C 74.910156 193.714844 61.484375 211.847656 61.484375 233.121094 L 61.484375 240.464844 C 61.484375 246.226562 66.167969 250.90625 71.925781 250.90625 L 150.046875 250.90625 C 155.808594 250.90625 160.488281 246.226562 160.488281 240.464844 L 160.488281 233.121094 C 160.488281 211.847656 147.0625 193.714844 128.246094 186.714844 Z M 128.246094 186.714844 "/><path style=" stroke:none;fill-rule:nonzero;fill:#ffffff;fill-opacity:1;" d="M 141.144531 153.460938 C 141.144531 154.449219 141.09375 155.4375 140.996094 156.417969 C 140.902344 157.402344 140.757812 158.378906 140.5625 159.347656 C 140.371094 160.3125 140.132812 161.269531 139.84375 162.214844 C 139.558594 163.160156 139.226562 164.089844 138.847656 165.003906 C 138.46875 165.914062 138.046875 166.808594 137.582031 167.679688 C 137.117188 168.550781 136.609375 169.394531 136.0625 170.214844 C 135.511719 171.039062 134.925781 171.828125 134.296875 172.59375 C 133.671875 173.355469 133.007812 174.085938 132.3125 174.785156 C 131.613281 175.484375 130.882812 176.148438 130.117188 176.773438 C 129.355469 177.398438 128.5625 177.988281 127.742188 178.535156 C 126.917969 179.085938 126.074219 179.59375 125.203125 180.058594 C 124.332031 180.523438 123.441406 180.945312 122.527344 181.324219 C 121.613281 181.699219 120.6875 182.035156 119.742188 182.320312 C 118.796875 182.605469 117.839844 182.847656 116.871094 183.039062 C 115.902344 183.230469 114.925781 183.375 113.941406 183.472656 C 112.960938 183.570312 111.976562 183.617188 110.988281 183.617188 C 110 183.617188 109.015625 183.570312 108.03125 183.472656 C 107.046875 183.375 106.074219 183.230469 105.105469 183.039062 C 104.136719 182.847656 103.179688 182.605469 102.234375 182.320312 C 101.289062 182.035156 100.359375 181.699219 99.445312 181.324219 C 98.535156 180.945312 97.644531 180.523438 96.773438 180.058594 C 95.902344 179.59375 95.054688 179.085938 94.234375 178.535156 C 93.414062 177.988281 92.621094 177.398438 91.855469 176.773438 C 91.09375 176.148438 90.363281 175.484375 89.664062 174.785156 C 88.964844 174.085938 88.304688 173.355469 87.675781 172.59375 C 87.050781 171.828125 86.460938 171.039062 85.914062 170.214844 C 85.363281 169.394531 84.859375 168.550781 84.390625 167.679688 C 83.925781 166.808594 83.503906 165.914062 83.125 165.003906 C 82.75 164.089844 82.417969 163.160156 82.128906 162.214844 C 81.84375 161.269531 81.605469 160.3125 81.410156 159.347656 C 81.21875 158.378906 81.074219 157.402344 80.976562 156.417969 C 80.878906 155.4375 80.832031 154.449219 80.832031 153.460938 C 80.832031 152.476562 80.878906 151.488281 80.976562 150.507812 C 81.074219 149.523438 81.21875 148.546875 81.410156 147.578125 C 81.605469 146.609375 81.84375 145.652344 82.128906 144.707031 C 82.417969 143.765625 82.75 142.835938 83.128906 141.921875 C 83.503906 141.011719 83.925781 140.117188 84.390625 139.246094 C 84.859375 138.375 85.363281 137.53125 85.914062 136.710938 C 86.460938 135.886719 87.050781 135.09375 87.675781 134.332031 C 88.304688 133.570312 88.964844 132.835938 89.664062 132.140625 C 90.363281 131.441406 91.09375 130.777344 91.855469 130.152344 C 92.621094 129.523438 93.414062 128.9375 94.234375 128.390625 C 95.054688 127.839844 95.902344 127.332031 96.773438 126.867188 C 97.644531 126.402344 98.535156 125.980469 99.445312 125.601562 C 100.359375 125.222656 101.289062 124.890625 102.234375 124.605469 C 103.179688 124.320312 104.136719 124.078125 105.105469 123.886719 C 106.074219 123.695312 107.046875 123.550781 108.03125 123.453125 C 109.015625 123.355469 110 123.308594 110.988281 123.308594 C 111.976562 123.308594 112.960938 123.355469 113.941406 123.453125 C 114.925781 123.550781 115.902344 123.695312 116.871094 123.886719 C 117.839844 124.078125 118.796875 124.320312 119.742188 124.605469 C 120.6875 124.890625 121.613281 125.222656 122.527344 125.601562 C 123.441406 125.980469 124.332031 126.402344 125.203125 126.867188 C 126.074219 127.332031 126.917969 127.839844 127.742188 128.390625 C 128.5625 128.9375 129.355469 129.523438 130.117188 130.152344 C 130.882812 130.777344 131.613281 131.441406 132.3125 132.140625 C 133.007812 132.835938 133.671875 133.570312 134.296875 134.332031 C 134.925781 135.09375 135.511719 135.886719 136.0625 136.710938 C 136.609375 137.53125 137.117188 138.375 137.582031 139.246094 C 138.046875 140.117188 138.46875 141.011719 138.847656 141.921875 C 139.226562 142.835938 139.558594 143.765625 139.84375 144.707031 C 140.132812 145.652344 140.371094 146.609375 140.5625 147.578125 C 140.757812 148.546875 140.902344 149.523438 140.996094 150.507812 C 141.09375 151.488281 141.144531 152.476562 141.144531 153.460938 Z M 141.144531 153.460938 "/><path style=" stroke:none;fill-rule:nonzero;fill:#ffffff;fill-opacity:1;" d="M 307.550781 138.867188 L 202.371094 138.867188 C 198.722656 138.867188 195.761719 141.828125 195.761719 145.476562 C 195.761719 149.125 198.722656 152.085938 202.371094 152.085938 L 307.550781 152.085938 C 311.199219 152.085938 314.160156 149.125 314.160156 145.476562 C 314.160156 141.828125 311.199219 138.867188 307.550781 138.867188 Z M 307.550781 138.867188 "/><path style=" stroke:none;fill-rule:nonzero;fill:#ffffff;fill-opacity:1;" d="M 307.550781 175.863281 L 202.371094 175.863281 C 198.722656 175.863281 195.761719 178.820312 195.761719 182.472656 C 195.761719 186.121094 198.722656 189.082031 202.371094 189.082031 L 307.550781 189.082031 C 311.199219 189.082031 314.160156 186.121094 314.160156 182.472656 C 314.160156 178.820312 311.199219 175.863281 307.550781 175.863281 Z M 307.550781 175.863281 "/><path style=" stroke:none;fill-rule:nonzero;fill:#ffffff;fill-opacity:1;" d="M 307.550781 212.878906 L 202.371094 212.878906 C 198.722656 212.878906 195.761719 215.839844 195.761719 219.488281 C 195.761719 223.136719 198.722656 226.097656 202.371094 226.097656 L 307.550781 226.097656 C 311.199219 226.097656 314.160156 223.136719 314.160156 219.488281 C 314.160156 215.839844 311.199219 212.878906 307.550781 212.878906 Z M 307.550781 212.878906 "/></g></svg>