<svg xmlns="http://www.w3.org/2000/svg" xmlns:xlink="http://www.w3.org/1999/xlink" width="500" zoomAndPan="magnify" viewBox="0 0 375 374.999991" height="500" preserveAspectRatio="xMidYMid meet" version="1.2"><defs><clipPath id="08bb4987a5"><path d="M 132 48 L 297.425781 48 L 297.425781 273 L 132 273 Z M 132 48 "/></clipPath><clipPath id="a7e200d2cc"><path d="M 77.675781 102 L 243 102 L 243 327 L 77.675781 327 Z M 77.675781 102 "/></clipPath></defs><g id="4ce37f92f4"><path style=" stroke:none;fill-rule:nonzero;fill:#ffffff;fill-opacity:1;" d="M 270.140625 75.273438 L 132.070312 75.273438 L 132.070312 75.292969 L 104.816406 75.292969 L 104.816406 96.480469 L 248.851562 96.480469 L 248.851562 299.730469 L 270.140625 299.730469 Z M 270.140625 75.273438 "/><g clip-rule="nonzero" clip-path="url(#08bb4987a5)"><path style=" stroke:none;fill-rule:nonzero;fill:#ffffff;fill-opacity:1;" d="M 132.070312 48.039062 L 132.070312 69.214844 L 276.199219 69.214844 L 276.199219 272.476562 L 297.398438 272.476562 L 297.398438 48.039062 Z M 132.070312 48.039062 "/></g><g clip-rule="nonzero" clip-path="url(#a7e200d2cc)"><path style=" stroke:none;fill-rule:nonzero;fill:#ffffff;fill-opacity:1;" d="M 242.800781 324.171875 L 242.800781 102.539062 L 97.707031 102.539062 L 97.707031 102.511719 L 77.59375 102.511719 L 77.59375 326.953125 L 242.921875 326.953125 L 242.921875 324.171875 Z M 215.457031 273.019531 L 110.808594 273.019531 C 107.496094 273.019531 104.816406 270.335938 104.816406 267.027344 C 104.816406 263.722656 107.5 261.035156 110.808594 261.035156 L 215.457031 261.035156 C 218.769531 261.035156 221.449219 263.722656 221.449219 267.027344 C 221.449219 270.335938 218.765625 273.019531 215.457031 273.019531 Z M 215.457031 238.15625 L 110.808594 238.15625 C 107.496094 238.15625 104.816406 235.472656 104.816406 232.164062 C 104.816406 228.855469 107.5 226.171875 110.808594 226.171875 L 215.457031 226.171875 C 218.769531 226.171875 221.449219 228.855469 221.449219 232.164062 C 221.449219 235.472656 218.765625 238.15625 215.457031 238.15625 Z M 215.457031 203.292969 L 110.808594 203.292969 C 107.496094 203.292969 104.816406 200.609375 104.816406 197.300781 C 104.816406 193.992188 107.5 191.308594 110.808594 191.308594 L 215.457031 191.308594 C 218.769531 191.308594 221.449219 193.992188 221.449219 197.300781 C 221.449219 200.609375 218.765625 203.292969 215.457031 203.292969 Z M 215.457031 168.429688 L 110.808594 168.429688 C 107.496094 168.429688 104.816406 165.746094 104.816406 162.4375 C 104.816406 159.128906 107.5 156.445312 110.808594 156.445312 L 215.457031 156.445312 C 218.769531 156.445312 221.449219 159.128906 221.449219 162.4375 C 221.449219 165.746094 218.765625 168.429688 215.457031 168.429688 Z M 215.457031 168.429688 "/></g></g></svg>