<svg xmlns="http://www.w3.org/2000/svg" xmlns:xlink="http://www.w3.org/1999/xlink" width="500" zoomAndPan="magnify" viewBox="0 0 375 374.999991" height="500" preserveAspectRatio="xMidYMid meet" version="1.2"><defs><clipPath id="9ccdf96c39"><path d="M 205.054688 191.207031 L 350.730469 191.207031 L 350.730469 312 L 205.054688 312 Z M 205.054688 191.207031 "/></clipPath><clipPath id="35cf1f78bb"><path d="M 88 191.824219 L 189 191.824219 L 189 350.472656 L 88 350.472656 Z M 88 191.824219 "/></clipPath></defs><g id="656c9906c9"><path style=" stroke:none;fill-rule:nonzero;fill:#85c536;fill-opacity:1;" d="M 180.957031 176.890625 C 183.003906 176.375 182.585938 173.355469 180.476562 173.414062 L 119.449219 170.25 C 119.144531 169.710938 118.816406 169.179688 118.457031 168.660156 L 101.285156 143.644531 L 75.738281 106.425781 C 74.542969 104.6875 71.851562 106.125 72.640625 108.082031 C 72.640625 108.082031 105.125 158.207031 84.625 180.339844 C 73.992188 191.820312 26.625 204.003906 26.625 204.003906 C 24.605469 204.621094 25.171875 207.613281 27.277344 207.453125 C 39.703125 206.496094 52.128906 205.59375 64.558594 204.730469 C 76.625 203.890625 89.652344 204.386719 101.367188 201.355469 C 102.429688 201.078125 103.488281 200.777344 104.539062 200.445312 C 110.449219 198.574219 115.996094 195.785156 121.589844 193.15625 C 127.085938 190.574219 132.027344 189.15625 137.835938 187.726562 C 143.953125 186.222656 150.054688 184.65625 156.164062 183.121094 C 164.429688 181.042969 172.691406 178.96875 180.957031 176.890625 "/><path style=" stroke:none;fill-rule:nonzero;fill:#85c536;fill-opacity:1;" d="M 121.179688 143.417969 C 117.039062 152.050781 120.015625 162.074219 127.824219 165.808594 C 135.632812 169.539062 145.320312 165.566406 149.460938 156.933594 C 153.601562 148.300781 150.628906 138.273438 142.820312 134.542969 C 135.007812 130.8125 125.320312 134.785156 121.179688 143.417969 "/><path style=" stroke:none;fill-rule:nonzero;fill:#f14624;fill-opacity:1;" d="M 194.609375 164.070312 C 195.730469 165.855469 198.476562 164.527344 197.769531 162.542969 L 181.929688 103.632812 C 182.347656 103.175781 182.75 102.703125 183.136719 102.199219 L 201.667969 78.167969 L 229.238281 42.417969 C 230.523438 40.746094 228.324219 38.636719 226.703125 39.988281 C 226.703125 39.988281 188.976562 86.3125 161.550781 73.691406 C 147.324219 67.148438 121.078125 25.953125 121.078125 25.953125 C 119.867188 24.222656 117.191406 25.6875 117.996094 27.632812 C 122.746094 39.132812 127.449219 50.652344 132.109375 62.183594 C 136.636719 73.375 140.191406 85.898438 146.703125 96.082031 C 147.292969 97.003906 147.90625 97.914062 148.546875 98.808594 C 152.15625 103.839844 156.527344 108.242188 160.761719 112.742188 C 164.921875 117.160156 167.800781 121.414062 170.957031 126.488281 C 174.28125 131.828125 177.660156 137.136719 181.007812 142.460938 C 185.542969 149.664062 190.074219 156.867188 194.609375 164.070312 "/><path style=" stroke:none;fill-rule:nonzero;fill:#f14624;fill-opacity:1;" d="M 208.03125 96.984375 C 198.523438 95.722656 189.890625 101.640625 188.75 110.207031 C 187.605469 118.773438 194.386719 126.742188 203.890625 128.007812 C 213.398438 129.269531 222.03125 123.347656 223.171875 114.785156 C 224.316406 106.21875 217.535156 98.25 208.03125 96.984375 "/><path style=" stroke:none;fill-rule:nonzero;fill:#ec058e;fill-opacity:1;" d="M 211.039062 173.066406 C 209.6875 174.683594 211.800781 176.882812 213.476562 175.597656 L 264.714844 142.355469 C 265.277344 142.613281 265.851562 142.847656 266.453125 143.058594 L 295.074219 153.222656 L 337.660156 168.34375 C 339.648438 169.050781 340.980469 166.308594 339.195312 165.1875 C 339.195312 165.1875 283.394531 143.695312 286.945312 113.757812 C 288.785156 98.234375 319.929688 60.589844 319.929688 60.589844 C 321.199219 58.90625 318.980469 56.816406 317.371094 58.183594 C 307.882812 66.246094 298.363281 74.265625 288.8125 82.257812 C 279.546875 90.011719 268.714844 97.257812 261.023438 106.582031 C 260.324219 107.429688 259.644531 108.292969 258.996094 109.175781 C 255.3125 114.15625 252.46875 119.667969 249.492188 125.074219 C 246.566406 130.390625 243.402344 134.441406 239.546875 139.003906 C 235.480469 143.808594 231.46875 148.65625 227.429688 153.480469 C 221.964844 160.007812 216.503906 166.539062 211.039062 173.066406 "/><path style=" stroke:none;fill-rule:nonzero;fill:#ec058e;fill-opacity:1;" d="M 279.113281 165.078125 C 277.378906 155.664062 269.070312 149.296875 260.554688 150.863281 C 252.039062 152.425781 246.539062 161.320312 248.273438 170.734375 C 250.007812 180.148438 258.316406 186.515625 266.832031 184.953125 C 275.347656 183.390625 280.847656 174.492188 279.113281 165.078125 "/><g clip-rule="nonzero" clip-path="url(#9ccdf96c39)"><path style=" stroke:none;fill-rule:nonzero;fill:#98198e;fill-opacity:1;" d="M 207.546875 191.445312 C 205.585938 190.660156 204.148438 193.347656 205.890625 194.539062 L 253.394531 232.90625 C 253.328125 233.515625 253.28125 234.140625 253.261719 234.769531 L 252.421875 265.082031 L 251.175781 310.183594 C 251.117188 312.289062 254.140625 312.707031 254.65625 310.660156 C 254.65625 310.660156 257.894531 251.050781 287.515625 245.167969 C 302.878906 242.121094 348.371094 260.050781 348.371094 260.050781 C 350.371094 260.738281 351.671875 257.984375 349.871094 256.878906 C 339.257812 250.363281 328.675781 243.804688 318.109375 237.210938 C 307.855469 230.8125 297.605469 222.765625 286.34375 218.347656 C 285.320312 217.945312 284.285156 217.570312 283.242188 217.222656 C 277.359375 215.269531 271.230469 214.273438 265.160156 213.117188 C 259.191406 211.980469 254.355469 210.226562 248.816406 207.976562 C 242.980469 205.605469 237.121094 203.292969 231.273438 200.949219 C 223.367188 197.78125 215.457031 194.617188 207.546875 191.445312 "/></g><path style=" stroke:none;fill-rule:nonzero;fill:#98198e;fill-opacity:1;" d="M 236.195312 253.59375 C 244.628906 249.039062 248.125 239.183594 244.007812 231.585938 C 239.886719 223.984375 229.707031 221.515625 221.273438 226.070312 C 212.839844 230.625 209.34375 240.480469 213.460938 248.078125 C 217.582031 255.679688 227.761719 258.148438 236.195312 253.59375 "/><g clip-rule="nonzero" clip-path="url(#35cf1f78bb)"><path style=" stroke:none;fill-rule:nonzero;fill:#51ade5;fill-opacity:1;" d="M 188.953125 193.808594 C 189.097656 191.707031 186.09375 191.167969 185.496094 193.191406 L 163.617188 250.140625 C 163.011719 250.265625 162.40625 250.414062 161.796875 250.59375 L 132.65625 259.164062 L 89.296875 271.914062 C 87.269531 272.507812 87.808594 275.507812 89.914062 275.367188 C 89.914062 275.367188 147.71875 260.019531 162.472656 286.320312 C 170.128906 299.960938 167.101562 348.6875 167.101562 348.6875 C 167.0625 350.792969 170.089844 351.179688 170.585938 349.132812 C 173.511719 337.042969 176.496094 324.96875 179.511719 312.902344 C 182.441406 301.191406 186.941406 288.976562 187.671875 276.921875 C 187.738281 275.824219 187.777344 274.726562 187.785156 273.628906 C 187.828125 267.441406 186.882812 261.316406 186.109375 255.191406 C 185.347656 249.175781 185.523438 244.042969 185.953125 238.089844 C 186.410156 231.820312 186.804688 225.542969 187.230469 219.269531 C 187.804688 210.78125 188.378906 202.296875 188.953125 193.808594 "/></g><path style=" stroke:none;fill-rule:nonzero;fill:#51ade5;fill-opacity:1;" d="M 138.589844 240.207031 C 145.535156 246.804688 156.003906 247.082031 161.972656 240.820312 C 167.941406 234.5625 167.152344 224.136719 160.203125 217.539062 C 153.257812 210.941406 142.789062 210.667969 136.820312 216.925781 C 130.847656 223.183594 131.640625 233.609375 138.589844 240.207031 "/></g></svg>