<svg xmlns="http://www.w3.org/2000/svg" xmlns:xlink="http://www.w3.org/1999/xlink" width="500" zoomAndPan="magnify" viewBox="0 0 375 374.999991" height="500" preserveAspectRatio="xMidYMid meet" version="1.2"><defs><clipPath id="3509b24fcc"><path d="M 94 311 L 165 311 L 165 339.511719 L 94 339.511719 Z M 94 311 "/></clipPath><clipPath id="c3cbcdb9d6"><path d="M 209 311 L 281 311 L 281 339.511719 L 209 339.511719 Z M 209 311 "/></clipPath></defs><g id="a3b035a47f"><path style=" stroke:none;fill-rule:nonzero;fill:#6c9fc2;fill-opacity:1;" d="M 138.414062 236.527344 C 161.039062 251.671875 145.546875 273.929688 156.054688 311.46875 L 104.390625 311.46875 C 104.390625 266.3125 80.414062 269.171875 74.707031 249.164062 L 47.566406 161.546875 C 45.691406 155.492188 49.101562 149.070312 55.164062 147.242188 C 60.753906 145.554688 66.710938 148.371094 68.964844 153.765625 L 93.546875 212.664062 C 94.699219 211.199219 96.21875 209.972656 98.070312 209.125 C 102.585938 207.066406 107.894531 207.941406 111.515625 211.339844 L 137.78125 236.03125 C 137.976562 236.210938 138.195312 236.382812 138.414062 236.527344 Z M 138.414062 236.527344 "/><path style=" stroke:none;fill-rule:nonzero;fill:#6c9fc2;fill-opacity:1;" d="M 236.488281 236.527344 C 213.863281 251.671875 229.355469 273.929688 218.84375 311.46875 L 270.507812 311.46875 C 270.507812 266.3125 294.484375 269.171875 300.195312 249.164062 L 327.332031 161.546875 C 329.207031 155.492188 325.796875 149.070312 319.738281 147.242188 C 314.148438 145.554688 308.1875 148.371094 305.9375 153.765625 L 281.355469 212.664062 C 280.203125 211.199219 278.683594 209.972656 276.832031 209.125 C 272.316406 207.066406 267.003906 207.941406 263.386719 211.339844 L 237.117188 236.03125 C 236.925781 236.210938 236.707031 236.382812 236.488281 236.527344 Z M 236.488281 236.527344 "/><path style=" stroke:none;fill-rule:nonzero;fill:#ca4948;fill-opacity:1;" d="M 187.773438 66.855469 C 227.386719 35.75 266.097656 90.640625 198.742188 135.699219 L 175.074219 135.699219 C 107.71875 90.640625 146.429688 35.75 186.042969 66.855469 C 186.539062 67.246094 187.277344 67.246094 187.773438 66.855469 Z M 187.773438 66.855469 "/><path style=" stroke:none;fill-rule:evenodd;fill:#172636;fill-opacity:1;" d="M 95.59375 210.070312 C 97.023438 211.199219 97.269531 213.28125 96.136719 214.714844 C 93.554688 217.984375 93.472656 222.839844 96.472656 226.214844 L 119.992188 252.683594 C 121.203125 254.046875 121.082031 256.136719 119.71875 257.351562 C 118.355469 258.566406 116.265625 258.445312 115.054688 257.078125 L 91.535156 230.609375 C 86.292969 224.710938 86.492188 216.265625 90.953125 210.613281 C 92.085938 209.179688 94.160156 208.9375 95.59375 210.070312 Z M 95.59375 210.070312 "/><path style=" stroke:none;fill-rule:evenodd;fill:#172636;fill-opacity:1;" d="M 279.308594 210.070312 C 277.878906 211.199219 277.632812 213.28125 278.765625 214.714844 C 281.34375 217.984375 281.429688 222.839844 278.429688 226.214844 L 254.910156 252.683594 C 253.699219 254.046875 253.820312 256.136719 255.183594 257.351562 C 256.546875 258.566406 258.632812 258.445312 259.847656 257.078125 L 283.367188 230.609375 C 288.609375 224.710938 288.40625 216.265625 283.949219 210.613281 C 282.816406 209.179688 280.738281 208.9375 279.308594 210.070312 Z M 279.308594 210.070312 "/><g clip-rule="nonzero" clip-path="url(#3509b24fcc)"><path style=" stroke:none;fill-rule:nonzero;fill:#172636;fill-opacity:1;" d="M 94.117188 316.042969 C 94.117188 313.515625 96.160156 311.46875 98.683594 311.46875 L 160.335938 311.46875 C 162.859375 311.46875 164.90625 313.515625 164.90625 316.042969 L 164.90625 334.90625 C 164.90625 337.433594 162.859375 339.480469 160.335938 339.480469 L 98.683594 339.480469 C 96.160156 339.480469 94.117188 337.433594 94.117188 334.90625 Z M 94.117188 316.042969 "/></g><g clip-rule="nonzero" clip-path="url(#c3cbcdb9d6)"><path style=" stroke:none;fill-rule:nonzero;fill:#172636;fill-opacity:1;" d="M 280.785156 316.042969 C 280.785156 313.515625 278.742188 311.46875 276.21875 311.46875 L 214.5625 311.46875 C 212.042969 311.46875 209.996094 313.515625 209.996094 316.042969 L 209.996094 334.90625 C 209.996094 337.433594 212.042969 339.480469 214.5625 339.480469 L 276.21875 339.480469 C 278.742188 339.480469 280.785156 337.433594 280.785156 334.90625 Z M 280.785156 316.042969 "/></g><path style=" stroke:none;fill-rule:nonzero;fill:#172636;fill-opacity:1;" d="M 207.527344 152.789062 C 207.527344 163.996094 198.453125 173.082031 187.261719 173.082031 C 176.070312 173.082031 166.996094 163.996094 166.996094 152.789062 C 166.996094 141.582031 176.070312 132.496094 187.261719 132.496094 C 198.453125 132.496094 207.527344 141.582031 207.527344 152.789062 Z M 207.527344 152.789062 "/><path style=" stroke:none;fill-rule:nonzero;fill:#172636;fill-opacity:1;" d="M 207.527344 152.789062 C 207.527344 163.996094 198.453125 173.082031 187.261719 173.082031 C 176.070312 173.082031 166.996094 163.996094 166.996094 152.789062 C 166.996094 141.582031 176.070312 132.496094 187.261719 132.496094 C 198.453125 132.496094 207.527344 141.582031 207.527344 152.789062 Z M 207.527344 152.789062 "/><path style=" stroke:none;fill-rule:nonzero;fill:#6c9fc2;fill-opacity:1;" d="M 147.957031 207.058594 C 147.957031 188.011719 163.382812 172.566406 182.40625 172.566406 L 191.71875 172.566406 C 210.746094 172.566406 226.167969 188.011719 226.167969 207.058594 C 226.167969 208.214844 225.234375 209.152344 224.078125 209.152344 L 150.046875 209.152344 C 148.894531 209.152344 147.957031 208.214844 147.957031 207.058594 Z M 147.957031 207.058594 "/><path style=" stroke:none;fill-rule:nonzero;fill:#6c9fc2;fill-opacity:1;" d="M 147.957031 207.058594 C 147.957031 188.011719 163.382812 172.566406 182.40625 172.566406 L 191.71875 172.566406 C 210.746094 172.566406 226.167969 188.011719 226.167969 207.058594 C 226.167969 208.214844 225.234375 209.152344 224.078125 209.152344 L 150.046875 209.152344 C 148.894531 209.152344 147.957031 208.214844 147.957031 207.058594 Z M 147.957031 207.058594 "/><path style=" stroke:none;fill-rule:nonzero;fill:#172636;fill-opacity:1;" d="M 151.953125 144.363281 C 151.953125 154.308594 143.902344 162.367188 133.972656 162.367188 C 124.039062 162.367188 115.988281 154.308594 115.988281 144.363281 C 115.988281 134.417969 124.039062 126.355469 133.972656 126.355469 C 143.902344 126.355469 151.953125 134.417969 151.953125 144.363281 Z M 151.953125 144.363281 "/><path style=" stroke:none;fill-rule:nonzero;fill:#6c9fc2;fill-opacity:1;" d="M 99.433594 191.886719 C 99.433594 175.21875 113.054688 161.707031 129.859375 161.707031 L 138.085938 161.707031 C 154.886719 161.707031 168.511719 175.21875 168.511719 191.886719 C 168.511719 192.898438 167.683594 193.71875 166.664062 193.71875 L 101.277344 193.71875 C 100.257812 193.71875 99.433594 192.898438 99.433594 191.886719 Z M 99.433594 191.886719 "/><path style=" stroke:none;fill-rule:nonzero;fill:#172636;fill-opacity:1;" d="M 260.421875 144.363281 C 260.421875 154.308594 252.371094 162.367188 242.4375 162.367188 C 232.507812 162.367188 224.457031 154.308594 224.457031 144.363281 C 224.457031 134.417969 232.507812 126.355469 242.4375 126.355469 C 252.371094 126.355469 260.421875 134.417969 260.421875 144.363281 Z M 260.421875 144.363281 "/><path style=" stroke:none;fill-rule:nonzero;fill:#6c9fc2;fill-opacity:1;" d="M 207.898438 191.886719 C 207.898438 175.21875 221.523438 161.707031 238.324219 161.707031 L 246.550781 161.707031 C 263.355469 161.707031 276.976562 175.21875 276.976562 191.886719 C 276.976562 192.898438 276.148438 193.71875 275.132812 193.71875 L 209.742188 193.71875 C 208.726562 193.71875 207.898438 192.898438 207.898438 191.886719 Z M 207.898438 191.886719 "/></g></svg>