<svg xmlns="http://www.w3.org/2000/svg" xmlns:xlink="http://www.w3.org/1999/xlink" width="500" zoomAndPan="magnify" viewBox="0 0 375 374.999991" height="500" preserveAspectRatio="xMidYMid meet" version="1.2"><defs><clipPath id="4e2b81016e"><path d="M 69.074219 55.550781 L 306 55.550781 L 306 319.550781 L 69.074219 319.550781 Z M 69.074219 55.550781 "/></clipPath></defs><g id="18651d1b55"><g clip-rule="nonzero" clip-path="url(#4e2b81016e)"><path style=" stroke:none;fill-rule:nonzero;fill:#ffffff;fill-opacity:1;" d="M 305.890625 151.84375 L 305.890625 174.5 C 305.890625 184.914062 297.457031 193.382812 287.09375 193.382812 C 276.730469 193.382812 268.296875 184.910156 268.296875 174.5 L 268.296875 157.988281 C 268.285156 157.804688 268.191406 157.648438 268.191406 157.460938 C 268.191406 111.675781 231.933594 74.429688 187.367188 74.429688 C 143.828125 74.429688 108.316406 110.003906 106.699219 154.332031 L 106.699219 178.277344 C 106.699219 190.773438 116.820312 200.9375 129.257812 200.9375 C 133.40625 200.9375 136.773438 204.316406 136.773438 208.488281 C 136.773438 212.660156 133.40625 216.039062 129.257812 216.039062 C 113.417969 216.039062 99.902344 206.117188 94.375 192.160156 C 92.347656 192.910156 90.1875 193.382812 87.902344 193.382812 C 77.539062 193.382812 69.109375 184.914062 69.109375 174.503906 L 69.109375 151.84375 C 69.109375 141.433594 77.539062 132.964844 87.902344 132.964844 C 88.863281 132.964844 89.789062 133.109375 90.710938 133.25 C 101.375 88.726562 140.605469 55.550781 187.367188 55.550781 C 234.140625 55.550781 273.378906 88.738281 284.035156 133.273438 C 285.035156 133.109375 286.046875 132.964844 287.09375 132.964844 C 297.457031 132.964844 305.890625 141.433594 305.890625 151.84375 Z M 249.347656 157.460938 C 249.347656 123.078125 221.597656 95.203125 187.367188 95.203125 C 153.136719 95.203125 125.390625 123.078125 125.390625 157.460938 C 125.390625 191.847656 153.136719 219.722656 187.367188 219.722656 C 221.597656 219.722656 249.347656 191.847656 249.347656 157.460938 Z M 249.066406 238.605469 L 227 238.605469 C 222.089844 238.605469 217.488281 241.015625 214.675781 245.058594 L 199.246094 267.242188 C 193.214844 275.917969 180.398438 275.832031 174.480469 267.074219 L 159.710938 245.222656 C 156.914062 241.082031 152.253906 238.601562 147.273438 238.601562 L 125.605469 238.601562 C 97.695312 238.601562 75.074219 261.328125 75.074219 289.363281 L 75.074219 311.890625 C 75.074219 316.0625 78.4375 319.441406 82.59375 319.441406 L 292.082031 319.441406 C 296.234375 319.441406 299.601562 316.0625 299.601562 311.890625 L 299.601562 289.363281 C 299.597656 261.332031 276.976562 238.605469 249.066406 238.605469 Z M 249.066406 238.605469 "/></g></g></svg>