<svg xmlns="http://www.w3.org/2000/svg" xmlns:xlink="http://www.w3.org/1999/xlink" width="500" zoomAndPan="magnify" viewBox="0 0 375 374.999991" height="500" preserveAspectRatio="xMidYMid meet" version="1.2"><defs><clipPath id="2b4abd763a"><path d="M 39.164062 214 L 320 214 L 320 304 L 39.164062 304 Z M 39.164062 214 "/></clipPath></defs><g id="213481f3cf"><path style=" stroke:none;fill-rule:evenodd;fill:#f23f51;fill-opacity:1;" d="M 219.15625 96.011719 C 177.394531 67.667969 136.363281 84.753906 124.554688 119.703125 C 121.269531 129.457031 120.226562 138.429688 120.957031 146.777344 L 93.664062 155.097656 L 171.789062 155.097656 L 184.511719 113.75 C 185.320312 111.097656 188.132812 109.613281 190.792969 110.421875 C 192.722656 111.019531 194.027344 112.628906 194.3125 114.503906 L 208.597656 185.132812 L 217.097656 158.609375 C 217.800781 156.476562 219.78125 155.125 221.894531 155.125 L 221.894531 155.097656 L 255.128906 155.097656 C 257.03125 151.171875 261.074219 148.441406 265.738281 148.441406 C 272.230469 148.441406 277.496094 153.667969 277.496094 160.144531 C 277.496094 166.617188 272.230469 171.871094 265.738281 171.871094 C 261.074219 171.871094 257.03125 169.140625 255.128906 165.1875 L 225.566406 165.1875 L 212.300781 206.613281 C 211.753906 208.277344 210.34375 209.632812 208.46875 209.996094 C 205.757812 210.542969 203.097656 208.773438 202.550781 206.042969 L 188.316406 135.644531 L 180.445312 161.261719 C 179.921875 163.496094 177.914062 165.1875 175.492188 165.1875 L 125.621094 165.1875 C 141.367188 202.273438 191.417969 227.210938 219.15625 258.027344 C 256.824219 216.160156 335.785156 185.082031 313.730469 119.703125 C 301.921875 84.753906 260.890625 67.667969 219.15625 96.011719 Z M 219.15625 96.011719 "/><path style=" stroke:none;fill-rule:evenodd;fill:#ffd0b5;fill-opacity:1;" d="M 240.84375 266.347656 C 240.84375 266.347656 282.421875 259.09375 300.957031 242.476562 C 311.515625 233.011719 311.074219 226.636719 307.761719 223.933594 C 305.78125 222.320312 303.851562 222.140625 302.027344 222.738281 C 296.394531 224.585938 273.144531 256.234375 240.84375 266.347656 Z M 240.84375 266.347656 "/><path style=" stroke:none;fill-rule:evenodd;fill:#ffd0b5;fill-opacity:1;" d="M 286.152344 231.890625 C 276.792969 241.226562 257.996094 257.167969 234.25 262.394531 C 253.878906 245.960938 271.371094 229.394531 278.175781 219.957031 C 282.214844 214.3125 288.316406 213.558594 291.546875 216.003906 C 298.039062 220.890625 289.539062 228.511719 286.152344 231.890625 Z M 286.152344 231.890625 "/><g clip-rule="nonzero" clip-path="url(#2b4abd763a)"><path style=" stroke:none;fill-rule:evenodd;fill:#ffd0b5;fill-opacity:1;" d="M 221.136719 238.289062 C 230.3125 237.820312 224.394531 253.945312 200.230469 256.179688 C 200.230469 256.179688 189.125 257.609375 171.917969 251.785156 C 164.882812 252.59375 172.441406 262.761719 197.285156 269.652344 C 222.152344 276.542969 270.277344 272.902344 309.769531 241.851562 C 314.148438 238.027344 318.972656 240.03125 319.597656 242.734375 C 320.484375 246.480469 317.042969 251.472656 311.621094 256.753906 C 281.746094 285.929688 237.300781 306.996094 195.070312 303.328125 C 110.839844 296.019531 115.039062 255.246094 39.597656 276.152344 C 131.773438 161.832031 143.375 242.425781 221.136719 238.289062 Z M 221.136719 238.289062 "/></g></g></svg>