<svg xmlns="http://www.w3.org/2000/svg" xmlns:xlink="http://www.w3.org/1999/xlink" width="500" zoomAndPan="magnify" viewBox="0 0 375 374.999991" height="500" preserveAspectRatio="xMidYMid meet" version="1.2"><defs><clipPath id="a81053641d"><path d="M 23.417969 67.925781 L 351.917969 67.925781 L 351.917969 307.175781 L 23.417969 307.175781 Z M 23.417969 67.925781 "/></clipPath></defs><g id="afdfd23480"><g clip-rule="nonzero" clip-path="url(#a81053641d)"><path style=" stroke:none;fill-rule:nonzero;fill:#545454;fill-opacity:1;" d="M 189.417969 166.324219 L 200.296875 149.027344 L 181.394531 130.128906 L 164.101562 141.003906 C 156.609375 136.28125 148.230469 132.800781 139.40625 130.753906 L 134.859375 110.871094 L 108.113281 110.871094 L 103.566406 130.753906 C 94.738281 132.800781 86.359375 136.28125 78.871094 141.003906 L 61.574219 130.128906 L 42.675781 149.027344 L 53.550781 166.324219 C 48.824219 173.8125 45.347656 182.191406 43.296875 191.019531 L 23.417969 195.566406 L 23.417969 222.3125 L 43.296875 226.859375 C 45.347656 235.683594 48.824219 244.066406 53.550781 251.554688 L 42.675781 268.847656 L 61.574219 287.75 L 78.871094 276.871094 C 86.359375 281.597656 94.738281 285.074219 103.566406 287.125 L 108.113281 307.007812 L 134.859375 307.007812 L 139.40625 287.125 C 148.230469 285.074219 156.609375 281.597656 164.101562 276.871094 L 181.394531 287.75 L 200.296875 268.847656 L 189.417969 251.554688 C 194.144531 244.066406 197.621094 235.683594 199.671875 226.859375 L 219.550781 222.3125 L 219.550781 195.566406 L 199.671875 191.019531 C 197.621094 182.191406 194.144531 173.8125 189.417969 166.324219 Z M 121.484375 262.429688 C 91.976562 262.429688 67.992188 238.449219 67.992188 208.9375 C 67.992188 179.429688 91.976562 155.449219 121.484375 155.449219 C 150.996094 155.449219 174.976562 179.429688 174.976562 208.9375 C 174.976562 238.449219 150.996094 262.429688 121.484375 262.429688 Z M 306.65625 127.363281 C 312.269531 141.003906 305.851562 156.695312 292.210938 162.3125 C 288.914062 163.648438 285.4375 164.363281 281.960938 164.363281 C 271.082031 164.363281 261.363281 157.855469 257.265625 147.867188 C 251.648438 134.230469 258.066406 118.539062 271.707031 112.921875 C 275.003906 111.585938 278.480469 110.871094 281.960938 110.871094 C 292.835938 110.871094 302.554688 117.378906 306.65625 127.363281 Z M 339.460938 127.898438 L 351.585938 119.339844 L 344.097656 101.332031 L 329.476562 103.828125 C 325.644531 98.390625 321.007812 93.84375 315.746094 90.097656 L 318.242188 75.476562 L 300.234375 67.988281 L 291.675781 80.113281 C 285.347656 79.042969 278.75 79.042969 272.242188 80.113281 L 263.683594 67.988281 L 245.675781 75.476562 L 248.171875 90.097656 C 242.730469 93.933594 238.1875 98.566406 234.441406 103.828125 L 219.820312 101.332031 L 212.332031 119.339844 L 224.457031 127.898438 C 223.386719 134.230469 223.386719 140.828125 224.457031 147.335938 L 212.332031 155.894531 L 219.820312 173.902344 L 234.441406 171.40625 C 238.273438 176.84375 242.910156 181.390625 248.171875 185.132812 L 245.675781 199.753906 L 263.683594 207.246094 L 272.242188 195.121094 C 278.570312 196.191406 285.167969 196.191406 291.675781 195.121094 L 300.234375 207.246094 L 318.242188 199.753906 L 315.746094 185.132812 C 321.1875 181.300781 325.734375 176.664062 329.476562 171.40625 L 344.097656 173.902344 L 351.585938 155.894531 L 339.460938 147.335938 C 340.53125 141.003906 340.53125 134.40625 339.460938 127.898438 Z M 295.601562 170.601562 C 291.140625 172.386719 286.507812 173.277344 281.960938 173.277344 C 267.960938 173.277344 254.679688 164.988281 248.972656 151.257812 C 241.484375 133.070312 250.132812 112.207031 268.320312 104.628906 C 272.777344 102.847656 277.414062 101.957031 281.960938 101.957031 C 295.957031 101.957031 309.238281 110.246094 314.945312 123.976562 C 322.433594 142.164062 313.785156 163.023438 295.601562 170.601562 Z M 147.070312 181.925781 L 157.503906 190.304688 L 113.105469 245.667969 L 86.269531 218.835938 L 95.71875 209.382812 L 112.035156 225.699219 Z M 147.070312 181.925781 "/></g></g></svg>