<svg xmlns="http://www.w3.org/2000/svg" xmlns:xlink="http://www.w3.org/1999/xlink" width="500" zoomAndPan="magnify" viewBox="0 0 375 374.999991" height="500" preserveAspectRatio="xMidYMid meet" version="1.2"><defs><clipPath id="e9adff2706"><path d="M 79.917969 105.855469 L 192.417969 105.855469 L 192.417969 218.355469 L 79.917969 218.355469 Z M 79.917969 105.855469 "/></clipPath><clipPath id="246d94822c"><path d="M 136.167969 105.855469 C 105.101562 105.855469 79.917969 131.039062 79.917969 162.105469 C 79.917969 193.167969 105.101562 218.355469 136.167969 218.355469 C 167.234375 218.355469 192.417969 193.167969 192.417969 162.105469 C 192.417969 131.039062 167.234375 105.855469 136.167969 105.855469 Z M 136.167969 105.855469 "/></clipPath><clipPath id="dc6f7d3ebf"><path d="M 49 46 L 150 46 L 150 136 L 49 136 Z M 49 46 "/></clipPath><clipPath id="4b440ba53c"><path d="M 137.933594 44.261719 L 152.046875 60.933594 L 61.410156 137.652344 L 47.296875 120.976562 Z M 137.933594 44.261719 "/></clipPath><clipPath id="70a3c7de0e"><path d="M 141.800781 48.960938 L 148.105469 56.410156 C 149.136719 57.625 149.636719 59.199219 149.507812 60.785156 C 149.375 62.371094 148.617188 63.839844 147.402344 64.867188 L 66.015625 133.75 C 64.800781 134.777344 63.226562 135.28125 61.640625 135.152344 C 60.054688 135.019531 58.589844 134.261719 57.558594 133.046875 L 51.253906 125.597656 C 50.226562 124.382812 49.722656 122.808594 49.855469 121.222656 C 49.988281 119.636719 50.742188 118.167969 51.957031 117.140625 L 133.34375 48.257812 C 134.558594 47.226562 136.132812 46.726562 137.71875 46.855469 C 139.304688 46.988281 140.773438 47.746094 141.800781 48.960938 Z M 141.800781 48.960938 "/></clipPath><clipPath id="5892c633b3"><path d="M 127 47 L 230 47 L 230 136 L 127 136 Z M 127 47 "/></clipPath><clipPath id="63082deb37"><path d="M 231.929688 120.65625 L 218.230469 137.671875 L 124.535156 62.253906 L 138.234375 45.238281 Z M 231.929688 120.65625 "/></clipPath><clipPath id="06eff37034"><path d="M 228.046875 125.34375 L 221.929688 132.945312 C 220.929688 134.1875 219.480469 134.976562 217.898438 135.148438 C 216.316406 135.320312 214.730469 134.855469 213.492188 133.859375 L 129.242188 66.042969 C 128.003906 65.046875 127.210938 63.59375 127.039062 62.011719 C 126.867188 60.429688 127.332031 58.847656 128.332031 57.605469 L 134.453125 50.003906 C 135.449219 48.765625 136.898438 47.972656 138.480469 47.800781 C 140.0625 47.628906 141.648438 48.09375 142.886719 49.089844 L 227.136719 116.90625 C 228.375 117.90625 229.167969 119.355469 229.339844 120.9375 C 229.511719 122.519531 229.046875 124.101562 228.046875 125.34375 Z M 228.046875 125.34375 "/></clipPath><clipPath id="328583387c"><path d="M 43 41.066406 L 332.984375 41.066406 L 332.984375 333 L 43 333 Z M 43 41.066406 "/></clipPath></defs><g id="ec624d8902"><g clip-rule="nonzero" clip-path="url(#e9adff2706)"><g clip-rule="nonzero" clip-path="url(#246d94822c)"><path style=" stroke:none;fill-rule:nonzero;fill:#0abfbc;fill-opacity:1;" d="M 79.917969 105.855469 L 192.417969 105.855469 L 192.417969 218.355469 L 79.917969 218.355469 Z M 79.917969 105.855469 "/></g></g><g clip-rule="nonzero" clip-path="url(#dc6f7d3ebf)"><g clip-rule="nonzero" clip-path="url(#4b440ba53c)"><g clip-rule="nonzero" clip-path="url(#70a3c7de0e)"><path style=" stroke:none;fill-rule:nonzero;fill:#0abfbc;fill-opacity:1;" d="M 137.925781 44.378906 L 151.984375 60.988281 L 61.410156 137.652344 L 47.351562 121.042969 Z M 137.925781 44.378906 "/></g></g></g><g clip-rule="nonzero" clip-path="url(#5892c633b3)"><g clip-rule="nonzero" clip-path="url(#63082deb37)"><g clip-rule="nonzero" clip-path="url(#06eff37034)"><path style=" stroke:none;fill-rule:nonzero;fill:#0abfbc;fill-opacity:1;" d="M 231.808594 120.667969 L 218.164062 137.621094 L 124.535156 62.253906 L 138.179688 45.304688 Z M 231.808594 120.667969 "/></g></g></g><path style=" stroke:none;fill-rule:evenodd;fill:#ffc500;fill-opacity:1;" d="M 203.703125 129.746094 L 203.703125 223.53125 C 203.703125 226.386719 201.300781 228.675781 198.484375 228.675781 L 139.835938 228.675781 L 139.871094 193.210938 L 140.902344 193.089844 C 158.464844 191.039062 171.714844 176.28125 171.714844 158.539062 C 171.714844 139.195312 156.050781 123.703125 136.949219 123.703125 C 117.726562 123.703125 102.113281 139.316406 102.113281 158.539062 C 102.113281 176.019531 115.203125 190.875 132.484375 193.015625 L 133.515625 193.144531 L 133.4375 228.675781 L 78.871094 228.675781 C 76.003906 228.675781 73.652344 226.3125 73.652344 223.53125 L 73.652344 129.632812 L 138.660156 76.46875 Z M 147.519531 158.539062 C 147.519531 152.679688 142.777344 147.894531 136.949219 147.894531 C 127.550781 147.894531 122.710938 159.367188 129.441406 166.023438 C 136.121094 172.632812 147.519531 167.90625 147.519531 158.539062 Z M 147.519531 158.539062 "/><g clip-rule="nonzero" clip-path="url(#328583387c)"><path style=" stroke:none;fill-rule:evenodd;fill:#2c8957;fill-opacity:1;" d="M 328.316406 164.820312 L 316.574219 164.820312 C 313.117188 156.460938 303.269531 154.675781 297.847656 161.886719 C 291.238281 170.671875 296.28125 185.109375 306.394531 185.109375 C 312.515625 185.109375 316.882812 179.574219 317.726562 173.589844 L 323.96875 173.589844 L 323.96875 200.011719 L 284.46875 239.472656 L 245.007812 200.011719 L 245.007812 173.589844 L 251.25 173.589844 C 252.824219 184.765625 264.566406 189.253906 271.128906 180.539062 C 277.824219 171.648438 272.660156 157.390625 262.582031 157.390625 C 257.921875 157.390625 254.15625 160.582031 252.402344 164.820312 L 240.621094 164.820312 C 238.207031 164.820312 236.238281 166.753906 236.238281 169.167969 L 236.238281 201.832031 C 236.238281 203.058594 236.757812 204.171875 237.539062 204.953125 L 280.121094 247.535156 L 280.269531 275.035156 C 280.3125 290.703125 270.273438 302.769531 256.265625 310.929688 C 241.320312 319.636719 221.980469 324 205.507812 323.191406 C 173.464844 321.617188 141.425781 305.65625 141.148438 270.054688 C 141.074219 261.394531 141.035156 249.914062 141 236.3125 L 198.484375 236.3125 C 205.484375 236.3125 211.265625 230.605469 211.265625 223.53125 L 211.265625 137.324219 C 221.210938 143.636719 233.75 135.542969 233.75 124.761719 C 233.75 120.597656 231.867188 116.460938 228.507812 113.726562 L 141.445312 42.457031 C 139.847656 41.117188 137.507812 41.082031 135.835938 42.417969 L 48.734375 113.726562 C 43.414062 118.03125 41.957031 125.691406 45.167969 131.488281 C 49.160156 138.703125 58.484375 142.117188 66.085938 137.25 L 66.085938 223.53125 C 66.085938 230.601562 71.871094 236.3125 78.871094 236.3125 L 132.265625 236.3125 C 132.265625 249.914062 132.34375 261.433594 132.453125 270.089844 C 132.835938 310.859375 168.296875 330.113281 205.097656 331.921875 C 238.820312 333.578125 289.019531 314.980469 288.964844 274.996094 L 288.890625 247.5 L 331.4375 204.953125 C 332.007812 204.359375 332.394531 203.667969 332.589844 202.941406 L 332.589844 168.039062 C 332.089844 166.179688 330.375 164.820312 328.316406 164.820312 Z M 307.953125 175.296875 C 305.023438 179.132812 301.839844 171.085938 304.796875 167.199219 C 307.6875 163.398438 310.859375 171.167969 307.953125 175.296875 Z M 262.582031 166.15625 C 264.707031 166.15625 266.769531 171.8125 264.144531 175.300781 C 261.925781 178.25 259.835938 174.101562 259.835938 171.25 C 259.832031 168.921875 261.117188 166.15625 262.582031 166.15625 Z M 58.398438 130.78125 C 56.074219 130.78125 53.78125 128.953125 52.859375 127.289062 C 52.089844 125.894531 52.066406 123.824219 52.785156 122.347656 C 53.121094 121.679688 53.640625 121.082031 54.308594 120.488281 L 138.660156 51.449219 L 222.972656 120.488281 C 225.632812 122.742188 225.65625 126.738281 222.972656 129 C 221.691406 130.078125 220.578125 130.78125 218.847656 130.78125 C 217.621094 130.78125 216.433594 130.335938 215.394531 129.484375 L 209.632812 124.800781 L 141.410156 68.949219 C 139.738281 67.613281 137.394531 67.648438 135.796875 68.988281 L 67.761719 124.6875 L 61.851562 129.480469 C 60.8125 130.335938 59.621094 130.78125 58.398438 130.78125 Z M 76.007812 226.316406 C 75.304688 225.613281 74.820312 224.609375 74.820312 223.53125 L 74.820312 130.1875 L 138.660156 77.980469 L 202.535156 130.300781 L 202.535156 223.53125 C 202.535156 225.730469 200.667969 227.507812 198.484375 227.507812 L 141 227.507812 C 140.960938 217.324219 141 206.105469 141.035156 194.25 C 159.125 192.140625 172.882812 176.964844 172.882812 158.539062 C 172.882812 138.53125 156.691406 122.535156 136.949219 122.535156 C 117.082031 122.535156 100.941406 138.671875 100.941406 158.539062 C 100.941406 176.683594 114.546875 191.972656 132.34375 194.175781 C 132.265625 206.105469 132.265625 217.289062 132.265625 227.507812 L 78.871094 227.507812 C 77.757812 227.507812 76.753906 227.0625 76.007812 226.316406 Z M 136.949219 185.742188 C 121.867188 185.742188 109.710938 173.53125 109.710938 158.539062 C 109.710938 143.503906 121.914062 131.304688 136.949219 131.304688 C 151.941406 131.304688 164.148438 143.457031 164.148438 158.539062 C 164.148438 173.578125 151.992188 185.742188 136.949219 185.742188 Z M 136.949219 140.332031 C 141.964844 140.332031 146.5 142.339844 149.808594 145.648438 C 156.859375 152.742188 156.894531 164.3125 149.808594 171.398438 C 142.726562 178.480469 131.125 178.46875 124.054688 171.398438 C 112.730469 160.070312 120.605469 140.332031 136.949219 140.332031 Z M 143.601562 165.191406 C 137.488281 171.171875 127.472656 166.707031 127.472656 158.539062 C 127.472656 150.15625 137.699219 145.882812 143.601562 151.851562 C 147.246094 155.539062 147.28125 161.429688 143.601562 165.191406 Z M 143.601562 165.191406 "/></g></g></svg>