<svg xmlns="http://www.w3.org/2000/svg" xmlns:xlink="http://www.w3.org/1999/xlink" width="500" zoomAndPan="magnify" viewBox="0 0 375 374.999991" height="500" preserveAspectRatio="xMidYMid meet" version="1.2"><defs><clipPath id="41072adaa1"><path d="M 70.769531 62 L 304 62 L 304 314.8125 L 70.769531 314.8125 Z M 70.769531 62 "/></clipPath></defs><g id="4def7cd1f8"><g clip-rule="nonzero" clip-path="url(#41072adaa1)"><path style=" stroke:none;fill-rule:evenodd;fill:#ffffff;fill-opacity:1;" d="M 118.597656 198.480469 C 104.324219 198.480469 92.753906 210.050781 92.753906 224.328125 C 92.753906 238.601562 104.324219 250.171875 118.597656 250.171875 C 132.875 250.171875 144.445312 238.601562 144.445312 224.328125 C 144.445312 210.050781 132.875 198.480469 118.597656 198.480469 Z M 199.242188 112.8125 C 201.824219 110.214844 206.023438 110.203125 208.621094 112.785156 C 211.214844 115.367188 211.226562 119.566406 208.644531 122.160156 L 186.5 144.515625 C 183.9375 147.09375 179.777344 147.121094 177.179688 144.589844 L 166.222656 133.910156 C 163.597656 131.359375 163.539062 127.160156 166.09375 124.535156 C 168.644531 121.910156 172.84375 121.851562 175.46875 124.40625 L 181.71875 130.5 Z M 240.230469 159.898438 C 249.933594 156.542969 254.375 142.867188 248.503906 134.445312 C 246.03125 130.90625 246.03125 126.417969 248.503906 122.878906 C 254.375 114.460938 249.933594 100.78125 240.230469 97.421875 C 236.152344 96.011719 233.515625 92.382812 233.433594 88.066406 C 233.234375 77.800781 221.601562 69.347656 211.78125 72.332031 C 207.648438 73.589844 203.382812 72.203125 200.777344 68.757812 C 194.585938 60.570312 180.203125 60.570312 174.011719 68.757812 C 171.410156 72.203125 167.140625 73.589844 163.011719 72.332031 C 153.1875 69.347656 141.554688 77.800781 141.359375 88.0625 C 141.277344 92.382812 138.640625 96.011719 134.558594 97.421875 C 124.859375 100.78125 120.414062 114.457031 126.285156 122.878906 C 128.757812 126.417969 128.757812 130.90625 126.289062 134.445312 C 120.414062 142.863281 124.859375 156.542969 134.558594 159.898438 C 138.636719 161.3125 141.277344 164.941406 141.359375 169.257812 C 141.554688 179.523438 153.1875 187.976562 163.011719 184.992188 C 167.140625 183.734375 171.410156 185.121094 174.011719 188.566406 C 180.203125 196.753906 194.585938 196.753906 200.777344 188.566406 C 203.382812 185.121094 207.648438 183.734375 211.78125 184.992188 C 221.601562 187.976562 233.234375 179.523438 233.433594 169.261719 C 233.515625 164.941406 236.152344 161.3125 240.230469 159.898438 Z M 187.394531 91.613281 C 166.933594 91.613281 150.34375 108.199219 150.34375 128.664062 C 150.34375 149.125 166.933594 165.710938 187.394531 165.710938 C 207.855469 165.710938 224.445312 149.125 224.445312 128.664062 C 224.445312 108.199219 207.855469 91.613281 187.394531 91.613281 Z M 136.09375 310.34375 C 138.082031 283.832031 160.398438 262.757812 187.394531 262.757812 C 214.394531 262.757812 236.707031 283.832031 238.695312 310.34375 C 238.855469 312.4375 237.21875 314.203125 235.117188 314.203125 L 139.671875 314.203125 C 137.570312 314.203125 135.9375 312.4375 136.09375 310.34375 Z M 187.394531 204.460938 C 172.039062 204.460938 159.589844 216.910156 159.589844 232.265625 C 159.589844 247.625 172.039062 260.070312 187.394531 260.070312 C 202.75 260.070312 215.199219 247.625 215.199219 232.265625 C 215.199219 216.910156 202.75 204.460938 187.394531 204.460938 Z M 222.796875 266.339844 C 233.894531 274.570312 242.085938 286.570312 245.386719 300.488281 L 300.550781 300.488281 C 302.503906 300.488281 304.023438 298.851562 303.875 296.902344 C 302.027344 272.257812 281.285156 252.667969 256.191406 252.667969 C 243.230469 252.667969 231.433594 257.894531 222.796875 266.339844 Z M 70.914062 296.902344 C 70.765625 298.851562 72.285156 300.488281 74.238281 300.488281 L 129.40625 300.488281 C 132.707031 286.570312 140.894531 274.570312 151.992188 266.339844 C 143.355469 257.894531 131.558594 252.667969 118.597656 252.667969 C 93.503906 252.667969 72.761719 272.257812 70.914062 296.902344 Z M 256.191406 198.480469 C 241.914062 198.480469 230.34375 210.050781 230.34375 224.328125 C 230.34375 238.601562 241.914062 250.171875 256.191406 250.171875 C 270.464844 250.171875 282.035156 238.601562 282.035156 224.328125 C 282.035156 210.050781 270.464844 198.480469 256.191406 198.480469 Z M 256.191406 198.480469 "/></g></g></svg>