<svg xmlns="http://www.w3.org/2000/svg" xmlns:xlink="http://www.w3.org/1999/xlink" width="500" zoomAndPan="magnify" viewBox="0 0 375 374.999991" height="500" preserveAspectRatio="xMidYMid meet" version="1.2"><defs><clipPath id="2e69f7714f"><path d="M 124 113.242188 L 251 113.242188 L 251 240 L 124 240 Z M 124 113.242188 "/></clipPath><clipPath id="7f4f6d98b8"><path d="M 95 246 L 280 246 L 280 329.992188 L 95 329.992188 Z M 95 246 "/></clipPath></defs><g id="50047c0030"><path style=" stroke:none;fill-rule:nonzero;fill:#545454;fill-opacity:1;" d="M 187.320312 115.375 C 153.742188 115.375 126.417969 142.703125 126.417969 176.285156 C 126.417969 209.863281 153.742188 237.191406 187.320312 237.191406 C 220.902344 237.191406 248.226562 209.863281 248.226562 176.285156 C 248.226562 142.703125 220.902344 115.375 187.320312 115.375 "/><g clip-rule="nonzero" clip-path="url(#2e69f7714f)"><path style=" stroke:none;fill-rule:nonzero;fill:#ffffff;fill-opacity:1;" d="M 187.320312 115.375 L 187.320312 113.238281 C 152.558594 113.246094 124.285156 141.515625 124.28125 176.285156 C 124.285156 211.050781 152.558594 239.324219 187.320312 239.328125 C 222.085938 239.324219 250.359375 211.050781 250.363281 176.285156 C 250.359375 141.515625 222.085938 113.246094 187.320312 113.238281 L 187.320312 117.511719 C 203.527344 117.511719 218.203125 124.101562 228.859375 134.746094 C 239.503906 145.394531 246.089844 160.078125 246.089844 176.285156 C 246.089844 192.488281 239.503906 207.171875 228.859375 217.820312 C 218.203125 228.464844 203.527344 235.050781 187.320312 235.054688 C 171.117188 235.050781 156.4375 228.464844 145.785156 217.820312 C 135.140625 207.171875 128.554688 192.488281 128.554688 176.285156 C 128.554688 160.078125 135.140625 145.394531 145.785156 134.746094 C 156.4375 124.101562 171.117188 117.511719 187.320312 117.511719 L 187.320312 115.375 "/></g><path style=" stroke:none;fill-rule:nonzero;fill:#545454;fill-opacity:1;" d="M 97.582031 325.113281 L 97.214844 327.503906 L 277.4375 327.503906 L 277.0625 325.113281 C 270.128906 280.566406 232.398438 248.238281 187.332031 248.238281 C 142.253906 248.238281 104.515625 280.566406 97.582031 325.113281 "/><g clip-rule="nonzero" clip-path="url(#7f4f6d98b8)"><path style=" stroke:none;fill-rule:nonzero;fill:#ffffff;fill-opacity:1;" d="M 97.582031 325.113281 L 95.472656 324.789062 L 95.101562 327.179688 C 95.003906 327.796875 95.1875 328.421875 95.59375 328.898438 C 96 329.371094 96.589844 329.640625 97.214844 329.640625 L 277.4375 329.640625 C 278.058594 329.640625 278.652344 329.371094 279.058594 328.894531 C 279.464844 328.417969 279.640625 327.792969 279.546875 327.175781 L 279.171875 324.785156 L 279.171875 324.789062 C 275.628906 302.007812 264.195312 282.324219 247.886719 268.347656 C 231.574219 254.375 210.375 246.101562 187.332031 246.101562 C 164.277344 246.101562 143.074219 254.375 126.765625 268.347656 C 110.449219 282.324219 99.015625 302.007812 95.472656 324.789062 L 97.582031 325.113281 L 99.695312 325.441406 C 103.085938 303.679688 113.984375 284.921875 129.542969 271.59375 C 145.101562 258.265625 165.308594 250.375 187.332031 250.375 C 209.347656 250.375 229.550781 258.265625 245.105469 271.59375 C 260.660156 284.921875 271.558594 303.679688 274.949219 325.441406 L 274.949219 325.445312 L 275.324219 327.835938 L 277.4375 327.503906 L 277.4375 325.367188 L 97.214844 325.367188 L 97.214844 327.503906 L 99.324219 327.832031 L 99.695312 325.441406 L 97.582031 325.113281 "/></g><path style=" stroke:none;fill-rule:nonzero;fill:#545454;fill-opacity:1;" d="M 241.082031 218.671875 L 242.550781 219.859375 C 250.652344 226.457031 260.441406 230.15625 270.84375 230.558594 C 271.472656 230.582031 272.105469 230.597656 272.71875 230.597656 L 272.726562 230.597656 C 298.5625 230.597656 319.582031 210.355469 320.589844 184.507812 C 321.605469 158.097656 300.941406 135.777344 274.539062 134.761719 C 265.71875 134.417969 257.015625 136.546875 249.347656 140.851562 L 248.117188 141.539062 L 248.304688 142.933594 C 248.433594 143.953125 248.519531 144.984375 248.597656 146.023438 L 248.820312 147.34375 C 259.027344 169.449219 256.523438 195.527344 242.132812 217.105469 L 241.082031 218.671875 "/><path style=" stroke:none;fill-rule:nonzero;fill:#ffffff;fill-opacity:1;" d="M 241.082031 218.671875 L 239.738281 220.332031 L 241.203125 221.519531 L 241.199219 221.519531 C 249.652344 228.398438 259.90625 232.277344 270.761719 232.695312 L 270.765625 232.695312 C 271.414062 232.71875 272.066406 232.734375 272.71875 232.734375 L 272.726562 232.734375 C 286.207031 232.738281 298.460938 227.445312 307.453125 218.785156 C 316.445312 210.125 322.199219 198.078125 322.726562 184.59375 C 322.75 183.9375 322.761719 183.289062 322.761719 182.644531 C 322.761719 169.277344 317.453125 157.023438 308.789062 148 C 300.128906 138.972656 288.078125 133.144531 274.621094 132.628906 C 273.976562 132.601562 273.332031 132.589844 272.691406 132.589844 C 264.136719 132.589844 255.746094 134.804688 248.300781 138.984375 L 247.074219 139.675781 C 246.308594 140.109375 245.882812 140.953125 246 141.820312 L 246.183594 143.210938 L 246.183594 143.207031 C 246.308594 144.15625 246.386719 145.152344 246.46875 146.1875 L 246.492188 146.375 L 246.707031 147.691406 C 246.742188 147.890625 246.792969 148.058594 246.875 148.238281 C 250.898438 156.945312 252.882812 166.289062 252.882812 175.730469 C 252.882812 189.492188 248.664062 203.457031 240.355469 215.921875 L 240.359375 215.914062 L 239.308594 217.484375 C 238.691406 218.398438 238.878906 219.636719 239.738281 220.332031 L 241.082031 218.671875 L 242.855469 219.863281 L 243.90625 218.292969 L 243.910156 218.289062 C 252.667969 205.15625 257.15625 190.363281 257.15625 175.730469 C 257.15625 165.691406 255.042969 155.726562 250.753906 146.445312 L 248.820312 147.34375 L 250.925781 146.992188 L 250.703125 145.671875 L 248.597656 146.023438 L 250.726562 145.855469 C 250.648438 144.816406 250.566406 143.75 250.421875 142.65625 L 250.421875 142.648438 L 250.238281 141.257812 L 248.117188 141.539062 L 249.164062 143.402344 L 250.394531 142.714844 C 257.207031 138.886719 264.875 136.863281 272.691406 136.863281 C 273.277344 136.863281 273.863281 136.875 274.453125 136.898438 C 286.773438 137.375 297.769531 142.691406 305.707031 150.957031 C 313.640625 159.226562 318.484375 170.417969 318.488281 182.644531 C 318.488281 183.238281 318.476562 183.832031 318.457031 184.425781 C 317.972656 196.789062 312.714844 207.78125 304.488281 215.707031 C 296.257812 223.625 285.082031 228.460938 272.726562 228.460938 L 272.71875 228.460938 C 272.136719 228.460938 271.535156 228.445312 270.921875 228.421875 L 270.925781 228.421875 C 260.980469 228.035156 251.652344 224.511719 243.898438 218.203125 L 243.894531 218.199219 L 242.429688 217.011719 L 241.082031 218.671875 L 242.855469 219.863281 L 241.082031 218.671875 "/><path style=" stroke:none;fill-rule:nonzero;fill:#545454;fill-opacity:1;" d="M 261.863281 241.875 C 250.183594 241.875 238.957031 244.429688 228.492188 249.464844 L 223.964844 251.648438 L 228.71875 253.292969 C 249.507812 260.464844 267.1875 280.460938 277.230469 308.148438 L 277.726562 309.511719 L 338.390625 309.511719 L 338.023438 307.125 C 332.140625 269.3125 300.109375 241.875 261.863281 241.875 "/><path style=" stroke:none;fill-rule:nonzero;fill:#ffffff;fill-opacity:1;" d="M 261.863281 241.875 L 261.863281 239.738281 C 249.875 239.738281 238.316406 242.363281 227.566406 247.542969 L 223.035156 249.722656 C 222.257812 250.101562 221.78125 250.910156 221.832031 251.773438 C 221.878906 252.636719 222.449219 253.386719 223.265625 253.667969 L 228.019531 255.3125 C 238.011719 258.757812 247.332031 265.316406 255.402344 274.445312 C 263.472656 283.566406 270.277344 295.257812 275.21875 308.875 L 275.714844 310.242188 C 276.023438 311.085938 276.828125 311.648438 277.726562 311.648438 L 338.390625 311.648438 C 339.015625 311.648438 339.605469 311.378906 340.011719 310.902344 C 340.417969 310.429688 340.597656 309.804688 340.503906 309.1875 L 340.132812 306.796875 C 337.113281 287.382812 327.367188 270.605469 313.46875 258.695312 C 299.570312 246.789062 281.5 239.738281 261.863281 239.738281 L 261.863281 244.011719 C 280.472656 244.011719 297.539062 250.679688 310.691406 261.941406 C 323.832031 273.207031 333.046875 289.054688 335.910156 307.453125 L 336.28125 309.839844 L 338.390625 309.511719 L 338.390625 307.375 L 277.726562 307.375 L 277.726562 309.511719 L 279.734375 308.785156 L 279.234375 307.417969 C 274.132812 293.351562 267.082031 281.199219 258.601562 271.613281 C 250.128906 262.027344 240.214844 254.996094 229.414062 251.273438 L 224.65625 249.628906 L 223.964844 251.648438 L 224.886719 253.574219 L 229.417969 251.390625 C 239.601562 246.492188 250.496094 244.011719 261.863281 244.011719 L 261.863281 241.875 "/><path style=" stroke:none;fill-rule:nonzero;fill:#545454;fill-opacity:1;" d="M 100.113281 134.761719 C 73.699219 135.777344 53.039062 158.097656 54.058594 184.507812 C 55.054688 210.355469 76.078125 230.597656 101.925781 230.597656 C 102.546875 230.597656 103.171875 230.582031 103.804688 230.558594 C 114.207031 230.15625 123.988281 226.457031 132.101562 219.859375 L 133.554688 218.671875 L 132.515625 217.105469 C 118.121094 195.527344 115.617188 169.449219 125.824219 147.34375 L 126.054688 146.023438 C 126.132812 144.984375 126.203125 143.953125 126.339844 142.933594 L 126.527344 141.539062 L 125.300781 140.851562 C 117.628906 136.546875 108.910156 134.417969 100.113281 134.761719 "/><path style=" stroke:none;fill-rule:nonzero;fill:#ffffff;fill-opacity:1;" d="M 100.113281 134.761719 L 100.03125 132.628906 C 86.566406 133.144531 74.515625 138.96875 65.859375 147.996094 C 57.195312 157.019531 51.886719 169.269531 51.890625 182.632812 C 51.886719 183.28125 51.898438 183.933594 51.925781 184.597656 L 51.925781 184.589844 C 52.445312 198.074219 58.195312 210.125 67.191406 218.785156 C 76.179688 227.445312 88.4375 232.738281 101.925781 232.734375 C 102.582031 232.734375 103.230469 232.71875 103.882812 232.695312 L 103.890625 232.695312 C 114.746094 232.277344 124.984375 228.398438 133.449219 221.519531 L 133.453125 221.515625 L 134.90625 220.328125 C 135.757812 219.632812 135.941406 218.40625 135.335938 217.492188 L 134.300781 215.925781 L 134.296875 215.917969 C 125.980469 203.453125 121.761719 189.484375 121.761719 175.722656 C 121.761719 166.285156 123.742188 156.945312 127.761719 148.238281 C 127.835938 148.074219 127.894531 147.886719 127.925781 147.710938 L 128.15625 146.390625 C 128.171875 146.304688 128.175781 146.277344 128.183594 146.191406 C 128.261719 145.136719 128.332031 144.144531 128.457031 143.21875 L 128.460938 143.210938 L 128.644531 141.820312 C 128.757812 140.960938 128.332031 140.109375 127.574219 139.679688 L 126.351562 138.988281 L 126.347656 138.984375 C 118.894531 134.804688 110.492188 132.589844 101.957031 132.589844 C 101.316406 132.589844 100.671875 132.601562 100.027344 132.628906 L 100.03125 132.628906 L 100.113281 134.761719 L 100.195312 136.898438 C 100.78125 136.875 101.367188 136.863281 101.957031 136.863281 C 109.75 136.863281 117.441406 138.886719 124.257812 142.714844 L 124.253906 142.710938 L 125.476562 143.402344 L 126.527344 141.539062 L 124.40625 141.257812 L 124.222656 142.648438 L 124.222656 142.644531 C 124.074219 143.761719 124.003906 144.835938 123.921875 145.855469 L 126.054688 146.023438 L 123.945312 145.652344 L 123.714844 146.972656 L 125.824219 147.34375 L 123.878906 146.445312 C 119.597656 155.726562 117.484375 165.683594 117.488281 175.722656 C 117.488281 190.359375 121.976562 205.15625 130.742188 218.292969 L 130.738281 218.285156 L 131.777344 219.851562 L 133.554688 218.671875 L 132.203125 217.019531 L 130.75 218.207031 L 130.753906 218.203125 C 122.984375 224.511719 113.671875 228.035156 103.722656 228.421875 L 103.730469 228.421875 C 103.113281 228.445312 102.515625 228.460938 101.925781 228.460938 C 89.5625 228.460938 78.382812 223.625 70.152344 215.707031 C 61.929688 207.78125 56.671875 196.789062 56.195312 184.425781 L 56.195312 184.421875 C 56.171875 183.824219 56.160156 183.230469 56.160156 182.632812 C 56.164062 170.410156 61.007812 159.222656 68.9375 150.953125 C 76.875 142.691406 87.871094 137.375 100.195312 136.898438 L 100.113281 134.761719 "/><path style=" stroke:none;fill-rule:nonzero;fill:#545454;fill-opacity:1;" d="M 36.25 309.511719 L 96.917969 309.511719 L 97.417969 308.148438 C 107.460938 280.460938 125.140625 260.464844 145.921875 253.292969 L 150.683594 251.648438 L 146.152344 249.464844 C 135.6875 244.429688 124.460938 241.875 112.789062 241.875 C 74.539062 241.875 42.503906 269.3125 36.621094 307.125 L 36.25 309.511719 "/><path style=" stroke:none;fill-rule:nonzero;fill:#ffffff;fill-opacity:1;" d="M 36.25 309.511719 L 36.25 311.648438 L 96.917969 311.648438 C 97.816406 311.648438 98.621094 311.085938 98.929688 310.242188 L 99.425781 308.875 C 104.367188 295.257812 111.171875 283.566406 119.242188 274.445312 C 127.316406 265.316406 136.632812 258.757812 146.617188 255.3125 L 151.378906 253.667969 C 152.195312 253.386719 152.765625 252.636719 152.816406 251.773438 C 152.863281 250.910156 152.386719 250.101562 151.609375 249.722656 L 147.078125 247.542969 C 136.328125 242.363281 124.769531 239.738281 112.789062 239.738281 C 93.148438 239.738281 75.078125 246.789062 61.179688 258.695312 C 47.277344 270.605469 37.53125 287.382812 34.511719 306.792969 L 34.511719 306.789062 L 34.136719 309.179688 C 34.039062 309.796875 34.214844 310.425781 34.621094 310.898438 C 35.03125 311.378906 35.621094 311.648438 36.25 311.648438 L 36.25 309.511719 L 38.359375 309.84375 L 38.734375 307.453125 C 41.597656 289.054688 50.8125 273.207031 63.957031 261.941406 C 77.109375 250.679688 94.175781 244.011719 112.789062 244.011719 C 124.148438 244.011719 135.042969 246.492188 145.226562 251.390625 L 149.757812 253.574219 L 150.683594 251.648438 L 149.988281 249.628906 L 145.222656 251.273438 C 134.429688 255 124.519531 262.027344 116.042969 271.613281 C 107.566406 281.199219 100.511719 293.351562 95.410156 307.417969 L 94.914062 308.785156 L 96.917969 309.511719 L 96.917969 307.375 L 36.25 307.375 L 36.25 309.511719 L 38.359375 309.84375 L 36.25 309.511719 "/></g></svg>