<svg xmlns="http://www.w3.org/2000/svg" xmlns:xlink="http://www.w3.org/1999/xlink" width="500" zoomAndPan="magnify" viewBox="0 0 375 374.999991" height="500" preserveAspectRatio="xMidYMid meet" version="1.2"><defs><clipPath id="20065ed283"><path d="M 36.007812 43.203125 L 339 43.203125 L 339 331.953125 L 36.007812 331.953125 Z M 36.007812 43.203125 "/></clipPath></defs><g id="4bf3e84205"><g clip-rule="nonzero" clip-path="url(#20065ed283)"><path style=" stroke:none;fill-rule:nonzero;fill:#ffffff;fill-opacity:1;" d="M 264.300781 92.933594 C 264.300781 79.03125 275.574219 67.757812 289.476562 67.757812 C 303.382812 67.757812 314.652344 79.03125 314.652344 92.933594 C 314.652344 106.839844 303.378906 118.109375 289.476562 118.109375 C 275.574219 118.109375 264.300781 106.839844 264.300781 92.933594 Z M 221.007812 141.667969 C 193.003906 113.195312 155.785156 128.214844 156.386719 161.328125 C 156.929688 191.074219 197.609375 220.882812 219.722656 233.875 C 220.535156 234.351562 221.476562 234.351562 222.289062 233.875 C 244.402344 220.882812 285.085938 191.070312 285.621094 161.324219 C 286.222656 128.210938 249.003906 113.199219 221.007812 141.667969 Z M 152.535156 118.109375 C 166.441406 118.109375 177.710938 106.839844 177.710938 92.933594 C 177.710938 79.03125 166.441406 67.757812 152.535156 67.757812 C 138.632812 67.757812 127.359375 79.03125 127.359375 92.933594 C 127.359375 106.839844 138.632812 118.109375 152.535156 118.109375 Z M 221.007812 129.097656 C 232.046875 120.53125 245.707031 115.609375 259.535156 117.664062 C 250.402344 106.523438 236.535156 99.410156 221.007812 99.410156 C 205.476562 99.410156 191.609375 106.523438 182.480469 117.664062 C 196.304688 115.609375 209.964844 120.53125 221.007812 129.097656 Z M 221.007812 93.53125 C 234.910156 93.53125 246.183594 82.257812 246.183594 68.355469 C 246.183594 54.449219 234.910156 43.179688 221.007812 43.179688 C 207.101562 43.179688 195.832031 54.449219 195.832031 68.355469 C 195.832031 82.257812 207.101562 93.53125 221.007812 93.53125 Z M 105.035156 168.425781 L 147.671875 168.425781 C 144.746094 152.027344 150.871094 134.839844 163.828125 125.28125 C 160.199219 124.4375 156.417969 123.992188 152.535156 123.992188 C 127.542969 123.992188 106.855469 142.402344 103.289062 166.402344 C 103.128906 167.472656 103.949219 168.425781 105.035156 168.425781 Z M 103.476562 317.558594 C 104.382812 319.160156 103.8125 321.242188 102.195312 322.15625 L 86.824219 330.855469 C 85.222656 331.761719 83.140625 331.1875 82.226562 329.574219 L 37.03125 249.71875 C 36.125 248.117188 36.699219 246.035156 38.3125 245.121094 L 53.6875 236.417969 C 55.28125 235.519531 57.34375 236.074219 58.285156 237.703125 C 73.703125 263.914062 88.476562 291.046875 103.476562 317.558594 Z M 58.226562 251.996094 C 57.789062 248.996094 55 246.917969 52 247.359375 C 49 247.796875 46.925781 250.582031 47.363281 253.582031 C 47.804688 256.582031 50.589844 258.65625 53.589844 258.21875 C 56.589844 257.78125 58.664062 254.992188 58.226562 251.996094 Z M 313.117188 223.707031 C 304.894531 219.542969 292.234375 225.4375 284.472656 229.957031 L 229.683594 261.871094 C 221.074219 266.882812 211.957031 268.257812 202.171875 266.695312 C 200.15625 266.527344 197.421875 265.933594 195.355469 265.589844 C 187.480469 264.277344 178.179688 261.402344 170.414062 259.183594 C 166.511719 258.070312 162.550781 256.9375 158.648438 255.894531 C 156.144531 255.222656 154.652344 252.648438 155.324219 250.140625 C 155.992188 247.632812 158.570312 246.144531 161.074219 246.816406 C 165.277344 247.941406 169.160156 249.050781 172.988281 250.144531 C 181.027344 252.4375 188.78125 254.863281 196.703125 256.292969 C 202.753906 257.386719 208.058594 254.816406 209.703125 248.679688 C 211.257812 242.871094 207.585938 237.371094 202.097656 235.472656 L 157.128906 222.152344 C 152.675781 220.835938 148.8125 219.144531 145.527344 218.082031 C 135.015625 214.671875 124.996094 219.238281 115.988281 224.453125 L 75 248.1875 L 102.28125 296.394531 L 113.402344 289.972656 C 114.519531 289.332031 115.789062 289.199219 116.945312 289.5 L 189.066406 308.820312 C 198.195312 311.265625 206.839844 310.160156 214.914062 305.1875 C 248.054688 284.785156 281.203125 264.390625 314.34375 243.984375 C 317.671875 241.933594 319.316406 237.234375 318.84375 232.660156 C 318.453125 228.882812 316.578125 225.460938 313.117188 223.707031 Z M 338.722656 166.402344 C 335.15625 142.402344 314.46875 123.992188 289.476562 123.992188 C 285.59375 123.992188 281.8125 124.4375 278.183594 125.277344 C 291.140625 134.839844 297.261719 152.027344 294.339844 168.425781 L 336.976562 168.425781 C 338.0625 168.425781 338.882812 167.472656 338.722656 166.402344 Z M 338.722656 166.402344 "/></g></g></svg>