<svg xmlns="http://www.w3.org/2000/svg" xmlns:xlink="http://www.w3.org/1999/xlink" width="500" zoomAndPan="magnify" viewBox="0 0 375 374.999991" height="500" preserveAspectRatio="xMidYMid meet" version="1.2"><defs><clipPath id="14d990296b"><path d="M 55 29.777344 L 320 29.777344 L 320 145 L 55 145 Z M 55 29.777344 "/></clipPath><clipPath id="245d9c898d"><path d="M 65.59375 254.683594 L 192.777344 254.683594 L 192.777344 345.054688 L 65.59375 345.054688 Z M 65.59375 254.683594 "/></clipPath><clipPath id="36d9b9533f"><path d="M 18.660156 138 L 73 138 L 73 252 L 18.660156 252 Z M 18.660156 138 "/></clipPath><clipPath id="4989997e10"><path d="M 302 138 L 356.160156 138 L 356.160156 252 L 302 252 Z M 302 138 "/></clipPath><clipPath id="1eb3587573"><path d="M 227.621094 201.796875 L 354.980469 201.796875 L 354.980469 329.15625 L 227.621094 329.15625 Z M 227.621094 201.796875 "/></clipPath><clipPath id="b744bd08a3"><path d="M 291.300781 201.796875 C 256.132812 201.796875 227.621094 230.308594 227.621094 265.476562 C 227.621094 300.644531 256.132812 329.15625 291.300781 329.15625 C 326.472656 329.15625 354.980469 300.644531 354.980469 265.476562 C 354.980469 230.308594 326.472656 201.796875 291.300781 201.796875 Z M 291.300781 201.796875 "/></clipPath><clipPath id="1f1068ffb2"><path d="M 217.648438 201.796875 L 364.648438 201.796875 L 364.648438 348.796875 L 217.648438 348.796875 Z M 217.648438 201.796875 "/></clipPath></defs><g id="76d875dd57"><g clip-rule="nonzero" clip-path="url(#14d990296b)"><path style=" stroke:none;fill-rule:nonzero;fill:#0abfbc;fill-opacity:1;" d="M 303.457031 134.113281 L 304.976562 134.113281 C 311.050781 134.113281 316.09375 138.597656 316.980469 144.425781 C 317.890625 144.242188 318.816406 144.097656 319.746094 143.996094 C 316.710938 133.714844 312.730469 123.800781 307.871094 114.445312 C 304.644531 108.222656 301.019531 102.246094 297.039062 96.554688 C 299.117188 91.914062 298.417969 86.628906 295.179688 82.695312 C 294.058594 81.335938 292.90625 79.980469 291.746094 78.664062 C 263.980469 47.136719 226.925781 29.777344 187.40625 29.777344 C 147.890625 29.777344 110.835938 47.136719 83.074219 78.664062 C 81.917969 79.980469 80.761719 81.335938 79.644531 82.691406 C 76.402344 86.625 75.703125 91.910156 77.777344 96.554688 C 73.800781 102.246094 70.175781 108.222656 66.941406 114.445312 C 62.082031 123.800781 58.101562 133.710938 55.070312 143.992188 C 56 144.097656 56.925781 144.242188 57.839844 144.425781 C 58.726562 138.597656 63.773438 134.113281 69.847656 134.113281 L 71.363281 134.113281 C 75.636719 123.335938 80.980469 113.308594 87.246094 104.191406 C 88.121094 104.367188 89.027344 104.460938 89.953125 104.460938 C 93.949219 104.460938 97.707031 102.683594 100.257812 99.585938 C 114.539062 82.25 132.550781 69.402344 152.351562 62.4375 C 163.65625 58.449219 175.453125 56.425781 187.40625 56.425781 C 220.132812 56.425781 251.894531 72.171875 274.554688 99.625 C 277.089844 102.699219 280.832031 104.460938 284.820312 104.460938 L 284.863281 104.460938 C 285.789062 104.460938 286.695312 104.367188 287.574219 104.191406 C 293.808594 113.273438 299.164062 123.289062 303.457031 134.113281 "/></g><g clip-rule="nonzero" clip-path="url(#245d9c898d)"><path style=" stroke:none;fill-rule:nonzero;fill:#0abfbc;fill-opacity:1;" d="M 191.066406 326.003906 L 191.0625 325.996094 C 188.804688 321.945312 184.519531 319.425781 179.875 319.425781 C 175.753906 319.425781 171.859375 321.429688 169.460938 324.785156 L 167.886719 326.984375 L 165.226562 326.480469 C 141.976562 322.074219 119.914062 310.351562 101.425781 292.585938 C 90.316406 281.917969 80.851562 269.480469 73.265625 255.585938 L 69.847656 255.585938 C 68.351562 255.585938 66.929688 255.285156 65.628906 254.738281 C 68.46875 260.28125 71.597656 265.632812 75 270.753906 C 81.410156 280.40625 88.816406 289.296875 97.015625 297.175781 C 106.789062 306.5625 117.515625 314.367188 128.902344 320.375 C 140.179688 326.324219 152.085938 330.5 164.277344 332.785156 L 166.847656 333.265625 L 167.566406 335.78125 C 169.128906 341.238281 174.191406 345.054688 179.875 345.054688 C 185.089844 345.054688 189.738281 341.941406 191.71875 337.121094 C 192.363281 335.5625 192.691406 333.925781 192.691406 332.242188 C 192.691406 330.050781 192.128906 327.898438 191.070312 326.011719 L 191.066406 326.003906 "/></g><g clip-rule="nonzero" clip-path="url(#36d9b9533f)"><path style=" stroke:none;fill-rule:nonzero;fill:#0abfbc;fill-opacity:1;" d="M 70.664062 251.34375 C 71.558594 251.34375 72.292969 250.609375 72.292969 249.714844 L 72.292969 139.914062 C 72.292969 139.019531 71.558594 138.285156 70.660156 138.285156 L 69.753906 138.285156 C 64.164062 138.285156 59.59375 142.855469 59.59375 148.445312 C 56.847656 147.136719 53.796875 146.359375 50.574219 146.261719 C 50.269531 146.253906 49.964844 146.246094 49.660156 146.246094 C 48.792969 146.246094 47.933594 146.285156 47.085938 146.359375 C 34.410156 147.457031 23.839844 156.601562 20.746094 168.742188 C 20.21875 170.808594 19.90625 172.960938 19.839844 175.175781 L 18.6875 212.847656 C 18.675781 213.234375 18.671875 213.617188 18.675781 214 C 18.796875 229.894531 31.582031 243.097656 47.601562 243.585938 C 47.832031 243.59375 48.0625 243.597656 48.292969 243.597656 C 49.847656 243.597656 51.367188 243.4375 52.839844 243.136719 C 55.246094 242.636719 57.519531 241.757812 59.59375 240.5625 C 59.59375 246.492188 64.445312 251.34375 70.375 251.34375 L 70.664062 251.34375 "/></g><g clip-rule="nonzero" clip-path="url(#4989997e10)"><path style=" stroke:none;fill-rule:nonzero;fill:#0abfbc;fill-opacity:1;" d="M 356.132812 212.847656 L 354.980469 175.175781 C 354.914062 172.960938 354.605469 170.808594 354.074219 168.742188 C 350.980469 156.601562 340.40625 147.457031 327.726562 146.355469 C 326.882812 146.285156 326.023438 146.246094 325.160156 146.246094 C 324.855469 146.246094 324.550781 146.25 324.246094 146.261719 C 321.023438 146.359375 317.976562 147.136719 315.230469 148.445312 C 315.230469 142.855469 310.65625 138.285156 305.066406 138.285156 L 304.160156 138.285156 C 303.265625 138.285156 302.527344 139.019531 302.527344 139.914062 L 302.527344 165.394531 C 302.308594 166.773438 302.214844 168.191406 302.257812 169.636719 L 302.527344 178.492188 L 302.527344 249.714844 C 302.527344 250.609375 303.261719 251.34375 304.15625 251.34375 L 304.445312 251.34375 C 310.375 251.34375 315.230469 246.492188 315.230469 240.558594 C 315.703125 240.832031 316.175781 241.085938 316.667969 241.324219 C 319.660156 242.78125 323.007812 243.597656 326.53125 243.597656 C 326.757812 243.597656 326.992188 243.59375 327.222656 243.585938 C 343.242188 243.097656 356.023438 229.894531 356.148438 214 C 356.152344 213.617188 356.148438 213.234375 356.132812 212.847656 "/></g><path style=" stroke:none;fill-rule:nonzero;fill:#a6a6a6;fill-opacity:1;" d="M 236.53125 184.035156 C 236.152344 191.574219 230.027344 197.695312 222.488281 198.078125 C 213.6875 198.523438 206.453125 191.292969 206.902344 182.492188 C 207.28125 174.953125 213.40625 168.828125 220.945312 168.449219 C 229.746094 168 236.980469 175.230469 236.53125 184.035156 Z M 202.226562 184.035156 C 201.84375 191.574219 195.71875 197.695312 188.183594 198.078125 C 179.378906 198.523438 172.148438 191.292969 172.59375 182.492188 C 172.976562 174.953125 179.101562 168.828125 186.636719 168.449219 C 195.441406 168 202.671875 175.230469 202.226562 184.035156 Z M 167.917969 184.035156 C 167.539062 191.574219 161.414062 197.695312 153.875 198.078125 C 145.074219 198.523438 137.839844 191.292969 138.289062 182.492188 C 138.667969 174.953125 144.792969 168.828125 152.332031 168.449219 C 161.132812 168 168.363281 175.230469 167.917969 184.035156 Z M 283.175781 182.199219 C 283.175781 133.484375 240.296875 93.996094 187.410156 93.996094 C 134.519531 93.996094 91.644531 133.484375 91.644531 182.199219 C 91.644531 230.910156 134.519531 270.402344 187.410156 270.402344 C 201.1875 270.402344 214.285156 267.714844 226.125 262.886719 C 231.050781 260.878906 236.503906 260.542969 241.644531 261.917969 L 273.621094 270.484375 C 277.011719 271.394531 280.117188 268.292969 279.207031 264.902344 L 271.902344 237.632812 C 270.3125 231.699219 271.046875 225.402344 273.875 219.949219 C 279.808594 208.503906 283.175781 195.726562 283.175781 182.199219 "/><g clip-rule="nonzero" clip-path="url(#1eb3587573)"><g clip-rule="nonzero" clip-path="url(#b744bd08a3)"><path style=" stroke:none;fill-rule:nonzero;fill:#ffffff;fill-opacity:1;" d="M 227.621094 201.796875 L 354.980469 201.796875 L 354.980469 329.15625 L 227.621094 329.15625 Z M 227.621094 201.796875 "/></g></g><g clip-rule="nonzero" clip-path="url(#1f1068ffb2)"><path style=" stroke:none;fill-rule:nonzero;fill:#cd392d;fill-opacity:1;" d="M 364.648438 275.296875 C 364.648438 316.054688 331.90625 348.796875 291.148438 348.796875 C 250.390625 348.796875 217.648438 316.054688 217.648438 275.296875 C 217.648438 234.539062 250.390625 201.796875 291.148438 201.796875 C 331.90625 201.796875 364.648438 234.539062 364.648438 275.296875 Z M 337.921875 258.257812 L 308.1875 258.257812 L 308.1875 228.523438 L 273.773438 228.523438 L 273.773438 258.257812 L 244.042969 258.257812 L 244.042969 292.671875 L 273.773438 292.671875 L 273.773438 322.070312 L 308.1875 322.070312 L 308.1875 292.335938 L 337.921875 292.335938 Z M 337.921875 258.257812 "/></g></g></svg>