<svg xmlns="http://www.w3.org/2000/svg" xmlns:xlink="http://www.w3.org/1999/xlink" width="500" zoomAndPan="magnify" viewBox="0 0 375 374.999991" height="500" preserveAspectRatio="xMidYMid meet" version="1.0"><defs><clipPath id="e81afca8df"><path d="M 1.460938 66.109375 L 373.460938 66.109375 L 373.460938 309.109375 L 1.460938 309.109375 Z M 1.460938 66.109375 " clip-rule="nonzero"/></clipPath></defs><g clip-path="url(#e81afca8df)"><path fill="#231f20" d="M 323.476562 66.109375 L 51.445312 66.109375 C 23.976562 66.109375 1.597656 88.488281 1.597656 116.011719 L 1.597656 259.207031 C 1.597656 286.707031 23.949219 309.109375 51.445312 309.109375 L 323.476562 309.109375 C 350.949219 309.109375 373.324219 286.734375 373.324219 259.207031 L 373.324219 116.011719 C 373.324219 88.511719 350.972656 66.109375 323.476562 66.109375 Z M 358.894531 259.207031 C 358.894531 278.753906 343.003906 294.664062 323.476562 294.664062 L 51.445312 294.664062 C 31.921875 294.664062 16.027344 278.753906 16.027344 259.207031 L 16.027344 116.011719 C 16.027344 96.46875 31.921875 80.554688 51.445312 80.554688 L 323.476562 80.554688 C 343.003906 80.554688 358.894531 96.46875 358.894531 116.011719 Z M 358.894531 259.207031 " fill-opacity="1" fill-rule="nonzero"/></g><path fill="#231f20" d="M 124.574219 190.90625 C 119.089844 193.757812 112.847656 195.394531 106.242188 195.394531 C 99.636719 195.394531 93.398438 193.785156 87.914062 190.90625 C 67.925781 198.347656 53.664062 217.625 53.664062 240.246094 L 53.664062 248.054688 C 53.664062 254.179688 58.636719 259.160156 64.753906 259.160156 L 147.730469 259.160156 C 153.847656 259.160156 158.820312 254.179688 158.820312 248.054688 L 158.820312 240.246094 C 158.820312 217.625 144.5625 198.347656 124.574219 190.90625 Z M 124.574219 190.90625 " fill-opacity="1" fill-rule="nonzero"/><path fill="#231f20" d="M 138.273438 155.546875 C 138.273438 156.59375 138.222656 157.644531 138.117188 158.6875 C 138.015625 159.734375 137.863281 160.769531 137.65625 161.800781 C 137.453125 162.832031 137.199219 163.847656 136.894531 164.851562 C 136.589844 165.859375 136.234375 166.847656 135.835938 167.816406 C 135.433594 168.785156 134.984375 169.734375 134.488281 170.660156 C 133.996094 171.585938 133.457031 172.488281 132.875 173.359375 C 132.292969 174.234375 131.667969 175.074219 131 175.886719 C 130.335938 176.699219 129.632812 177.476562 128.890625 178.21875 C 128.148438 178.960938 127.371094 179.664062 126.5625 180.332031 C 125.75 180.996094 124.910156 181.621094 124.039062 182.207031 C 123.164062 182.789062 122.265625 183.328125 121.339844 183.824219 C 120.417969 184.320312 119.46875 184.765625 118.5 185.167969 C 117.53125 185.570312 116.542969 185.925781 115.539062 186.230469 C 114.535156 186.535156 113.519531 186.789062 112.492188 186.992188 C 111.460938 187.199219 110.425781 187.351562 109.382812 187.457031 C 108.339844 187.558594 107.292969 187.609375 106.242188 187.609375 C 105.195312 187.609375 104.148438 187.558594 103.101562 187.457031 C 102.058594 187.351562 101.023438 187.199219 99.992188 186.992188 C 98.964844 186.789062 97.949219 186.535156 96.945312 186.230469 C 95.941406 185.925781 94.953125 185.570312 93.984375 185.167969 C 93.015625 184.765625 92.070312 184.320312 91.144531 183.824219 C 90.21875 183.328125 89.320312 182.789062 88.449219 182.207031 C 87.574219 181.621094 86.734375 180.996094 85.921875 180.332031 C 85.113281 179.664062 84.335938 178.960938 83.59375 178.21875 C 82.851562 177.476562 82.148438 176.699219 81.484375 175.886719 C 80.816406 175.074219 80.195312 174.234375 79.609375 173.359375 C 79.027344 172.488281 78.488281 171.585938 77.996094 170.660156 C 77.5 169.734375 77.054688 168.785156 76.652344 167.816406 C 76.25 166.847656 75.898438 165.859375 75.59375 164.851562 C 75.289062 163.847656 75.035156 162.832031 74.828125 161.800781 C 74.625 160.769531 74.46875 159.734375 74.367188 158.6875 C 74.265625 157.644531 74.214844 156.59375 74.214844 155.546875 C 74.214844 154.496094 74.265625 153.449219 74.367188 152.402344 C 74.46875 151.355469 74.625 150.320312 74.828125 149.289062 C 75.035156 148.261719 75.289062 147.242188 75.59375 146.238281 C 75.898438 145.230469 76.25 144.246094 76.652344 143.273438 C 77.054688 142.304688 77.5 141.355469 77.996094 140.429688 C 78.488281 139.503906 79.027344 138.605469 79.609375 137.730469 C 80.195312 136.859375 80.816406 136.015625 81.484375 135.203125 C 82.148438 134.390625 82.851562 133.613281 83.59375 132.871094 C 84.335938 132.128906 85.113281 131.425781 85.921875 130.757812 C 86.734375 130.09375 87.574219 129.46875 88.449219 128.882812 C 89.320312 128.300781 90.21875 127.761719 91.144531 127.265625 C 92.070312 126.773438 93.015625 126.324219 93.984375 125.921875 C 94.953125 125.519531 95.941406 125.164062 96.945312 124.859375 C 97.949219 124.554688 98.964844 124.300781 99.992188 124.097656 C 101.023438 123.890625 102.058594 123.738281 103.101562 123.636719 C 104.148438 123.53125 105.195312 123.480469 106.242188 123.480469 C 107.292969 123.480469 108.339844 123.53125 109.382812 123.636719 C 110.425781 123.738281 111.460938 123.890625 112.492188 124.097656 C 113.519531 124.300781 114.535156 124.554688 115.539062 124.859375 C 116.542969 125.164062 117.53125 125.519531 118.5 125.921875 C 119.46875 126.324219 120.417969 126.773438 121.339844 127.265625 C 122.265625 127.761719 123.164062 128.300781 124.039062 128.882812 C 124.910156 129.46875 125.75 130.09375 126.5625 130.757812 C 127.371094 131.425781 128.148438 132.128906 128.890625 132.871094 C 129.632812 133.613281 130.335938 134.390625 131 135.203125 C 131.667969 136.015625 132.292969 136.859375 132.875 137.730469 C 133.457031 138.605469 133.996094 139.503906 134.488281 140.429688 C 134.984375 141.355469 135.433594 142.304688 135.835938 143.273438 C 136.234375 144.246094 136.589844 145.230469 136.894531 146.238281 C 137.199219 147.242188 137.453125 148.261719 137.65625 149.289062 C 137.863281 150.320312 138.015625 151.355469 138.117188 152.402344 C 138.222656 153.449219 138.273438 154.496094 138.273438 155.546875 Z M 138.273438 155.546875 " fill-opacity="1" fill-rule="nonzero"/><path fill="#231f20" d="M 315.019531 140.023438 L 203.304688 140.023438 C 199.429688 140.023438 196.285156 143.171875 196.285156 147.054688 C 196.285156 150.933594 199.429688 154.082031 203.304688 154.082031 L 315.019531 154.082031 C 318.894531 154.082031 322.039062 150.933594 322.039062 147.054688 C 322.039062 143.171875 318.894531 140.023438 315.019531 140.023438 Z M 315.019531 140.023438 " fill-opacity="1" fill-rule="nonzero"/><path fill="#231f20" d="M 315.019531 179.363281 L 203.304688 179.363281 C 199.429688 179.363281 196.285156 182.511719 196.285156 186.390625 C 196.285156 190.269531 199.429688 193.417969 203.304688 193.417969 L 315.019531 193.417969 C 318.894531 193.417969 322.039062 190.269531 322.039062 186.390625 C 322.039062 182.511719 318.894531 179.363281 315.019531 179.363281 Z M 315.019531 179.363281 " fill-opacity="1" fill-rule="nonzero"/><path fill="#231f20" d="M 315.019531 218.722656 L 203.304688 218.722656 C 199.429688 218.722656 196.285156 221.871094 196.285156 225.75 C 196.285156 229.632812 199.429688 232.777344 203.304688 232.777344 L 315.019531 232.777344 C 318.894531 232.777344 322.039062 229.632812 322.039062 225.75 C 322.039062 221.871094 318.894531 218.722656 315.019531 218.722656 Z M 315.019531 218.722656 " fill-opacity="1" fill-rule="nonzero"/></svg>