<svg xmlns="http://www.w3.org/2000/svg" xmlns:xlink="http://www.w3.org/1999/xlink" width="500" zoomAndPan="magnify" viewBox="0 0 375 374.999991" height="500" preserveAspectRatio="xMidYMid meet" version="1.0"><defs><clipPath id="c4c27c886c"><path d="M 37.5 59.0625 L 337.5 59.0625 L 337.5 316 L 37.5 316 Z M 37.5 59.0625 " clip-rule="nonzero"/></clipPath></defs><g clip-path="url(#c4c27c886c)"><path fill="#000000" d="M 316.070312 122.769531 L 70.230469 122.769531 C 69.578125 122.796875 68.929688 122.765625 68.28125 122.675781 C 67.632812 122.585938 67 122.441406 66.375 122.238281 C 65.753906 122.035156 65.15625 121.78125 64.578125 121.472656 C 64.003906 121.164062 63.457031 120.808594 62.941406 120.402344 C 62.429688 119.996094 61.953125 119.550781 61.519531 119.0625 C 61.085938 118.574219 60.695312 118.050781 60.355469 117.492188 C 60.011719 116.933594 59.71875 116.351562 59.480469 115.742188 C 59.242188 115.132812 59.058594 114.507812 58.929688 113.867188 C 58.863281 113.476562 58.816406 113.089844 58.792969 112.695312 C 58.769531 112.304688 58.765625 111.910156 58.785156 111.519531 C 58.804688 111.125 58.84375 110.734375 58.90625 110.347656 C 58.96875 109.960938 59.050781 109.578125 59.15625 109.199219 C 59.257812 108.820312 59.382812 108.445312 59.527344 108.082031 C 59.671875 107.714844 59.835938 107.359375 60.019531 107.011719 C 60.207031 106.664062 60.40625 106.328125 60.628906 106.003906 C 60.847656 105.679688 61.085938 105.367188 61.34375 105.070312 C 61.597656 104.769531 61.867188 104.484375 62.152344 104.21875 C 62.441406 103.949219 62.738281 103.695312 63.054688 103.460938 C 63.367188 103.222656 63.691406 103.007812 64.03125 102.804688 C 64.367188 102.605469 64.714844 102.425781 65.074219 102.261719 C 65.429688 102.101562 65.796875 101.960938 66.171875 101.835938 C 66.542969 101.714844 66.921875 101.613281 67.304688 101.535156 C 67.691406 101.453125 68.078125 101.394531 68.46875 101.359375 C 68.859375 101.320312 69.25 101.304688 69.644531 101.3125 L 274.070312 101.3125 C 275.097656 101.3125 276.121094 101.265625 277.140625 101.164062 C 278.160156 101.066406 279.171875 100.917969 280.179688 100.71875 C 281.183594 100.519531 282.179688 100.273438 283.160156 99.972656 C 284.140625 99.675781 285.105469 99.332031 286.050781 98.941406 C 287 98.550781 287.925781 98.109375 288.828125 97.628906 C 289.734375 97.144531 290.613281 96.617188 291.464844 96.046875 C 292.316406 95.476562 293.140625 94.867188 293.933594 94.214844 C 294.726562 93.566406 295.484375 92.875 296.210938 92.152344 C 296.933594 91.425781 297.621094 90.664062 298.273438 89.871094 C 298.921875 89.078125 299.53125 88.253906 300.101562 87.398438 C 300.671875 86.546875 301.195312 85.667969 301.679688 84.761719 C 302.160156 83.855469 302.597656 82.925781 302.988281 81.980469 C 303.382812 81.03125 303.726562 80.0625 304.023438 79.082031 C 304.320312 78.097656 304.566406 77.105469 304.765625 76.097656 C 304.964844 75.089844 305.113281 74.074219 305.210938 73.054688 C 305.308594 72.03125 305.359375 71.007812 305.355469 69.980469 C 305.359375 69.25 305.285156 68.53125 305.132812 67.820312 C 304.980469 67.105469 304.757812 66.417969 304.457031 65.753906 C 304.160156 65.089844 303.796875 64.464844 303.363281 63.878906 C 302.933594 63.289062 302.445312 62.757812 301.902344 62.273438 C 301.355469 61.792969 300.765625 61.371094 300.132812 61.015625 C 299.496094 60.660156 298.832031 60.375 298.136719 60.160156 C 297.441406 59.945312 296.734375 59.808594 296.007812 59.742188 C 295.285156 59.679688 294.5625 59.695312 293.839844 59.785156 L 59.570312 87.953125 C 58.820312 88.042969 58.070312 88.164062 57.332031 88.324219 C 56.589844 88.480469 55.855469 88.671875 55.132812 88.894531 C 54.40625 89.121094 53.695312 89.375 52.992188 89.664062 C 52.292969 89.953125 51.605469 90.273438 50.933594 90.625 C 50.261719 90.976562 49.609375 91.359375 48.972656 91.769531 C 48.332031 92.179688 47.714844 92.621094 47.121094 93.085938 C 46.523438 93.554688 45.945312 94.046875 45.394531 94.566406 C 44.839844 95.085938 44.3125 95.628906 43.808594 96.199219 C 43.308594 96.765625 42.832031 97.355469 42.378906 97.964844 C 41.929688 98.578125 41.511719 99.207031 41.117188 99.855469 C 40.726562 100.503906 40.363281 101.171875 40.03125 101.855469 C 39.699219 102.535156 39.398438 103.230469 39.128906 103.941406 C 38.859375 104.652344 38.625 105.371094 38.417969 106.101562 C 38.214844 106.835938 38.046875 107.574219 37.910156 108.320312 C 37.773438 109.066406 37.671875 109.816406 37.601562 110.574219 C 37.535156 111.328125 37.5 112.085938 37.5 112.847656 L 37.5 277.441406 C 37.5 278.703125 37.5625 279.960938 37.683594 281.214844 C 37.808594 282.46875 37.992188 283.710938 38.238281 284.949219 C 38.484375 286.183594 38.789062 287.402344 39.152344 288.609375 C 39.519531 289.816406 39.941406 291 40.425781 292.164062 C 40.90625 293.328125 41.441406 294.464844 42.035156 295.578125 C 42.628906 296.6875 43.273438 297.765625 43.972656 298.8125 C 44.671875 299.863281 45.421875 300.871094 46.21875 301.847656 C 47.015625 302.820312 47.859375 303.753906 48.75 304.644531 C 49.640625 305.535156 50.570312 306.378906 51.542969 307.179688 C 52.515625 307.976562 53.523438 308.726562 54.570312 309.425781 C 55.617188 310.128906 56.695312 310.773438 57.804688 311.367188 C 58.914062 311.960938 60.050781 312.5 61.210938 312.980469 C 62.375 313.464844 63.558594 313.886719 64.761719 314.253906 C 65.964844 314.621094 67.183594 314.925781 68.417969 315.171875 C 69.652344 315.417969 70.894531 315.601562 72.144531 315.726562 C 73.398438 315.847656 74.652344 315.910156 75.910156 315.910156 L 299.089844 315.910156 C 300.347656 315.910156 301.601562 315.847656 302.855469 315.726562 C 304.105469 315.601562 305.347656 315.417969 306.582031 315.171875 C 307.816406 314.925781 309.035156 314.621094 310.238281 314.253906 C 311.441406 313.886719 312.625 313.464844 313.789062 312.980469 C 314.949219 312.5 316.085938 311.960938 317.195312 311.367188 C 318.304688 310.773438 319.382812 310.128906 320.429688 309.425781 C 321.476562 308.726562 322.484375 307.976562 323.457031 307.179688 C 324.429688 306.378906 325.359375 305.535156 326.25 304.644531 C 327.140625 303.753906 327.984375 302.820312 328.78125 301.847656 C 329.578125 300.871094 330.328125 299.863281 331.027344 298.8125 C 331.726562 297.765625 332.371094 296.6875 332.964844 295.578125 C 333.558594 294.464844 334.09375 293.328125 334.574219 292.164062 C 335.058594 291 335.480469 289.816406 335.847656 288.609375 C 336.210938 287.402344 336.515625 286.183594 336.761719 284.949219 C 337.007812 283.710938 337.191406 282.46875 337.316406 281.214844 C 337.4375 279.960938 337.5 278.703125 337.5 277.441406 L 337.5 144.230469 C 337.5 143.527344 337.464844 142.828125 337.398438 142.128906 C 337.328125 141.429688 337.226562 140.734375 337.089844 140.042969 C 336.953125 139.355469 336.78125 138.675781 336.578125 138 C 336.375 137.328125 336.136719 136.667969 335.867188 136.019531 C 335.601562 135.371094 335.300781 134.734375 334.96875 134.113281 C 334.640625 133.496094 334.277344 132.894531 333.886719 132.308594 C 333.5 131.722656 333.082031 131.160156 332.636719 130.617188 C 332.191406 130.074219 331.71875 129.554688 331.222656 129.058594 C 330.726562 128.558594 330.207031 128.089844 329.664062 127.644531 C 329.121094 127.195312 328.558594 126.777344 327.976562 126.386719 C 327.394531 125.996094 326.792969 125.636719 326.171875 125.304688 C 325.554688 124.972656 324.921875 124.675781 324.273438 124.40625 C 323.625 124.136719 322.964844 123.898438 322.292969 123.695312 C 321.621094 123.492188 320.941406 123.320312 320.25 123.183594 C 319.5625 123.046875 318.871094 122.945312 318.171875 122.875 C 317.472656 122.804688 316.773438 122.769531 316.070312 122.769531 Z M 294.644531 241.445312 C 293.941406 241.445312 293.242188 241.410156 292.542969 241.339844 C 291.84375 241.273438 291.152344 241.167969 290.460938 241.03125 C 289.773438 240.894531 289.09375 240.722656 288.421875 240.519531 C 287.75 240.316406 287.089844 240.078125 286.441406 239.8125 C 285.792969 239.542969 285.160156 239.242188 284.542969 238.910156 C 283.921875 238.578125 283.320312 238.21875 282.738281 237.828125 C 282.152344 237.4375 281.589844 237.019531 281.046875 236.574219 C 280.507812 236.128906 279.988281 235.65625 279.492188 235.160156 C 278.996094 234.660156 278.523438 234.140625 278.078125 233.597656 C 277.632812 233.054688 277.214844 232.492188 276.824219 231.90625 C 276.4375 231.324219 276.074219 230.71875 275.746094 230.101562 C 275.414062 229.480469 275.113281 228.847656 274.84375 228.195312 C 274.578125 227.546875 274.339844 226.886719 274.136719 226.214844 C 273.933594 225.542969 273.761719 224.859375 273.625 224.171875 C 273.488281 223.480469 273.386719 222.789062 273.316406 222.089844 C 273.25 221.386719 273.214844 220.6875 273.214844 219.984375 C 273.214844 219.28125 273.25 218.582031 273.316406 217.882812 C 273.386719 217.183594 273.488281 216.488281 273.625 215.796875 C 273.761719 215.109375 273.933594 214.425781 274.136719 213.753906 C 274.339844 213.082031 274.578125 212.421875 274.84375 211.773438 C 275.113281 211.121094 275.414062 210.488281 275.746094 209.867188 C 276.074219 209.25 276.4375 208.648438 276.824219 208.0625 C 277.214844 207.476562 277.632812 206.914062 278.078125 206.371094 C 278.523438 205.828125 278.996094 205.308594 279.492188 204.808594 C 279.988281 204.3125 280.507812 203.839844 281.046875 203.394531 C 281.589844 202.949219 282.152344 202.53125 282.738281 202.140625 C 283.320312 201.75 283.921875 201.390625 284.542969 201.058594 C 285.160156 200.726562 285.792969 200.425781 286.441406 200.160156 C 287.089844 199.890625 287.75 199.652344 288.421875 199.449219 C 289.09375 199.246094 289.773438 199.074219 290.460938 198.9375 C 291.152344 198.800781 291.84375 198.695312 292.542969 198.628906 C 293.242188 198.558594 293.941406 198.523438 294.644531 198.523438 C 295.34375 198.523438 296.042969 198.558594 296.742188 198.628906 C 297.441406 198.695312 298.136719 198.800781 298.824219 198.9375 C 299.511719 199.074219 300.191406 199.246094 300.863281 199.449219 C 301.535156 199.652344 302.195312 199.890625 302.84375 200.160156 C 303.492188 200.425781 304.125 200.726562 304.746094 201.058594 C 305.363281 201.390625 305.964844 201.75 306.546875 202.140625 C 307.132812 202.53125 307.695312 202.949219 308.238281 203.394531 C 308.78125 203.839844 309.300781 204.3125 309.796875 204.808594 C 310.292969 205.308594 310.761719 205.828125 311.207031 206.371094 C 311.652344 206.914062 312.070312 207.476562 312.460938 208.0625 C 312.851562 208.648438 313.210938 209.25 313.542969 209.867188 C 313.871094 210.488281 314.171875 211.121094 314.441406 211.773438 C 314.707031 212.421875 314.945312 213.082031 315.148438 213.753906 C 315.351562 214.425781 315.523438 215.109375 315.660156 215.796875 C 315.796875 216.488281 315.898438 217.183594 315.96875 217.882812 C 316.035156 218.582031 316.070312 219.28125 316.070312 219.984375 C 316.070312 220.6875 316.035156 221.386719 315.96875 222.089844 C 315.898438 222.789062 315.796875 223.480469 315.660156 224.171875 C 315.523438 224.859375 315.351562 225.542969 315.148438 226.214844 C 314.945312 226.886719 314.707031 227.546875 314.441406 228.195312 C 314.171875 228.847656 313.871094 229.480469 313.542969 230.101562 C 313.210938 230.71875 312.851562 231.324219 312.460938 231.90625 C 312.070312 232.492188 311.652344 233.054688 311.207031 233.597656 C 310.761719 234.140625 310.292969 234.660156 309.796875 235.160156 C 309.300781 235.65625 308.78125 236.128906 308.238281 236.574219 C 307.695312 237.019531 307.132812 237.4375 306.546875 237.828125 C 305.964844 238.21875 305.363281 238.578125 304.746094 238.910156 C 304.125 239.242188 303.492188 239.542969 302.84375 239.8125 C 302.195312 240.078125 301.535156 240.316406 300.863281 240.519531 C 300.191406 240.722656 299.511719 240.894531 298.824219 241.03125 C 298.136719 241.167969 297.441406 241.273438 296.742188 241.339844 C 296.042969 241.410156 295.34375 241.445312 294.644531 241.445312 Z M 294.644531 241.445312 " fill-opacity="1" fill-rule="nonzero"/></g></svg>