<svg xmlns="http://www.w3.org/2000/svg" xmlns:xlink="http://www.w3.org/1999/xlink" width="500" zoomAndPan="magnify" viewBox="0 0 375 374.999991" height="500" preserveAspectRatio="xMidYMid meet" version="1.0"><path fill="#0f7940" d="M 278.019531 147.816406 C 265.546875 96.207031 241.136719 40.664062 217.023438 40.664062 C 215.832031 40.664062 214.636719 40.804688 213.492188 41.078125 C 208.238281 42.347656 204.054688 46.351562 200.980469 52.851562 C 200.65625 53.109375 200.300781 53.308594 200.027344 53.648438 C 186.53125 70.90625 138.191406 127.902344 83.042969 141.230469 L 40.910156 152.101562 C 40.742188 152.140625 40.582031 152.191406 40.417969 152.242188 C 27.507812 155.792969 16.609375 163.914062 9.59375 175.25 C 2.257812 187.117188 0.0273438 201.140625 3.316406 214.746094 C 6.609375 228.347656 14.996094 239.808594 26.941406 247.011719 C 38.832031 254.183594 52.890625 256.316406 66.523438 253.027344 L 75.257812 250.914062 C 75.257812 250.914062 75.261719 250.914062 75.265625 250.914062 L 75.269531 250.914062 L 85.777344 248.375 L 120.644531 320.015625 C 125.183594 329.335938 134.546875 334.765625 144.28125 334.765625 C 148.128906 334.765625 152.039062 333.921875 155.722656 332.128906 C 168.730469 325.789062 174.160156 310.058594 167.828125 297.046875 L 139.636719 239.125 C 189.972656 238.699219 241.371094 262.09375 253.121094 267.789062 C 257.324219 270.921875 261.585938 272.660156 265.839844 272.660156 C 267.03125 272.660156 268.222656 272.519531 269.371094 272.238281 C 280.5 269.550781 286.894531 254.75 287.871094 229.441406 C 288.746094 206.714844 285.25 177.726562 278.019531 147.816406 Z M 63.894531 242.183594 C 53.148438 244.789062 42.066406 243.105469 32.699219 237.457031 C 23.328125 231.804688 16.738281 222.804688 14.160156 212.121094 C 11.574219 201.4375 13.324219 190.417969 19.085938 181.105469 C 24.761719 171.921875 33.699219 165.402344 44.277344 162.738281 L 47.996094 161.835938 L 67.222656 241.378906 Z M 150.839844 322.097656 C 143.367188 325.734375 134.308594 322.613281 130.675781 315.132812 L 118.023438 289.136719 L 145.519531 276.714844 L 157.796875 301.933594 C 161.4375 309.410156 158.316406 318.453125 150.839844 322.097656 Z M 140.636719 266.679688 L 113.140625 279.101562 L 96.882812 245.695312 L 109.796875 242.570312 C 115.59375 241.171875 121.523438 240.25 127.511719 239.707031 Z M 107.171875 231.726562 L 78.0625 238.761719 L 58.835938 159.214844 L 85.675781 152.714844 C 132.046875 141.507812 173.277344 101.789062 195.453125 76.769531 C 195.257812 79.046875 195.09375 81.398438 194.996094 83.878906 C 194.535156 95.710938 195.292969 109.265625 197.121094 123.742188 C 197.144531 123.949219 197.09375 124.144531 197.140625 124.355469 C 197.160156 124.421875 197.210938 124.472656 197.226562 124.539062 C 198.910156 137.628906 201.449219 151.453125 204.847656 165.507812 C 208.175781 179.285156 212.363281 193.335938 217.160156 206.542969 C 217.1875 206.804688 217.125 207.050781 217.191406 207.3125 C 217.375 208.074219 217.734375 208.722656 218.179688 209.308594 C 223.683594 224.058594 229.960938 237.59375 236.660156 248.355469 C 206.660156 236.457031 153.832031 220.441406 107.171875 231.726562 Z M 209.046875 128.664062 C 217.453125 130.976562 227.429688 142.449219 231.65625 159.914062 C 235.847656 177.277344 232.292969 191.945312 225.933594 197.925781 C 222.289062 187.429688 218.804688 175.773438 215.6875 162.878906 C 212.863281 151.183594 210.65625 139.679688 209.046875 128.664062 Z M 276.726562 229.011719 C 275.917969 249.910156 271.132812 260.335938 266.746094 261.398438 C 266.457031 261.46875 266.15625 261.5 265.839844 261.5 C 264.851562 261.5 263.753906 261.195312 262.558594 260.609375 C 262.09375 260.019531 261.507812 259.515625 260.800781 259.144531 C 260.570312 259.023438 259.96875 258.710938 259.066406 258.265625 C 250.996094 251.609375 240.101562 234.769531 229.980469 208.878906 C 242.554688 201.15625 248.03125 180.183594 242.496094 157.289062 C 236.933594 134.273438 222.402344 118.042969 207.574219 117.078125 C 206.289062 105.222656 205.761719 94.113281 206.136719 84.300781 C 206.945312 63.402344 211.730469 52.980469 216.113281 51.921875 C 216.40625 51.847656 216.707031 51.816406 217.023438 51.816406 C 227.78125 51.816406 251.828125 86.9375 267.175781 150.4375 C 274.175781 179.378906 277.5625 207.28125 276.726562 229.011719 Z M 276.726562 229.011719 " fill-opacity="1" fill-rule="nonzero"/><path fill="#0f7940" d="M 320.621094 144.375 C 318.15625 144.324219 315.941406 142.628906 315.324219 140.121094 C 314.59375 137.132812 316.425781 134.113281 319.414062 133.378906 L 355.859375 124.4375 C 358.847656 123.699219 361.871094 125.535156 362.605469 128.527344 C 363.339844 131.515625 361.507812 134.535156 358.515625 135.269531 L 322.070312 144.210938 C 321.585938 144.332031 321.097656 144.386719 320.621094 144.375 Z M 320.621094 144.375 " fill-opacity="1" fill-rule="nonzero"/><path fill="#0f7940" d="M 293.011719 83.421875 C 291.515625 83.359375 290.054688 82.691406 289.007812 81.464844 C 287.007812 79.117188 287.296875 75.597656 289.640625 73.601562 L 322.503906 45.652344 C 324.847656 43.660156 328.375 43.941406 330.363281 46.289062 C 332.363281 48.632812 332.078125 52.15625 329.730469 54.152344 L 296.867188 82.101562 C 295.753906 83.054688 294.371094 83.484375 293.011719 83.421875 Z M 293.011719 83.421875 " fill-opacity="1" fill-rule="nonzero"/><path fill="#0f7940" d="M 369.683594 221.105469 C 368.949219 221.230469 368.179688 221.210938 367.402344 221.019531 L 327 211.039062 C 324.007812 210.300781 322.1875 207.277344 322.925781 204.289062 C 323.652344 201.296875 326.671875 199.457031 329.675781 200.214844 L 370.074219 210.191406 C 373.070312 210.929688 374.886719 213.957031 374.152344 216.941406 C 373.609375 219.160156 371.804688 220.738281 369.683594 221.105469 Z M 369.683594 221.105469 " fill-opacity="1" fill-rule="nonzero"/></svg>