<svg xmlns="http://www.w3.org/2000/svg" xmlns:xlink="http://www.w3.org/1999/xlink" width="1080" zoomAndPan="magnify" viewBox="0 0 810 809.999993" height="1080" preserveAspectRatio="xMidYMid meet" version="1.0"><defs><clipPath id="770f448025"><path d="M 159.5 194 L 556 194 L 556 712.914062 L 159.5 712.914062 Z M 159.5 194 " clip-rule="nonzero"/></clipPath><clipPath id="1198abab33"><path d="M 254 97.164062 L 650.75 97.164062 L 650.75 616 L 254 616 Z M 254 97.164062 " clip-rule="nonzero"/></clipPath></defs><path fill="#128227" d="M 605.957031 173.515625 L 635.335938 173.515625 L 577.242188 113.613281 L 577.242188 144.800781 C 577.242188 160.621094 590.132812 173.515625 605.957031 173.515625 " fill-opacity="1" fill-rule="nonzero"/><g clip-path="url(#770f448025)"><path fill="#128227" d="M 495.613281 345.398438 L 219.773438 345.398438 C 213.621094 345.398438 208.644531 340.421875 208.644531 334.269531 C 208.644531 328.117188 213.621094 323.140625 219.773438 323.140625 L 495.613281 323.140625 C 501.769531 323.140625 506.746094 328.117188 506.746094 334.269531 C 506.746094 340.421875 501.769531 345.398438 495.613281 345.398438 Z M 495.613281 419.878906 L 219.773438 419.878906 C 213.621094 419.878906 208.644531 414.898438 208.644531 408.746094 C 208.644531 402.59375 213.621094 397.617188 219.773438 397.617188 L 495.613281 397.617188 C 501.769531 397.617188 506.746094 402.59375 506.746094 408.746094 C 506.746094 414.898438 501.769531 419.878906 495.613281 419.878906 Z M 495.613281 494.375 L 219.773438 494.375 C 213.621094 494.375 208.644531 489.398438 208.644531 483.246094 C 208.644531 477.09375 213.621094 472.117188 219.773438 472.117188 L 495.613281 472.117188 C 501.769531 472.117188 506.746094 477.09375 506.746094 483.246094 C 506.746094 489.398438 501.769531 494.375 495.613281 494.375 Z M 495.613281 568.855469 L 219.773438 568.855469 C 213.621094 568.855469 208.644531 563.875 208.644531 557.722656 C 208.644531 551.570312 213.621094 546.59375 219.773438 546.59375 L 495.613281 546.59375 C 501.769531 546.59375 506.746094 551.570312 506.746094 557.722656 C 506.746094 563.875 501.769531 568.855469 495.613281 568.855469 Z M 394.289062 643.351562 L 219.773438 643.351562 C 213.621094 643.351562 208.644531 638.371094 208.644531 632.222656 C 208.644531 626.070312 213.621094 621.09375 219.773438 621.09375 L 394.289062 621.09375 C 400.441406 621.09375 405.421875 626.070312 405.421875 632.222656 C 405.421875 638.371094 400.441406 643.351562 394.289062 643.351562 Z M 511.351562 292.707031 C 509.59375 292.707031 507.855469 292.617188 506.148438 292.441406 C 480.453125 289.828125 460.355469 268.078125 460.355469 241.730469 L 460.355469 194.210938 L 184.058594 194.210938 C 170.511719 194.210938 159.492188 205.207031 159.492188 218.753906 L 159.492188 688.175781 C 159.492188 701.722656 170.511719 712.722656 184.058594 712.722656 L 531.332031 712.722656 C 544.875 712.722656 555.894531 701.722656 555.894531 688.175781 L 555.894531 292.707031 L 511.351562 292.707031 " fill-opacity="1" fill-rule="nonzero"/></g><g clip-path="url(#1198abab33)"><path fill="#128227" d="M 605.957031 195.773438 C 577.851562 195.773438 554.984375 172.90625 554.984375 144.800781 L 554.984375 97.277344 L 278.664062 97.277344 C 265.117188 97.277344 254.121094 108.273438 254.121094 121.820312 L 254.121094 171.949219 L 471.484375 171.949219 C 471.542969 171.949219 471.59375 171.960938 471.652344 171.960938 C 471.679688 171.960938 471.707031 171.960938 471.726562 171.960938 C 474.359375 172.019531 476.761719 172.980469 478.636719 174.554688 C 478.667969 174.582031 478.703125 174.613281 478.734375 174.640625 C 478.976562 174.851562 479.214844 175.066406 479.441406 175.300781 C 479.453125 175.3125 479.46875 175.328125 479.484375 175.34375 L 574.882812 273.699219 C 574.894531 273.707031 574.910156 273.71875 574.921875 273.730469 L 575.027344 273.835938 C 575.089844 273.902344 575.144531 273.976562 575.207031 274.046875 C 575.375 274.226562 575.546875 274.414062 575.699219 274.609375 C 575.800781 274.730469 575.886719 274.851562 575.976562 274.980469 C 576.101562 275.144531 576.222656 275.3125 576.335938 275.488281 C 576.429688 275.625 576.511719 275.769531 576.59375 275.910156 C 576.695312 276.082031 576.796875 276.25 576.890625 276.425781 C 576.960938 276.566406 577.027344 276.710938 577.097656 276.851562 C 577.183594 277.042969 577.273438 277.234375 577.351562 277.429688 C 577.398438 277.558594 577.449219 277.691406 577.496094 277.824219 C 577.570312 278.035156 577.644531 278.25 577.707031 278.472656 C 577.742188 278.585938 577.769531 278.703125 577.796875 278.8125 C 577.859375 279.054688 577.917969 279.300781 577.960938 279.542969 C 577.980469 279.644531 577.992188 279.738281 578.007812 279.839844 C 578.046875 280.097656 578.089844 280.363281 578.109375 280.632812 C 578.113281 280.714844 578.113281 280.789062 578.121094 280.867188 C 578.136719 281.105469 578.15625 281.339844 578.15625 281.578125 L 578.15625 615.785156 L 625.957031 615.785156 C 639.503906 615.785156 650.5 604.789062 650.5 591.242188 L 650.5 195.773438 L 605.957031 195.773438 " fill-opacity="1" fill-rule="nonzero"/></g><path fill="#128227" d="M 511.351562 270.445312 L 540.726562 270.445312 L 482.613281 210.539062 L 482.613281 241.707031 C 482.613281 255.578125 492.484375 267.179688 505.570312 269.863281 C 507.4375 270.246094 509.371094 270.445312 511.351562 270.445312 " fill-opacity="1" fill-rule="nonzero"/></svg>