<svg xmlns="http://www.w3.org/2000/svg" xmlns:xlink="http://www.w3.org/1999/xlink" width="1080" zoomAndPan="magnify" viewBox="0 0 810 809.999993" height="1080" preserveAspectRatio="xMidYMid meet" version="1.0"><defs><clipPath id="8ad33c4245"><path d="M 105.140625 99 L 705 99 L 705 714.566406 L 105.140625 714.566406 Z M 105.140625 99 " clip-rule="nonzero"/></clipPath></defs><g clip-path="url(#8ad33c4245)"><path fill="#ffffff" d="M 513.066406 714.828125 L 638.472656 714.828125 C 674.597656 714.828125 704.15625 685.476562 704.15625 649.351562 L 704.15625 340.035156 C 704.15625 319.511719 694.300781 300.011719 677.882812 287.902344 L 444.304688 112.207031 C 421.113281 94.964844 388.886719 94.964844 365.695312 112.207031 L 132.117188 287.695312 C 115.695312 300.011719 105.84375 319.511719 105.84375 340.035156 L 105.84375 649.351562 C 105.84375 685.476562 135.398438 714.828125 171.523438 714.828125 L 296.933594 714.828125 C 308.429688 714.828125 317.457031 705.796875 317.457031 694.300781 L 317.457031 576.898438 C 317.457031 528.664062 356.867188 489.460938 405.101562 489.460938 C 428.296875 489.460938 450.257812 498.699219 466.882812 515.117188 C 483.304688 531.539062 492.539062 553.5 492.539062 576.898438 L 492.539062 694.300781 C 492.539062 705.796875 501.570312 714.828125 513.066406 714.828125 Z M 513.066406 714.828125 " fill-opacity="1" fill-rule="nonzero"/></g></svg>