<svg xmlns="http://www.w3.org/2000/svg" xmlns:xlink="http://www.w3.org/1999/xlink" width="1080" zoomAndPan="magnify" viewBox="0 0 810 809.999993" height="1080" preserveAspectRatio="xMidYMid meet" version="1.0"><defs><clipPath id="0b51620e04"><path d="M 94.910156 100 L 621 100 L 621 627 L 94.910156 627 Z M 94.910156 100 " clip-rule="nonzero"/></clipPath></defs><path fill="#128227" d="M 255.621094 417.546875 L 192.257812 417.546875 C 184.679688 417.546875 178.46875 411.339844 178.46875 403.761719 L 178.46875 361.960938 C 178.46875 354.425781 184.679688 348.21875 192.257812 348.21875 L 255.621094 348.21875 C 263.160156 348.21875 269.367188 354.425781 269.367188 361.960938 L 269.367188 403.761719 C 269.367188 411.339844 263.160156 417.546875 255.621094 417.546875 " fill-opacity="1" fill-rule="nonzero"/><path fill="#128227" d="M 389.242188 417.546875 L 325.917969 417.546875 C 318.339844 417.546875 312.132812 411.339844 312.132812 403.761719 L 312.132812 361.960938 C 312.132812 354.425781 318.339844 348.21875 325.917969 348.21875 L 389.242188 348.21875 C 396.820312 348.21875 403.027344 354.425781 403.027344 361.960938 L 403.027344 403.761719 C 403.027344 411.339844 396.820312 417.546875 389.242188 417.546875 " fill-opacity="1" fill-rule="nonzero"/><path fill="#128227" d="M 536.652344 361.960938 L 536.652344 391.386719 C 529.433594 392.476562 522.179688 393.96875 514.925781 395.902344 C 497.351562 400.617188 480.902344 407.914062 466.03125 417.546875 L 459.539062 417.546875 C 451.960938 417.546875 445.796875 411.339844 445.796875 403.761719 L 445.796875 361.960938 C 445.796875 354.425781 451.960938 348.21875 459.539062 348.21875 L 522.90625 348.21875 C 530.484375 348.21875 536.652344 354.425781 536.652344 361.960938 " fill-opacity="1" fill-rule="nonzero"/><path fill="#128227" d="M 255.621094 537.34375 L 192.257812 537.34375 C 184.679688 537.34375 178.46875 531.136719 178.46875 523.597656 L 178.46875 481.800781 C 178.46875 474.222656 184.679688 468.011719 192.257812 468.011719 L 255.621094 468.011719 C 263.160156 468.011719 269.367188 474.222656 269.367188 481.800781 L 269.367188 523.597656 C 269.367188 531.136719 263.160156 537.34375 255.621094 537.34375 " fill-opacity="1" fill-rule="nonzero"/><path fill="#128227" d="M 403.027344 481.800781 L 403.027344 492.117188 C 396.820312 506.507812 392.628906 521.703125 390.53125 537.261719 C 390.128906 537.304688 389.6875 537.34375 389.242188 537.34375 L 325.917969 537.34375 C 318.339844 537.34375 312.132812 531.136719 312.132812 523.597656 L 312.132812 481.800781 C 312.132812 474.222656 318.339844 468.011719 325.917969 468.011719 L 389.242188 468.011719 C 396.820312 468.011719 403.027344 474.222656 403.027344 481.800781 " fill-opacity="1" fill-rule="nonzero"/><path fill="#128227" d="M 460.183594 179.847656 C 460.183594 180.898438 460.183594 181.945312 460.226562 182.992188 C 460.265625 188.835938 462.96875 193.511719 467.480469 197.0625 C 473.851562 202.058594 480.945312 202.863281 488.238281 199.640625 C 496.703125 195.851562 500.050781 188.597656 500.089844 179.726562 C 500.171875 160.703125 500.210938 141.71875 500.050781 122.691406 C 500.050781 119.710938 499.484375 116.523438 498.4375 113.703125 C 495.414062 105.238281 486.304688 99.757812 477.800781 100.925781 C 468.003906 102.253906 460.628906 109.632812 460.265625 119.347656 C 460.023438 126.601562 460.066406 133.855469 460.144531 141.152344 C 407.945312 141.3125 290.125 141.515625 288.027344 141.71875 C 288.027344 144.09375 288.027344 145.949219 288.027344 147.804688 C 287.988281 158.484375 288.148438 169.167969 287.90625 179.847656 C 338.898438 179.847656 407.261719 179.847656 460.183594 179.847656 " fill-opacity="1" fill-rule="nonzero"/><g clip-path="url(#0b51620e04)"><path fill="#128227" d="M 620.410156 400.132812 C 620.410156 334.59375 620.371094 269.089844 620.371094 203.550781 C 620.371094 202.019531 620.332031 200.488281 620.25 198.914062 C 618.800781 171.101562 599.167969 147.882812 571.878906 142.765625 C 563.050781 141.113281 553.863281 141.515625 544.792969 141.273438 C 536.652344 141.074219 538.746094 141.234375 529.917969 141.234375 L 529.917969 147.359375 C 529.917969 157.960938 530 168.5625 529.878906 179.203125 C 529.878906 179.40625 529.878906 179.648438 529.878906 179.847656 L 556.804688 179.847656 C 572 179.847656 580.304688 188.191406 580.304688 203.390625 L 580.304688 242.449219 L 134.816406 242.449219 L 134.816406 203.429688 C 134.816406 188.191406 143.160156 179.847656 158.355469 179.847656 L 215.109375 179.847656 C 215.191406 182.589844 215.554688 185.410156 216.402344 187.992188 C 219.261719 197.101562 228.089844 202.382812 238.125 201.210938 C 247.035156 200.246094 254.53125 192.625 254.894531 183.273438 C 255.257812 172.511719 254.976562 161.75 254.976562 150.949219 C 254.976562 140.347656 255.21875 129.707031 254.894531 119.144531 C 254.613281 110.679688 248.769531 103.949219 240.667969 101.691406 C 227.082031 97.863281 215.191406 107.617188 215.070312 122.933594 C 215.03125 129.019531 215.03125 135.148438 214.988281 141.234375 C 206.402344 141.234375 181.371094 141.113281 175.164062 141.234375 C 165.089844 141.476562 154.808594 140.710938 144.972656 142.402344 C 114.664062 147.601562 94.789062 172.390625 94.789062 203.871094 C 94.75 323.832031 94.710938 443.789062 94.789062 563.746094 C 94.789062 599.902344 121.152344 626.304688 157.269531 626.304688 C 238.8125 626.34375 320.316406 626.34375 401.859375 626.34375 C 397.183594 615.058594 393.757812 603.289062 391.660156 591.195312 C 391.339844 589.542969 391.097656 587.929688 390.855469 586.277344 C 313.34375 586.277344 235.828125 586.277344 158.355469 586.277344 C 143.160156 586.277344 134.816406 577.933594 134.816406 562.738281 C 134.816406 502.839844 134.816406 442.941406 134.816406 383.082031 C 134.816406 347.128906 134.816406 311.253906 134.816406 275.300781 L 580.304688 275.300781 C 580.34375 311.214844 580.34375 347.128906 580.34375 383.082031 L 580.34375 390.378906 C 594.171875 391.871094 607.511719 395.136719 620.410156 400.132812 " fill-opacity="1" fill-rule="nonzero"/></g><path fill="#128227" d="M 699.496094 510.457031 L 696.191406 514.289062 C 689.863281 521.460938 683.695312 528.675781 677.285156 535.773438 C 677.164062 535.851562 677.164062 535.851562 677.085938 535.972656 C 679.058594 544.476562 680.109375 553.46875 680.109375 562.578125 C 680.109375 629.246094 625.8125 683.542969 559.101562 683.542969 C 492.433594 683.542969 438.136719 629.246094 438.136719 562.578125 C 438.136719 495.785156 492.433594 441.613281 559.101562 441.613281 C 583.207031 441.613281 605.820312 448.707031 624.683594 461 C 632.785156 454.871094 641.007812 448.988281 649.394531 443.183594 C 624.199219 424.117188 593 412.789062 559.101562 412.789062 C 476.511719 412.789062 409.355469 479.984375 409.355469 562.578125 C 409.355469 645.128906 476.511719 712.324219 559.101562 712.324219 C 641.695312 712.324219 708.886719 645.128906 708.886719 562.578125 C 708.886719 544.277344 705.582031 526.660156 699.496094 510.457031 " fill-opacity="1" fill-rule="nonzero"/><path fill="#128227" d="M 714.207031 446.207031 C 713.925781 442.738281 711.347656 440.441406 705.019531 440.441406 C 704.574219 440.441406 704.089844 440.484375 703.648438 440.523438 C 701.429688 440.804688 699.535156 441.691406 698.125 442.417969 L 696.351562 443.386719 C 694.738281 444.230469 693.085938 445.117188 691.433594 445.964844 C 687.402344 448.140625 682.6875 450.761719 678.011719 453.863281 C 646.167969 474.988281 615.855469 499.011719 586.550781 522.226562 L 584.738281 523.640625 C 577.683594 529.203125 570.550781 535.007812 563.617188 540.570312 C 561.640625 542.179688 559.667969 543.753906 557.691406 545.363281 C 554.585938 542.785156 551.484375 540.164062 548.378906 537.585938 C 539.390625 530.046875 530.082031 522.226562 520.648438 514.851562 C 514.84375 510.335938 508.113281 507.234375 502.953125 505.058594 C 497.832031 502.878906 492.875 503.847656 490.015625 507.394531 C 487.878906 510.054688 487.191406 513.804688 488.121094 517.957031 C 488.84375 521.460938 489.851562 525.574219 491.503906 529.5625 C 500.695312 551.976562 513.511719 574.546875 531.8125 600.667969 C 537.617188 608.929688 546.445312 613.648438 556.039062 613.648438 C 563.980469 613.648438 571.679688 610.382812 577.726562 604.457031 C 583.449219 598.8125 589.375 592.847656 595.300781 586.722656 C 616.785156 564.550781 638.148438 542.261719 658.625 519.164062 C 669.585938 506.832031 680.390625 494.335938 691.3125 481.917969 C 694.214844 478.65625 714.972656 456.808594 714.207031 446.207031 " fill-opacity="1" fill-rule="nonzero"/></svg>