<svg xmlns="http://www.w3.org/2000/svg" xmlns:xlink="http://www.w3.org/1999/xlink" width="1080" zoomAndPan="magnify" viewBox="0 0 810 809.999993" height="1080" preserveAspectRatio="xMidYMid meet" version="1.0"><defs><clipPath id="b32061b9d3"><path d="M 123.800781 255 L 593 255 L 593 686.300781 L 123.800781 686.300781 Z M 123.800781 255 " clip-rule="nonzero"/></clipPath><clipPath id="28f15c8875"><path d="M 273 123.800781 L 686.300781 123.800781 L 686.300781 499 L 273 499 Z M 273 123.800781 " clip-rule="nonzero"/></clipPath></defs><g clip-path="url(#b32061b9d3)"><path fill="#128227" d="M 536.222656 255.023438 L 180.039062 255.023438 C 178.199219 255.023438 176.359375 255.117188 174.527344 255.296875 C 172.695312 255.476562 170.875 255.746094 169.066406 256.105469 C 167.261719 256.464844 165.476562 256.914062 163.714844 257.445312 C 161.953125 257.980469 160.21875 258.601562 158.515625 259.304688 C 156.816406 260.011719 155.152344 260.796875 153.527344 261.664062 C 151.902344 262.535156 150.324219 263.480469 148.792969 264.503906 C 147.261719 265.527344 145.785156 266.621094 144.363281 267.792969 C 142.9375 268.960938 141.574219 270.195312 140.273438 271.496094 C 138.96875 272.800781 137.734375 274.164062 136.566406 275.585938 C 135.398438 277.011719 134.300781 278.488281 133.277344 280.019531 C 132.253906 281.550781 131.308594 283.128906 130.441406 284.753906 C 129.574219 286.378906 128.785156 288.042969 128.082031 289.742188 C 127.375 291.445312 126.757812 293.175781 126.222656 294.9375 C 125.6875 296.703125 125.238281 298.488281 124.878906 300.292969 C 124.519531 302.097656 124.25 303.917969 124.070312 305.753906 C 123.890625 307.585938 123.800781 309.421875 123.800781 311.265625 L 123.800781 554.96875 C 123.800781 556.8125 123.890625 558.648438 124.070312 560.480469 C 124.25 562.316406 124.519531 564.132812 124.878906 565.941406 C 125.238281 567.746094 125.6875 569.53125 126.222656 571.292969 C 126.757812 573.058594 127.375 574.789062 128.082031 576.492188 C 128.785156 578.191406 129.574219 579.855469 130.441406 581.480469 C 131.308594 583.105469 132.253906 584.683594 133.277344 586.214844 C 134.300781 587.746094 135.398438 589.222656 136.566406 590.648438 C 137.734375 592.070312 138.96875 593.433594 140.273438 594.734375 C 141.574219 596.039062 142.9375 597.273438 144.363281 598.441406 C 145.785156 599.609375 147.261719 600.707031 148.792969 601.730469 C 150.324219 602.753906 151.902344 603.699219 153.527344 604.566406 C 155.152344 605.4375 156.816406 606.222656 158.515625 606.925781 C 160.21875 607.632812 161.953125 608.253906 163.714844 608.785156 C 165.476562 609.320312 167.261719 609.769531 169.066406 610.128906 C 170.875 610.488281 172.695312 610.757812 174.527344 610.9375 C 176.359375 611.117188 178.199219 611.207031 180.039062 611.207031 L 264.398438 611.207031 L 303.765625 663.699219 C 304.417969 664.566406 305.09375 665.417969 305.796875 666.246094 C 306.496094 667.078125 307.222656 667.886719 307.96875 668.675781 C 308.71875 669.464844 309.488281 670.230469 310.28125 670.972656 C 311.074219 671.714844 311.886719 672.4375 312.722656 673.132812 C 313.558594 673.828125 314.410156 674.5 315.285156 675.148438 C 316.15625 675.792969 317.046875 676.414062 317.957031 677.011719 C 318.867188 677.605469 319.792969 678.175781 320.734375 678.714844 C 321.675781 679.257812 322.632812 679.769531 323.605469 680.257812 C 324.578125 680.742188 325.5625 681.199219 326.5625 681.628906 C 327.5625 682.058594 328.570312 682.457031 329.59375 682.828125 C 330.613281 683.199219 331.644531 683.539062 332.6875 683.847656 C 333.730469 684.160156 334.777344 684.441406 335.835938 684.691406 C 336.894531 684.941406 337.957031 685.160156 339.027344 685.347656 C 340.097656 685.535156 341.175781 685.691406 342.253906 685.816406 C 343.332031 685.941406 344.414062 686.035156 345.5 686.101562 C 346.585938 686.164062 347.671875 686.195312 348.757812 686.195312 C 349.84375 686.195312 350.929688 686.164062 352.015625 686.101562 C 353.101562 686.035156 354.183594 685.941406 355.261719 685.816406 C 356.339844 685.691406 357.417969 685.535156 358.488281 685.347656 C 359.558594 685.160156 360.621094 684.941406 361.679688 684.691406 C 362.738281 684.441406 363.785156 684.160156 364.828125 683.847656 C 365.867188 683.539062 366.902344 683.199219 367.921875 682.828125 C 368.945312 682.457031 369.953125 682.058594 370.953125 681.628906 C 371.953125 681.199219 372.9375 680.742188 373.910156 680.257812 C 374.878906 679.769531 375.839844 679.257812 376.78125 678.714844 C 377.722656 678.175781 378.648438 677.605469 379.558594 677.011719 C 380.46875 676.414062 381.359375 675.792969 382.230469 675.148438 C 383.105469 674.5 383.957031 673.828125 384.792969 673.132812 C 385.628906 672.4375 386.441406 671.714844 387.234375 670.972656 C 388.027344 670.230469 388.796875 669.464844 389.542969 668.675781 C 390.292969 667.886719 391.019531 667.078125 391.71875 666.246094 C 392.421875 665.417969 393.097656 664.566406 393.75 663.699219 L 404.996094 648.703125 L 367.503906 648.703125 L 367.503906 611.207031 L 536.222656 611.207031 C 538.0625 611.207031 539.902344 611.117188 541.734375 610.9375 C 543.566406 610.757812 545.386719 610.488281 547.195312 610.128906 C 549 609.769531 550.785156 609.320312 552.546875 608.785156 C 554.3125 608.253906 556.042969 607.632812 557.746094 606.925781 C 559.445312 606.222656 561.109375 605.4375 562.734375 604.566406 C 564.359375 603.699219 565.9375 602.753906 567.46875 601.730469 C 569 600.707031 570.476562 599.609375 571.902344 598.441406 C 573.324219 597.273438 574.6875 596.039062 575.988281 594.734375 C 577.292969 593.433594 578.527344 592.070312 579.695312 590.648438 C 580.863281 589.222656 581.960938 587.746094 582.984375 586.214844 C 584.007812 584.683594 584.953125 583.105469 585.820312 581.480469 C 586.691406 579.855469 587.476562 578.191406 588.179688 576.492188 C 588.886719 574.789062 589.503906 573.058594 590.039062 571.292969 C 590.574219 569.53125 591.023438 567.746094 591.382812 565.941406 C 591.742188 564.132812 592.011719 562.316406 592.191406 560.480469 C 592.371094 558.648438 592.460938 556.8125 592.460938 554.96875 L 592.460938 311.265625 C 592.460938 309.421875 592.371094 307.585938 592.191406 305.753906 C 592.011719 303.917969 591.742188 302.097656 591.382812 300.292969 C 591.023438 298.488281 590.574219 296.703125 590.039062 294.9375 C 589.503906 293.175781 588.886719 291.445312 588.179688 289.742188 C 587.476562 288.042969 586.691406 286.378906 585.820312 284.753906 C 584.953125 283.128906 584.007812 281.550781 582.984375 280.019531 C 581.960938 278.488281 580.863281 277.011719 579.695312 275.585938 C 578.527344 274.164062 577.292969 272.800781 575.988281 271.496094 C 574.6875 270.195312 573.324219 268.960938 571.902344 267.792969 C 570.476562 266.621094 569 265.527344 567.46875 264.503906 C 565.9375 263.480469 564.359375 262.535156 562.734375 261.664062 C 561.109375 260.796875 559.445312 260.011719 557.746094 259.304688 C 556.042969 258.601562 554.3125 257.980469 552.546875 257.445312 C 550.785156 256.914062 549 256.464844 547.195312 256.105469 C 545.386719 255.746094 543.566406 255.476562 541.734375 255.296875 C 539.902344 255.117188 538.0625 255.023438 536.222656 255.023438 Z M 198.785156 339.382812 L 273.773438 339.382812 L 273.773438 376.878906 L 198.785156 376.878906 Z M 517.476562 526.847656 L 198.785156 526.847656 L 198.785156 489.355469 L 517.476562 489.355469 Z M 517.476562 451.863281 L 198.785156 451.863281 L 198.785156 414.371094 L 517.476562 414.371094 Z M 517.476562 376.878906 L 311.265625 376.878906 L 311.265625 339.382812 L 517.476562 339.382812 Z M 517.476562 376.878906 " fill-opacity="1" fill-rule="nonzero"/></g><g clip-path="url(#28f15c8875)"><path fill="#128227" d="M 629.953125 123.800781 L 330.011719 123.800781 C 328.167969 123.800781 326.332031 123.890625 324.5 124.070312 C 322.664062 124.25 320.847656 124.519531 319.039062 124.878906 C 317.234375 125.238281 315.449219 125.6875 313.6875 126.222656 C 311.921875 126.757812 310.191406 127.375 308.488281 128.082031 C 306.789062 128.785156 305.125 129.574219 303.5 130.441406 C 301.875 131.308594 300.296875 132.253906 298.765625 133.277344 C 297.234375 134.300781 295.757812 135.398438 294.332031 136.566406 C 292.910156 137.734375 291.546875 138.96875 290.242188 140.273438 C 288.941406 141.574219 287.707031 142.9375 286.539062 144.363281 C 285.367188 145.785156 284.273438 147.261719 283.25 148.792969 C 282.226562 150.324219 281.28125 151.902344 280.414062 153.527344 C 279.542969 155.152344 278.757812 156.816406 278.050781 158.515625 C 277.347656 160.21875 276.726562 161.953125 276.195312 163.714844 C 275.660156 165.476562 275.210938 167.261719 274.851562 169.066406 C 274.492188 170.875 274.222656 172.695312 274.042969 174.527344 C 273.863281 176.359375 273.773438 178.199219 273.773438 180.039062 L 273.773438 217.53125 L 536.222656 217.53125 C 537.757812 217.535156 539.289062 217.574219 540.820312 217.652344 C 542.351562 217.726562 543.878906 217.84375 545.40625 217.992188 C 546.933594 218.144531 548.453125 218.335938 549.96875 218.5625 C 551.488281 218.789062 552.996094 219.050781 554.5 219.351562 C 556.003906 219.652344 557.5 219.988281 558.988281 220.363281 C 560.476562 220.738281 561.953125 221.148438 563.417969 221.59375 C 564.886719 222.039062 566.339844 222.523438 567.785156 223.039062 C 569.230469 223.558594 570.660156 224.109375 572.074219 224.695312 C 573.492188 225.285156 574.890625 225.90625 576.277344 226.5625 C 577.664062 227.21875 579.035156 227.910156 580.386719 228.632812 C 581.738281 229.355469 583.070312 230.113281 584.386719 230.902344 C 585.699219 231.691406 586.996094 232.511719 588.269531 233.363281 C 589.546875 234.214844 590.800781 235.097656 592.03125 236.011719 C 593.261719 236.925781 594.46875 237.871094 595.65625 238.84375 C 596.839844 239.816406 598 240.816406 599.136719 241.847656 C 600.273438 242.878906 601.382812 243.933594 602.46875 245.019531 C 603.554688 246.101562 604.609375 247.214844 605.640625 248.347656 C 606.667969 249.484375 607.671875 250.644531 608.644531 251.832031 C 609.617188 253.015625 610.5625 254.226562 611.472656 255.457031 C 612.386719 256.6875 613.269531 257.941406 614.125 259.214844 C 614.976562 260.492188 615.796875 261.785156 616.585938 263.101562 C 617.375 264.417969 618.128906 265.75 618.855469 267.101562 C 619.578125 268.453125 620.265625 269.824219 620.925781 271.207031 C 621.582031 272.59375 622.203125 273.996094 622.789062 275.414062 C 623.378906 276.828125 623.929688 278.257812 624.449219 279.703125 C 624.964844 281.144531 625.449219 282.601562 625.894531 284.066406 C 626.339844 285.535156 626.75 287.011719 627.125 288.5 C 627.496094 289.988281 627.835938 291.484375 628.136719 292.984375 C 628.4375 294.488281 628.699219 296 628.925781 297.515625 C 629.152344 299.035156 629.339844 300.554688 629.492188 302.082031 C 629.644531 303.605469 629.757812 305.136719 629.835938 306.667969 C 629.914062 308.199219 629.953125 309.730469 629.953125 311.265625 L 629.953125 498.730469 C 631.796875 498.730469 633.632812 498.640625 635.46875 498.457031 C 637.300781 498.277344 639.121094 498.007812 640.925781 497.648438 C 642.734375 497.289062 644.519531 496.84375 646.28125 496.308594 C 648.042969 495.773438 649.773438 495.152344 651.476562 494.449219 C 653.179688 493.742188 654.839844 492.957031 656.464844 492.089844 C 658.089844 491.21875 659.667969 490.273438 661.199219 489.25 C 662.730469 488.226562 664.207031 487.132812 665.632812 485.964844 C 667.054688 484.796875 668.417969 483.558594 669.722656 482.257812 C 671.023438 480.953125 672.261719 479.59375 673.429688 478.167969 C 674.597656 476.746094 675.691406 475.265625 676.714844 473.734375 C 677.738281 472.203125 678.683594 470.625 679.554688 469 C 680.421875 467.375 681.207031 465.714844 681.914062 464.011719 C 682.617188 462.308594 683.238281 460.578125 683.773438 458.816406 C 684.308594 457.054688 684.753906 455.269531 685.113281 453.460938 C 685.472656 451.65625 685.742188 449.835938 685.921875 448.003906 C 686.105469 446.167969 686.195312 444.332031 686.195312 442.488281 L 686.195312 180.039062 C 686.195312 178.199219 686.105469 176.359375 685.921875 174.527344 C 685.742188 172.695312 685.472656 170.875 685.113281 169.066406 C 684.753906 167.261719 684.308594 165.476562 683.773438 163.714844 C 683.238281 161.953125 682.617188 160.21875 681.914062 158.515625 C 681.207031 156.816406 680.421875 155.152344 679.554688 153.527344 C 678.683594 151.902344 677.738281 150.324219 676.714844 148.792969 C 675.691406 147.261719 674.597656 145.785156 673.429688 144.363281 C 672.261719 142.9375 671.023438 141.574219 669.722656 140.273438 C 668.417969 138.96875 667.054688 137.734375 665.632812 136.566406 C 664.207031 135.398438 662.730469 134.300781 661.199219 133.277344 C 659.667969 132.253906 658.089844 131.308594 656.464844 130.441406 C 654.839844 129.574219 653.179688 128.785156 651.476562 128.082031 C 649.773438 127.375 648.042969 126.757812 646.28125 126.222656 C 644.519531 125.6875 642.734375 125.238281 640.925781 124.878906 C 639.121094 124.519531 637.300781 124.25 635.46875 124.070312 C 633.632812 123.890625 631.796875 123.800781 629.953125 123.800781 Z M 404.996094 189.414062 L 348.757812 189.414062 L 348.757812 151.917969 L 404.996094 151.917969 Z M 498.730469 189.414062 L 442.488281 189.414062 L 442.488281 151.917969 L 498.730469 151.917969 Z M 498.730469 189.414062 " fill-opacity="1" fill-rule="nonzero"/></g></svg>