<svg xmlns="http://www.w3.org/2000/svg" xmlns:xlink="http://www.w3.org/1999/xlink" width="1080" zoomAndPan="magnify" viewBox="0 0 810 809.999993" height="1080" preserveAspectRatio="xMidYMid meet" version="1.0"><defs><clipPath id="408752f6f0"><path d="M 402 384 L 695.445312 384 L 695.445312 599 L 402 599 Z M 402 384 " clip-rule="nonzero"/></clipPath><clipPath id="6bd8fec272"><path d="M 114.546875 442 L 442 442 L 442 657 L 114.546875 657 Z M 114.546875 442 " clip-rule="nonzero"/></clipPath></defs><g clip-path="url(#408752f6f0)"><path fill="#ffffff" d="M 402.074219 429.234375 C 413.65625 411.5 428.195312 396.582031 445.722656 385.34375 C 448.164062 383.761719 451.359375 384.003906 453.699219 385.722656 C 475.625 401.773438 502.640625 411.257812 531.855469 411.257812 C 561.105469 411.257812 588.117188 401.773438 610.046875 385.722656 C 612.417969 384.003906 615.582031 383.761719 618.054688 385.34375 C 669.921875 418.714844 695.734375 484.089844 695.734375 559.222656 C 695.734375 591.222656 571.175781 603.527344 475.660156 596.03125 C 471.292969 525.230469 445.207031 466.320312 402.074219 429.234375 Z M 402.074219 429.234375 " fill-opacity="1" fill-rule="nonzero"/></g><path fill="#ffffff" d="M 462.671875 209.542969 C 461.539062 210.675781 460.433594 211.835938 459.359375 213.023438 C 458.28125 214.207031 457.234375 215.421875 456.21875 216.660156 C 455.203125 217.898438 454.21875 219.160156 453.265625 220.445312 C 452.308594 221.734375 451.386719 223.042969 450.5 224.375 C 449.609375 225.707031 448.75 227.058594 447.929688 228.433594 C 447.105469 229.804688 446.316406 231.199219 445.5625 232.613281 C 444.804688 234.023438 444.085938 235.453125 443.402344 236.902344 C 442.714844 238.351562 442.066406 239.816406 441.453125 241.292969 C 440.839844 242.773438 440.265625 244.269531 439.726562 245.777344 C 439.1875 247.285156 438.683594 248.804688 438.21875 250.335938 C 437.753906 251.871094 437.328125 253.414062 436.9375 254.96875 C 436.546875 256.519531 436.195312 258.082031 435.882812 259.65625 C 435.570312 261.226562 435.296875 262.804688 435.0625 264.386719 C 434.828125 265.972656 434.632812 267.5625 434.476562 269.15625 C 434.316406 270.75 434.199219 272.347656 434.121094 273.945312 C 434.042969 275.546875 434.003906 277.148438 434.003906 278.75 C 434.003906 280.351562 434.042969 281.949219 434.121094 283.550781 C 434.199219 285.152344 434.316406 286.746094 434.476562 288.339844 C 434.632812 289.9375 434.828125 291.523438 435.0625 293.109375 C 435.296875 294.695312 435.570312 296.269531 435.882812 297.84375 C 436.195312 299.414062 436.546875 300.976562 436.9375 302.53125 C 437.328125 304.082031 437.753906 305.625 438.21875 307.160156 C 438.683594 308.691406 439.1875 310.210938 439.726562 311.71875 C 440.265625 313.230469 440.839844 314.722656 441.453125 316.203125 C 442.066406 317.683594 442.714844 319.144531 443.402344 320.59375 C 444.085938 322.042969 444.804688 323.472656 445.5625 324.886719 C 446.316406 326.296875 447.105469 327.691406 447.929688 329.066406 C 448.75 330.4375 449.609375 331.792969 450.5 333.125 C 451.386719 334.457031 452.308594 335.765625 453.265625 337.050781 C 454.21875 338.335938 455.203125 339.601562 456.21875 340.839844 C 457.234375 342.074219 458.28125 343.289062 459.359375 344.476562 C 460.433594 345.664062 461.539062 346.820312 462.671875 347.953125 C 463.800781 349.085938 464.960938 350.191406 466.148438 351.265625 C 467.335938 352.34375 468.546875 353.386719 469.785156 354.40625 C 471.023438 355.421875 472.289062 356.40625 473.574219 357.359375 C 474.859375 358.3125 476.167969 359.238281 477.5 360.125 C 478.832031 361.015625 480.1875 361.871094 481.558594 362.695312 C 482.933594 363.519531 484.328125 364.308594 485.738281 365.0625 C 487.152344 365.820312 488.582031 366.539062 490.03125 367.222656 C 491.476562 367.910156 492.941406 368.558594 494.421875 369.171875 C 495.902344 369.785156 497.394531 370.359375 498.902344 370.898438 C 500.414062 371.4375 501.933594 371.941406 503.464844 372.40625 C 505 372.871094 506.542969 373.296875 508.09375 373.6875 C 509.648438 374.078125 511.210938 374.425781 512.78125 374.738281 C 514.351562 375.050781 515.929688 375.328125 517.515625 375.5625 C 519.101562 375.796875 520.6875 375.992188 522.28125 376.148438 C 523.878906 376.304688 525.472656 376.425781 527.074219 376.503906 C 528.671875 376.582031 530.273438 376.621094 531.875 376.621094 C 533.476562 376.621094 535.078125 376.582031 536.679688 376.503906 C 538.277344 376.425781 539.875 376.304688 541.46875 376.148438 C 543.0625 375.992188 544.652344 375.796875 546.238281 375.5625 C 547.820312 375.328125 549.398438 375.050781 550.96875 374.738281 C 552.542969 374.425781 554.101562 374.078125 555.65625 373.6875 C 557.210938 373.296875 558.753906 372.871094 560.285156 372.40625 C 561.820312 371.941406 563.339844 371.4375 564.847656 370.898438 C 566.355469 370.359375 567.851562 369.785156 569.332031 369.171875 C 570.808594 368.558594 572.273438 367.910156 573.722656 367.222656 C 575.167969 366.539062 576.601562 365.820312 578.011719 365.0625 C 579.425781 364.308594 580.820312 363.519531 582.191406 362.695312 C 583.566406 361.871094 584.917969 361.015625 586.25 360.125 C 587.582031 359.238281 588.890625 358.3125 590.179688 357.359375 C 591.464844 356.40625 592.726562 355.421875 593.964844 354.40625 C 595.203125 353.386719 596.417969 352.34375 597.601562 351.265625 C 598.789062 350.191406 599.949219 349.085938 601.082031 347.953125 C 602.214844 346.820312 603.320312 345.664062 604.394531 344.476562 C 605.46875 343.289062 606.515625 342.074219 607.53125 340.839844 C 608.546875 339.601562 609.535156 338.335938 610.488281 337.050781 C 611.441406 335.765625 612.363281 334.457031 613.253906 333.125 C 614.144531 331.792969 615 330.4375 615.824219 329.066406 C 616.648438 327.691406 617.4375 326.296875 618.191406 324.886719 C 618.945312 323.472656 619.667969 322.042969 620.351562 320.59375 C 621.035156 319.144531 621.683594 317.683594 622.296875 316.203125 C 622.910156 314.722656 623.488281 313.230469 624.027344 311.71875 C 624.566406 310.210938 625.070312 308.691406 625.535156 307.160156 C 626 305.625 626.425781 304.082031 626.816406 302.53125 C 627.203125 300.976562 627.554688 299.414062 627.867188 297.84375 C 628.179688 296.269531 628.453125 294.695312 628.6875 293.109375 C 628.925781 291.523438 629.121094 289.9375 629.277344 288.339844 C 629.433594 286.746094 629.550781 285.152344 629.628906 283.550781 C 629.710938 281.949219 629.75 280.351562 629.75 278.75 C 629.75 277.148438 629.710938 275.546875 629.628906 273.945312 C 629.550781 272.347656 629.433594 270.75 629.277344 269.15625 C 629.121094 267.5625 628.925781 265.972656 628.6875 264.386719 C 628.453125 262.804688 628.179688 261.226562 627.867188 259.65625 C 627.554688 258.082031 627.203125 256.519531 626.816406 254.96875 C 626.425781 253.414062 626 251.871094 625.535156 250.335938 C 625.070312 248.804688 624.566406 247.285156 624.027344 245.777344 C 623.488281 244.269531 622.910156 242.773438 622.296875 241.292969 C 621.683594 239.816406 621.035156 238.351562 620.351562 236.902344 C 619.667969 235.453125 618.945312 234.023438 618.191406 232.613281 C 617.4375 231.199219 616.648438 229.804688 615.824219 228.433594 C 615 227.058594 614.144531 225.707031 613.253906 224.375 C 612.363281 223.042969 611.441406 221.734375 610.488281 220.445312 C 609.535156 219.160156 608.546875 217.898438 607.53125 216.660156 C 606.515625 215.421875 605.46875 214.207031 604.394531 213.023438 C 603.320312 211.835938 602.214844 210.675781 601.082031 209.542969 C 599.949219 208.410156 598.789062 207.304688 597.601562 206.230469 C 596.417969 205.152344 595.203125 204.109375 593.964844 203.09375 C 592.726562 202.074219 591.464844 201.089844 590.179688 200.136719 C 588.890625 199.183594 587.582031 198.261719 586.25 197.371094 C 584.917969 196.480469 583.566406 195.625 582.191406 194.800781 C 580.820312 193.976562 579.425781 193.1875 578.011719 192.433594 C 576.601562 191.679688 575.167969 190.957031 573.722656 190.273438 C 572.273438 189.589844 570.808594 188.9375 569.332031 188.328125 C 567.851562 187.714844 566.355469 187.136719 564.847656 186.597656 C 563.339844 186.058594 561.820312 185.554688 560.285156 185.089844 C 558.753906 184.625 557.210938 184.199219 555.65625 183.808594 C 554.101562 183.421875 552.542969 183.070312 550.96875 182.757812 C 549.398438 182.445312 547.820312 182.171875 546.238281 181.9375 C 544.652344 181.699219 543.0625 181.503906 541.46875 181.347656 C 539.875 181.191406 538.277344 181.074219 536.679688 180.996094 C 535.078125 180.914062 533.476562 180.875 531.875 180.875 C 530.273438 180.875 528.671875 180.914062 527.074219 180.996094 C 525.472656 181.074219 523.878906 181.191406 522.28125 181.347656 C 520.6875 181.503906 519.101562 181.699219 517.515625 181.9375 C 515.929688 182.171875 514.351562 182.445312 512.78125 182.757812 C 511.210938 183.070312 509.648438 183.421875 508.09375 183.808594 C 506.542969 184.199219 505 184.625 503.464844 185.089844 C 501.933594 185.554688 500.414062 186.058594 498.902344 186.597656 C 497.394531 187.136719 495.902344 187.714844 494.421875 188.328125 C 492.941406 188.9375 491.476562 189.589844 490.03125 190.273438 C 488.582031 190.957031 487.152344 191.679688 485.738281 192.433594 C 484.328125 193.1875 482.933594 193.976562 481.558594 194.800781 C 480.1875 195.625 478.832031 196.480469 477.5 197.371094 C 476.167969 198.261719 474.859375 199.183594 473.574219 200.136719 C 472.289062 201.089844 471.023438 202.074219 469.785156 203.09375 C 468.546875 204.109375 467.335938 205.152344 466.148438 206.230469 C 464.960938 207.304688 463.800781 208.410156 462.671875 209.542969 Z M 462.671875 209.542969 " fill-opacity="1" fill-rule="nonzero"/><g clip-path="url(#6bd8fec272)"><path fill="#ffffff" d="M 191.949219 443.761719 C 194.40625 442.179688 197.582031 442.417969 199.941406 444.144531 C 221.847656 460.191406 248.890625 469.6875 278.09375 469.6875 C 307.332031 469.6875 334.34375 460.1875 356.28125 444.140625 C 358.640625 442.414062 361.816406 442.179688 364.273438 443.761719 C 416.164062 477.140625 441.964844 542.503906 441.964844 617.664062 C 441.964844 669.582031 114.257812 669.582031 114.257812 617.664062 C 114.257812 542.507812 140.058594 477.144531 191.949219 443.761719 Z M 191.949219 443.761719 " fill-opacity="1" fill-rule="nonzero"/></g><path fill="#ffffff" d="M 180.238281 337.175781 C 180.238281 338.777344 180.277344 340.378906 180.355469 341.980469 C 180.433594 343.578125 180.550781 345.175781 180.707031 346.769531 C 180.867188 348.363281 181.0625 349.953125 181.296875 351.539062 C 181.53125 353.121094 181.804688 354.699219 182.117188 356.269531 C 182.429688 357.84375 182.78125 359.40625 183.171875 360.957031 C 183.558594 362.511719 183.988281 364.054688 184.453125 365.589844 C 184.917969 367.121094 185.417969 368.640625 185.957031 370.148438 C 186.5 371.65625 187.074219 373.152344 187.6875 374.632812 C 188.300781 376.109375 188.949219 377.574219 189.632812 379.023438 C 190.320312 380.472656 191.039062 381.902344 191.792969 383.3125 C 192.550781 384.726562 193.339844 386.121094 194.160156 387.492188 C 194.984375 388.867188 195.84375 390.21875 196.730469 391.550781 C 197.621094 392.882812 198.542969 394.191406 199.496094 395.480469 C 200.453125 396.765625 201.4375 398.027344 202.453125 399.265625 C 203.46875 400.503906 204.515625 401.71875 205.589844 402.902344 C 206.667969 404.089844 207.769531 405.25 208.902344 406.382812 C 210.035156 407.515625 211.195312 408.621094 212.382812 409.695312 C 213.570312 410.769531 214.78125 411.816406 216.019531 412.832031 C 217.257812 413.847656 218.519531 414.835938 219.808594 415.789062 C 221.09375 416.742188 222.402344 417.664062 223.734375 418.554688 C 225.066406 419.445312 226.417969 420.300781 227.792969 421.125 C 229.167969 421.949219 230.558594 422.738281 231.972656 423.492188 C 233.386719 424.246094 234.816406 424.96875 236.261719 425.652344 C 237.710938 426.335938 239.175781 426.984375 240.65625 427.597656 C 242.136719 428.210938 243.628906 428.789062 245.136719 429.328125 C 246.644531 429.867188 248.164062 430.371094 249.699219 430.835938 C 251.230469 431.300781 252.773438 431.726562 254.328125 432.117188 C 255.882812 432.503906 257.445312 432.855469 259.015625 433.167969 C 260.585938 433.480469 262.164062 433.753906 263.75 433.988281 C 265.332031 434.226562 266.921875 434.421875 268.515625 434.578125 C 270.109375 434.734375 271.707031 434.851562 273.308594 434.929688 C 274.90625 435.011719 276.507812 435.050781 278.109375 435.050781 C 279.710938 435.050781 281.3125 435.011719 282.910156 434.929688 C 284.511719 434.851562 286.109375 434.734375 287.703125 434.578125 C 289.296875 434.421875 290.886719 434.226562 292.46875 433.988281 C 294.054688 433.753906 295.632812 433.480469 297.203125 433.167969 C 298.773438 432.855469 300.335938 432.503906 301.890625 432.117188 C 303.445312 431.726562 304.988281 431.300781 306.519531 430.835938 C 308.050781 430.371094 309.574219 429.867188 311.082031 429.328125 C 312.589844 428.789062 314.082031 428.210938 315.5625 427.597656 C 317.042969 426.984375 318.507812 426.335938 319.953125 425.652344 C 321.402344 424.96875 322.832031 424.246094 324.246094 423.492188 C 325.65625 422.738281 327.050781 421.949219 328.425781 421.125 C 329.800781 420.300781 331.152344 419.445312 332.484375 418.554688 C 333.816406 417.664062 335.125 416.742188 336.410156 415.789062 C 337.699219 414.835938 338.960938 413.847656 340.199219 412.832031 C 341.4375 411.816406 342.648438 410.769531 343.835938 409.695312 C 345.023438 408.621094 346.183594 407.515625 347.316406 406.382812 C 348.449219 405.25 349.550781 404.089844 350.628906 402.902344 C 351.703125 401.71875 352.75 400.503906 353.765625 399.265625 C 354.78125 398.027344 355.765625 396.765625 356.71875 395.480469 C 357.675781 394.191406 358.597656 392.882812 359.488281 391.550781 C 360.375 390.21875 361.234375 388.867188 362.054688 387.492188 C 362.878906 386.121094 363.667969 384.726562 364.425781 383.3125 C 365.179688 381.902344 365.898438 380.472656 366.585938 379.023438 C 367.269531 377.574219 367.917969 376.109375 368.53125 374.632812 C 369.144531 373.152344 369.71875 371.65625 370.257812 370.148438 C 370.800781 368.640625 371.300781 367.121094 371.765625 365.589844 C 372.230469 364.054688 372.660156 362.511719 373.046875 360.957031 C 373.4375 359.40625 373.789062 357.84375 374.101562 356.269531 C 374.414062 354.699219 374.6875 353.121094 374.921875 351.539062 C 375.15625 349.953125 375.351562 348.363281 375.507812 346.769531 C 375.667969 345.175781 375.785156 343.578125 375.863281 341.980469 C 375.941406 340.378906 375.980469 338.777344 375.980469 337.175781 C 375.980469 335.574219 375.941406 333.976562 375.863281 332.375 C 375.785156 330.773438 375.667969 329.179688 375.507812 327.585938 C 375.351562 325.992188 375.15625 324.402344 374.921875 322.816406 C 374.6875 321.230469 374.414062 319.65625 374.101562 318.082031 C 373.789062 316.511719 373.4375 314.949219 373.046875 313.398438 C 372.660156 311.84375 372.230469 310.300781 371.765625 308.765625 C 371.300781 307.234375 370.800781 305.714844 370.257812 304.207031 C 369.71875 302.699219 369.144531 301.203125 368.53125 299.722656 C 367.917969 298.242188 367.269531 296.78125 366.585938 295.332031 C 365.898438 293.882812 365.179688 292.453125 364.425781 291.042969 C 363.667969 289.628906 362.878906 288.234375 362.054688 286.863281 C 361.234375 285.488281 360.375 284.132812 359.488281 282.804688 C 358.597656 281.472656 357.675781 280.160156 356.71875 278.875 C 355.765625 277.589844 354.78125 276.328125 353.765625 275.089844 C 352.75 273.851562 351.703125 272.636719 350.628906 271.449219 C 349.550781 270.265625 348.449219 269.105469 347.316406 267.972656 C 346.183594 266.839844 345.023438 265.734375 343.835938 264.660156 C 342.648438 263.582031 341.4375 262.539062 340.199219 261.523438 C 338.960938 260.503906 337.699219 259.519531 336.410156 258.566406 C 335.125 257.613281 333.816406 256.691406 332.484375 255.800781 C 331.152344 254.910156 329.800781 254.054688 328.425781 253.230469 C 327.050781 252.40625 325.65625 251.617188 324.246094 250.863281 C 322.832031 250.109375 321.402344 249.386719 319.953125 248.703125 C 318.507812 248.019531 317.042969 247.367188 315.5625 246.757812 C 314.082031 246.144531 312.589844 245.566406 311.082031 245.027344 C 309.574219 244.488281 308.050781 243.984375 306.519531 243.519531 C 304.988281 243.054688 303.445312 242.628906 301.890625 242.238281 C 300.335938 241.851562 298.773438 241.5 297.203125 241.1875 C 295.632812 240.875 294.054688 240.601562 292.46875 240.367188 C 290.886719 240.128906 289.296875 239.933594 287.703125 239.777344 C 286.109375 239.621094 284.511719 239.503906 282.910156 239.421875 C 281.3125 239.34375 279.710938 239.304688 278.109375 239.304688 C 276.507812 239.304688 274.90625 239.34375 273.308594 239.421875 C 271.707031 239.503906 270.109375 239.621094 268.515625 239.777344 C 266.921875 239.933594 265.332031 240.128906 263.75 240.367188 C 262.164062 240.601562 260.585938 240.875 259.015625 241.1875 C 257.445312 241.5 255.882812 241.851562 254.328125 242.238281 C 252.773438 242.628906 251.230469 243.054688 249.699219 243.519531 C 248.164062 243.984375 246.644531 244.488281 245.136719 245.027344 C 243.628906 245.566406 242.136719 246.144531 240.65625 246.757812 C 239.175781 247.367188 237.710938 248.019531 236.261719 248.703125 C 234.816406 249.386719 233.386719 250.109375 231.972656 250.863281 C 230.558594 251.617188 229.167969 252.40625 227.792969 253.230469 C 226.417969 254.054688 225.066406 254.910156 223.734375 255.800781 C 222.402344 256.691406 221.09375 257.613281 219.808594 258.566406 C 218.519531 259.519531 217.257812 260.503906 216.019531 261.523438 C 214.78125 262.539062 213.570312 263.582031 212.382812 264.660156 C 211.195312 265.734375 210.035156 266.839844 208.902344 267.972656 C 207.769531 269.105469 206.667969 270.265625 205.589844 271.449219 C 204.515625 272.636719 203.46875 273.851562 202.453125 275.089844 C 201.4375 276.328125 200.453125 277.589844 199.496094 278.875 C 198.542969 280.160156 197.621094 281.472656 196.730469 282.804688 C 195.84375 284.132812 194.984375 285.488281 194.160156 286.863281 C 193.339844 288.234375 192.550781 289.628906 191.792969 291.042969 C 191.039062 292.453125 190.320312 293.882812 189.632812 295.332031 C 188.949219 296.78125 188.300781 298.242188 187.6875 299.722656 C 187.074219 301.203125 186.5 302.699219 185.957031 304.207031 C 185.417969 305.714844 184.917969 307.234375 184.453125 308.765625 C 183.988281 310.300781 183.558594 311.84375 183.171875 313.398438 C 182.78125 314.949219 182.429688 316.511719 182.117188 318.082031 C 181.804688 319.65625 181.53125 321.230469 181.296875 322.816406 C 181.0625 324.402344 180.867188 325.992188 180.707031 327.585938 C 180.550781 329.179688 180.433594 330.773438 180.355469 332.375 C 180.277344 333.976562 180.238281 335.574219 180.238281 337.175781 Z M 180.238281 337.175781 " fill-opacity="1" fill-rule="nonzero"/></svg>