<svg xmlns="http://www.w3.org/2000/svg" xmlns:xlink="http://www.w3.org/1999/xlink" width="1080" zoomAndPan="magnify" viewBox="0 0 810 809.999993" height="1080" preserveAspectRatio="xMidYMid meet" version="1.0"><defs><clipPath id="9ab7daae5a"><path d="M 107.769531 119 L 702.519531 119 L 702.519531 691 L 107.769531 691 Z M 107.769531 119 " clip-rule="nonzero"/></clipPath></defs><path fill="#ffffff" d="M 526.234375 191.363281 L 635.742188 191.363281 L 635.742188 616.671875 L 526.234375 616.671875 Z M 526.234375 191.363281 " fill-opacity="1" fill-rule="nonzero"/><path fill="#ffffff" d="M 361.976562 329.222656 L 471.484375 329.222656 L 471.484375 616.671875 L 361.976562 616.671875 Z M 361.976562 329.222656 " fill-opacity="1" fill-rule="nonzero"/><path fill="#ffffff" d="M 197.71875 449.484375 L 307.226562 449.484375 L 307.226562 615.695312 L 197.71875 615.695312 Z M 197.71875 449.484375 " fill-opacity="1" fill-rule="nonzero"/><g clip-path="url(#9ab7daae5a)"><path fill="#ffffff" d="M 128.300781 119.011719 C 117.546875 119.011719 107.769531 127.8125 107.769531 139.542969 L 107.769531 670.449219 C 107.769531 681.203125 116.570312 690.980469 128.300781 690.980469 L 681.695312 690.980469 C 692.449219 690.980469 702.226562 682.179688 702.226562 670.449219 C 702.226562 658.714844 693.425781 649.917969 681.695312 649.917969 L 148.835938 649.917969 L 148.835938 138.566406 C 148.835938 127.8125 140.035156 119.011719 128.300781 119.011719 Z M 128.300781 119.011719 " fill-opacity="1" fill-rule="nonzero"/></g></svg>