<svg xmlns="http://www.w3.org/2000/svg" xmlns:xlink="http://www.w3.org/1999/xlink" width="500" zoomAndPan="magnify" viewBox="0 0 375 374.999991" height="500" preserveAspectRatio="xMidYMid meet" version="1.0"><defs><clipPath id="977cf769a1"><path d="M 38.425781 60.953125 L 337.675781 60.953125 L 337.675781 313.703125 L 38.425781 313.703125 Z M 38.425781 60.953125 " clip-rule="nonzero"/></clipPath></defs><path fill="#ffffff" d="M 84.433594 129.988281 C 84.433594 123.632812 89.585938 118.484375 95.9375 118.484375 L 118.941406 118.484375 C 125.296875 118.484375 130.445312 123.632812 130.445312 129.988281 C 130.445312 136.339844 125.296875 141.488281 118.941406 141.488281 L 95.9375 141.488281 C 89.585938 141.488281 84.433594 136.339844 84.433594 129.988281 Z M 84.433594 129.988281 " fill-opacity="1" fill-rule="nonzero"/><path fill="#ffffff" d="M 95.9375 164.496094 C 89.585938 164.496094 84.433594 169.644531 84.433594 175.996094 C 84.433594 182.351562 89.585938 187.5 95.9375 187.5 L 118.941406 187.5 C 125.296875 187.5 130.445312 182.351562 130.445312 175.996094 C 130.445312 169.644531 125.296875 164.496094 118.941406 164.496094 Z M 95.9375 164.496094 " fill-opacity="1" fill-rule="nonzero"/><g clip-path="url(#977cf769a1)"><path fill="#ffffff" d="M 132.082031 60.972656 C 115.394531 60.972656 101.9375 60.972656 91.175781 62.136719 C 80.058594 63.34375 70.46875 65.902344 62.132812 71.957031 C 57.25 75.503906 52.957031 79.796875 49.410156 84.679688 C 43.355469 93.015625 40.796875 102.605469 39.589844 113.722656 C 38.425781 124.484375 38.425781 137.941406 38.425781 154.628906 L 38.425781 220.371094 C 38.425781 237.058594 38.425781 250.515625 39.589844 261.273438 C 40.796875 272.390625 43.355469 281.984375 49.410156 290.320312 C 52.957031 295.199219 57.25 299.496094 62.132812 303.042969 C 70.46875 309.097656 80.058594 311.65625 91.175781 312.859375 C 101.9375 314.027344 115.394531 314.027344 132.082031 314.027344 L 243.832031 314.027344 C 260.519531 314.027344 273.980469 314.027344 284.738281 312.859375 C 295.855469 311.65625 305.445312 309.097656 313.78125 303.042969 C 318.664062 299.496094 322.957031 295.199219 326.503906 290.320312 C 332.558594 281.984375 335.117188 272.390625 336.324219 261.273438 C 337.488281 250.515625 337.488281 237.058594 337.488281 220.371094 L 337.488281 154.628906 C 337.488281 137.941406 337.488281 124.484375 336.324219 113.722656 C 335.117188 102.605469 332.558594 93.015625 326.503906 84.679688 C 322.957031 79.796875 318.664062 75.503906 313.78125 71.957031 C 305.445312 65.902344 295.855469 63.34375 284.738281 62.136719 C 273.980469 60.972656 260.519531 60.972656 243.832031 60.972656 Z M 153.449219 84.695312 C 153.449219 84.300781 153.128906 83.976562 152.730469 83.976562 L 132.746094 83.976562 C 115.238281 83.976562 103.03125 83.992188 93.65625 85.007812 C 84.496094 86 79.414062 87.835938 75.65625 90.566406 C 72.726562 92.695312 70.148438 95.273438 68.019531 98.203125 C 65.289062 101.960938 63.453125 107.042969 62.460938 116.203125 C 61.445312 125.578125 61.429688 137.785156 61.429688 155.292969 L 61.429688 219.707031 C 61.429688 237.214844 61.445312 249.421875 62.460938 258.796875 C 63.453125 267.957031 65.289062 273.035156 68.019531 276.796875 C 70.148438 279.726562 72.726562 282.300781 75.65625 284.429688 C 79.414062 287.160156 84.496094 288.996094 93.65625 289.988281 C 103.03125 291.003906 115.238281 291.019531 132.746094 291.019531 L 152.730469 291.019531 C 153.128906 291.019531 153.449219 290.699219 153.449219 290.300781 Z M 243.167969 291.019531 L 177.171875 291.019531 C 176.777344 291.019531 176.453125 290.699219 176.453125 290.300781 L 176.453125 84.695312 C 176.453125 84.300781 176.777344 83.976562 177.171875 83.976562 L 243.167969 83.976562 C 260.675781 83.976562 272.882812 83.992188 282.257812 85.007812 C 291.417969 86 296.5 87.835938 300.257812 90.566406 C 303.1875 92.695312 305.765625 95.273438 307.894531 98.203125 C 310.625 101.960938 312.460938 107.042969 313.453125 116.203125 C 314.46875 125.578125 314.484375 137.785156 314.484375 155.292969 L 314.484375 219.707031 C 314.484375 237.214844 314.46875 249.421875 313.453125 258.796875 C 312.460938 267.957031 310.625 273.035156 307.894531 276.796875 C 305.765625 279.726562 303.1875 282.300781 300.257812 284.429688 C 296.5 287.160156 291.417969 288.996094 282.257812 289.988281 C 272.882812 291.003906 260.675781 291.019531 243.167969 291.019531 Z M 243.167969 291.019531 " fill-opacity="1" fill-rule="evenodd"/></g></svg>