<svg xmlns="http://www.w3.org/2000/svg" xmlns:xlink="http://www.w3.org/1999/xlink" width="500" zoomAndPan="magnify" viewBox="0 0 375 374.999991" height="500" preserveAspectRatio="xMidYMid meet" version="1.2"><defs><clipPath id="5a5f42d827"><path d="M 45.226562 45.226562 L 329 45.226562 L 329 141 L 45.226562 141 Z M 45.226562 45.226562 "/></clipPath><clipPath id="c85c0c6815"><path d="M 45.226562 116 L 329 116 L 329 329 L 45.226562 329 Z M 45.226562 116 "/></clipPath></defs><g id="87ab1c4c72"><g clip-rule="nonzero" clip-path="url(#5a5f42d827)"><path style=" stroke:none;fill-rule:nonzero;fill:#ffffff;fill-opacity:1;" d="M 316.503906 140.171875 L 57.023438 140.171875 C 56.519531 140.171875 56.023438 140.140625 55.527344 140.078125 C 55.027344 140.015625 54.539062 139.921875 54.054688 139.796875 C 53.570312 139.667969 53.09375 139.515625 52.628906 139.328125 C 52.164062 139.140625 51.714844 138.925781 51.277344 138.683594 C 50.839844 138.4375 50.417969 138.167969 50.015625 137.871094 C 49.613281 137.574219 49.230469 137.253906 48.867188 136.90625 C 48.507812 136.5625 48.167969 136.195312 47.851562 135.804688 C 47.539062 135.417969 47.25 135.007812 46.984375 134.582031 C 46.722656 134.15625 46.488281 133.714844 46.277344 133.261719 C 46.070312 132.804688 45.894531 132.339844 45.746094 131.859375 C 45.597656 131.382812 45.480469 130.894531 45.394531 130.402344 C 45.308594 129.910156 45.257812 129.414062 45.234375 128.914062 C 45.210938 128.414062 45.21875 127.914062 45.261719 127.414062 C 45.300781 126.914062 45.375 126.421875 45.476562 125.929688 C 45.582031 125.441406 45.714844 124.960938 45.882812 124.488281 C 46.046875 124.015625 46.242188 123.554688 46.464844 123.105469 L 75.339844 65.3125 C 76.066406 63.851562 76.894531 62.445312 77.820312 61.097656 C 78.746094 59.75 79.757812 58.476562 80.859375 57.269531 C 81.964844 56.0625 83.144531 54.9375 84.402344 53.898438 C 85.664062 52.855469 86.988281 51.90625 88.378906 51.046875 C 89.769531 50.191406 91.214844 49.433594 92.710938 48.777344 C 94.207031 48.121094 95.742188 47.574219 97.316406 47.132812 C 98.886719 46.6875 100.484375 46.355469 102.101562 46.136719 C 103.722656 45.917969 105.347656 45.808594 106.984375 45.816406 L 266.539062 45.816406 C 268.175781 45.8125 269.804688 45.921875 271.425781 46.140625 C 273.046875 46.363281 274.644531 46.695312 276.21875 47.140625 C 277.792969 47.585938 279.328125 48.136719 280.824219 48.796875 C 282.320312 49.453125 283.765625 50.214844 285.15625 51.074219 C 286.546875 51.933594 287.875 52.886719 289.132812 53.929688 C 290.390625 54.976562 291.570312 56.101562 292.671875 57.3125 C 293.773438 58.519531 294.785156 59.800781 295.710938 61.148438 C 296.632812 62.5 297.457031 63.90625 298.1875 65.371094 L 327.058594 123.164062 C 327.28125 123.613281 327.472656 124.074219 327.632812 124.542969 C 327.796875 125.015625 327.925781 125.496094 328.027344 125.984375 C 328.128906 126.472656 328.199219 126.964844 328.238281 127.460938 C 328.277344 127.957031 328.285156 128.457031 328.257812 128.953125 C 328.234375 129.453125 328.179688 129.945312 328.09375 130.4375 C 328.003906 130.929688 327.886719 131.414062 327.738281 131.890625 C 327.589844 132.363281 327.414062 132.828125 327.207031 133.28125 C 327 133.738281 326.761719 134.175781 326.5 134.597656 C 326.238281 135.023438 325.949219 135.429688 325.632812 135.816406 C 325.320312 136.203125 324.984375 136.566406 324.621094 136.910156 C 324.261719 137.257812 323.878906 137.578125 323.480469 137.871094 C 323.078125 138.167969 322.660156 138.4375 322.222656 138.679688 C 321.789062 138.921875 321.339844 139.136719 320.875 139.324219 C 320.414062 139.507812 319.941406 139.664062 319.457031 139.792969 C 318.976562 139.917969 318.488281 140.011719 317.992188 140.074219 C 317.5 140.140625 317 140.171875 316.503906 140.171875 Z M 76.105469 116.585938 L 297.417969 116.585938 L 277.085938 75.929688 C 276.601562 74.945312 275.988281 74.050781 275.25 73.238281 C 274.515625 72.425781 273.679688 71.734375 272.746094 71.15625 C 271.816406 70.582031 270.820312 70.144531 269.765625 69.847656 C 268.710938 69.546875 267.636719 69.402344 266.539062 69.40625 L 106.984375 69.40625 C 105.886719 69.402344 104.8125 69.546875 103.757812 69.847656 C 102.703125 70.144531 101.710938 70.582031 100.777344 71.15625 C 99.84375 71.734375 99.011719 72.425781 98.273438 73.238281 C 97.535156 74.050781 96.925781 74.945312 96.4375 75.929688 Z M 76.105469 116.585938 "/></g><g clip-rule="nonzero" clip-path="url(#c85c0c6815)"><path style=" stroke:none;fill-rule:nonzero;fill:#ffffff;fill-opacity:1;" d="M 316.503906 116.585938 L 57.023438 116.585938 C 56.246094 116.585938 55.480469 116.660156 54.71875 116.8125 C 53.960938 116.960938 53.222656 117.1875 52.507812 117.480469 C 51.792969 117.777344 51.113281 118.140625 50.46875 118.570312 C 49.824219 119.003906 49.230469 119.492188 48.679688 120.039062 C 48.132812 120.585938 47.644531 121.183594 47.214844 121.828125 C 46.785156 122.46875 46.421875 123.148438 46.125 123.867188 C 45.828125 124.582031 45.605469 125.316406 45.453125 126.078125 C 45.300781 126.835938 45.226562 127.605469 45.226562 128.378906 L 45.226562 293.503906 C 45.226562 294.664062 45.285156 295.816406 45.398438 296.972656 C 45.511719 298.125 45.679688 299.269531 45.90625 300.40625 C 46.132812 301.542969 46.414062 302.664062 46.75 303.773438 C 47.085938 304.882812 47.476562 305.972656 47.921875 307.042969 C 48.363281 308.113281 48.859375 309.160156 49.40625 310.183594 C 49.953125 311.207031 50.546875 312.199219 51.191406 313.160156 C 51.835938 314.125 52.523438 315.054688 53.257812 315.949219 C 53.992188 316.847656 54.769531 317.703125 55.589844 318.523438 C 56.410156 319.34375 57.269531 320.121094 58.164062 320.855469 C 59.058594 321.589844 59.988281 322.28125 60.953125 322.925781 C 61.917969 323.566406 62.910156 324.164062 63.929688 324.710938 C 64.953125 325.253906 66 325.75 67.070312 326.195312 C 68.140625 326.636719 69.230469 327.027344 70.339844 327.363281 C 71.449219 327.699219 72.570312 327.980469 73.707031 328.207031 C 74.84375 328.433594 75.988281 328.601562 77.140625 328.714844 C 78.296875 328.832031 79.453125 328.886719 80.609375 328.886719 L 292.914062 328.886719 C 294.074219 328.886719 295.230469 328.832031 296.382812 328.714844 C 297.535156 328.601562 298.679688 328.433594 299.816406 328.207031 C 300.953125 327.980469 302.074219 327.699219 303.183594 327.363281 C 304.292969 327.027344 305.382812 326.636719 306.453125 326.195312 C 307.523438 325.75 308.570312 325.253906 309.59375 324.710938 C 310.617188 324.164062 311.609375 323.566406 312.570312 322.925781 C 313.535156 322.28125 314.464844 321.589844 315.359375 320.855469 C 316.257812 320.121094 317.113281 319.34375 317.933594 318.523438 C 318.753906 317.703125 319.53125 316.847656 320.265625 315.949219 C 321 315.054688 321.691406 314.125 322.335938 313.160156 C 322.976562 312.199219 323.574219 311.207031 324.121094 310.183594 C 324.664062 309.160156 325.160156 308.113281 325.605469 307.042969 C 326.046875 305.972656 326.4375 304.882812 326.773438 303.773438 C 327.109375 302.664062 327.390625 301.542969 327.617188 300.40625 C 327.84375 299.269531 328.011719 298.125 328.128906 296.972656 C 328.242188 295.816406 328.296875 294.664062 328.296875 293.503906 L 328.296875 128.378906 C 328.296875 127.605469 328.222656 126.835938 328.070312 126.078125 C 327.917969 125.316406 327.695312 124.582031 327.398438 123.867188 C 327.101562 123.148438 326.738281 122.46875 326.308594 121.824219 C 325.878906 121.183594 325.390625 120.585938 324.84375 120.039062 C 324.296875 119.492188 323.699219 119.003906 323.054688 118.570312 C 322.410156 118.140625 321.730469 117.777344 321.015625 117.480469 C 320.300781 117.1875 319.5625 116.960938 318.804688 116.8125 C 318.042969 116.660156 317.277344 116.585938 316.503906 116.585938 Z M 241.015625 243.964844 L 193.839844 279.351562 C 193.335938 279.660156 192.8125 279.933594 192.269531 280.164062 C 191.839844 280.429688 191.390625 280.664062 190.925781 280.871094 C 189.59375 281.429688 188.207031 281.707031 186.761719 281.707031 C 185.316406 281.707031 183.929688 281.429688 182.597656 280.871094 C 182.132812 280.664062 181.6875 280.429688 181.253906 280.164062 C 180.710938 279.933594 180.1875 279.660156 179.683594 279.351562 L 132.507812 243.964844 C 131.886719 243.5 131.320312 242.980469 130.804688 242.402344 C 130.289062 241.828125 129.832031 241.207031 129.4375 240.539062 C 129.042969 239.871094 128.71875 239.175781 128.460938 238.445312 C 128.207031 237.714844 128.023438 236.964844 127.914062 236.199219 C 127.804688 235.433594 127.769531 234.664062 127.8125 233.890625 C 127.855469 233.117188 127.972656 232.355469 128.164062 231.605469 C 128.359375 230.855469 128.621094 230.132812 128.957031 229.433594 C 129.289062 228.738281 129.691406 228.078125 130.15625 227.457031 C 130.617188 226.839844 131.140625 226.269531 131.714844 225.753906 C 132.292969 225.238281 132.914062 224.78125 133.578125 224.386719 C 134.246094 223.992188 134.945312 223.667969 135.671875 223.410156 C 136.402344 223.152344 137.152344 222.96875 137.917969 222.859375 C 138.683594 222.75 139.453125 222.714844 140.226562 222.757812 C 141 222.800781 141.761719 222.917969 142.511719 223.109375 C 143.261719 223.300781 143.984375 223.5625 144.683594 223.898438 C 145.382812 224.230469 146.039062 224.628906 146.660156 225.09375 L 174.96875 246.324219 L 174.96875 175.558594 C 174.96875 174.78125 175.042969 174.015625 175.195312 173.257812 C 175.34375 172.496094 175.570312 171.757812 175.867188 171.042969 C 176.160156 170.328125 176.523438 169.648438 176.957031 169.003906 C 177.386719 168.359375 177.875 167.765625 178.421875 167.21875 C 178.96875 166.667969 179.566406 166.179688 180.210938 165.75 C 180.851562 165.320312 181.53125 164.957031 182.25 164.660156 C 182.964844 164.363281 183.703125 164.140625 184.460938 163.988281 C 185.222656 163.839844 185.988281 163.761719 186.761719 163.761719 C 187.535156 163.761719 188.304688 163.839844 189.0625 163.988281 C 189.824219 164.140625 190.558594 164.363281 191.277344 164.660156 C 191.992188 164.957031 192.671875 165.320312 193.316406 165.75 C 193.957031 166.179688 194.554688 166.667969 195.101562 167.21875 C 195.648438 167.765625 196.140625 168.359375 196.570312 169.003906 C 197 169.648438 197.363281 170.328125 197.660156 171.042969 C 197.957031 171.757812 198.179688 172.496094 198.332031 173.257812 C 198.480469 174.015625 198.558594 174.78125 198.558594 175.558594 L 198.558594 246.324219 L 226.863281 225.09375 C 227.484375 224.628906 228.140625 224.230469 228.839844 223.894531 C 229.539062 223.558594 230.261719 223.296875 231.011719 223.105469 C 231.761719 222.914062 232.527344 222.796875 233.296875 222.753906 C 234.070312 222.710938 234.84375 222.746094 235.609375 222.855469 C 236.375 222.964844 237.125 223.148438 237.855469 223.402344 C 238.585938 223.660156 239.285156 223.988281 239.949219 224.382812 C 240.617188 224.777344 241.238281 225.230469 241.8125 225.75 C 242.390625 226.265625 242.910156 226.835938 243.375 227.453125 C 243.839844 228.074219 244.242188 228.730469 244.574219 229.429688 C 244.910156 230.128906 245.175781 230.851562 245.367188 231.601562 C 245.558594 232.351562 245.675781 233.113281 245.71875 233.886719 C 245.761719 234.660156 245.726562 235.433594 245.617188 236.199219 C 245.507812 236.964844 245.324219 237.714844 245.066406 238.445312 C 244.808594 239.175781 244.484375 239.875 244.089844 240.539062 C 243.695312 241.207031 243.238281 241.828125 242.722656 242.402344 C 242.207031 242.980469 241.636719 243.5 241.015625 243.964844 Z M 241.015625 243.964844 "/></g></g></svg>