<svg xmlns="http://www.w3.org/2000/svg" xmlns:xlink="http://www.w3.org/1999/xlink" width="1080" zoomAndPan="magnify" viewBox="0 0 810 809.999993" height="1080" preserveAspectRatio="xMidYMid meet" version="1.0"><defs><clipPath id="e873f487c1"><path d="M 93.394531 91.355469 L 716.644531 91.355469 L 716.644531 718.355469 L 93.394531 718.355469 Z M 93.394531 91.355469 " clip-rule="nonzero"/></clipPath></defs><path fill="#1f8d3c" d="M 192.753906 454.472656 L 242.3125 454.472656 C 249.183594 454.472656 254.757812 448.902344 254.757812 442.027344 L 254.757812 392.46875 C 254.757812 385.597656 249.1875 380.023438 242.3125 380.023438 L 192.753906 380.023438 C 185.882812 380.023438 180.308594 385.597656 180.308594 392.46875 L 180.308594 442.027344 C 180.308594 448.902344 185.882812 454.472656 192.753906 454.472656 Z M 192.753906 454.472656 " fill-opacity="1" fill-rule="nonzero"/><path fill="#1f8d3c" d="M 192.753906 556.933594 L 242.3125 556.933594 C 249.183594 556.933594 254.757812 551.363281 254.757812 544.488281 L 254.757812 494.929688 C 254.757812 488.058594 249.1875 482.484375 242.3125 482.484375 L 192.753906 482.484375 C 185.882812 482.484375 180.308594 488.054688 180.308594 494.929688 L 180.308594 544.488281 C 180.308594 551.363281 185.882812 556.933594 192.753906 556.933594 Z M 192.753906 556.933594 " fill-opacity="1" fill-rule="nonzero"/><path fill="#1f8d3c" d="M 192.753906 659.390625 L 242.3125 659.390625 C 249.183594 659.390625 254.757812 653.820312 254.757812 646.945312 L 254.757812 597.386719 C 254.757812 590.515625 249.1875 584.945312 242.3125 584.945312 L 192.753906 584.945312 C 185.882812 584.945312 180.308594 590.515625 180.308594 597.386719 L 180.308594 646.945312 C 180.308594 653.820312 185.882812 659.390625 192.753906 659.390625 Z M 192.753906 659.390625 " fill-opacity="1" fill-rule="nonzero"/><path fill="#1f8d3c" d="M 317.726562 454.472656 L 367.289062 454.472656 C 374.160156 454.472656 379.730469 448.902344 379.730469 442.027344 L 379.730469 392.46875 C 379.730469 385.597656 374.160156 380.023438 367.289062 380.023438 L 317.726562 380.023438 C 310.855469 380.023438 305.285156 385.597656 305.285156 392.46875 L 305.285156 442.027344 C 305.285156 448.902344 310.855469 454.472656 317.726562 454.472656 Z M 317.726562 454.472656 " fill-opacity="1" fill-rule="nonzero"/><path fill="#1f8d3c" d="M 317.726562 556.933594 L 367.289062 556.933594 C 374.160156 556.933594 379.730469 551.363281 379.730469 544.488281 L 379.730469 494.929688 C 379.730469 488.058594 374.160156 482.484375 367.289062 482.484375 L 317.726562 482.484375 C 310.855469 482.484375 305.285156 488.054688 305.285156 494.929688 L 305.285156 544.488281 C 305.285156 551.363281 310.855469 556.933594 317.726562 556.933594 Z M 317.726562 556.933594 " fill-opacity="1" fill-rule="nonzero"/><path fill="#1f8d3c" d="M 317.726562 659.390625 L 367.289062 659.390625 C 374.160156 659.390625 379.730469 653.820312 379.730469 646.945312 L 379.730469 597.386719 C 379.730469 590.515625 374.160156 584.945312 367.289062 584.945312 L 317.726562 584.945312 C 310.855469 584.945312 305.285156 590.515625 305.285156 597.386719 L 305.285156 646.945312 C 305.285156 653.820312 310.855469 659.390625 317.726562 659.390625 Z M 317.726562 659.390625 " fill-opacity="1" fill-rule="nonzero"/><path fill="#1f8d3c" d="M 442.707031 454.472656 L 492.265625 454.472656 C 499.136719 454.472656 504.707031 448.902344 504.707031 442.027344 L 504.707031 392.46875 C 504.707031 385.597656 499.136719 380.023438 492.265625 380.023438 L 442.707031 380.023438 C 435.832031 380.023438 430.261719 385.597656 430.261719 392.46875 L 430.261719 442.027344 C 430.261719 448.902344 435.832031 454.472656 442.707031 454.472656 Z M 442.707031 454.472656 " fill-opacity="1" fill-rule="nonzero"/><path fill="#1f8d3c" d="M 492.265625 584.945312 L 442.707031 584.945312 C 435.832031 584.945312 430.261719 590.515625 430.261719 597.386719 L 430.261719 646.945312 C 430.261719 653.820312 435.832031 659.390625 442.707031 659.390625 L 492.265625 659.390625 C 499.136719 659.390625 504.707031 653.820312 504.707031 646.945312 L 504.707031 597.386719 C 504.707031 590.515625 499.136719 584.945312 492.265625 584.945312 Z M 492.265625 584.945312 " fill-opacity="1" fill-rule="nonzero"/><path fill="#1f8d3c" d="M 567.679688 454.472656 L 617.238281 454.472656 C 624.109375 454.472656 629.683594 448.902344 629.683594 442.027344 L 629.683594 392.46875 C 629.683594 385.597656 624.113281 380.023438 617.238281 380.023438 L 567.679688 380.023438 C 560.808594 380.023438 555.234375 385.597656 555.234375 392.46875 L 555.234375 442.027344 C 555.234375 448.902344 560.808594 454.472656 567.679688 454.472656 Z M 567.679688 454.472656 " fill-opacity="1" fill-rule="nonzero"/><path fill="#1f8d3c" d="M 567.679688 556.933594 L 617.238281 556.933594 C 624.109375 556.933594 629.683594 551.363281 629.683594 544.488281 L 629.683594 494.929688 C 629.683594 488.058594 624.113281 482.484375 617.238281 482.484375 L 567.679688 482.484375 C 560.808594 482.484375 555.234375 488.054688 555.234375 494.929688 L 555.234375 544.488281 C 555.234375 551.363281 560.808594 556.933594 567.679688 556.933594 Z M 567.679688 556.933594 " fill-opacity="1" fill-rule="nonzero"/><g clip-path="url(#e873f487c1)"><path fill="#1f8d3c" d="M 570.417969 91.386719 C 558.746094 91.386719 549.285156 100.847656 549.285156 112.523438 L 549.285156 154.992188 L 261.800781 154.992188 L 261.800781 112.523438 C 261.800781 100.847656 252.335938 91.386719 240.664062 91.386719 C 228.992188 91.386719 219.527344 100.847656 219.527344 112.523438 L 219.527344 154.992188 L 152.914062 154.992188 C 120.09375 154.992188 93.394531 181.691406 93.394531 214.511719 L 93.394531 659.085938 C 93.394531 691.902344 120.09375 718.601562 152.914062 718.601562 L 657.082031 718.601562 C 689.898438 718.601562 716.597656 691.902344 716.597656 659.085938 L 716.597656 214.511719 C 716.597656 181.691406 689.898438 154.992188 657.082031 154.992188 L 591.554688 154.992188 L 591.554688 112.523438 C 591.554688 100.847656 582.09375 91.386719 570.417969 91.386719 Z M 219.527344 185.3125 L 219.527344 211.554688 C 219.527344 223.230469 228.992188 232.691406 240.664062 232.691406 C 252.335938 232.691406 261.800781 223.230469 261.800781 211.554688 L 261.800781 185.3125 C 269.457031 191.492188 274.359375 200.949219 274.359375 211.554688 C 274.359375 230.167969 259.273438 245.253906 240.660156 245.253906 C 222.050781 245.253906 206.964844 230.167969 206.964844 211.554688 C 206.96875 200.949219 211.867188 191.492188 219.527344 185.3125 Z M 687.273438 659.085938 C 687.273438 675.734375 673.730469 689.277344 657.082031 689.277344 L 152.914062 689.277344 C 136.265625 689.277344 122.71875 675.734375 122.71875 659.085938 L 122.71875 350.140625 L 687.273438 350.140625 Z M 604.113281 211.554688 C 604.113281 230.167969 589.027344 245.253906 570.417969 245.253906 C 551.808594 245.253906 536.71875 230.167969 536.71875 211.554688 C 536.71875 200.949219 541.621094 191.492188 549.28125 185.3125 L 549.28125 211.554688 C 549.28125 223.226562 558.742188 232.691406 570.414062 232.691406 C 582.089844 232.691406 591.550781 223.226562 591.550781 211.554688 L 591.550781 185.3125 C 599.214844 191.492188 604.113281 200.949219 604.113281 211.554688 Z M 604.113281 211.554688 " fill-opacity="1" fill-rule="nonzero"/></g><path fill="#1f8d3c" d="M 463.5625 563.5 L 522.621094 504.445312 C 528.347656 498.71875 528.347656 489.4375 522.621094 483.710938 C 516.894531 477.984375 507.609375 477.984375 501.882812 483.710938 L 463.5625 522.03125 L 448.171875 506.640625 C 442.449219 500.917969 433.164062 500.914062 427.4375 506.640625 C 421.710938 512.367188 421.710938 521.648438 427.4375 527.375 Z M 463.5625 563.5 " fill-opacity="1" fill-rule="nonzero"/></svg>