<svg xmlns="http://www.w3.org/2000/svg" xmlns:xlink="http://www.w3.org/1999/xlink" width="1080" zoomAndPan="magnify" viewBox="0 0 810 809.999993" height="1080" preserveAspectRatio="xMidYMid meet" version="1.0"><defs><clipPath id="f783c28712"><path d="M 64.167969 157 L 712 157 L 712 629 L 64.167969 629 Z M 64.167969 157 " clip-rule="nonzero"/></clipPath></defs><g clip-path="url(#f783c28712)"><path fill="#1f8d3c" d="M 653.667969 258.289062 L 539.71875 258.289062 L 499.878906 184.632812 C 498.777344 182.597656 497.542969 180.644531 496.179688 178.777344 C 494.816406 176.90625 493.332031 175.136719 491.734375 173.464844 C 490.132812 171.792969 488.425781 170.238281 486.617188 168.792969 C 484.808594 167.351562 482.910156 166.035156 480.925781 164.847656 C 478.941406 163.65625 476.882812 162.605469 474.757812 161.695312 C 472.628906 160.78125 470.453125 160.015625 468.222656 159.390625 C 465.996094 158.769531 463.734375 158.300781 461.441406 157.984375 C 459.148438 157.664062 456.847656 157.5 454.53125 157.488281 L 322.25 157.488281 C 319.898438 157.492188 317.554688 157.65625 315.222656 157.980469 C 312.890625 158.304688 310.59375 158.78125 308.328125 159.417969 C 306.0625 160.054688 303.847656 160.84375 301.6875 161.78125 C 299.53125 162.71875 297.445312 163.796875 295.433594 165.019531 C 293.421875 166.242188 291.5 167.59375 289.675781 169.078125 C 287.847656 170.5625 286.128906 172.160156 284.519531 173.878906 C 282.910156 175.597656 281.425781 177.414062 280.0625 179.335938 C 278.699219 181.253906 277.476562 183.257812 276.386719 185.34375 L 238.425781 258.289062 L 213.160156 258.289062 C 213.121094 257.246094 212.980469 256.222656 212.742188 255.207031 C 212.503906 254.195312 212.171875 253.214844 211.742188 252.265625 C 211.316406 251.316406 210.800781 250.414062 210.203125 249.5625 C 209.601562 248.714844 208.925781 247.925781 208.175781 247.207031 C 207.425781 246.484375 206.613281 245.84375 205.738281 245.277344 C 204.863281 244.714844 203.945312 244.238281 202.976562 243.847656 C 202.011719 243.460938 201.019531 243.167969 199.996094 242.96875 C 198.972656 242.773438 197.941406 242.675781 196.902344 242.675781 L 188.15625 242.675781 C 187.800781 241.785156 187.320312 240.964844 186.714844 240.214844 C 186.109375 239.46875 185.410156 238.824219 184.613281 238.289062 C 183.816406 237.75 182.957031 237.34375 182.039062 237.0625 C 181.117188 236.785156 180.179688 236.648438 179.21875 236.652344 L 155.441406 236.652344 C 154.484375 236.652344 153.542969 236.792969 152.625 237.074219 C 151.707031 237.355469 150.851562 237.761719 150.054688 238.300781 C 149.257812 238.835938 148.554688 239.476562 147.953125 240.222656 C 147.347656 240.96875 146.863281 241.785156 146.503906 242.675781 L 138.015625 242.675781 C 136.976562 242.675781 135.949219 242.773438 134.925781 242.972656 C 133.90625 243.167969 132.914062 243.460938 131.949219 243.851562 C 130.988281 244.238281 130.070312 244.714844 129.195312 245.28125 C 128.324219 245.847656 127.515625 246.488281 126.765625 247.210938 C 126.019531 247.933594 125.347656 248.71875 124.75 249.570312 C 124.152344 250.421875 123.640625 251.320312 123.21875 252.269531 C 122.792969 253.21875 122.464844 254.199219 122.230469 255.210938 C 121.996094 256.222656 121.859375 257.25 121.820312 258.289062 C 119.925781 258.308594 118.035156 258.421875 116.152344 258.628906 C 114.265625 258.832031 112.394531 259.128906 110.539062 259.519531 C 108.683594 259.90625 106.851562 260.382812 105.042969 260.949219 C 103.234375 261.515625 101.453125 262.171875 99.710938 262.910156 C 97.964844 263.648438 96.257812 264.472656 94.59375 265.378906 C 92.929688 266.285156 91.3125 267.273438 89.742188 268.335938 C 88.171875 269.402344 86.660156 270.539062 85.199219 271.75 C 83.742188 272.964844 82.347656 274.242188 81.015625 275.589844 C 79.679688 276.9375 78.417969 278.347656 77.222656 279.820312 C 76.023438 281.292969 74.902344 282.820312 73.859375 284.398438 C 72.8125 285.980469 71.84375 287.609375 70.957031 289.285156 C 70.066406 290.957031 69.261719 292.671875 68.542969 294.425781 C 67.820312 296.179688 67.1875 297.964844 66.640625 299.78125 C 66.09375 301.597656 65.636719 303.433594 65.269531 305.292969 C 64.902344 307.15625 64.628906 309.027344 64.445312 310.914062 C 64.257812 312.800781 64.167969 314.695312 64.167969 316.589844 L 64.167969 569.75 C 64.167969 571.660156 64.261719 573.566406 64.449219 575.464844 C 64.636719 577.363281 64.914062 579.25 65.289062 581.125 C 65.660156 582.996094 66.125 584.847656 66.679688 586.675781 C 67.230469 588.5 67.875 590.296875 68.605469 592.0625 C 69.335938 593.824219 70.152344 595.550781 71.050781 597.234375 C 71.953125 598.917969 72.933594 600.554688 73.992188 602.140625 C 75.054688 603.730469 76.191406 605.261719 77.402344 606.738281 C 78.613281 608.210938 79.894531 609.625 81.242188 610.976562 C 82.59375 612.328125 84.007812 613.605469 85.484375 614.816406 C 86.960938 616.03125 88.492188 617.164062 90.078125 618.226562 C 91.667969 619.289062 93.300781 620.269531 94.984375 621.167969 C 96.671875 622.066406 98.394531 622.882812 100.160156 623.613281 C 101.921875 624.34375 103.71875 624.988281 105.546875 625.542969 C 107.371094 626.097656 109.222656 626.558594 111.09375 626.933594 C 112.96875 627.304688 114.855469 627.585938 116.753906 627.773438 C 118.65625 627.957031 120.558594 628.050781 122.46875 628.050781 L 653.667969 628.050781 C 655.574219 628.050781 657.480469 627.957031 659.378906 627.773438 C 661.28125 627.585938 663.167969 627.304688 665.039062 626.933594 C 666.914062 626.558594 668.761719 626.097656 670.589844 625.542969 C 672.417969 624.988281 674.214844 624.34375 675.976562 623.613281 C 677.742188 622.882812 679.464844 622.066406 681.148438 621.167969 C 682.832031 620.269531 684.46875 619.289062 686.058594 618.226562 C 687.644531 617.164062 689.175781 616.03125 690.652344 614.816406 C 692.128906 613.605469 693.542969 612.328125 694.890625 610.976562 C 696.242188 609.625 697.523438 608.210938 698.734375 606.738281 C 699.945312 605.261719 701.082031 603.730469 702.140625 602.140625 C 703.203125 600.554688 704.183594 598.917969 705.085938 597.234375 C 705.984375 595.550781 706.800781 593.824219 707.53125 592.0625 C 708.261719 590.296875 708.902344 588.5 709.457031 586.675781 C 710.011719 584.847656 710.476562 582.996094 710.847656 581.125 C 711.21875 579.25 711.5 577.363281 711.6875 575.464844 C 711.875 573.566406 711.96875 571.660156 711.96875 569.75 L 711.96875 316.265625 C 711.957031 314.363281 711.855469 312.464844 711.65625 310.574219 C 711.460938 308.679688 711.171875 306.800781 710.792969 304.9375 C 710.414062 303.074219 709.941406 301.230469 709.382812 299.414062 C 708.820312 297.59375 708.171875 295.808594 707.4375 294.054688 C 706.703125 292.300781 705.882812 290.585938 704.980469 288.910156 C 704.078125 287.234375 703.09375 285.609375 702.03125 284.03125 C 700.96875 282.453125 699.832031 280.929688 698.621094 279.460938 C 697.40625 277.996094 696.128906 276.589844 694.777344 275.25 C 693.429688 273.90625 692.019531 272.636719 690.542969 271.433594 C 689.070312 270.226562 687.542969 269.101562 685.957031 268.046875 C 684.371094 266.992188 682.742188 266.019531 681.0625 265.125 C 679.382812 264.230469 677.660156 263.421875 675.902344 262.695312 C 674.144531 261.96875 672.355469 261.332031 670.53125 260.78125 C 668.710938 260.230469 666.867188 259.769531 665 259.398438 C 663.132812 259.03125 661.253906 258.753906 659.359375 258.566406 C 657.46875 258.378906 655.570312 258.289062 653.667969 258.289062 Z M 388.066406 582.1875 C 385.476562 582.1875 382.882812 582.125 380.296875 582 C 377.707031 581.875 375.121094 581.683594 372.542969 581.429688 C 369.960938 581.179688 367.390625 580.863281 364.824219 580.484375 C 362.261719 580.101562 359.707031 579.660156 357.164062 579.15625 C 354.621094 578.652344 352.09375 578.085938 349.578125 577.457031 C 347.0625 576.828125 344.566406 576.136719 342.082031 575.386719 C 339.601562 574.632812 337.140625 573.820312 334.699219 572.949219 C 332.257812 572.078125 329.839844 571.144531 327.445312 570.152344 C 325.050781 569.164062 322.679688 568.113281 320.335938 567.007812 C 317.992188 565.898438 315.679688 564.734375 313.390625 563.511719 C 311.105469 562.292969 308.847656 561.015625 306.625 559.683594 C 304.402344 558.351562 302.210938 556.964844 300.054688 555.527344 C 297.898438 554.085938 295.78125 552.59375 293.695312 551.050781 C 291.613281 549.507812 289.570312 547.914062 287.566406 546.269531 C 285.5625 544.625 283.597656 542.933594 281.675781 541.195312 C 279.753906 539.453125 277.878906 537.667969 276.042969 535.835938 C 274.210938 534.003906 272.421875 532.125 270.683594 530.207031 C 268.941406 528.285156 267.246094 526.324219 265.601562 524.320312 C 263.957031 522.316406 262.359375 520.273438 260.816406 518.195312 C 259.269531 516.113281 257.777344 513.992188 256.335938 511.839844 C 254.894531 509.683594 253.507812 507.496094 252.175781 505.269531 C 250.84375 503.046875 249.5625 500.792969 248.339844 498.507812 C 247.117188 496.222656 245.953125 493.90625 244.84375 491.566406 C 243.734375 489.222656 242.683594 486.851562 241.691406 484.457031 C 240.699219 482.0625 239.765625 479.644531 238.890625 477.203125 C 238.015625 474.765625 237.203125 472.304688 236.449219 469.824219 C 235.695312 467.34375 235.003906 464.84375 234.375 462.332031 C 233.742188 459.816406 233.175781 457.289062 232.667969 454.746094 C 232.160156 452.203125 231.71875 449.648438 231.335938 447.085938 C 230.957031 444.523438 230.636719 441.949219 230.382812 439.371094 C 230.128906 436.789062 229.9375 434.207031 229.808594 431.617188 C 229.679688 429.027344 229.617188 426.4375 229.617188 423.84375 C 229.613281 421.25 229.679688 418.660156 229.804688 416.070312 C 229.929688 413.480469 230.121094 410.898438 230.375 408.316406 C 230.628906 405.738281 230.945312 403.164062 231.324219 400.601562 C 231.703125 398.035156 232.144531 395.484375 232.652344 392.941406 C 233.15625 390.398438 233.722656 387.871094 234.351562 385.355469 C 234.980469 382.839844 235.671875 380.339844 236.425781 377.859375 C 237.175781 375.378906 237.988281 372.917969 238.863281 370.476562 C 239.734375 368.035156 240.667969 365.617188 241.65625 363.222656 C 242.648438 360.828125 243.699219 358.457031 244.808594 356.113281 C 245.914062 353.769531 247.078125 351.457031 248.300781 349.167969 C 249.523438 346.882812 250.800781 344.628906 252.132812 342.402344 C 253.464844 340.179688 254.851562 337.992188 256.289062 335.835938 C 257.730469 333.679688 259.222656 331.558594 260.765625 329.476562 C 262.308594 327.394531 263.902344 325.351562 265.546875 323.347656 C 267.191406 321.34375 268.882812 319.378906 270.625 317.457031 C 272.363281 315.539062 274.152344 313.660156 275.984375 311.828125 C 277.816406 309.992188 279.691406 308.207031 281.613281 306.464844 C 283.535156 304.722656 285.496094 303.03125 287.5 301.386719 C 289.503906 299.742188 291.546875 298.144531 293.628906 296.601562 C 295.710938 295.054688 297.828125 293.5625 299.984375 292.121094 C 302.136719 290.683594 304.328125 289.296875 306.550781 287.960938 C 308.773438 286.628906 311.027344 285.351562 313.316406 284.128906 C 315.601562 282.90625 317.914062 281.742188 320.257812 280.632812 C 322.601562 279.523438 324.972656 278.472656 327.367188 277.480469 C 329.761719 276.488281 332.179688 275.554688 334.621094 274.679688 C 337.058594 273.808594 339.519531 272.992188 342 272.242188 C 344.480469 271.488281 346.980469 270.796875 349.492188 270.167969 C 352.007812 269.535156 354.535156 268.96875 357.078125 268.460938 C 359.621094 267.957031 362.175781 267.511719 364.738281 267.132812 C 367.304688 266.75 369.875 266.433594 372.457031 266.179688 C 375.035156 265.925781 377.621094 265.734375 380.210938 265.605469 C 382.796875 265.476562 385.390625 265.414062 387.980469 265.414062 C 390.574219 265.414062 393.164062 265.476562 395.753906 265.601562 C 398.34375 265.730469 400.925781 265.921875 403.507812 266.175781 C 406.085938 266.429688 408.660156 266.746094 411.222656 267.125 C 413.789062 267.503906 416.339844 267.949219 418.882812 268.453125 C 421.425781 268.957031 423.957031 269.527344 426.46875 270.15625 C 428.984375 270.785156 431.484375 271.476562 433.964844 272.226562 C 436.445312 272.980469 438.90625 273.792969 441.347656 274.667969 C 443.789062 275.539062 446.207031 276.472656 448.601562 277.464844 C 450.996094 278.457031 453.363281 279.503906 455.707031 280.613281 C 458.050781 281.722656 460.367188 282.886719 462.652344 284.109375 C 464.941406 285.332031 467.195312 286.609375 469.417969 287.941406 C 471.640625 289.273438 473.832031 290.660156 475.988281 292.097656 C 478.144531 293.539062 480.261719 295.03125 482.34375 296.574219 C 484.425781 298.121094 486.46875 299.714844 488.472656 301.359375 C 490.476562 303.003906 492.441406 304.695312 494.359375 306.4375 C 496.28125 308.175781 498.160156 309.964844 499.992188 311.796875 C 501.824219 313.628906 503.613281 315.507812 505.355469 317.425781 C 507.09375 319.347656 508.789062 321.308594 510.433594 323.3125 C 512.078125 325.316406 513.671875 327.359375 515.214844 329.441406 C 516.761719 331.523438 518.253906 333.644531 519.691406 335.796875 C 521.132812 337.953125 522.519531 340.144531 523.851562 342.367188 C 525.183594 344.589844 526.464844 346.84375 527.683594 349.132812 C 528.90625 351.417969 530.074219 353.734375 531.179688 356.074219 C 532.289062 358.417969 533.339844 360.789062 534.332031 363.183594 C 535.324219 365.578125 536.257812 367.996094 537.128906 370.4375 C 538.003906 372.878906 538.816406 375.339844 539.570312 377.820312 C 540.320312 380.300781 541.011719 382.796875 541.644531 385.3125 C 542.273438 387.828125 542.839844 390.355469 543.347656 392.898438 C 543.851562 395.441406 544.296875 397.996094 544.675781 400.558594 C 545.054688 403.121094 545.375 405.695312 545.628906 408.273438 C 545.882812 410.855469 546.074219 413.4375 546.199219 416.027344 C 546.328125 418.617188 546.390625 421.207031 546.390625 423.800781 C 546.390625 426.390625 546.328125 428.980469 546.199219 431.570312 C 546.074219 434.160156 545.882812 436.742188 545.628906 439.320312 C 545.375 441.898438 545.058594 444.472656 544.675781 447.035156 C 544.296875 449.597656 543.855469 452.152344 543.347656 454.691406 C 542.84375 457.234375 542.277344 459.761719 541.644531 462.277344 C 541.015625 464.789062 540.324219 467.285156 539.574219 469.765625 C 538.820312 472.246094 538.007812 474.707031 537.136719 477.144531 C 536.265625 479.585938 535.332031 482.003906 534.339844 484.398438 C 533.347656 486.792969 532.300781 489.160156 531.191406 491.503906 C 530.082031 493.847656 528.917969 496.160156 527.699219 498.445312 C 526.476562 500.730469 525.199219 502.984375 523.867188 505.207031 C 522.535156 507.433594 521.148438 509.621094 519.710938 511.777344 C 518.269531 513.929688 516.78125 516.050781 515.238281 518.128906 C 513.691406 520.210938 512.101562 522.253906 510.457031 524.257812 C 508.8125 526.261719 507.121094 528.222656 505.378906 530.144531 C 503.640625 532.066406 501.855469 533.941406 500.023438 535.773438 C 498.191406 537.605469 496.316406 539.394531 494.394531 541.136719 C 492.476562 542.875 490.515625 544.566406 488.511719 546.210938 C 486.507812 547.855469 484.464844 549.453125 482.386719 550.996094 C 480.304688 552.539062 478.1875 554.03125 476.03125 555.472656 C 473.878906 556.914062 471.6875 558.300781 469.46875 559.632812 C 467.246094 560.964844 464.992188 562.242188 462.707031 563.464844 C 460.421875 564.6875 458.105469 565.851562 455.765625 566.960938 C 453.421875 568.070312 451.054688 569.121094 448.660156 570.113281 C 446.265625 571.105469 443.847656 572.039062 441.410156 572.914062 C 438.96875 573.785156 436.511719 574.597656 434.03125 575.351562 C 431.550781 576.105469 429.054688 576.796875 426.542969 577.429688 C 424.027344 578.058594 421.5 578.628906 418.957031 579.132812 C 416.417969 579.640625 413.863281 580.082031 411.300781 580.464844 C 408.738281 580.847656 406.167969 581.164062 403.589844 581.417969 C 401.007812 581.675781 398.425781 581.867188 395.835938 581.996094 C 393.25 582.121094 390.660156 582.1875 388.066406 582.1875 Z M 651.980469 349.433594 C 651.117188 349.433594 650.25 349.394531 649.386719 349.3125 C 648.527344 349.230469 647.667969 349.105469 646.820312 348.9375 C 645.96875 348.769531 645.128906 348.5625 644.300781 348.3125 C 643.46875 348.0625 642.652344 347.773438 641.851562 347.441406 C 641.050781 347.113281 640.269531 346.742188 639.503906 346.335938 C 638.738281 345.929688 637.996094 345.484375 637.273438 345.007812 C 636.550781 344.527344 635.855469 344.011719 635.183594 343.464844 C 634.515625 342.914062 633.871094 342.335938 633.257812 341.722656 C 632.644531 341.109375 632.0625 340.46875 631.511719 339.800781 C 630.960938 339.132812 630.445312 338.4375 629.960938 337.71875 C 629.480469 337 629.035156 336.257812 628.625 335.492188 C 628.214844 334.730469 627.84375 333.949219 627.511719 333.148438 C 627.179688 332.347656 626.886719 331.53125 626.632812 330.703125 C 626.382812 329.875 626.167969 329.035156 626 328.1875 C 625.828125 327.335938 625.703125 326.480469 625.617188 325.617188 C 625.53125 324.753906 625.488281 323.890625 625.488281 323.023438 C 625.484375 322.15625 625.527344 321.292969 625.613281 320.429688 C 625.695312 319.570312 625.824219 318.710938 625.992188 317.863281 C 626.160156 317.011719 626.371094 316.171875 626.621094 315.34375 C 626.871094 314.515625 627.164062 313.699219 627.496094 312.898438 C 627.824219 312.097656 628.195312 311.316406 628.605469 310.550781 C 629.011719 309.785156 629.457031 309.042969 629.9375 308.324219 C 630.417969 307.601562 630.933594 306.90625 631.484375 306.238281 C 632.035156 305.566406 632.617188 304.925781 633.226562 304.3125 C 633.839844 303.703125 634.480469 303.121094 635.152344 302.570312 C 635.820312 302.019531 636.515625 301.503906 637.238281 301.023438 C 637.957031 300.542969 638.699219 300.097656 639.464844 299.691406 C 640.230469 299.28125 641.011719 298.910156 641.8125 298.582031 C 642.613281 298.25 643.429688 297.957031 644.257812 297.707031 C 645.085938 297.457031 645.925781 297.246094 646.777344 297.078125 C 647.625 296.910156 648.484375 296.78125 649.34375 296.699219 C 650.207031 296.613281 651.070312 296.570312 651.9375 296.574219 C 652.804688 296.574219 653.667969 296.617188 654.53125 296.703125 C 655.394531 296.789062 656.25 296.914062 657.101562 297.085938 C 657.949219 297.253906 658.789062 297.46875 659.617188 297.71875 C 660.445312 297.972656 661.261719 298.265625 662.0625 298.597656 C 662.863281 298.929688 663.644531 299.300781 664.40625 299.710938 C 665.171875 300.121094 665.914062 300.566406 666.632812 301.046875 C 667.351562 301.53125 668.046875 302.046875 668.714844 302.597656 C 669.382812 303.148438 670.023438 303.730469 670.636719 304.34375 C 671.25 304.957031 671.828125 305.601562 672.378906 306.269531 C 672.925781 306.941406 673.441406 307.636719 673.921875 308.359375 C 674.398438 309.082031 674.84375 309.824219 675.25 310.589844 C 675.65625 311.355469 676.027344 312.136719 676.355469 312.9375 C 676.6875 313.738281 676.976562 314.554688 677.226562 315.386719 C 677.476562 316.214844 677.683594 317.054688 677.851562 317.90625 C 678.019531 318.753906 678.144531 319.613281 678.226562 320.472656 C 678.308594 321.335938 678.347656 322.203125 678.347656 323.066406 C 678.347656 323.929688 678.304688 324.792969 678.21875 325.652344 C 678.136719 326.511719 678.007812 327.363281 677.839844 328.210938 C 677.671875 329.058594 677.460938 329.894531 677.210938 330.722656 C 676.960938 331.546875 676.671875 332.359375 676.339844 333.15625 C 676.011719 333.957031 675.640625 334.734375 675.234375 335.496094 C 674.828125 336.257812 674.382812 336.996094 673.902344 337.714844 C 673.425781 338.433594 672.910156 339.125 672.363281 339.792969 C 671.816406 340.460938 671.234375 341.101562 670.625 341.710938 C 670.015625 342.320312 669.375 342.902344 668.707031 343.449219 C 668.039062 343.996094 667.347656 344.511719 666.628906 344.988281 C 665.910156 345.46875 665.171875 345.914062 664.410156 346.320312 C 663.648438 346.726562 662.871094 347.097656 662.070312 347.425781 C 661.273438 347.757812 660.460938 348.046875 659.636719 348.296875 C 658.808594 348.546875 657.972656 348.757812 657.125 348.925781 C 656.277344 349.09375 655.425781 349.222656 654.566406 349.304688 C 653.707031 349.390625 652.84375 349.433594 651.980469 349.433594 Z M 651.980469 349.433594 " fill-opacity="1" fill-rule="nonzero"/></g><path fill="#1f8d3c" d="M 498.453125 423.800781 C 498.453125 425.605469 498.410156 427.414062 498.320312 429.21875 C 498.230469 431.019531 498.097656 432.824219 497.921875 434.621094 C 497.746094 436.417969 497.523438 438.210938 497.257812 439.996094 C 496.992188 441.785156 496.683594 443.5625 496.332031 445.335938 C 495.980469 447.109375 495.582031 448.871094 495.144531 450.621094 C 494.707031 452.375 494.222656 454.113281 493.699219 455.84375 C 493.175781 457.574219 492.609375 459.289062 492 460.988281 C 491.390625 462.6875 490.742188 464.375 490.050781 466.042969 C 489.359375 467.710938 488.628906 469.363281 487.855469 470.996094 C 487.082031 472.628906 486.269531 474.242188 485.417969 475.835938 C 484.566406 477.429688 483.675781 479 482.75 480.550781 C 481.820312 482.097656 480.851562 483.625 479.851562 485.128906 C 478.847656 486.628906 477.804688 488.105469 476.730469 489.558594 C 475.652344 491.007812 474.542969 492.433594 473.398438 493.828125 C 472.25 495.226562 471.070312 496.59375 469.859375 497.929688 C 468.644531 499.269531 467.398438 500.578125 466.121094 501.855469 C 464.84375 503.132812 463.535156 504.378906 462.199219 505.589844 C 460.859375 506.804688 459.492188 507.984375 458.09375 509.128906 C 456.699219 510.277344 455.273438 511.386719 453.824219 512.464844 C 452.375 513.539062 450.898438 514.578125 449.394531 515.582031 C 447.890625 516.585938 446.367188 517.550781 444.816406 518.480469 C 443.269531 519.410156 441.695312 520.300781 440.101562 521.152344 C 438.511719 522.003906 436.898438 522.816406 435.261719 523.585938 C 433.628906 524.359375 431.980469 525.09375 430.308594 525.785156 C 428.640625 526.476562 426.957031 527.125 425.253906 527.734375 C 423.554688 528.34375 421.839844 528.910156 420.109375 529.433594 C 418.382812 529.957031 416.640625 530.4375 414.890625 530.878906 C 413.136719 531.316406 411.375 531.710938 409.601562 532.066406 C 407.832031 532.417969 406.050781 532.726562 404.265625 532.992188 C 402.476562 533.257812 400.683594 533.476562 398.886719 533.65625 C 397.089844 533.832031 395.289062 533.964844 393.484375 534.054688 C 391.679688 534.140625 389.875 534.1875 388.066406 534.1875 C 386.261719 534.1875 384.457031 534.140625 382.652344 534.054688 C 380.847656 533.964844 379.046875 533.832031 377.25 533.65625 C 375.449219 533.476562 373.65625 533.257812 371.871094 532.992188 C 370.085938 532.726562 368.304688 532.417969 366.53125 532.066406 C 364.761719 531.710938 363 531.316406 361.246094 530.878906 C 359.492188 530.4375 357.753906 529.957031 356.023438 529.433594 C 354.296875 528.910156 352.582031 528.34375 350.878906 527.734375 C 349.179688 527.125 347.496094 526.476562 345.824219 525.785156 C 344.15625 525.09375 342.503906 524.359375 340.871094 523.585938 C 339.238281 522.816406 337.625 522.003906 336.03125 521.152344 C 334.4375 520.300781 332.867188 519.410156 331.320312 518.480469 C 329.769531 517.550781 328.242188 516.585938 326.742188 515.582031 C 325.238281 514.578125 323.761719 513.539062 322.3125 512.464844 C 320.859375 511.386719 319.4375 510.277344 318.039062 509.128906 C 316.644531 507.984375 315.277344 506.804688 313.9375 505.589844 C 312.597656 504.378906 311.292969 503.132812 310.015625 501.855469 C 308.734375 500.578125 307.492188 499.269531 306.277344 497.929688 C 305.066406 496.59375 303.886719 495.226562 302.738281 493.828125 C 301.59375 492.433594 300.480469 491.007812 299.40625 489.558594 C 298.328125 488.105469 297.289062 486.628906 296.285156 485.128906 C 295.28125 483.625 294.316406 482.097656 293.386719 480.550781 C 292.457031 479 291.566406 477.429688 290.714844 475.835938 C 289.863281 474.242188 289.054688 472.628906 288.28125 470.996094 C 287.507812 469.363281 286.777344 467.710938 286.085938 466.042969 C 285.394531 464.375 284.742188 462.6875 284.136719 460.988281 C 283.527344 459.289062 282.960938 457.574219 282.4375 455.84375 C 281.910156 454.113281 281.429688 452.375 280.992188 450.621094 C 280.550781 448.871094 280.15625 447.109375 279.804688 445.335938 C 279.453125 443.5625 279.140625 441.785156 278.878906 439.996094 C 278.613281 438.210938 278.390625 436.417969 278.214844 434.621094 C 278.039062 432.824219 277.902344 431.019531 277.816406 429.21875 C 277.726562 427.414062 277.683594 425.605469 277.683594 423.800781 C 277.683594 421.996094 277.726562 420.1875 277.816406 418.382812 C 277.902344 416.578125 278.039062 414.777344 278.214844 412.980469 C 278.390625 411.183594 278.613281 409.390625 278.878906 407.605469 C 279.140625 405.816406 279.453125 404.039062 279.804688 402.265625 C 280.15625 400.492188 280.550781 398.730469 280.992188 396.980469 C 281.429688 395.226562 281.910156 393.484375 282.4375 391.757812 C 282.960938 390.027344 283.527344 388.3125 284.136719 386.613281 C 284.742188 384.910156 285.394531 383.226562 286.085938 381.558594 C 286.777344 379.890625 287.507812 378.238281 288.28125 376.605469 C 289.054688 374.972656 289.863281 373.359375 290.714844 371.765625 C 291.570312 370.171875 292.457031 368.601562 293.386719 367.050781 C 294.316406 365.5 295.28125 363.976562 296.285156 362.472656 C 297.289062 360.972656 298.328125 359.496094 299.40625 358.042969 C 300.480469 356.59375 301.59375 355.167969 302.738281 353.773438 C 303.886719 352.375 305.066406 351.007812 306.277344 349.671875 C 307.492188 348.332031 308.734375 347.023438 310.015625 345.746094 C 311.292969 344.46875 312.597656 343.222656 313.9375 342.011719 C 315.277344 340.796875 316.644531 339.617188 318.039062 338.472656 C 319.4375 337.324219 320.859375 336.214844 322.3125 335.136719 C 323.761719 334.0625 325.238281 333.023438 326.742188 332.019531 C 328.242188 331.015625 329.769531 330.050781 331.320312 329.121094 C 332.867188 328.191406 334.4375 327.300781 336.03125 326.449219 C 337.625 325.597656 339.238281 324.785156 340.871094 324.011719 C 342.503906 323.242188 344.15625 322.507812 345.824219 321.816406 C 347.496094 321.125 349.179688 320.476562 350.878906 319.867188 C 352.582031 319.257812 354.296875 318.691406 356.023438 318.167969 C 357.753906 317.644531 359.492188 317.164062 361.246094 316.722656 C 363 316.285156 364.761719 315.890625 366.53125 315.535156 C 368.304688 315.183594 370.085938 314.875 371.871094 314.609375 C 373.65625 314.34375 375.449219 314.125 377.25 313.945312 C 379.046875 313.769531 380.847656 313.636719 382.652344 313.546875 C 384.457031 313.460938 386.261719 313.414062 388.066406 313.414062 C 389.875 313.414062 391.679688 313.460938 393.484375 313.546875 C 395.289062 313.636719 397.089844 313.769531 398.886719 313.945312 C 400.683594 314.125 402.476562 314.34375 404.265625 314.609375 C 406.050781 314.875 407.832031 315.183594 409.601562 315.535156 C 411.375 315.890625 413.136719 316.285156 414.890625 316.722656 C 416.640625 317.164062 418.382812 317.644531 420.109375 318.167969 C 421.839844 318.691406 423.554688 319.257812 425.253906 319.867188 C 426.957031 320.476562 428.640625 321.125 430.308594 321.816406 C 431.980469 322.507812 433.628906 323.242188 435.261719 324.011719 C 436.898438 324.785156 438.511719 325.597656 440.101562 326.449219 C 441.695312 327.300781 443.269531 328.191406 444.816406 329.121094 C 446.367188 330.050781 447.890625 331.015625 449.394531 332.019531 C 450.898438 333.023438 452.375 334.0625 453.824219 335.136719 C 455.273438 336.214844 456.699219 337.324219 458.09375 338.472656 C 459.492188 339.617188 460.859375 340.796875 462.199219 342.011719 C 463.535156 343.222656 464.84375 344.46875 466.121094 345.746094 C 467.398438 347.023438 468.644531 348.332031 469.859375 349.671875 C 471.070312 351.007812 472.25 352.375 473.398438 353.773438 C 474.542969 355.167969 475.652344 356.59375 476.730469 358.042969 C 477.804688 359.496094 478.847656 360.972656 479.851562 362.472656 C 480.851562 363.976562 481.820312 365.5 482.75 367.050781 C 483.675781 368.601562 484.566406 370.171875 485.417969 371.765625 C 486.269531 373.359375 487.082031 374.972656 487.855469 376.605469 C 488.628906 378.238281 489.359375 379.890625 490.050781 381.558594 C 490.742188 383.226562 491.390625 384.910156 492 386.613281 C 492.609375 388.3125 493.175781 390.027344 493.699219 391.757812 C 494.222656 393.484375 494.707031 395.226562 495.144531 396.980469 C 495.582031 398.730469 495.980469 400.492188 496.332031 402.265625 C 496.683594 404.039062 496.992188 405.816406 497.257812 407.605469 C 497.523438 409.390625 497.746094 411.183594 497.921875 412.980469 C 498.097656 414.777344 498.230469 416.578125 498.320312 418.382812 C 498.410156 420.1875 498.453125 421.996094 498.453125 423.800781 Z M 498.453125 423.800781 " fill-opacity="1" fill-rule="nonzero"/></svg>