<svg xmlns="http://www.w3.org/2000/svg" xmlns:xlink="http://www.w3.org/1999/xlink" width="1080" zoomAndPan="magnify" viewBox="0 0 810 809.999993" height="1080" preserveAspectRatio="xMidYMid meet" version="1.0"><defs><clipPath id="e4b642be0d"><path d="M 87.558594 91.128906 L 715 91.128906 L 715 718.878906 L 87.558594 718.878906 Z M 87.558594 91.128906 " clip-rule="nonzero"/></clipPath></defs><path fill="#1f8d3c" d="M 401.867188 498.914062 C 392.417969 498.914062 382.964844 495.3125 375.753906 488.089844 L 248.882812 361.21875 C 245.992188 358.328125 245.992188 353.644531 248.882812 350.746094 L 290.648438 308.976562 C 293.539062 306.089844 298.222656 306.089844 301.121094 308.976562 L 401.867188 409.722656 L 667.28125 144.308594 C 670.171875 141.421875 674.855469 141.421875 677.753906 144.308594 L 719.523438 186.078125 C 722.414062 188.96875 722.414062 193.652344 719.523438 196.550781 L 427.996094 488.089844 C 420.78125 495.300781 411.332031 498.914062 401.867188 498.914062 Z M 401.867188 498.914062 " fill-opacity="1" fill-rule="nonzero"/><g clip-path="url(#e4b642be0d)"><path fill="#1f8d3c" d="M 629.539062 316.644531 C 640.1875 344.070312 646.046875 373.859375 646.046875 405 C 646.046875 539.980469 536.230469 649.796875 401.25 649.796875 C 266.269531 649.796875 156.453125 539.980469 156.453125 405 C 156.453125 270.015625 266.269531 160.199219 401.25 160.199219 C 462.457031 160.199219 518.496094 182.785156 561.460938 220.046875 L 610.328125 171.179688 C 552.75 119.566406 479.171875 91.328125 401.25 91.328125 C 317.464844 91.328125 238.699219 123.953125 179.449219 183.199219 C 120.203125 242.445312 87.578125 321.214844 87.578125 405 C 87.578125 488.78125 120.203125 567.550781 179.449219 626.796875 C 238.6875 686.042969 317.464844 718.667969 401.25 718.667969 C 485.03125 718.667969 563.800781 686.042969 623.046875 626.796875 C 682.296875 567.550781 714.921875 488.78125 714.921875 405 C 714.921875 355.359375 703.46875 307.480469 681.808594 264.382812 Z M 629.539062 316.644531 " fill-opacity="1" fill-rule="nonzero"/></g><path fill="#1f8d3c" d="M 217.175781 424.40625 L 192.132812 424.40625 C 186.941406 424.40625 182.742188 420.195312 182.742188 415.015625 C 182.742188 409.828125 186.953125 405.628906 192.132812 405.628906 L 217.175781 405.628906 C 222.363281 405.628906 226.5625 409.835938 226.5625 415.015625 C 226.5625 420.207031 222.363281 424.40625 217.175781 424.40625 Z M 217.175781 424.40625 " fill-opacity="1" fill-rule="nonzero"/><path fill="#1f8d3c" d="M 410.640625 620.367188 C 405.449219 620.367188 401.25 616.167969 401.25 610.980469 L 401.25 585.9375 C 401.25 580.746094 405.449219 576.546875 410.640625 576.546875 C 415.828125 576.546875 420.027344 580.746094 420.027344 585.9375 L 420.027344 610.980469 C 420.027344 616.167969 415.828125 620.367188 410.640625 620.367188 Z M 410.640625 620.367188 " fill-opacity="1" fill-rule="nonzero"/><path fill="#1f8d3c" d="M 410.640625 228.445312 C 405.449219 228.445312 401.25 224.234375 401.25 219.054688 L 401.25 194.011719 C 401.25 188.824219 405.449219 184.625 410.640625 184.625 C 415.828125 184.625 420.027344 188.832031 420.027344 194.011719 L 420.027344 219.054688 C 420.027344 224.234375 415.828125 228.445312 410.640625 228.445312 Z M 410.640625 228.445312 " fill-opacity="1" fill-rule="nonzero"/><path fill="#1f8d3c" d="M 610.988281 425.035156 L 585.945312 425.035156 C 580.753906 425.035156 576.554688 420.828125 576.554688 415.648438 C 576.554688 410.464844 580.753906 406.257812 585.945312 406.257812 L 610.988281 406.257812 C 616.175781 406.257812 620.375 410.464844 620.375 415.648438 C 620.375 420.828125 616.175781 425.035156 610.988281 425.035156 Z M 610.988281 425.035156 " fill-opacity="1" fill-rule="nonzero"/></svg>