<svg xmlns="http://www.w3.org/2000/svg" xmlns:xlink="http://www.w3.org/1999/xlink" width="1080" zoomAndPan="magnify" viewBox="0 0 810 809.999993" height="1080" preserveAspectRatio="xMidYMid meet" version="1.0"><defs><clipPath id="51c4407a94"><path d="M 93.230469 540 L 716.476562 540 L 716.476562 716.476562 L 93.230469 716.476562 Z M 93.230469 540 " clip-rule="nonzero"/></clipPath><clipPath id="acaabe252f"><path d="M 203 93.230469 L 603 93.230469 L 603 663 L 203 663 Z M 203 93.230469 " clip-rule="nonzero"/></clipPath></defs><g clip-path="url(#51c4407a94)"><path fill="#1f8d3c" d="M 530.917969 540.164062 C 525.199219 539.457031 520.046875 543.5625 519.382812 549.269531 C 518.707031 554.972656 522.777344 560.140625 528.484375 560.804688 C 637.769531 573.679688 695.976562 608.339844 695.976562 628.425781 C 695.976562 656.628906 585.277344 695.976562 404.992188 695.976562 C 224.710938 695.976562 114.011719 656.628906 114.011719 628.425781 C 114.011719 608.339844 172.21875 573.679688 281.503906 560.804688 C 287.199219 560.140625 291.28125 554.972656 290.605469 549.269531 C 289.933594 543.5625 284.789062 539.449219 279.070312 540.164062 C 169.652344 553.050781 93.230469 589.339844 93.230469 628.425781 C 93.230469 672.324219 200.320312 716.757812 404.992188 716.757812 C 609.667969 716.757812 716.757812 672.324219 716.757812 628.425781 C 716.757812 589.339844 640.335938 553.050781 530.917969 540.164062 " fill-opacity="1" fill-rule="evenodd"/></g><g clip-path="url(#acaabe252f)"><path fill="#1f8d3c" d="M 403.15625 662.273438 L 562.582031 432.015625 C 622.386719 352.296875 613.730469 221.25 544.074219 151.601562 C 506.433594 113.960938 456.382812 93.230469 403.15625 93.230469 C 349.925781 93.230469 299.878906 113.960938 262.238281 151.601562 C 192.589844 221.25 183.929688 352.285156 243.5 431.691406 Z M 404.992188 217.933594 C 445.109375 217.933594 477.738281 250.578125 477.738281 290.679688 C 477.738281 330.785156 445.109375 363.425781 404.992188 363.425781 C 364.878906 363.425781 332.25 330.785156 332.25 290.679688 C 332.25 250.578125 364.878906 217.933594 404.992188 217.933594 Z M 404.992188 217.933594 " fill-opacity="1" fill-rule="evenodd"/></g></svg>