<svg xmlns="http://www.w3.org/2000/svg" xmlns:xlink="http://www.w3.org/1999/xlink" width="500" zoomAndPan="magnify" viewBox="0 0 375 374.999991" height="500" preserveAspectRatio="xMidYMid meet" version="1.2"><defs><clipPath id="7355dc600f"><path d="M 41.777344 67 L 323 67 L 323 308 L 41.777344 308 Z M 41.777344 67 "/></clipPath></defs><g id="f409337dab"><path style=" stroke:none;fill-rule:nonzero;fill:#ffffff;fill-opacity:1;" d="M 248.378906 220.539062 C 250.992188 222.03125 254.324219 221.136719 255.816406 218.523438 C 257.308594 215.914062 256.414062 212.605469 253.828125 211.113281 L 206.488281 183.773438 L 206.488281 123.695312 C 206.488281 120.683594 204.046875 118.246094 201.039062 118.246094 C 198.027344 118.246094 195.589844 120.683594 195.589844 123.695312 L 195.589844 190.066406 L 248.378906 220.539062 "/><g clip-rule="nonzero" clip-path="url(#7355dc600f)"><path style=" stroke:none;fill-rule:nonzero;fill:#ffffff;fill-opacity:1;" d="M 140.460938 187.652344 L 103.867188 187.652344 C 103.867188 133.621094 147.675781 89.8125 201.710938 89.8125 C 255.742188 89.8125 299.550781 133.621094 299.550781 187.652344 C 299.550781 241.6875 255.742188 285.496094 201.710938 285.496094 C 190.886719 285.496094 180.140625 283.703125 169.890625 280.171875 C 164.046875 278.15625 157.652344 281.265625 155.636719 287.136719 C 153.621094 292.980469 156.757812 299.375 162.601562 301.390625 C 225.417969 322.984375 293.855469 289.574219 315.449219 226.757812 C 337.042969 163.945312 303.65625 95.53125 240.84375 73.914062 C 178.027344 52.320312 109.589844 85.730469 87.996094 148.546875 C 83.667969 161.132812 81.453125 174.34375 81.453125 187.652344 L 44.859375 187.652344 C 43.144531 187.652344 41.777344 189.019531 41.777344 190.738281 C 41.777344 191.507812 42.074219 192.253906 42.597656 192.828125 L 90.410156 244.421875 C 91.554688 245.667969 93.519531 245.742188 94.761719 244.570312 C 94.8125 244.523438 94.863281 244.472656 94.914062 244.421875 L 142.726562 192.828125 C 143.894531 191.582031 143.820312 189.617188 142.578125 188.472656 C 142.003906 187.953125 141.257812 187.652344 140.460938 187.652344 "/></g></g></svg>