<svg xmlns="http://www.w3.org/2000/svg" xmlns:xlink="http://www.w3.org/1999/xlink" width="500" zoomAndPan="magnify" viewBox="0 0 375 374.999991" height="500" preserveAspectRatio="xMidYMid meet" version="1.2"><defs><clipPath id="b901e1e76f"><path d="M 21.050781 37.5 L 353.664062 37.5 L 353.664062 320.25 L 21.050781 320.25 Z M 21.050781 37.5 "/></clipPath></defs><g id="c5f5beeec3"><g clip-rule="nonzero" clip-path="url(#b901e1e76f)"><path style=" stroke:none;fill-rule:evenodd;fill:#1d7435;fill-opacity:1;" d="M 178.160156 255.480469 L 203.964844 255.480469 C 206.773438 255.480469 209.046875 257.757812 209.046875 260.566406 L 209.046875 280.902344 C 209.046875 283.710938 206.773438 285.988281 203.964844 285.988281 L 178.160156 285.988281 C 175.355469 285.988281 173.078125 283.710938 173.078125 280.902344 L 173.078125 260.566406 C 173.078125 257.757812 175.355469 255.480469 178.160156 255.480469 Z M 117.503906 255.480469 L 143.304688 255.480469 C 146.113281 255.480469 148.390625 257.757812 148.390625 260.566406 L 148.390625 280.902344 C 148.390625 283.710938 146.113281 285.988281 143.304688 285.988281 L 117.503906 285.988281 C 114.695312 285.988281 112.421875 283.710938 112.421875 280.902344 L 112.421875 260.566406 C 112.421875 257.757812 114.695312 255.480469 117.503906 255.480469 Z M 56.84375 255.480469 L 82.648438 255.480469 C 85.457031 255.480469 87.730469 257.757812 87.730469 260.566406 L 87.730469 280.902344 C 87.730469 283.710938 85.457031 285.988281 82.648438 285.988281 L 56.84375 285.988281 C 54.039062 285.988281 51.761719 283.710938 51.761719 280.902344 L 51.761719 260.566406 C 51.761719 257.757812 54.039062 255.480469 56.84375 255.480469 Z M 288.277344 216.09375 C 284.75 216.09375 281.894531 218.953125 281.894531 222.480469 L 281.894531 259.925781 C 281.894531 262.566406 283.5 264.835938 285.792969 265.804688 C 286.558594 266.128906 287.394531 266.308594 288.277344 266.308594 L 321.660156 266.308594 C 325.183594 266.308594 328.042969 263.449219 328.042969 259.925781 C 328.042969 256.398438 325.183594 253.539062 321.660156 253.539062 L 294.660156 253.539062 L 294.660156 222.480469 C 294.660156 218.953125 291.800781 216.09375 288.277344 216.09375 Z M 178.160156 200.425781 L 203.964844 200.425781 C 206.773438 200.425781 209.046875 202.703125 209.046875 205.511719 L 209.046875 225.847656 C 209.046875 228.65625 206.773438 230.933594 203.964844 230.933594 L 178.160156 230.933594 C 175.355469 230.933594 173.078125 228.65625 173.078125 225.847656 L 173.078125 205.511719 C 173.078125 202.703125 175.355469 200.425781 178.160156 200.425781 Z M 117.503906 200.425781 L 143.304688 200.425781 C 146.113281 200.425781 148.390625 202.703125 148.390625 205.511719 L 148.390625 225.847656 C 148.390625 228.65625 146.113281 230.933594 143.304688 230.933594 L 117.503906 230.933594 C 114.695312 230.933594 112.421875 228.65625 112.421875 225.847656 L 112.421875 205.511719 C 112.421875 202.703125 114.695312 200.425781 117.503906 200.425781 Z M 56.84375 200.425781 L 82.648438 200.425781 C 85.457031 200.425781 87.730469 202.703125 87.730469 205.511719 L 87.730469 225.847656 C 87.730469 228.65625 85.457031 230.933594 82.648438 230.933594 L 56.84375 230.933594 C 54.039062 230.933594 51.761719 228.65625 51.761719 225.847656 L 51.761719 205.511719 C 51.761719 202.703125 54.039062 200.425781 56.84375 200.425781 Z M 290.378906 193.65625 C 325.332031 193.65625 353.664062 221.996094 353.664062 256.953125 C 353.664062 291.910156 325.332031 320.25 290.378906 320.25 C 255.429688 320.25 227.097656 291.910156 227.097656 256.953125 C 227.097656 221.996094 255.429688 193.65625 290.378906 193.65625 Z M 238.820312 145.371094 L 264.625 145.371094 C 267.429688 145.371094 269.707031 147.648438 269.707031 150.457031 L 269.707031 170.792969 C 269.707031 173.601562 267.429688 175.878906 264.625 175.878906 L 238.820312 175.878906 C 236.011719 175.878906 233.738281 173.601562 233.738281 170.792969 L 233.738281 150.457031 C 233.738281 147.648438 236.011719 145.371094 238.820312 145.371094 Z M 178.160156 145.371094 L 203.964844 145.371094 C 206.773438 145.371094 209.046875 147.648438 209.046875 150.457031 L 209.046875 170.792969 C 209.046875 173.601562 206.773438 175.878906 203.964844 175.878906 L 178.160156 175.878906 C 175.355469 175.878906 173.078125 173.601562 173.078125 170.792969 L 173.078125 150.457031 C 173.078125 147.648438 175.355469 145.371094 178.160156 145.371094 Z M 117.503906 145.371094 L 143.304688 145.371094 C 146.113281 145.371094 148.390625 147.648438 148.390625 150.457031 L 148.390625 170.792969 C 148.390625 173.601562 146.113281 175.878906 143.304688 175.878906 L 117.503906 175.878906 C 114.695312 175.878906 112.421875 173.601562 112.421875 170.792969 L 112.421875 150.457031 C 112.421875 147.648438 114.695312 145.371094 117.503906 145.371094 Z M 56.84375 145.371094 L 82.648438 145.371094 C 85.457031 145.371094 87.730469 147.648438 87.730469 150.457031 L 87.730469 170.792969 C 87.730469 173.601562 85.457031 175.878906 82.648438 175.878906 L 56.84375 175.878906 C 54.039062 175.878906 51.761719 173.601562 51.761719 170.792969 L 51.761719 150.457031 C 51.761719 147.648438 54.039062 145.371094 56.84375 145.371094 Z M 70.316406 37.5 L 79.324219 37.5 C 84.179688 37.5 88.113281 41.433594 88.113281 46.289062 L 88.113281 65.675781 L 233.355469 65.675781 L 233.355469 46.289062 C 233.355469 41.433594 237.289062 37.5 242.144531 37.5 L 251.152344 37.5 C 256.003906 37.5 259.9375 41.433594 259.9375 46.289062 L 259.9375 65.675781 L 281.523438 65.675781 C 291.957031 65.675781 300.414062 74.136719 300.414062 84.570312 L 300.414062 181.566406 L 298.160156 181.222656 C 295.601562 180.960938 293.007812 180.832031 290.378906 180.832031 L 287.492188 180.976562 L 287.492188 127.691406 L 33.976562 127.691406 L 33.976562 288.644531 C 33.976562 296.941406 40.703125 303.671875 49 303.671875 L 230.375 303.671875 L 231.652344 305.375 C 234.753906 309.132812 238.210938 312.589844 241.96875 315.691406 L 242.589844 316.160156 L 39.941406 316.160156 C 29.511719 316.160156 21.050781 307.699219 21.050781 297.265625 L 21.050781 84.570312 C 21.050781 74.136719 29.511719 65.675781 39.941406 65.675781 L 61.527344 65.675781 L 61.527344 46.289062 C 61.527344 41.433594 65.464844 37.5 70.316406 37.5 Z M 70.316406 37.5 "/></g></g></svg>