<svg xmlns="http://www.w3.org/2000/svg" xmlns:xlink="http://www.w3.org/1999/xlink" width="500" zoomAndPan="magnify" viewBox="0 0 375 374.999991" height="500" preserveAspectRatio="xMidYMid meet" version="1.0"><defs><clipPath id="c89d09af1a"><path d="M 177 41.082031 L 198 41.082031 L 198 333.582031 L 177 333.582031 Z M 177 41.082031 " clip-rule="nonzero"/></clipPath><clipPath id="837739d71d"><path d="M 111 152 L 333.582031 152 L 333.582031 213 L 111 213 Z M 111 152 " clip-rule="nonzero"/></clipPath><clipPath id="8a65875c9f"><path d="M 41.082031 61 L 264 61 L 264 122 L 41.082031 122 Z M 41.082031 61 " clip-rule="nonzero"/></clipPath><clipPath id="fbec0a00b5"><path d="M 183.917969 187.5 L 333.917969 187.5 L 333.917969 337.5 L 183.917969 337.5 Z M 183.917969 187.5 " clip-rule="nonzero"/></clipPath></defs><g clip-path="url(#c89d09af1a)"><path fill="#2c8957" d="M 177.398438 41.082031 L 197.59375 41.082031 L 197.59375 333.910156 L 177.398438 333.910156 Z M 177.398438 41.082031 " fill-opacity="1" fill-rule="nonzero"/></g><g clip-path="url(#837739d71d)"><path fill="#1d7435" d="M 111.765625 212.742188 L 308.667969 212.742188 L 333.910156 182.449219 L 308.667969 152.15625 L 111.765625 152.15625 Z M 111.765625 212.742188 " fill-opacity="1" fill-rule="nonzero"/></g><g clip-path="url(#8a65875c9f)"><path fill="#1d7435" d="M 263.230469 121.863281 L 66.328125 121.863281 L 41.082031 91.570312 L 66.328125 61.277344 L 263.230469 61.277344 Z M 263.230469 121.863281 " fill-opacity="1" fill-rule="nonzero"/></g><g clip-path="url(#fbec0a00b5)"><path fill="#00bf63" d="M 333.917969 262.5 C 333.917969 303.921875 300.335938 337.5 258.917969 337.5 C 217.496094 337.5 183.917969 303.921875 183.917969 262.5 C 183.917969 221.078125 217.496094 187.5 258.917969 187.5 C 300.335938 187.5 333.917969 221.078125 333.917969 262.5 " fill-opacity="1" fill-rule="nonzero"/></g><path fill="#ffffff" d="M 310.65625 232.621094 L 298.738281 220.703125 L 239.195312 280.246094 L 215.828125 256.878906 L 203.914062 268.796875 L 239.195312 304.082031 L 310.65625 232.621094 " fill-opacity="1" fill-rule="nonzero"/></svg>