<svg xmlns="http://www.w3.org/2000/svg" xmlns:xlink="http://www.w3.org/1999/xlink" width="500" zoomAndPan="magnify" viewBox="0 0 375 374.999991" height="500" preserveAspectRatio="xMidYMid meet" version="1.2"><defs><clipPath id="e402bcbbeb"><path d="M 44 44 L 331.660156 44 L 331.660156 331 L 44 331 Z M 44 44 "/></clipPath></defs><g id="16537c9b96"><g clip-rule="nonzero" clip-path="url(#e402bcbbeb)"><path style=" stroke:none;fill-rule:nonzero;fill:#ffffff;fill-opacity:1;" d="M 328.46875 179.425781 L 225.636719 49.257812 C 225.027344 48.488281 224.34375 47.800781 223.582031 47.1875 C 222.820312 46.574219 222 46.054688 221.121094 45.625 C 220.246094 45.199219 219.328125 44.871094 218.375 44.648438 C 217.425781 44.429688 216.460938 44.316406 215.480469 44.3125 L 57.976562 44.3125 C 56.734375 44.3125 55.515625 44.484375 54.320312 44.835938 C 53.128906 45.183594 52.007812 45.695312 50.957031 46.367188 C 49.910156 47.035156 48.976562 47.839844 48.160156 48.78125 C 47.34375 49.71875 46.675781 50.75 46.15625 51.882812 C 45.632812 53.011719 45.28125 54.191406 45.101562 55.421875 C 44.917969 56.652344 44.914062 57.886719 45.085938 59.117188 C 45.253906 60.351562 45.597656 61.535156 46.105469 62.667969 C 46.617188 63.804688 47.277344 64.84375 48.085938 65.789062 L 152.21875 187.496094 L 48.085938 309.203125 C 47.277344 310.148438 46.617188 311.1875 46.105469 312.324219 C 45.597656 313.457031 45.253906 314.640625 45.085938 315.875 C 44.914062 317.105469 44.917969 318.335938 45.101562 319.570312 C 45.28125 320.800781 45.632812 321.980469 46.15625 323.109375 C 46.675781 324.238281 47.34375 325.273438 48.160156 326.210938 C 48.976562 327.152344 49.910156 327.957031 50.957031 328.625 C 52.007812 329.296875 53.128906 329.808594 54.320312 330.15625 C 55.515625 330.507812 56.734375 330.679688 57.976562 330.679688 L 215.480469 330.679688 C 216.460938 330.675781 217.425781 330.5625 218.375 330.339844 C 219.328125 330.121094 220.246094 329.792969 221.121094 329.367188 C 222 328.9375 222.820312 328.417969 223.582031 327.804688 C 224.34375 327.191406 225.027344 326.5 225.636719 325.734375 L 328.46875 195.566406 C 328.917969 194.996094 329.320312 194.390625 329.667969 193.753906 C 330.019531 193.117188 330.3125 192.453125 330.550781 191.769531 C 330.789062 191.082031 330.96875 190.378906 331.089844 189.660156 C 331.210938 188.945312 331.273438 188.222656 331.273438 187.496094 C 331.273438 186.769531 331.210938 186.046875 331.089844 185.328125 C 330.96875 184.613281 330.789062 183.910156 330.550781 183.222656 C 330.3125 182.539062 330.019531 181.875 329.667969 181.238281 C 329.320312 180.601562 328.917969 179.996094 328.46875 179.425781 Z M 178.644531 195.957031 C 179.144531 195.371094 179.589844 194.746094 179.980469 194.085938 C 180.367188 193.421875 180.695312 192.726562 180.964844 192.003906 C 181.230469 191.285156 181.429688 190.542969 181.566406 189.785156 C 181.703125 189.027344 181.769531 188.265625 181.769531 187.496094 C 181.769531 186.726562 181.703125 185.960938 181.566406 185.207031 C 181.429688 184.449219 181.230469 183.707031 180.964844 182.984375 C 180.695312 182.265625 180.367188 181.570312 179.980469 180.90625 C 179.589844 180.242188 179.144531 179.621094 178.644531 179.035156 L 86.09375 70.34375 L 129.832031 70.34375 L 223.550781 187.496094 L 129.832031 304.648438 L 86.09375 304.648438 Z M 209.105469 304.648438 L 163.15625 304.648438 L 250.367188 195.566406 C 250.816406 194.996094 251.21875 194.390625 251.566406 193.753906 C 251.917969 193.117188 252.210938 192.453125 252.449219 191.769531 C 252.6875 191.082031 252.867188 190.378906 252.988281 189.660156 C 253.109375 188.945312 253.171875 188.222656 253.171875 187.496094 C 253.171875 186.769531 253.109375 186.046875 252.988281 185.328125 C 252.867188 184.613281 252.6875 183.910156 252.449219 183.222656 C 252.210938 182.539062 251.917969 181.875 251.566406 181.238281 C 251.21875 180.601562 250.816406 179.996094 250.367188 179.425781 L 163.15625 70.34375 L 209.105469 70.34375 L 301.785156 187.496094 Z M 209.105469 304.648438 "/></g></g></svg>