<svg xmlns="http://www.w3.org/2000/svg" xmlns:xlink="http://www.w3.org/1999/xlink" width="500" zoomAndPan="magnify" viewBox="0 0 375 374.999991" height="500" preserveAspectRatio="xMidYMid meet" version="1.0"><path fill="#ffffff" d="M 185.898438 0 C 182.859375 0 179.816406 0.0742188 176.777344 0.222656 C 173.738281 0.375 170.707031 0.597656 167.679688 0.894531 C 164.652344 1.195312 161.632812 1.566406 158.625 2.011719 C 155.613281 2.457031 152.617188 2.976562 149.632812 3.570312 C 146.648438 4.164062 143.679688 4.832031 140.730469 5.570312 C 137.777344 6.308594 134.847656 7.121094 131.9375 8.003906 C 129.023438 8.886719 126.136719 9.84375 123.273438 10.867188 C 120.40625 11.890625 117.570312 12.988281 114.757812 14.152344 C 111.949219 15.316406 109.167969 16.546875 106.417969 17.847656 C 103.667969 19.148438 100.949219 20.515625 98.265625 21.949219 C 95.585938 23.386719 92.9375 24.882812 90.328125 26.449219 C 87.71875 28.011719 85.148438 29.640625 82.621094 31.328125 C 80.089844 33.019531 77.601562 34.769531 75.160156 36.582031 C 72.714844 38.394531 70.316406 40.265625 67.964844 42.199219 C 65.613281 44.128906 63.3125 46.113281 61.058594 48.15625 C 58.804688 50.199219 56.601562 52.296875 54.449219 54.449219 C 52.296875 56.601562 50.199219 58.804688 48.15625 61.058594 C 46.113281 63.3125 44.128906 65.613281 42.199219 67.964844 C 40.265625 70.316406 38.394531 72.714844 36.582031 75.160156 C 34.769531 77.601562 33.019531 80.089844 31.328125 82.621094 C 29.640625 85.148438 28.011719 87.71875 26.449219 90.328125 C 24.882812 92.9375 23.386719 95.585938 21.949219 98.265625 C 20.515625 100.949219 19.148438 103.667969 17.847656 106.417969 C 16.546875 109.167969 15.316406 111.949219 14.152344 114.757812 C 12.988281 117.570312 11.890625 120.40625 10.867188 123.273438 C 9.84375 126.136719 8.886719 129.023438 8.003906 131.9375 C 7.121094 134.847656 6.308594 137.777344 5.570312 140.730469 C 4.832031 143.679688 4.164062 146.648438 3.570312 149.632812 C 2.976562 152.617188 2.457031 155.613281 2.011719 158.625 C 1.566406 161.632812 1.195312 164.652344 0.894531 167.679688 C 0.597656 170.707031 0.375 173.738281 0.222656 176.777344 C 0.0742188 179.816406 0 182.859375 0 185.898438 C 0 188.941406 0.0742188 191.984375 0.222656 195.023438 C 0.375 198.0625 0.597656 201.09375 0.894531 204.121094 C 1.195312 207.148438 1.566406 210.167969 2.011719 213.175781 C 2.457031 216.1875 2.976562 219.183594 3.570312 222.167969 C 4.164062 225.152344 4.832031 228.121094 5.570312 231.070312 C 6.308594 234.023438 7.121094 236.953125 8.003906 239.863281 C 8.886719 242.777344 9.84375 245.664062 10.867188 248.527344 C 11.890625 251.394531 12.988281 254.230469 14.152344 257.042969 C 15.316406 259.851562 16.546875 262.632812 17.847656 265.382812 C 19.148438 268.132812 20.515625 270.851562 21.949219 273.53125 C 23.386719 276.214844 24.882812 278.863281 26.449219 281.472656 C 28.011719 284.082031 29.640625 286.652344 31.328125 289.179688 C 33.019531 291.710938 34.769531 294.199219 36.582031 296.640625 C 38.394531 299.085938 40.265625 301.484375 42.199219 303.835938 C 44.128906 306.1875 46.113281 308.488281 48.15625 310.742188 C 50.199219 312.996094 52.296875 315.199219 54.449219 317.351562 C 56.601562 319.503906 58.804688 321.601562 61.058594 323.644531 C 63.3125 325.6875 65.613281 327.671875 67.964844 329.601562 C 70.316406 331.535156 72.714844 333.40625 75.160156 335.21875 C 77.601562 337.027344 80.089844 338.78125 82.621094 340.472656 C 85.148438 342.160156 87.71875 343.789062 90.328125 345.351562 C 92.9375 346.917969 95.585938 348.414062 98.265625 349.851562 C 100.949219 351.285156 103.667969 352.652344 106.417969 353.953125 C 109.167969 355.253906 111.949219 356.484375 114.757812 357.648438 C 117.570312 358.8125 120.40625 359.910156 123.273438 360.933594 C 126.136719 361.957031 129.023438 362.914062 131.9375 363.796875 C 134.847656 364.679688 137.777344 365.492188 140.730469 366.230469 C 143.679688 366.96875 146.648438 367.636719 149.632812 368.230469 C 152.617188 368.820312 155.613281 369.34375 158.625 369.789062 C 161.632812 370.234375 164.652344 370.605469 167.679688 370.90625 C 170.707031 371.203125 173.738281 371.425781 176.777344 371.578125 C 179.816406 371.726562 182.859375 371.800781 185.898438 371.800781 C 188.941406 371.800781 191.984375 371.726562 195.023438 371.578125 C 198.0625 371.425781 201.09375 371.203125 204.121094 370.90625 C 207.148438 370.605469 210.167969 370.234375 213.175781 369.789062 C 216.1875 369.34375 219.183594 368.820312 222.167969 368.230469 C 225.152344 367.636719 228.121094 366.96875 231.070312 366.230469 C 234.023438 365.492188 236.953125 364.679688 239.863281 363.796875 C 242.777344 362.914062 245.664062 361.957031 248.527344 360.933594 C 251.394531 359.910156 254.230469 358.8125 257.042969 357.648438 C 259.851562 356.484375 262.632812 355.253906 265.382812 353.953125 C 268.132812 352.652344 270.851562 351.285156 273.535156 349.851562 C 276.214844 348.414062 278.863281 346.917969 281.472656 345.351562 C 284.082031 343.789062 286.652344 342.160156 289.179688 340.472656 C 291.710938 338.78125 294.199219 337.027344 296.640625 335.21875 C 299.085938 333.40625 301.484375 331.535156 303.835938 329.601562 C 306.1875 327.671875 308.488281 325.6875 310.742188 323.644531 C 312.996094 321.601562 315.199219 319.503906 317.351562 317.351562 C 319.503906 315.199219 321.601562 312.996094 323.644531 310.742188 C 325.6875 308.488281 327.671875 306.1875 329.601562 303.835938 C 331.535156 301.484375 333.40625 299.085938 335.21875 296.640625 C 337.027344 294.199219 338.78125 291.710938 340.472656 289.179688 C 342.160156 286.652344 343.789062 284.082031 345.351562 281.472656 C 346.917969 278.863281 348.414062 276.214844 349.851562 273.53125 C 351.285156 270.851562 352.652344 268.132812 353.953125 265.382812 C 355.253906 262.632812 356.484375 259.851562 357.648438 257.042969 C 358.8125 254.230469 359.910156 251.394531 360.933594 248.527344 C 361.957031 245.664062 362.914062 242.777344 363.796875 239.863281 C 364.679688 236.953125 365.492188 234.023438 366.230469 231.070312 C 366.96875 228.121094 367.636719 225.152344 368.230469 222.167969 C 368.820312 219.183594 369.34375 216.1875 369.789062 213.175781 C 370.234375 210.167969 370.605469 207.148438 370.90625 204.121094 C 371.203125 201.09375 371.425781 198.0625 371.578125 195.023438 C 371.726562 191.984375 371.800781 188.941406 371.800781 185.898438 C 371.800781 182.859375 371.726562 179.816406 371.574219 176.777344 C 371.425781 173.742188 371.203125 170.707031 370.902344 167.679688 C 370.605469 164.652344 370.230469 161.632812 369.785156 158.625 C 369.339844 155.613281 368.820312 152.617188 368.226562 149.632812 C 367.632812 146.652344 366.964844 143.683594 366.226562 140.730469 C 365.484375 137.78125 364.675781 134.851562 363.789062 131.9375 C 362.90625 129.027344 361.953125 126.140625 360.929688 123.277344 C 359.902344 120.410156 358.808594 117.574219 357.644531 114.761719 C 356.480469 111.953125 355.246094 109.171875 353.945312 106.421875 C 352.644531 103.671875 351.277344 100.957031 349.84375 98.273438 C 348.410156 95.589844 346.910156 92.941406 345.34375 90.332031 C 343.78125 87.722656 342.152344 85.15625 340.464844 82.625 C 338.773438 80.09375 337.023438 77.609375 335.210938 75.164062 C 333.398438 72.722656 331.527344 70.324219 329.597656 67.972656 C 327.667969 65.621094 325.679688 63.316406 323.636719 61.0625 C 321.59375 58.808594 319.496094 56.605469 317.34375 54.457031 C 315.195312 52.304688 312.992188 50.207031 310.738281 48.164062 C 308.484375 46.121094 306.179688 44.132812 303.828125 42.203125 C 301.476562 40.273438 299.078125 38.402344 296.636719 36.589844 C 294.191406 34.777344 291.707031 33.027344 289.175781 31.335938 C 286.644531 29.648438 284.078125 28.019531 281.46875 26.457031 C 278.859375 24.890625 276.210938 23.390625 273.527344 21.957031 C 270.84375 20.523438 268.128906 19.15625 265.378906 17.855469 C 262.628906 16.554688 259.847656 15.320312 257.039062 14.15625 C 254.226562 12.992188 251.390625 11.898438 248.523438 10.871094 C 245.660156 9.847656 242.773438 8.894531 239.863281 8.011719 C 236.949219 7.125 234.019531 6.316406 231.070312 5.574219 C 228.117188 4.835938 225.148438 4.167969 222.167969 3.574219 C 219.183594 2.980469 216.1875 2.460938 213.175781 2.015625 C 210.167969 1.570312 207.148438 1.195312 204.121094 0.898438 C 201.09375 0.597656 198.058594 0.375 195.023438 0.226562 C 191.984375 0.0742188 188.941406 0 185.898438 0 Z M 185.898438 69.710938 C 187 69.710938 188.097656 69.742188 189.195312 69.804688 C 190.296875 69.871094 191.390625 69.964844 192.484375 70.089844 C 193.574219 70.21875 194.664062 70.375 195.746094 70.5625 C 196.828125 70.753906 197.90625 70.972656 198.976562 71.226562 C 200.046875 71.476562 201.109375 71.761719 202.164062 72.074219 C 203.21875 72.386719 204.261719 72.730469 205.296875 73.101562 C 206.332031 73.476562 207.355469 73.878906 208.367188 74.3125 C 209.375 74.746094 210.375 75.207031 211.359375 75.699219 C 212.34375 76.1875 213.3125 76.707031 214.265625 77.253906 C 215.222656 77.800781 216.160156 78.375 217.078125 78.972656 C 218 79.574219 218.902344 80.203125 219.789062 80.855469 C 220.675781 81.507812 221.539062 82.1875 222.386719 82.890625 C 223.230469 83.59375 224.054688 84.320312 224.859375 85.070312 C 225.664062 85.820312 226.441406 86.59375 227.203125 87.390625 C 227.960938 88.1875 228.695312 89.003906 229.40625 89.84375 C 230.117188 90.683594 230.804688 91.539062 231.46875 92.417969 C 232.128906 93.296875 232.765625 94.195312 233.375 95.109375 C 233.984375 96.023438 234.566406 96.957031 235.125 97.90625 C 235.679688 98.855469 236.207031 99.816406 236.707031 100.796875 C 237.207031 101.777344 237.679688 102.769531 238.121094 103.777344 C 238.566406 104.785156 238.980469 105.800781 239.363281 106.832031 C 239.746094 107.863281 240.101562 108.902344 240.425781 109.957031 C 240.746094 111.007812 241.039062 112.066406 241.304688 113.132812 C 241.566406 114.203125 241.796875 115.277344 241.996094 116.359375 C 242.195312 117.441406 242.363281 118.527344 242.503906 119.617188 C 242.640625 120.707031 242.746094 121.800781 242.820312 122.898438 C 242.894531 123.996094 242.933594 125.09375 242.945312 126.195312 C 242.957031 127.296875 242.933594 128.394531 242.882812 129.492188 C 242.828125 130.589844 242.742188 131.6875 242.625 132.78125 C 242.507812 133.875 242.359375 134.964844 242.179688 136.046875 C 242 137.132812 241.789062 138.210938 241.546875 139.285156 C 241.308594 140.359375 241.035156 141.421875 240.730469 142.480469 C 240.425781 143.535156 240.09375 144.585938 239.726562 145.621094 C 239.363281 146.660156 238.96875 147.6875 238.546875 148.699219 C 238.121094 149.714844 237.667969 150.71875 237.1875 151.707031 C 236.707031 152.695312 236.195312 153.667969 235.65625 154.628906 C 235.121094 155.585938 234.554688 156.53125 233.960938 157.457031 C 233.371094 158.382812 232.75 159.292969 232.105469 160.183594 C 231.460938 161.074219 230.789062 161.945312 230.09375 162.796875 C 229.398438 163.648438 228.679688 164.480469 227.933594 165.289062 C 227.191406 166.097656 226.425781 166.886719 225.636719 167.652344 C 224.847656 168.417969 224.035156 169.160156 223.203125 169.878906 C 222.371094 170.597656 221.519531 171.292969 220.644531 171.964844 C 219.773438 172.632812 218.882812 173.277344 217.972656 173.894531 C 217.0625 174.511719 216.136719 175.105469 215.191406 175.667969 C 214.25 176.234375 213.289062 176.769531 212.316406 177.277344 C 211.339844 177.789062 210.351562 178.269531 209.347656 178.71875 C 208.34375 179.171875 207.332031 179.59375 206.304688 179.988281 C 205.277344 180.378906 204.238281 180.742188 203.191406 181.074219 C 202.140625 181.410156 201.085938 181.710938 200.019531 181.980469 C 198.953125 182.253906 197.882812 182.496094 196.800781 182.703125 C 195.722656 182.914062 194.636719 183.09375 193.546875 183.238281 C 192.457031 183.386719 191.363281 183.5 190.269531 183.585938 C 189.171875 183.667969 188.074219 183.722656 186.972656 183.742188 C 185.875 183.761719 184.773438 183.75 183.675781 183.707031 C 182.578125 183.664062 181.480469 183.585938 180.386719 183.480469 C 179.289062 183.375 178.199219 183.234375 177.113281 183.066406 C 176.027344 182.894531 174.945312 182.695312 173.871094 182.460938 C 172.796875 182.230469 171.730469 181.964844 170.667969 181.671875 C 169.609375 181.375 168.558594 181.050781 167.519531 180.695312 C 166.476562 180.34375 165.449219 179.957031 164.429688 179.542969 C 163.410156 179.128906 162.40625 178.683594 161.414062 178.210938 C 160.417969 177.738281 159.441406 177.238281 158.476562 176.707031 C 157.511719 176.179688 156.566406 175.621094 155.632812 175.035156 C 107.765625 144.710938 128.503906 70.292969 185.898438 69.710938 Z M 252.765625 302.089844 L 119.035156 302.089844 C 117.65625 302.085938 116.277344 302.015625 114.90625 301.878906 C 113.53125 301.738281 112.167969 301.535156 110.816406 301.265625 C 109.464844 300.992188 108.125 300.65625 106.804688 300.253906 C 105.488281 299.851562 104.191406 299.386719 102.914062 298.855469 C 101.640625 298.324219 100.394531 297.734375 99.179688 297.082031 C 97.964844 296.429688 96.78125 295.722656 95.636719 294.953125 C 94.488281 294.183594 93.382812 293.363281 92.316406 292.488281 C 91.25 291.609375 90.230469 290.683594 89.253906 289.707031 C 88.28125 288.730469 87.355469 287.710938 86.480469 286.644531 C 85.605469 285.574219 84.785156 284.46875 84.019531 283.320312 C 83.253906 282.171875 82.542969 280.992188 81.894531 279.773438 C 81.242188 278.554688 80.65625 277.308594 80.128906 276.035156 C 79.597656 274.761719 79.132812 273.460938 78.734375 272.140625 C 78.332031 270.820312 78 269.484375 77.730469 268.132812 C 77.460938 266.777344 77.257812 265.414062 77.121094 264.042969 C 76.984375 262.667969 76.917969 261.292969 76.917969 259.910156 C 76.917969 224.183594 103.234375 193.335938 140.992188 179.453125 C 142.546875 180.765625 144.15625 182.011719 145.820312 183.183594 C 147.484375 184.359375 149.195312 185.457031 150.953125 186.480469 C 152.714844 187.503906 154.515625 188.445312 156.359375 189.3125 C 158.199219 190.175781 160.078125 190.957031 161.988281 191.660156 C 163.898438 192.359375 165.839844 192.972656 167.804688 193.503906 C 169.769531 194.03125 171.753906 194.476562 173.757812 194.832031 C 175.761719 195.1875 177.777344 195.453125 179.804688 195.632812 C 181.832031 195.8125 183.863281 195.898438 185.898438 195.898438 C 187.9375 195.898438 189.96875 195.8125 191.996094 195.632812 C 194.023438 195.453125 196.039062 195.1875 198.042969 194.832031 C 200.046875 194.476562 202.03125 194.03125 203.996094 193.503906 C 205.960938 192.972656 207.902344 192.359375 209.8125 191.660156 C 211.722656 190.957031 213.601562 190.175781 215.441406 189.3125 C 217.285156 188.445312 219.085938 187.503906 220.847656 186.480469 C 222.605469 185.457031 224.316406 184.359375 225.980469 183.183594 C 227.644531 182.011719 229.253906 180.765625 230.808594 179.453125 C 268.566406 193.335938 294.882812 224.183594 294.882812 259.910156 C 294.882812 261.292969 294.816406 262.667969 294.679688 264.042969 C 294.542969 265.414062 294.339844 266.777344 294.070312 268.132812 C 293.800781 269.484375 293.46875 270.820312 293.066406 272.140625 C 292.664062 273.460938 292.203125 274.761719 291.671875 276.035156 C 291.144531 277.308594 290.558594 278.554688 289.90625 279.773438 C 289.257812 280.992188 288.546875 282.171875 287.78125 283.320312 C 287.015625 284.46875 286.195312 285.574219 285.320312 286.644531 C 284.445312 287.710938 283.519531 288.730469 282.546875 289.707031 C 281.570312 290.683594 280.550781 291.609375 279.484375 292.488281 C 278.417969 293.363281 277.3125 294.183594 276.164062 294.953125 C 275.019531 295.722656 273.835938 296.429688 272.621094 297.082031 C 271.40625 297.734375 270.160156 298.324219 268.886719 298.855469 C 267.609375 299.386719 266.3125 299.851562 264.992188 300.253906 C 263.675781 300.65625 262.335938 300.992188 260.984375 301.265625 C 259.632812 301.535156 258.269531 301.738281 256.894531 301.878906 C 255.523438 302.015625 254.144531 302.085938 252.765625 302.089844 Z M 252.765625 302.089844 " fill-opacity="1" fill-rule="nonzero"/></svg>