<svg xmlns="http://www.w3.org/2000/svg" xmlns:xlink="http://www.w3.org/1999/xlink" width="500" zoomAndPan="magnify" viewBox="0 0 375 374.999991" height="500" preserveAspectRatio="xMidYMid meet" version="1.2"><defs><clipPath id="b744784327"><path d="M 130 237 L 147 237 L 147 259 L 130 259 Z M 130 237 "/></clipPath><clipPath id="f207efe5c0"><path d="M 32.65625 70.703125 L 314.570312 40.734375 L 342.554688 304 L 60.644531 333.96875 Z M 32.65625 70.703125 "/></clipPath><clipPath id="9f49a8f8ed"><path d="M 32.65625 70.703125 L 314.570312 40.734375 L 342.554688 304 L 60.644531 333.96875 Z M 32.65625 70.703125 "/></clipPath><clipPath id="8db759a896"><path d="M 86 239 L 147 239 L 147 325 L 86 325 Z M 86 239 "/></clipPath><clipPath id="392aafbb30"><path d="M 32.65625 70.703125 L 314.570312 40.734375 L 342.554688 304 L 60.644531 333.96875 Z M 32.65625 70.703125 "/></clipPath><clipPath id="742b7d1f4d"><path d="M 32.65625 70.703125 L 314.570312 40.734375 L 342.554688 304 L 60.644531 333.96875 Z M 32.65625 70.703125 "/></clipPath><clipPath id="33a5ff77e2"><path d="M 131 45 L 330 45 L 330 302 L 131 302 Z M 131 45 "/></clipPath><clipPath id="72e061f1a7"><path d="M 32.65625 70.703125 L 314.570312 40.734375 L 342.554688 304 L 60.644531 333.96875 Z M 32.65625 70.703125 "/></clipPath><clipPath id="9d8f6b831a"><path d="M 32.65625 70.703125 L 314.570312 40.734375 L 342.554688 304 L 60.644531 333.96875 Z M 32.65625 70.703125 "/></clipPath><clipPath id="a5f25a8277"><path d="M 46 158 L 73 158 L 73 234 L 46 234 Z M 46 158 "/></clipPath><clipPath id="09bc56dd6d"><path d="M 32.65625 70.703125 L 314.570312 40.734375 L 342.554688 304 L 60.644531 333.96875 Z M 32.65625 70.703125 "/></clipPath><clipPath id="10ecbb8d05"><path d="M 32.65625 70.703125 L 314.570312 40.734375 L 342.554688 304 L 60.644531 333.96875 Z M 32.65625 70.703125 "/></clipPath><clipPath id="660787f6ba"><path d="M 68 146 L 138 146 L 138 237 L 68 237 Z M 68 146 "/></clipPath><clipPath id="814acbb4ab"><path d="M 32.65625 70.703125 L 314.570312 40.734375 L 342.554688 304 L 60.644531 333.96875 Z M 32.65625 70.703125 "/></clipPath><clipPath id="8db1fed0a2"><path d="M 32.65625 70.703125 L 314.570312 40.734375 L 342.554688 304 L 60.644531 333.96875 Z M 32.65625 70.703125 "/></clipPath><clipPath id="7bc46c6c79"><path d="M 273 156 L 284 156 L 284 192 L 273 192 Z M 273 156 "/></clipPath><clipPath id="428e47e7c0"><path d="M 32.65625 70.703125 L 314.570312 40.734375 L 342.554688 304 L 60.644531 333.96875 Z M 32.65625 70.703125 "/></clipPath><clipPath id="585f6bd4a5"><path d="M 32.65625 70.703125 L 314.570312 40.734375 L 342.554688 304 L 60.644531 333.96875 Z M 32.65625 70.703125 "/></clipPath></defs><g id="ea9d810518"><g clip-rule="nonzero" clip-path="url(#b744784327)"><g clip-rule="nonzero" clip-path="url(#f207efe5c0)"><g clip-rule="nonzero" clip-path="url(#9f49a8f8ed)"><path style=" stroke:none;fill-rule:nonzero;fill:#1f6633;fill-opacity:1;" d="M 130.339844 238.472656 C 131.828125 244.878906 133.804688 251.617188 136.015625 258.304688 L 146.953125 257.140625 L 136.761719 237.789062 Z M 130.339844 238.472656 "/></g></g></g><g clip-rule="nonzero" clip-path="url(#8db759a896)"><g clip-rule="nonzero" clip-path="url(#392aafbb30)"><g clip-rule="nonzero" clip-path="url(#742b7d1f4d)"><path style=" stroke:none;fill-rule:nonzero;fill:#1f6633;fill-opacity:1;" d="M 131.9375 264.707031 C 131.597656 263.746094 131.285156 262.800781 130.96875 261.835938 C 130.652344 260.871094 130.335938 259.929688 130.019531 258.964844 C 128.710938 254.941406 127.5 250.929688 126.410156 246.953125 C 125.675781 244.296875 125.019531 241.679688 124.4375 239.125 L 122.625 239.316406 L 119.6875 239.628906 L 93.953125 242.363281 C 91.601562 242.613281 89.277344 242.695312 86.984375 242.605469 C 87.46875 244.027344 88 245.660156 88.574219 247.503906 C 90.785156 254.40625 93.183594 262.453125 94.796875 267.777344 C 95.5 270.128906 96.054688 271.972656 96.261719 272.59375 C 98.007812 278.042969 99.714844 283.597656 101.382812 288.984375 C 103.339844 295.320312 105.347656 301.886719 107.429688 308.277344 C 107.996094 310.023438 109.0625 312.21875 110.628906 314.859375 C 115.878906 323.769531 127.507812 326.863281 136.554688 321.761719 C 145.125 316.925781 148.632812 306.488281 144.746094 297.457031 C 140.675781 288.042969 136.003906 276.527344 131.9375 264.707031 Z M 131.9375 264.707031 "/></g></g></g><g clip-rule="nonzero" clip-path="url(#33a5ff77e2)"><g clip-rule="nonzero" clip-path="url(#72e061f1a7)"><g clip-rule="nonzero" clip-path="url(#9d8f6b831a)"><path style=" stroke:none;fill-rule:nonzero;fill:#1f6633;fill-opacity:1;" d="M 298.382812 69.527344 C 285.277344 48.535156 273.023438 45.152344 265.050781 46 C 261.261719 46.402344 257.609375 47.835938 254.226562 50.265625 C 248.261719 54.539062 243.136719 61.839844 238.957031 71.964844 C 237.351562 75.894531 235.863281 80.265625 234.582031 84.992188 C 234.429688 85.554688 234.125 86.0625 233.667969 86.445312 C 209.113281 107.894531 180.484375 123.667969 153.171875 137.511719 C 147.417969 140.433594 141.609375 143.308594 136.679688 145.734375 C 136.65625 145.738281 136.636719 145.765625 136.613281 145.765625 C 136.566406 145.796875 136.542969 145.796875 136.496094 145.804688 C 136.453125 145.832031 136.40625 145.835938 136.335938 145.867188 C 136.289062 145.871094 136.269531 145.898438 136.222656 145.902344 C 136.175781 145.910156 136.109375 145.941406 136.058594 145.945312 C 136.035156 145.949219 135.988281 145.953125 135.96875 145.976562 C 135.875 145.988281 135.78125 146.023438 135.6875 146.03125 C 135.644531 146.058594 135.53125 146.121094 135.335938 146.308594 C 135.253906 146.410156 135.125 146.542969 135 146.722656 C 134.960938 146.777344 134.917969 146.851562 134.878906 146.902344 C 134.835938 146.957031 134.796875 147.03125 134.734375 147.132812 C 134.632812 147.285156 134.53125 147.464844 134.433594 147.664062 C 134.417969 147.714844 134.375 147.765625 134.355469 147.816406 C 134.335938 147.863281 134.296875 147.941406 134.28125 147.988281 C 133.851562 148.890625 133.375 150.203125 132.882812 152.085938 C 132.796875 152.40625 132.738281 152.722656 132.652344 153.039062 C 131.535156 157.988281 131 164.5625 131.03125 172.027344 C 131.035156 172.074219 131.042969 172.144531 131.023438 172.195312 C 131.015625 172.554688 131.03125 172.933594 131.046875 173.289062 C 131.054688 173.597656 131.0625 173.902344 131.074219 174.210938 C 131.085938 174.332031 131.074219 174.449219 131.085938 174.566406 C 131.109375 175.46875 131.136719 176.371094 131.160156 177.273438 C 131.234375 179.308594 131.363281 181.414062 131.515625 183.539062 C 131.542969 184.011719 131.59375 184.480469 131.621094 184.976562 C 131.632812 185.070312 131.640625 185.167969 131.652344 185.261719 C 131.714844 186.085938 131.800781 186.886719 131.867188 187.710938 C 131.925781 188.277344 131.984375 188.839844 132.046875 189.40625 C 133.628906 204.296875 136.878906 217.867188 140.734375 225.710938 C 141.375 227.023438 141.953125 228.007812 142.484375 228.757812 C 142.625 228.933594 142.738281 229.113281 142.847656 229.269531 C 142.933594 229.378906 143.015625 229.488281 143.09375 229.574219 C 143.644531 230.253906 144.0625 230.613281 144.347656 230.820312 C 144.398438 230.863281 144.449219 230.882812 144.5 230.925781 C 144.625 230.984375 144.699219 231.023438 144.722656 231.019531 C 144.722656 231.019531 144.746094 231.015625 144.746094 231.015625 C 144.839844 231.007812 144.9375 230.996094 145.03125 231.011719 C 145.054688 231.007812 145.078125 231.003906 145.101562 231.003906 C 145.171875 230.996094 145.246094 231.011719 145.320312 231.027344 C 145.34375 231.023438 145.34375 231.023438 145.367188 231.023438 C 145.511719 231.03125 145.632812 231.066406 145.753906 231.101562 C 151.082031 232.4375 157.367188 234.027344 163.605469 235.671875 C 193.195312 243.46875 224.527344 252.867188 253.039062 268.675781 C 253.546875 268.953125 253.972656 269.386719 254.242188 269.902344 C 256.488281 274.257812 258.859375 278.214844 261.253906 281.71875 C 267.46875 290.738281 274.015625 296.800781 280.746094 299.722656 C 284.3125 301.273438 287.929688 301.933594 291.472656 301.699219 L 291.566406 301.691406 C 291.777344 301.667969 292.011719 301.640625 292.226562 301.621094 C 300.199219 300.773438 311.46875 294.886719 319.863281 271.609375 C 324.253906 259.414062 327.296875 243.75 328.65625 226.308594 C 330.054688 208.152344 329.707031 188.753906 327.570312 168.644531 C 325.429688 148.53125 321.714844 129.46875 316.507812 112.035156 C 311.53125 95.199219 305.261719 80.523438 298.382812 69.527344 Z M 308.851562 267.59375 C 303.984375 281.101562 297.476562 289.238281 290.984375 289.929688 C 290.863281 289.941406 290.746094 289.953125 290.628906 289.964844 C 288.953125 290.074219 287.253906 289.753906 285.429688 288.949219 C 280.816406 286.941406 275.785156 282.125 270.917969 275.054688 C 260.113281 259.359375 251.160156 234.644531 245.601562 206.09375 L 276.492188 195.460938 C 275.609375 194.769531 274.75 193.859375 273.960938 192.707031 C 271.230469 188.714844 269.207031 182.222656 268.429688 174.882812 C 267.648438 167.542969 268.257812 160.769531 270.089844 156.292969 C 270.621094 155 271.242188 153.933594 271.984375 153.070312 L 239.550781 149.167969 C 238.980469 120.089844 242.5625 94.039062 249.800781 76.425781 C 253.070312 68.46875 256.980469 62.722656 261.066406 59.765625 C 262.8125 58.511719 264.523438 57.828125 266.3125 57.640625 C 272.78125 56.953125 280.878906 63.535156 288.480469 75.742188 C 301.667969 96.867188 311.925781 132.03125 315.945312 169.855469 C 319.9375 207.636719 317.308594 244.191406 308.851562 267.59375 Z M 308.851562 267.59375 "/></g></g></g><g clip-rule="nonzero" clip-path="url(#a5f25a8277)"><g clip-rule="nonzero" clip-path="url(#09bc56dd6d)"><g clip-rule="nonzero" clip-path="url(#10ecbb8d05)"><path style=" stroke:none;fill-rule:nonzero;fill:#1f6633;fill-opacity:1;" d="M 65.007812 158.496094 C 52.285156 167.054688 44.570312 182.21875 46.300781 198.496094 C 48.03125 214.773438 58.734375 227.957031 72.972656 233.675781 C 67.949219 222.863281 64.636719 211.414062 63.09375 199.589844 C 61.316406 186.003906 61.988281 171.945312 65.007812 158.496094 Z M 65.007812 158.496094 "/></g></g></g><g clip-rule="nonzero" clip-path="url(#660787f6ba)"><g clip-rule="nonzero" clip-path="url(#814acbb4ab)"><g clip-rule="nonzero" clip-path="url(#8db1fed0a2)"><path style=" stroke:none;fill-rule:nonzero;fill:#1f6633;fill-opacity:1;" d="M 121.976562 233.414062 L 126.136719 232.972656 L 129.078125 232.660156 L 137.382812 231.777344 C 137.296875 231.644531 137.210938 231.507812 137.125 231.375 C 137.125 231.351562 137.097656 231.332031 137.09375 231.308594 C 137.007812 231.171875 136.921875 231.015625 136.832031 230.859375 C 136.804688 230.816406 136.777344 230.769531 136.746094 230.726562 C 136.660156 230.59375 136.574219 230.433594 136.484375 230.277344 C 136.460938 230.257812 136.453125 230.210938 136.429688 230.1875 C 136.339844 230.007812 136.222656 229.828125 136.132812 229.648438 C 136.105469 229.605469 136.078125 229.558594 136.070312 229.511719 C 135.984375 229.355469 135.921875 229.21875 135.832031 229.0625 C 135.804688 229.019531 135.773438 228.949219 135.746094 228.90625 C 135.652344 228.699219 135.535156 228.5 135.441406 228.296875 C 131.308594 219.863281 127.839844 205.554688 126.1875 190.003906 C 124.6875 175.914062 124.855469 162.503906 126.59375 153.328125 C 126.714844 152.695312 126.839844 152.085938 126.96875 151.503906 C 127.035156 151.210938 127.097656 150.917969 127.183594 150.625 C 127.183594 150.625 127.183594 150.625 127.183594 150.601562 C 127.230469 150.378906 127.28125 150.183594 127.351562 149.964844 C 127.371094 149.914062 127.386719 149.839844 127.40625 149.789062 C 127.457031 149.617188 127.488281 149.449219 127.542969 149.277344 C 127.558594 149.226562 127.554688 149.179688 127.574219 149.15625 C 127.625 148.957031 127.699219 148.738281 127.773438 148.539062 C 127.769531 148.515625 127.789062 148.488281 127.789062 148.464844 C 127.839844 148.292969 127.894531 148.121094 127.949219 147.949219 C 127.964844 147.898438 127.984375 147.851562 128.003906 147.800781 C 128.054688 147.628906 128.132812 147.453125 128.1875 147.28125 C 128.183594 147.257812 128.183594 147.257812 128.203125 147.230469 C 128.261719 147.082031 128.3125 146.910156 128.367188 146.761719 L 84.285156 151.449219 C 79.957031 151.910156 75.863281 153.011719 72.066406 154.628906 C 68.136719 168.914062 67.042969 184.160156 68.980469 198.773438 C 70.550781 210.882812 74.097656 222.542969 79.5 233.503906 C 79.890625 234.296875 80.289062 235.109375 80.703125 235.898438 C 80.898438 235.925781 81.070312 235.980469 81.261719 236.003906 C 85.144531 236.710938 89.207031 236.875 93.34375 236.433594 L 121.972656 233.390625 Z M 121.976562 233.414062 "/></g></g></g><g clip-rule="nonzero" clip-path="url(#7bc46c6c79)"><g clip-rule="nonzero" clip-path="url(#428e47e7c0)"><g clip-rule="nonzero" clip-path="url(#585f6bd4a5)"><path style=" stroke:none;fill-rule:nonzero;fill:#1f6633;fill-opacity:1;" d="M 276.804688 156.578125 C 276.652344 156.691406 276.128906 157.148438 275.539062 158.546875 C 274.101562 162.027344 273.625 168.050781 274.285156 174.261719 C 274.945312 180.46875 276.679688 186.257812 278.816406 189.359375 C 279.6875 190.625 280.269531 190.941406 280.445312 191.019531 C 280.445312 191.019531 280.46875 191.015625 280.46875 191.015625 C 280.714844 190.871094 281.308594 190.214844 281.914062 188.53125 C 283.222656 184.941406 283.617188 179.261719 282.988281 173.335938 C 282.359375 167.40625 280.777344 161.9375 278.746094 158.703125 C 277.820312 157.183594 277.078125 156.667969 276.804688 156.578125 Z M 276.804688 156.578125 "/></g></g></g></g></svg>