<svg xmlns="http://www.w3.org/2000/svg" xmlns:xlink="http://www.w3.org/1999/xlink" width="500" zoomAndPan="magnify" viewBox="0 0 375 374.999991" height="500" preserveAspectRatio="xMidYMid meet" version="1.2"><defs><clipPath id="640eca40b1"><path d="M 63 224 L 116 224 L 116 309.429688 L 63 309.429688 Z M 63 224 "/></clipPath><clipPath id="bec789205f"><path d="M 29.550781 65.679688 L 295 65.679688 L 295 277 L 29.550781 277 Z M 29.550781 65.679688 "/></clipPath></defs><g id="7b6ed80d41"><path style=" stroke:none;fill-rule:nonzero;fill:#ffffff;fill-opacity:1;" d="M 309.515625 194.644531 C 306.894531 192.679688 302.3125 192.679688 300.351562 195.300781 C 298.386719 197.917969 298.386719 202.5 301.003906 204.464844 L 333.082031 230.648438 C 335.699219 233.269531 340.28125 232.613281 342.246094 229.996094 C 344.210938 227.375 344.210938 222.792969 341.589844 220.828125 Z M 309.515625 194.644531 "/><path style=" stroke:none;fill-rule:nonzero;fill:#ffffff;fill-opacity:1;" d="M 337.664062 161.914062 L 305.585938 161.914062 C 301.660156 161.914062 299.039062 164.53125 299.039062 168.457031 C 299.039062 172.386719 301.660156 175.003906 305.585938 175.003906 L 337.664062 175.003906 C 341.589844 175.003906 344.210938 172.386719 344.210938 168.457031 C 344.210938 164.53125 341.589844 161.914062 337.664062 161.914062 Z M 337.664062 161.914062 "/><path style=" stroke:none;fill-rule:nonzero;fill:#ffffff;fill-opacity:1;" d="M 309.515625 141.617188 L 341.589844 115.433594 C 344.210938 113.46875 344.863281 108.886719 342.246094 106.269531 C 340.28125 103.648438 335.699219 102.996094 333.082031 105.613281 L 301.003906 131.800781 C 298.386719 133.761719 297.730469 138.34375 300.351562 140.964844 C 302.96875 143.582031 306.894531 144.238281 309.515625 141.617188 Z M 309.515625 141.617188 "/><g clip-rule="nonzero" clip-path="url(#640eca40b1)"><path style=" stroke:none;fill-rule:nonzero;fill:#ffffff;fill-opacity:1;" d="M 105.921875 224.101562 L 73.191406 224.101562 L 63.371094 292.183594 C 62.0625 301.351562 69.261719 309.207031 78.429688 309.207031 L 100.6875 309.207031 C 109.851562 309.207031 117.050781 301.351562 115.742188 292.183594 Z M 105.921875 224.101562 "/></g><g clip-rule="nonzero" clip-path="url(#bec789205f)"><path style=" stroke:none;fill-rule:nonzero;fill:#ffffff;fill-opacity:1;" d="M 261.726562 138.34375 L 261.726562 65.679688 L 115.742188 129.179688 L 69.917969 129.179688 C 65.992188 129.179688 62.71875 132.453125 62.71875 136.382812 L 62.71875 137.691406 L 45.042969 137.691406 C 36.53125 137.691406 29.984375 144.238281 29.984375 152.746094 L 29.984375 189.40625 C 29.984375 197.917969 36.53125 204.464844 45.042969 204.464844 L 62.71875 204.464844 L 62.71875 205.773438 C 62.71875 209.699219 65.992188 212.972656 69.917969 212.972656 L 115.742188 212.972656 L 261.726562 276.472656 L 261.726562 203.808594 C 280.054688 203.808594 294.457031 189.40625 294.457031 171.078125 C 294.457031 152.746094 280.054688 138.34375 261.726562 138.34375 Z M 261.726562 138.34375 "/></g></g></svg>