<svg xmlns="http://www.w3.org/2000/svg" xmlns:xlink="http://www.w3.org/1999/xlink" width="500" zoomAndPan="magnify" viewBox="0 0 375 374.999991" height="500" preserveAspectRatio="xMidYMid meet" version="1.2"><defs><clipPath id="bcc9fda963"><path d="M 50.089844 41 L 322 41 L 322 333 L 50.089844 333 Z M 50.089844 41 "/></clipPath></defs><g id="081875d043"><g clip-rule="nonzero" clip-path="url(#bcc9fda963)"><path style=" stroke:none;fill-rule:evenodd;fill:#a6a6a6;fill-opacity:1;" d="M 69.488281 72.601562 C 65.4375 74.027344 61.710938 76.355469 58.617188 79.460938 C 53.15625 84.910156 50.089844 92.3125 50.089844 100.035156 C 50.089844 145.457031 50.089844 258.300781 50.089844 303.726562 C 50.089844 311.445312 53.15625 318.847656 58.617188 324.300781 C 64.066406 329.761719 71.46875 332.824219 79.191406 332.824219 L 224.683594 332.824219 C 232.40625 332.824219 239.804688 329.761719 245.257812 324.300781 C 248.359375 321.203125 250.6875 317.480469 252.113281 313.425781 L 108.289062 313.425781 C 97.996094 313.425781 88.132812 309.34375 80.859375 302.058594 C 73.574219 294.78125 69.488281 284.917969 69.488281 274.628906 Z M 282.882812 213.917969 L 259.582031 254.277344 C 258.625 255.9375 257.199219 257.273438 255.480469 258.117188 L 224.132812 273.617188 C 221.222656 275.0625 217.789062 274.945312 214.984375 273.328125 C 212.171875 271.707031 210.359375 268.789062 210.15625 265.546875 L 207.902344 230.648438 C 207.777344 228.738281 208.222656 226.835938 209.183594 225.179688 L 277.082031 107.578125 C 278.664062 104.824219 280.632812 102.429688 282.882812 100.421875 L 282.882812 70.933594 C 282.882812 63.214844 279.816406 55.8125 274.355469 50.363281 C 268.90625 44.902344 261.503906 41.835938 253.785156 41.835938 L 108.289062 41.835938 C 100.566406 41.835938 93.167969 44.902344 87.714844 50.363281 C 82.253906 55.8125 79.191406 63.214844 79.191406 70.933594 C 79.191406 116.359375 79.191406 229.203125 79.191406 274.628906 C 79.191406 282.347656 82.253906 289.75 87.714844 295.199219 C 93.167969 300.660156 100.566406 303.726562 108.289062 303.726562 L 253.785156 303.726562 C 261.503906 303.726562 268.90625 300.660156 274.355469 295.199219 C 279.816406 289.75 282.882812 282.347656 282.882812 274.628906 Z M 275.519531 129.675781 L 217.585938 230.027344 L 219.835938 264.925781 L 251.183594 249.425781 L 309.121094 149.074219 Z M 137.386719 255.226562 L 195.585938 255.226562 C 200.941406 255.226562 205.285156 250.882812 205.285156 245.527344 C 205.285156 240.175781 200.941406 235.828125 195.585938 235.828125 L 137.386719 235.828125 C 132.035156 235.828125 127.6875 240.175781 127.6875 245.527344 C 127.6875 250.882812 132.035156 255.226562 137.386719 255.226562 Z M 137.386719 206.730469 L 205.285156 206.730469 C 210.640625 206.730469 214.984375 202.382812 214.984375 197.03125 C 214.984375 191.675781 210.640625 187.332031 205.285156 187.332031 L 137.386719 187.332031 C 132.035156 187.332031 127.6875 191.675781 127.6875 197.03125 C 127.6875 202.382812 132.035156 206.730469 137.386719 206.730469 Z M 137.386719 158.230469 L 224.683594 158.230469 C 230.039062 158.230469 234.382812 153.886719 234.382812 148.53125 C 234.382812 143.175781 230.039062 138.832031 224.683594 138.832031 L 137.386719 138.832031 C 132.035156 138.832031 127.6875 143.175781 127.6875 148.53125 C 127.6875 153.886719 132.035156 158.230469 137.386719 158.230469 Z M 280.632812 120.828125 L 314.230469 140.230469 L 319.082031 131.828125 C 324.4375 122.546875 321.253906 110.683594 311.980469 105.328125 C 302.699219 99.964844 290.835938 103.148438 285.480469 112.429688 Z M 137.386719 109.734375 L 224.683594 109.734375 C 230.039062 109.734375 234.382812 105.386719 234.382812 100.035156 C 234.382812 94.679688 230.039062 90.332031 224.683594 90.332031 L 137.386719 90.332031 C 132.035156 90.332031 127.6875 94.679688 127.6875 100.035156 C 127.6875 105.386719 132.035156 109.734375 137.386719 109.734375 Z M 137.386719 109.734375 "/></g></g></svg>