<svg xmlns="http://www.w3.org/2000/svg" xmlns:xlink="http://www.w3.org/1999/xlink" width="500" zoomAndPan="magnify" viewBox="0 0 375 374.999991" height="500" preserveAspectRatio="xMidYMid meet" version="1.2"><defs><clipPath id="9423738ec4"><path d="M 33.960938 30.421875 L 340.710938 30.421875 L 340.710938 337.171875 L 33.960938 337.171875 Z M 33.960938 30.421875 "/></clipPath></defs><g id="7ef181a1ae"><path style=" stroke:none;fill-rule:nonzero;fill:#1d7435;fill-opacity:1;" d="M 242.527344 118.683594 L 166.742188 222.589844 L 130.855469 186.945312 C 125.992188 182.113281 108.488281 199.734375 113.355469 204.570312 L 159.5 250.40625 C 161.835938 252.722656 164.984375 254.011719 168.25 254.011719 C 168.578125 254.011719 168.90625 254 169.234375 253.972656 C 172.84375 253.6875 176.148438 251.835938 178.285156 248.910156 L 262.597656 133.320312 C 266.640625 127.777344 246.570312 113.140625 242.527344 118.683594 "/><path style=" stroke:none;fill-rule:nonzero;fill:#1d7435;fill-opacity:1;" d="M 187.335938 319.960938 C 112.253906 319.960938 51.171875 258.875 51.171875 183.796875 C 51.171875 108.714844 112.253906 47.628906 187.335938 47.628906 C 262.414062 47.628906 323.5 108.714844 323.5 183.796875 C 323.5 258.875 262.414062 319.960938 187.335938 319.960938 Z M 324.742188 125.746094 C 317.230469 107.984375 306.480469 92.039062 292.785156 78.34375 C 279.089844 64.648438 263.144531 53.898438 245.386719 46.386719 C 226.996094 38.609375 207.464844 34.664062 187.335938 34.664062 C 167.207031 34.664062 147.675781 38.609375 129.285156 46.386719 C 111.527344 53.898438 95.578125 64.648438 81.882812 78.34375 C 68.191406 92.039062 57.4375 107.984375 49.925781 125.746094 C 42.148438 144.132812 38.203125 163.667969 38.203125 183.796875 C 38.203125 203.925781 42.148438 223.457031 49.925781 241.84375 C 57.4375 259.605469 68.191406 275.550781 81.882812 289.246094 C 95.578125 302.941406 111.527344 313.691406 129.285156 321.203125 C 147.675781 328.980469 167.207031 332.925781 187.335938 332.925781 C 207.464844 332.925781 226.996094 328.980469 245.386719 321.203125 C 263.144531 313.691406 279.089844 302.941406 292.785156 289.246094 C 306.480469 275.550781 317.230469 259.605469 324.742188 241.84375 C 332.523438 223.457031 336.464844 203.925781 336.464844 183.796875 C 336.464844 163.667969 332.523438 144.132812 324.742188 125.746094 "/><g clip-rule="nonzero" clip-path="url(#9423738ec4)"><path style=" stroke:none;fill-rule:nonzero;fill:#1d7435;fill-opacity:1;" d="M 187.335938 51.875 C 114.597656 51.875 55.417969 111.054688 55.417969 183.792969 C 55.417969 256.535156 114.597656 315.714844 187.335938 315.714844 C 260.078125 315.714844 319.253906 256.535156 319.253906 183.792969 C 319.253906 111.054688 260.078125 51.875 187.335938 51.875 Z M 187.335938 324.203125 C 109.914062 324.203125 46.925781 261.214844 46.925781 183.792969 C 46.925781 106.375 109.914062 43.386719 187.335938 43.386719 C 264.757812 43.386719 327.746094 106.375 327.746094 183.792969 C 327.746094 261.214844 264.757812 324.203125 187.335938 324.203125 Z M 187.335938 38.90625 C 167.777344 38.90625 148.804688 42.738281 130.9375 50.292969 C 113.6875 57.59375 98.191406 68.039062 84.886719 81.34375 C 71.582031 94.648438 61.132812 110.144531 53.835938 127.398438 C 46.28125 145.261719 42.449219 164.238281 42.449219 183.792969 C 42.449219 203.351562 46.28125 222.328125 53.835938 240.191406 C 61.132812 257.445312 71.582031 272.941406 84.886719 286.246094 C 98.191406 299.550781 113.6875 309.996094 130.9375 317.296875 C 148.804688 324.851562 167.777344 328.683594 187.335938 328.683594 C 206.894531 328.683594 225.871094 324.851562 243.734375 317.296875 C 260.984375 309.996094 276.480469 299.550781 289.789062 286.246094 C 303.089844 272.941406 313.539062 257.445312 320.835938 240.191406 C 328.390625 222.328125 332.222656 203.351562 332.222656 183.792969 C 332.222656 164.238281 328.390625 145.261719 320.835938 127.398438 C 313.539062 110.144531 303.089844 94.648438 289.789062 81.34375 C 276.480469 68.039062 260.984375 57.59375 243.734375 50.292969 C 225.871094 42.738281 206.894531 38.90625 187.335938 38.90625 Z M 187.335938 337.171875 C 166.636719 337.171875 146.546875 333.113281 127.632812 325.113281 C 109.367188 317.386719 92.964844 306.328125 78.882812 292.246094 C 64.800781 278.164062 53.742188 261.765625 46.019531 243.5 C 38.015625 224.582031 33.960938 204.496094 33.960938 183.792969 C 33.960938 163.09375 38.015625 143.007812 46.019531 124.089844 C 53.742188 105.824219 64.800781 89.425781 78.882812 75.339844 C 92.964844 61.257812 109.367188 50.199219 127.632812 42.476562 C 146.546875 34.476562 166.636719 30.417969 187.335938 30.417969 C 208.035156 30.417969 228.125 34.476562 247.039062 42.476562 C 265.304688 50.199219 281.707031 61.257812 295.789062 75.339844 C 309.871094 89.425781 320.929688 105.824219 328.65625 124.089844 C 336.65625 143.007812 340.710938 163.09375 340.710938 183.792969 C 340.710938 204.496094 336.65625 224.582031 328.65625 243.5 C 320.929688 261.765625 309.871094 278.164062 295.789062 292.246094 C 281.707031 306.328125 265.304688 317.386719 247.039062 325.113281 C 228.125 333.113281 208.035156 337.171875 187.335938 337.171875 "/></g></g></svg>