<svg xmlns="http://www.w3.org/2000/svg" xmlns:xlink="http://www.w3.org/1999/xlink" width="500" zoomAndPan="magnify" viewBox="0 0 375 374.999991" height="500" preserveAspectRatio="xMidYMid meet" version="1.2"><defs><clipPath id="bb65f83f10"><path d="M 155 298 L 219 298 L 219 323.484375 L 155 323.484375 Z M 155 298 "/></clipPath><clipPath id="4d515dc5b6"><path d="M 63.621094 51.234375 L 311.121094 51.234375 L 311.121094 287 L 63.621094 287 Z M 63.621094 51.234375 "/></clipPath></defs><g id="a7a00d4678"><g clip-rule="nonzero" clip-path="url(#bb65f83f10)"><path style=" stroke:none;fill-rule:nonzero;fill:#a6a6a6;fill-opacity:1;" d="M 218.480469 299.78125 C 217.875 298.898438 216.660156 298.292969 215.890625 298.402344 L 159.015625 298.734375 C 159.015625 298.734375 156.976562 299.285156 156.425781 300.167969 C 155.875 301.050781 155.765625 302.152344 156.207031 303.089844 C 161.605469 315.488281 173.898438 323.480469 187.398438 323.480469 C 201.121094 323.480469 213.410156 315.324219 218.757812 302.703125 C 219.140625 301.710938 219.03125 300.609375 218.480469 299.78125 Z M 218.480469 299.78125 "/></g><g clip-rule="nonzero" clip-path="url(#4d515dc5b6)"><path style=" stroke:none;fill-rule:nonzero;fill:#a6a6a6;fill-opacity:1;" d="M 308.917969 269.25 L 274.03125 240.152344 L 274.03125 162.613281 C 274.03125 123.320312 247.6875 90.085938 211.757812 79.507812 C 211.921875 78.347656 212.144531 77.191406 212.144531 75.980469 C 212.144531 62.3125 201.066406 51.234375 187.398438 51.234375 C 173.730469 51.234375 162.652344 62.3125 162.652344 75.980469 C 162.652344 77.191406 162.875 78.347656 163.039062 79.507812 C 127.109375 90.085938 100.765625 123.265625 100.765625 162.613281 L 100.765625 240.152344 L 65.824219 269.25 C 64.390625 270.40625 63.621094 272.171875 63.621094 273.988281 L 63.621094 280.164062 C 63.621094 283.578125 66.375 286.335938 69.792969 286.335938 L 304.949219 286.335938 C 308.367188 286.335938 311.121094 283.578125 311.121094 280.164062 L 311.121094 273.988281 C 311.121094 272.171875 310.292969 270.40625 308.917969 269.25 Z M 175.109375 76.972656 C 175.109375 76.640625 175 76.308594 175 75.980469 C 175 69.144531 180.566406 63.578125 187.398438 63.578125 C 194.230469 63.578125 199.742188 69.144531 199.742188 75.980469 C 199.742188 76.308594 199.6875 76.640625 199.632812 76.972656 C 195.609375 76.421875 191.53125 75.980469 187.34375 75.980469 C 183.15625 75.980469 179.132812 76.363281 175.109375 76.972656 Z M 175.109375 76.972656 "/></g></g></svg>