<svg xmlns="http://www.w3.org/2000/svg" xmlns:xlink="http://www.w3.org/1999/xlink" width="500" zoomAndPan="magnify" viewBox="0 0 375 374.999991" height="500" preserveAspectRatio="xMidYMid meet" version="1.2"><defs><clipPath id="b676711cb9"><path d="M 84 78.785156 L 300.902344 78.785156 L 300.902344 296.285156 L 84 296.285156 Z M 84 78.785156 "/></clipPath></defs><g id="03b86a60c3"><g clip-rule="nonzero" clip-path="url(#b676711cb9)"><path style=" stroke:none;fill-rule:nonzero;fill:#1d7435;fill-opacity:1;" d="M 192.660156 154.734375 C 191.972656 154.699219 191.292969 154.597656 190.625 154.433594 C 189.957031 154.269531 189.308594 154.042969 188.683594 153.753906 C 188.058594 153.464844 187.464844 153.121094 186.90625 152.71875 C 186.347656 152.316406 185.828125 151.867188 185.355469 151.367188 C 184.878906 150.867188 184.457031 150.328125 184.085938 149.75 C 183.714844 149.167969 183.402344 148.558594 183.144531 147.917969 C 182.890625 147.277344 182.699219 146.621094 182.566406 145.945312 C 182.4375 145.269531 182.375 144.585938 182.375 143.898438 C 182.375 143.207031 182.4375 142.527344 182.566406 141.847656 C 182.699219 141.171875 182.890625 140.515625 183.144531 139.875 C 183.402344 139.234375 183.714844 138.625 184.085938 138.046875 C 184.457031 137.464844 184.878906 136.925781 185.355469 136.425781 C 185.828125 135.925781 186.347656 135.476562 186.90625 135.074219 C 187.464844 134.671875 188.058594 134.328125 188.683594 134.039062 C 189.308594 133.753906 189.957031 133.527344 190.625 133.359375 C 191.292969 133.195312 191.972656 133.09375 192.660156 133.058594 L 192.835938 133.058594 C 193.523438 133.09375 194.203125 133.195312 194.871094 133.359375 C 195.539062 133.527344 196.1875 133.753906 196.8125 134.039062 C 197.4375 134.328125 198.03125 134.671875 198.59375 135.074219 C 199.152344 135.476562 199.667969 135.925781 200.144531 136.425781 C 200.617188 136.925781 201.039062 137.464844 201.410156 138.046875 C 201.78125 138.625 202.097656 139.234375 202.351562 139.875 C 202.605469 140.515625 202.800781 141.171875 202.929688 141.847656 C 203.058594 142.527344 203.125 143.207031 203.125 143.898438 C 203.125 144.585938 203.058594 145.269531 202.929688 145.945312 C 202.800781 146.621094 202.605469 147.277344 202.351562 147.917969 C 202.097656 148.558594 201.78125 149.167969 201.410156 149.75 C 201.039062 150.328125 200.617188 150.867188 200.144531 151.367188 C 199.667969 151.867188 199.152344 152.316406 198.59375 152.71875 C 198.03125 153.121094 197.4375 153.464844 196.8125 153.753906 C 196.1875 154.042969 195.539062 154.269531 194.871094 154.433594 C 194.203125 154.597656 193.523438 154.699219 192.835938 154.734375 Z M 181.867188 176.46875 C 181.867188 175.761719 181.9375 175.058594 182.074219 174.363281 C 182.210938 173.667969 182.417969 172.992188 182.6875 172.339844 C 182.960938 171.683594 183.292969 171.0625 183.6875 170.472656 C 184.078125 169.882812 184.527344 169.339844 185.027344 168.835938 C 185.527344 168.335938 186.074219 167.890625 186.664062 167.496094 C 187.253906 167.101562 187.875 166.769531 188.53125 166.496094 C 189.183594 166.226562 189.859375 166.023438 190.554688 165.882812 C 191.25 165.746094 191.953125 165.675781 192.660156 165.675781 C 193.367188 165.675781 194.070312 165.746094 194.765625 165.882812 C 195.460938 166.023438 196.136719 166.226562 196.789062 166.496094 C 197.445312 166.769531 198.066406 167.101562 198.65625 167.496094 C 199.246094 167.890625 199.792969 168.335938 200.292969 168.835938 C 200.792969 169.339844 201.242188 169.882812 201.636719 170.472656 C 202.027344 171.0625 202.359375 171.683594 202.632812 172.339844 C 202.902344 172.992188 203.109375 173.667969 203.246094 174.363281 C 203.386719 175.058594 203.453125 175.761719 203.453125 176.46875 L 203.453125 230.851562 C 203.453125 231.558594 203.386719 232.261719 203.246094 232.957031 C 203.109375 233.652344 202.902344 234.328125 202.632812 234.980469 C 202.359375 235.636719 202.027344 236.257812 201.636719 236.847656 C 201.242188 237.4375 200.792969 237.980469 200.292969 238.484375 C 199.792969 238.984375 199.246094 239.433594 198.65625 239.824219 C 198.066406 240.21875 197.445312 240.550781 196.789062 240.824219 C 196.136719 241.09375 195.460938 241.296875 194.765625 241.4375 C 194.070312 241.574219 193.367188 241.644531 192.660156 241.644531 C 191.953125 241.644531 191.25 241.574219 190.554688 241.4375 C 189.859375 241.296875 189.183594 241.09375 188.53125 240.824219 C 187.875 240.550781 187.253906 240.21875 186.664062 239.824219 C 186.074219 239.433594 185.527344 238.984375 185.027344 238.484375 C 184.527344 237.980469 184.078125 237.4375 183.6875 236.847656 C 183.292969 236.257812 182.960938 235.636719 182.6875 234.980469 C 182.417969 234.328125 182.210938 233.652344 182.074219 232.957031 C 181.9375 232.261719 181.867188 231.558594 181.867188 230.851562 Z M 300.421875 187.351562 C 300.425781 190.90625 300.257812 194.453125 299.917969 197.992188 C 299.574219 201.53125 299.0625 205.042969 298.378906 208.53125 C 297.691406 212.019531 296.839844 215.464844 295.816406 218.871094 C 294.796875 222.277344 293.609375 225.621094 292.261719 228.910156 C 290.914062 232.199219 289.40625 235.417969 287.746094 238.558594 C 286.082031 241.699219 284.269531 244.753906 282.308594 247.71875 C 280.347656 250.683594 278.246094 253.542969 276.003906 256.304688 C 273.765625 259.0625 271.394531 261.707031 268.894531 264.234375 C 267.652344 265.488281 266.378906 266.714844 265.078125 267.90625 C 263.773438 269.097656 262.441406 270.257812 261.082031 271.382812 C 259.722656 272.507812 258.335938 273.601562 256.921875 274.660156 C 255.507812 275.71875 254.070312 276.738281 252.605469 277.726562 C 251.140625 278.714844 249.652344 279.664062 248.140625 280.578125 C 246.628906 281.488281 245.097656 282.363281 243.542969 283.203125 C 241.988281 284.039062 240.414062 284.839844 238.816406 285.597656 C 237.222656 286.355469 235.613281 287.078125 233.980469 287.757812 C 232.351562 288.4375 230.707031 289.078125 229.046875 289.675781 C 227.382812 290.273438 225.710938 290.832031 224.019531 291.347656 C 222.332031 291.863281 220.632812 292.335938 218.917969 292.769531 C 217.207031 293.199219 215.484375 293.589844 213.753906 293.9375 C 212.023438 294.28125 210.28125 294.585938 208.535156 294.847656 C 206.789062 295.109375 205.039062 295.324219 203.28125 295.5 C 201.523438 295.675781 199.761719 295.804688 198 295.890625 C 196.234375 295.980469 194.46875 296.023438 192.703125 296.023438 C 190.9375 296.023438 189.175781 295.980469 187.410156 295.890625 C 185.648438 295.804688 183.886719 295.675781 182.128906 295.5 C 180.371094 295.324219 178.621094 295.109375 176.875 294.847656 C 175.125 294.585938 173.386719 294.28125 171.65625 293.9375 C 169.925781 293.589844 168.203125 293.199219 166.492188 292.769531 C 164.777344 292.335938 163.078125 291.863281 161.390625 291.347656 C 159.699219 290.832031 158.023438 290.273438 156.363281 289.675781 C 154.703125 289.078125 153.058594 288.4375 151.425781 287.757812 C 149.796875 287.078125 148.183594 286.355469 146.589844 285.597656 C 144.996094 284.839844 143.421875 284.039062 141.867188 283.203125 C 140.3125 282.363281 138.78125 281.488281 137.269531 280.578125 C 135.757812 279.664062 134.269531 278.714844 132.804688 277.726562 C 131.339844 276.738281 129.902344 275.71875 128.488281 274.660156 C 127.074219 273.601562 125.6875 272.507812 124.328125 271.382812 C 122.964844 270.257812 121.636719 269.097656 120.332031 267.90625 C 119.03125 266.714844 117.757812 265.488281 116.515625 264.234375 C 115.265625 262.972656 114.042969 261.683594 112.855469 260.363281 C 111.667969 259.039062 110.515625 257.691406 109.390625 256.3125 C 108.269531 254.9375 107.183594 253.535156 106.128906 252.101562 C 105.074219 250.671875 104.058594 249.21875 103.074219 247.738281 C 102.09375 246.257812 101.148438 244.753906 100.238281 243.226562 C 99.328125 241.703125 98.457031 240.152344 97.625 238.585938 C 96.792969 237.015625 95.996094 235.429688 95.242188 233.820312 C 94.484375 232.214844 93.769531 230.589844 93.09375 228.945312 C 92.417969 227.304688 91.78125 225.644531 91.183594 223.972656 C 90.589844 222.296875 90.035156 220.609375 89.523438 218.910156 C 89.007812 217.207031 88.539062 215.496094 88.109375 213.773438 C 87.679688 212.050781 87.292969 210.316406 86.945312 208.574219 C 86.601562 206.832031 86.300781 205.082031 86.042969 203.324219 C 85.78125 201.566406 85.566406 199.804688 85.390625 198.035156 C 85.21875 196.265625 85.089844 194.496094 85.003906 192.722656 C 84.914062 190.949219 84.871094 189.171875 84.871094 187.394531 C 84.871094 185.621094 84.914062 183.84375 85.003906 182.070312 C 85.089844 180.296875 85.21875 178.523438 85.390625 176.757812 C 85.566406 174.988281 85.78125 173.226562 86.042969 171.46875 C 86.300781 169.710938 86.601562 167.960938 86.945312 166.21875 C 87.292969 164.476562 87.679688 162.742188 88.109375 161.019531 C 88.539062 159.296875 89.007812 157.582031 89.523438 155.882812 C 90.035156 154.183594 90.589844 152.496094 91.183594 150.820312 C 91.78125 149.148438 92.417969 147.488281 93.09375 145.847656 C 93.769531 144.203125 94.484375 142.578125 95.242188 140.972656 C 95.996094 139.363281 96.792969 137.777344 97.625 136.207031 C 98.457031 134.636719 99.328125 133.089844 100.238281 131.5625 C 101.148438 130.039062 102.09375 128.535156 103.074219 127.054688 C 104.058594 125.574219 105.074219 124.121094 106.128906 122.6875 C 107.183594 121.257812 108.269531 119.855469 109.390625 118.476562 C 110.515625 117.101562 111.667969 115.75 112.855469 114.429688 C 114.042969 113.109375 115.265625 111.820312 116.515625 110.558594 C 117.753906 109.300781 119.027344 108.074219 120.328125 106.878906 C 121.628906 105.683594 122.957031 104.519531 124.316406 103.390625 C 125.675781 102.261719 127.0625 101.167969 128.476562 100.105469 C 129.886719 99.046875 131.328125 98.019531 132.789062 97.03125 C 134.253906 96.042969 135.742188 95.089844 137.253906 94.171875 C 138.765625 93.257812 140.296875 92.378906 141.851562 91.539062 C 143.40625 90.699219 144.980469 89.898438 146.574219 89.136719 C 148.167969 88.375 149.78125 87.652344 151.410156 86.972656 C 153.039062 86.289062 154.6875 85.648438 156.347656 85.046875 C 158.007812 84.449219 159.683594 83.890625 161.375 83.371094 C 163.0625 82.855469 164.765625 82.378906 166.476562 81.945312 C 168.191406 81.511719 169.914062 81.121094 171.644531 80.773438 C 173.378906 80.425781 175.117188 80.121094 176.863281 79.859375 C 178.613281 79.597656 180.363281 79.382812 182.125 79.207031 C 183.882812 79.03125 185.644531 78.902344 187.40625 78.8125 C 189.171875 78.726562 190.9375 78.683594 192.703125 78.683594 C 194.472656 78.683594 196.238281 78.726562 198 78.8125 C 199.765625 78.902344 201.527344 79.03125 203.285156 79.207031 C 205.042969 79.382812 206.796875 79.597656 208.542969 79.859375 C 210.292969 80.121094 212.03125 80.425781 213.765625 80.773438 C 215.496094 81.121094 217.21875 81.511719 218.929688 81.945312 C 220.644531 82.378906 222.34375 82.855469 224.035156 83.371094 C 225.722656 83.890625 227.398438 84.449219 229.0625 85.046875 C 230.722656 85.648438 232.371094 86.289062 234 86.972656 C 235.628906 87.652344 237.242188 88.375 238.835938 89.136719 C 240.429688 89.898438 242.003906 90.699219 243.558594 91.539062 C 245.113281 92.378906 246.644531 93.257812 248.15625 94.171875 C 249.667969 95.089844 251.15625 96.042969 252.617188 97.03125 C 254.082031 98.019531 255.519531 99.046875 256.933594 100.105469 C 258.347656 101.167969 259.734375 102.261719 261.09375 103.390625 C 262.449219 104.519531 263.78125 105.683594 265.082031 106.878906 C 266.382812 108.074219 267.652344 109.300781 268.894531 110.558594 C 271.398438 113.078125 273.769531 115.714844 276.011719 118.46875 C 278.257812 121.222656 280.359375 124.082031 282.324219 127.039062 C 284.285156 130 286.101562 133.050781 287.765625 136.1875 C 289.429688 139.324219 290.933594 142.539062 292.285156 145.824219 C 293.632812 149.109375 294.816406 152.453125 295.839844 155.855469 C 296.859375 159.257812 297.710938 162.703125 298.394531 166.1875 C 299.078125 169.671875 299.585938 173.183594 299.925781 176.71875 C 300.265625 180.253906 300.429688 183.800781 300.421875 187.351562 Z M 253.589844 248.8125 C 254.589844 247.800781 255.566406 246.769531 256.519531 245.714844 C 257.46875 244.660156 258.394531 243.578125 259.292969 242.480469 C 260.191406 241.378906 261.0625 240.253906 261.90625 239.113281 C 262.75 237.96875 263.5625 236.804688 264.351562 235.621094 C 265.136719 234.4375 265.894531 233.234375 266.621094 232.015625 C 267.351562 230.792969 268.046875 229.554688 268.714844 228.300781 C 269.382812 227.046875 270.019531 225.777344 270.625 224.488281 C 271.230469 223.203125 271.800781 221.90625 272.34375 220.589844 C 272.886719 219.277344 273.394531 217.949219 273.871094 216.613281 C 274.347656 215.273438 274.792969 213.921875 275.203125 212.5625 C 275.613281 211.203125 275.992188 209.832031 276.335938 208.453125 C 276.679688 207.074219 276.988281 205.6875 277.265625 204.292969 C 277.542969 202.898438 277.785156 201.5 277.992188 200.09375 C 278.199219 198.6875 278.371094 197.277344 278.511719 195.863281 C 278.648438 194.449219 278.753906 193.03125 278.824219 191.613281 C 278.890625 190.191406 278.925781 188.773438 278.925781 187.351562 C 278.925781 185.929688 278.890625 184.511719 278.824219 183.089844 C 278.753906 181.671875 278.648438 180.253906 278.511719 178.839844 C 278.371094 177.425781 278.199219 176.015625 277.992188 174.609375 C 277.785156 173.203125 277.542969 171.804688 277.265625 170.410156 C 276.988281 169.015625 276.679688 167.628906 276.335938 166.25 C 275.992188 164.871094 275.613281 163.5 275.203125 162.140625 C 274.792969 160.78125 274.347656 159.429688 273.871094 158.09375 C 273.394531 156.753906 272.886719 155.425781 272.34375 154.113281 C 271.800781 152.800781 271.230469 151.5 270.625 150.214844 C 270.019531 148.925781 269.382812 147.65625 268.714844 146.402344 C 268.046875 145.148438 267.351562 143.910156 266.621094 142.691406 C 265.894531 141.46875 265.136719 140.265625 264.351562 139.082031 C 263.5625 137.898438 262.75 136.734375 261.90625 135.59375 C 261.0625 134.449219 260.191406 133.324219 259.292969 132.226562 C 258.394531 131.125 257.46875 130.046875 256.519531 128.988281 C 255.566406 127.933594 254.589844 126.902344 253.589844 125.894531 C 252.597656 124.886719 251.582031 123.90625 250.539062 122.949219 C 249.5 121.992188 248.4375 121.0625 247.351562 120.15625 C 246.265625 119.253906 245.15625 118.378906 244.027344 117.53125 C 242.894531 116.679688 241.746094 115.859375 240.574219 115.070312 C 239.40625 114.277344 238.214844 113.515625 237.007812 112.78125 C 235.800781 112.050781 234.574219 111.347656 233.332031 110.675781 C 232.085938 110.003906 230.828125 109.363281 229.554688 108.753906 C 228.277344 108.144531 226.988281 107.566406 225.6875 107.019531 C 224.382812 106.472656 223.066406 105.960938 221.738281 105.480469 C 220.410156 105 219.070312 104.554688 217.71875 104.140625 C 216.367188 103.726562 215.007812 103.34375 213.636719 103 C 212.265625 102.652344 210.886719 102.339844 209.503906 102.0625 C 208.117188 101.78125 206.726562 101.539062 205.328125 101.328125 C 203.929688 101.121094 202.53125 100.945312 201.125 100.804688 C 199.71875 100.664062 198.308594 100.5625 196.898438 100.492188 C 195.484375 100.421875 194.074219 100.386719 192.660156 100.386719 C 191.246094 100.386719 189.835938 100.421875 188.421875 100.492188 C 187.011719 100.5625 185.605469 100.664062 184.199219 100.804688 C 182.792969 100.945312 181.390625 101.121094 179.992188 101.328125 C 178.59375 101.539062 177.203125 101.78125 175.816406 102.0625 C 174.433594 102.339844 173.054688 102.652344 171.683594 103 C 170.316406 103.34375 168.953125 103.726562 167.601562 104.140625 C 166.253906 104.554688 164.910156 105 163.582031 105.480469 C 162.253906 105.960938 160.9375 106.472656 159.632812 107.019531 C 158.332031 107.566406 157.042969 108.144531 155.765625 108.753906 C 154.492188 109.363281 153.234375 110.003906 151.988281 110.675781 C 150.746094 111.347656 149.519531 112.050781 148.3125 112.78125 C 147.105469 113.515625 145.914062 114.277344 144.746094 115.070312 C 143.574219 115.859375 142.425781 116.679688 141.292969 117.53125 C 140.164062 118.378906 139.054688 119.253906 137.96875 120.15625 C 136.882812 121.0625 135.820312 121.992188 134.78125 122.949219 C 133.738281 123.90625 132.722656 124.886719 131.730469 125.894531 C 130.734375 126.902344 129.757812 127.933594 128.808594 128.992188 C 127.859375 130.050781 126.9375 131.128906 126.042969 132.230469 C 125.144531 133.332031 124.277344 134.457031 123.433594 135.601562 C 122.59375 136.746094 121.78125 137.910156 120.996094 139.09375 C 120.210938 140.277344 119.453125 141.480469 118.726562 142.699219 C 118.003906 143.921875 117.304688 145.160156 116.640625 146.414062 C 115.976562 147.667969 115.339844 148.9375 114.738281 150.226562 C 114.132812 151.511719 113.5625 152.8125 113.019531 154.125 C 112.480469 155.4375 111.972656 156.765625 111.496094 158.101562 C 111.019531 159.441406 110.578125 160.789062 110.167969 162.152344 C 109.757812 163.511719 109.382812 164.878906 109.039062 166.257812 C 108.695312 167.636719 108.386719 169.023438 108.109375 170.417969 C 107.835938 171.808594 107.59375 173.210938 107.386719 174.613281 C 107.179688 176.019531 107.007812 177.429688 106.871094 178.84375 C 106.730469 180.257812 106.628906 181.675781 106.558594 183.09375 C 106.488281 184.511719 106.453125 185.929688 106.453125 187.351562 C 106.453125 188.773438 106.488281 190.191406 106.558594 191.609375 C 106.628906 193.03125 106.730469 194.445312 106.871094 195.859375 C 107.007812 197.273438 107.179688 198.683594 107.386719 200.089844 C 107.59375 201.492188 107.835938 202.894531 108.109375 204.285156 C 108.386719 205.679688 108.695312 207.066406 109.039062 208.445312 C 109.382812 209.824219 109.757812 211.191406 110.167969 212.550781 C 110.578125 213.914062 111.019531 215.261719 111.496094 216.601562 C 111.972656 217.9375 112.480469 219.265625 113.019531 220.578125 C 113.5625 221.894531 114.132812 223.191406 114.738281 224.476562 C 115.339844 225.765625 115.976562 227.035156 116.640625 228.289062 C 117.304688 229.542969 118.003906 230.78125 118.726562 232.003906 C 119.453125 233.222656 120.210938 234.425781 120.996094 235.609375 C 121.78125 236.792969 122.59375 237.957031 123.433594 239.101562 C 124.277344 240.246094 125.144531 241.371094 126.042969 242.472656 C 126.9375 243.574219 127.859375 244.652344 128.808594 245.710938 C 129.757812 246.769531 130.734375 247.800781 131.730469 248.8125 C 132.722656 249.816406 133.738281 250.800781 134.78125 251.753906 C 135.820312 252.710938 136.882812 253.640625 137.96875 254.546875 C 139.054688 255.449219 140.164062 256.324219 141.292969 257.175781 C 142.425781 258.023438 143.574219 258.84375 144.746094 259.632812 C 145.914062 260.425781 147.105469 261.1875 148.3125 261.921875 C 149.519531 262.652344 150.746094 263.355469 151.988281 264.027344 C 153.234375 264.699219 154.492188 265.339844 155.765625 265.949219 C 157.042969 266.558594 158.332031 267.136719 159.632812 267.683594 C 160.9375 268.230469 162.253906 268.742188 163.582031 269.222656 C 164.910156 269.703125 166.253906 270.148438 167.601562 270.5625 C 168.953125 270.976562 170.316406 271.359375 171.683594 271.707031 C 173.054688 272.050781 174.433594 272.363281 175.816406 272.640625 C 177.203125 272.921875 178.59375 273.164062 179.992188 273.375 C 181.390625 273.582031 182.792969 273.757812 184.199219 273.898438 C 185.605469 274.039062 187.011719 274.140625 188.421875 274.210938 C 189.835938 274.28125 191.246094 274.316406 192.660156 274.316406 C 194.074219 274.316406 195.484375 274.28125 196.898438 274.210938 C 198.308594 274.140625 199.71875 274.039062 201.125 273.898438 C 202.53125 273.757812 203.929688 273.582031 205.328125 273.375 C 206.726562 273.164062 208.117188 272.921875 209.503906 272.640625 C 210.886719 272.363281 212.265625 272.050781 213.636719 271.707031 C 215.007812 271.359375 216.367188 270.976562 217.71875 270.5625 C 219.070312 270.148438 220.410156 269.703125 221.738281 269.222656 C 223.066406 268.742188 224.382812 268.230469 225.6875 267.683594 C 226.988281 267.136719 228.277344 266.558594 229.554688 265.949219 C 230.828125 265.339844 232.085938 264.699219 233.332031 264.027344 C 234.574219 263.355469 235.800781 262.652344 237.007812 261.921875 C 238.214844 261.1875 239.40625 260.425781 240.574219 259.632812 C 241.746094 258.84375 242.894531 258.023438 244.027344 257.175781 C 245.15625 256.324219 246.265625 255.449219 247.351562 254.546875 C 248.4375 253.640625 249.5 252.710938 250.539062 251.753906 C 251.582031 250.800781 252.597656 249.816406 253.589844 248.8125 Z M 253.589844 248.8125 "/></g></g></svg>