<svg xmlns="http://www.w3.org/2000/svg" xmlns:xlink="http://www.w3.org/1999/xlink" width="500" zoomAndPan="magnify" viewBox="0 0 375 374.999991" height="500" preserveAspectRatio="xMidYMid meet" version="1.0"><defs><clipPath id="40845f0aa1"><path d="M 2.613281 7.125 L 288 7.125 L 288 367.875 L 2.613281 367.875 Z M 2.613281 7.125 " clip-rule="nonzero"/></clipPath></defs><path fill="#ffffff" d="M 49.089844 74.214844 L 118.800781 74.214844 C 121.996094 74.214844 124.613281 71.601562 124.613281 68.40625 C 124.613281 65.210938 121.996094 62.597656 118.800781 62.597656 L 49.089844 62.597656 C 45.894531 62.597656 43.277344 65.210938 43.277344 68.40625 C 43.277344 71.601562 45.894531 74.214844 49.089844 74.214844 Z M 49.089844 74.214844 " fill-opacity="1" fill-rule="nonzero"/><path fill="#ffffff" d="M 49.089844 114.882812 L 118.800781 114.882812 C 121.996094 114.882812 124.613281 112.265625 124.613281 109.070312 C 124.613281 105.875 121.996094 103.261719 118.800781 103.261719 L 49.089844 103.261719 C 45.894531 103.261719 43.277344 105.875 43.277344 109.070312 C 43.277344 112.265625 45.894531 114.882812 49.089844 114.882812 Z M 49.089844 114.882812 " fill-opacity="1" fill-rule="nonzero"/><path fill="#ffffff" d="M 49.089844 184.59375 L 240.800781 184.59375 C 243.996094 184.59375 246.609375 181.980469 246.609375 178.785156 C 246.609375 175.589844 243.996094 172.976562 240.800781 172.976562 L 49.089844 172.976562 C 45.894531 172.976562 43.277344 175.589844 43.277344 178.785156 C 43.277344 181.980469 45.894531 184.59375 49.089844 184.59375 Z M 49.089844 184.59375 " fill-opacity="1" fill-rule="nonzero"/><g clip-path="url(#40845f0aa1)"><path fill="#ffffff" d="M 18.296875 367.59375 C 18.589844 367.59375 18.589844 367.59375 18.296875 367.59375 L 270.71875 367.59375 C 274.785156 367.59375 278.5625 365.851562 281.757812 362.65625 C 285.242188 359.167969 287.277344 354.230469 287.277344 349.582031 L 287.277344 239.785156 L 275.65625 251.402344 L 275.65625 349.582031 C 275.65625 351.328125 274.785156 353.070312 273.625 354.523438 C 273.042969 355.101562 272.171875 355.972656 270.71875 355.972656 L 18.589844 355.972656 C 15.972656 355.972656 14.230469 353.070312 14.230469 350.457031 L 14.230469 24.835938 C 14.230469 21.347656 14.8125 19.898438 15.394531 19.316406 C 15.394531 19.023438 15.683594 19.023438 16.265625 19.023438 L 197.230469 19.023438 C 199.261719 19.023438 201.007812 19.898438 202.167969 20.769531 C 202.75 21.640625 203.039062 22.21875 203.039062 23.09375 L 203.328125 61.726562 C 203.621094 70.4375 210.300781 76.828125 219.304688 76.828125 L 268.105469 76.828125 C 268.976562 76.828125 269.847656 77.121094 270.71875 77.699219 C 273.042969 79.152344 275.367188 81.476562 275.367188 83.21875 L 275.367188 161.066406 L 286.984375 149.738281 L 286.984375 83.21875 C 286.984375 77.121094 282.628906 71.601562 277.402344 68.117188 L 209.71875 12.054688 C 206.523438 9.148438 201.878906 7.40625 197.230469 7.40625 L 15.972656 7.40625 C 12.488281 7.40625 9.585938 8.566406 7.261719 11.183594 C 4.066406 14.085938 2.613281 18.734375 2.613281 24.835938 L 2.613281 350.746094 C 2.613281 360.039062 9.585938 367.59375 18.296875 367.59375 Z M 214.949219 61.726562 L 214.660156 31.515625 L 255.613281 65.5 L 219.304688 65.5 C 218.144531 65.5 214.949219 64.921875 214.949219 61.726562 Z M 214.949219 61.726562 " fill-opacity="1" fill-rule="nonzero"/></g><path fill="#ffffff" d="M 49.089844 213.640625 L 222.5 213.640625 L 234.410156 202.023438 L 49.089844 202.023438 C 45.894531 202.023438 43.277344 204.636719 43.277344 207.832031 C 43.277344 211.027344 45.894531 213.640625 49.089844 213.640625 Z M 49.089844 213.640625 " fill-opacity="1" fill-rule="nonzero"/><path fill="#ffffff" d="M 49.089844 242.691406 L 193.164062 242.691406 L 205.074219 231.070312 L 49.089844 231.070312 C 45.894531 231.070312 43.277344 233.683594 43.277344 236.878906 C 43.277344 240.074219 45.894531 242.691406 49.089844 242.691406 Z M 49.089844 242.691406 " fill-opacity="1" fill-rule="nonzero"/><path fill="#ffffff" d="M 260.554688 192.4375 L 189.675781 262.152344 C 189.675781 262.152344 189.675781 262.441406 189.386719 262.441406 C 189.386719 262.441406 189.097656 262.730469 189.097656 262.730469 C 189.097656 263.023438 188.804688 263.023438 188.804688 263.3125 C 188.804688 263.3125 188.804688 263.605469 188.515625 263.605469 L 165.566406 306.882812 C 164.40625 309.207031 164.695312 311.824219 166.441406 313.566406 C 167.601562 314.726562 169.054688 315.308594 170.507812 315.308594 C 171.378906 315.308594 172.25 315.019531 173.121094 314.726562 L 217.5625 292.070312 C 217.5625 292.070312 217.851562 292.070312 217.851562 291.78125 C 218.144531 291.78125 218.144531 291.488281 218.433594 291.488281 C 218.726562 291.488281 218.726562 291.199219 219.015625 291.199219 C 219.015625 291.199219 219.304688 291.199219 219.304688 290.910156 L 359.023438 152.933594 L 363.378906 157 L 313.417969 206.378906 C 311.09375 208.703125 311.09375 212.191406 313.417969 214.515625 C 314.582031 215.675781 316.035156 216.257812 317.484375 216.257812 C 318.9375 216.257812 320.390625 215.675781 321.550781 214.515625 L 371.515625 165.132812 C 373.835938 162.808594 375 159.90625 375 157 C 375 154.09375 373.835938 150.898438 371.515625 148.867188 L 367.445312 144.800781 C 370.351562 142.1875 371.804688 138.410156 371.804688 134.632812 C 371.804688 130.859375 370.351562 127.082031 367.445312 124.46875 L 359.023438 116.332031 C 353.214844 110.816406 343.917969 110.816406 338.398438 116.332031 Z M 264.910156 204.636719 L 277.402344 217.128906 L 214.949219 278.707031 L 202.457031 266.21875 Z M 327.363281 142.765625 L 339.851562 155.257812 L 285.535156 208.703125 L 273.042969 196.214844 Z M 195.488281 275.804688 L 205.074219 285.390625 L 185.03125 295.847656 Z M 345.953125 124.46875 C 347.113281 123.304688 349.148438 123.304688 350.308594 124.46875 L 358.734375 132.601562 C 359.3125 133.179688 359.605469 133.761719 359.605469 134.632812 C 359.605469 135.503906 359.3125 136.085938 358.734375 136.667969 L 348.277344 147.125 L 335.785156 134.632812 Z M 345.953125 124.46875 " fill-opacity="1" fill-rule="nonzero"/><path fill="#ffffff" d="M 110.378906 333.316406 C 112.121094 332.738281 113.28125 331.574219 114.15625 330.992188 C 114.445312 330.992188 114.445312 330.703125 114.734375 330.703125 C 115.316406 330.414062 116.1875 330.414062 116.769531 330.703125 C 118.511719 332.15625 120.546875 332.445312 122.578125 331.574219 C 122.867188 331.574219 123.160156 331.285156 123.449219 330.992188 C 124.03125 331.285156 124.320312 331.574219 124.902344 331.863281 C 128.386719 333.316406 132.453125 333.316406 135.648438 331.285156 C 136.8125 330.703125 137.972656 329.542969 138.84375 328.667969 C 142.910156 328.089844 147.269531 326.925781 151.042969 325.476562 C 152.496094 326.636719 154.53125 326.925781 156.5625 326.347656 C 159.46875 325.183594 161.210938 321.988281 160.339844 319.085938 L 159.46875 316.179688 C 158.886719 314.4375 157.726562 313.273438 155.984375 312.695312 C 154.53125 312.113281 152.496094 312.113281 151.042969 312.984375 C 145.816406 315.597656 140.296875 317.339844 134.488281 317.921875 C 132.164062 318.210938 130.421875 319.664062 129.550781 321.699219 C 128.097656 321.117188 126.644531 318.503906 125.773438 316.761719 C 124.613281 314.4375 121.996094 313.566406 119.382812 313.855469 C 116.769531 314.4375 115.027344 316.46875 114.734375 319.085938 C 112.121094 319.085938 109.507812 319.957031 107.472656 321.699219 C 107.472656 321.40625 107.183594 321.117188 107.183594 320.828125 L 101.953125 309.5 C 101.082031 307.753906 99.632812 304.269531 95.5625 302.816406 C 91.207031 301.074219 85.6875 303.6875 83.65625 308.335938 C 82.203125 311.242188 82.203125 314.4375 82.492188 317.050781 C 83.074219 324.894531 84.234375 332.738281 86.269531 340.289062 C 86.851562 342.902344 89.171875 344.644531 91.789062 344.644531 C 92.367188 344.644531 92.660156 344.644531 93.242188 344.355469 C 96.4375 343.484375 98.179688 340.289062 97.597656 337.382812 C 96.144531 331.863281 95.273438 326.347656 94.691406 320.828125 L 97.015625 325.765625 C 100.792969 333.316406 106.3125 334.769531 110.378906 333.316406 Z M 110.378906 333.316406 " fill-opacity="1" fill-rule="nonzero"/><path fill="#ffffff" d="M 177.476562 260.117188 L 49.089844 260.117188 C 45.894531 260.117188 43.277344 262.734375 43.277344 265.925781 C 43.277344 269.121094 45.894531 271.738281 49.089844 271.738281 L 171.378906 271.738281 Z M 177.476562 260.117188 " fill-opacity="1" fill-rule="nonzero"/></svg>