<svg xmlns="http://www.w3.org/2000/svg" xmlns:xlink="http://www.w3.org/1999/xlink" width="500" zoomAndPan="magnify" viewBox="0 0 375 374.999991" height="500" preserveAspectRatio="xMidYMid meet" version="1.2"><defs><clipPath id="5d69a444d4"><path d="M 174 77 L 298.433594 77 L 298.433594 298 L 174 298 Z M 174 77 "/></clipPath></defs><g id="2940da4949"><path style=" stroke:none;fill-rule:nonzero;fill:#ffffff;fill-opacity:1;" d="M 225.144531 213.527344 L 225.144531 161.335938 C 225.144531 153.765625 218.96875 147.589844 211.324219 147.589844 L 169.203125 147.589844 L 169.203125 131.050781 C 169.203125 122.597656 164.054688 115.171875 156.117188 112.15625 C 148.25 109.070312 139.429688 111.203125 133.769531 117.523438 L 83.121094 173.832031 C 76.136719 181.625 76.136719 193.238281 83.121094 201.03125 L 133.769531 257.339844 C 137.738281 261.75 143.179688 264.101562 148.839844 264.101562 C 151.265625 264.101562 153.765625 263.660156 156.117188 262.78125 C 164.054688 259.691406 169.203125 252.269531 169.203125 243.8125 L 169.203125 227.273438 L 211.324219 227.273438 C 218.96875 227.273438 225.144531 221.097656 225.144531 213.527344 Z M 225.144531 213.527344 "/><g clip-rule="nonzero" clip-path="url(#5d69a444d4)"><path style=" stroke:none;fill-rule:nonzero;fill:#ffffff;fill-opacity:1;" d="M 284.648438 77.171875 L 188.171875 77.171875 C 180.558594 77.171875 174.390625 83.34375 174.390625 90.953125 L 174.390625 104.738281 C 174.390625 112.347656 180.558594 118.519531 188.171875 118.519531 C 195.78125 118.519531 201.953125 112.347656 201.953125 104.738281 L 270.867188 104.738281 L 270.867188 270.128906 L 201.953125 270.128906 C 201.953125 262.515625 195.78125 256.34375 188.171875 256.34375 C 180.558594 256.34375 174.390625 262.515625 174.390625 270.128906 L 174.390625 283.910156 C 174.390625 291.519531 180.558594 297.691406 188.171875 297.691406 L 284.648438 297.691406 C 292.261719 297.691406 298.433594 291.519531 298.433594 283.910156 L 298.433594 90.953125 C 298.433594 83.34375 292.261719 77.171875 284.648438 77.171875 Z M 284.648438 77.171875 "/></g></g></svg>