<svg xmlns="http://www.w3.org/2000/svg" xmlns:xlink="http://www.w3.org/1999/xlink" width="500" zoomAndPan="magnify" viewBox="0 0 375 374.999991" height="500" preserveAspectRatio="xMidYMid meet" version="1.0"><defs><clipPath id="aad25c0f15"><path d="M 0 0 L 375 0 L 375 374.25 L 0 374.25 Z M 0 0 " clip-rule="nonzero"/></clipPath></defs><g clip-path="url(#aad25c0f15)"><path fill="#ffffff" d="M 95.441406 135.65625 L 121.617188 135.65625 C 124.542969 135.65625 126.917969 133.28125 126.917969 130.355469 L 126.917969 104.179688 C 126.917969 101.253906 124.542969 98.878906 121.617188 98.878906 L 95.441406 98.878906 C 92.515625 98.878906 90.140625 101.253906 90.140625 104.179688 L 90.140625 130.355469 C 90.140625 133.28125 92.515625 135.65625 95.441406 135.65625 Z M 100.742188 109.480469 L 116.316406 109.480469 L 116.316406 125.054688 L 100.742188 125.054688 Z M 146.875 135.65625 L 173.050781 135.65625 C 175.976562 135.65625 178.351562 133.28125 178.351562 130.355469 L 178.351562 104.179688 C 178.351562 101.253906 175.976562 98.878906 173.050781 98.878906 L 146.875 98.878906 C 143.949219 98.878906 141.574219 101.253906 141.574219 104.179688 L 141.574219 130.355469 C 141.574219 133.28125 143.949219 135.65625 146.875 135.65625 Z M 152.175781 109.480469 L 167.75 109.480469 L 167.75 125.054688 L 152.175781 125.054688 Z M 198.308594 135.65625 L 224.484375 135.65625 C 227.410156 135.65625 229.785156 133.28125 229.785156 130.355469 L 229.785156 104.179688 C 229.785156 101.253906 227.410156 98.878906 224.484375 98.878906 L 198.308594 98.878906 C 195.382812 98.878906 193.007812 101.253906 193.007812 104.179688 L 193.007812 130.355469 C 193.007812 133.28125 195.382812 135.65625 198.308594 135.65625 Z M 203.609375 109.480469 L 219.183594 109.480469 L 219.183594 125.054688 L 203.609375 125.054688 Z M 70.183594 150.3125 L 44.007812 150.3125 C 41.082031 150.3125 38.707031 152.6875 38.707031 155.613281 L 38.707031 181.789062 C 38.707031 184.714844 41.082031 187.089844 44.007812 187.089844 L 70.183594 187.089844 C 73.109375 187.089844 75.484375 184.714844 75.484375 181.789062 L 75.484375 155.613281 C 75.484375 152.6875 73.109375 150.3125 70.183594 150.3125 Z M 64.882812 176.488281 L 49.308594 176.488281 L 49.308594 160.914062 L 64.882812 160.914062 Z M 95.441406 187.089844 L 121.617188 187.089844 C 124.542969 187.089844 126.917969 184.714844 126.917969 181.789062 L 126.917969 155.613281 C 126.917969 152.6875 124.542969 150.3125 121.617188 150.3125 L 95.441406 150.3125 C 92.515625 150.3125 90.140625 152.6875 90.140625 155.613281 L 90.140625 181.789062 C 90.140625 184.714844 92.515625 187.089844 95.441406 187.089844 Z M 100.742188 160.914062 L 116.316406 160.914062 L 116.316406 176.488281 L 100.742188 176.488281 Z M 70.183594 201.746094 L 44.007812 201.746094 C 41.082031 201.746094 38.707031 204.121094 38.707031 207.046875 L 38.707031 233.222656 C 38.707031 236.148438 41.082031 238.523438 44.007812 238.523438 L 70.183594 238.523438 C 73.109375 238.523438 75.484375 236.148438 75.484375 233.222656 L 75.484375 207.046875 C 75.484375 204.121094 73.109375 201.746094 70.183594 201.746094 Z M 64.882812 227.921875 L 49.308594 227.921875 L 49.308594 212.347656 L 64.882812 212.347656 Z M 70.183594 98.878906 L 44.007812 98.878906 C 41.082031 98.878906 38.707031 101.253906 38.707031 104.179688 L 38.707031 130.355469 C 38.707031 133.28125 41.082031 135.65625 44.007812 135.65625 L 70.183594 135.65625 C 73.109375 135.65625 75.484375 133.28125 75.484375 130.355469 L 75.484375 104.179688 C 75.484375 101.253906 73.109375 98.878906 70.183594 98.878906 Z M 64.882812 125.054688 L 49.308594 125.054688 L 49.308594 109.480469 L 64.882812 109.480469 Z M 146.875 187.089844 L 173.050781 187.089844 C 175.976562 187.089844 178.351562 184.714844 178.351562 181.789062 L 178.351562 155.613281 C 178.351562 152.6875 175.976562 150.3125 173.050781 150.3125 L 146.875 150.3125 C 143.949219 150.3125 141.574219 152.6875 141.574219 155.613281 L 141.574219 181.789062 C 141.574219 184.714844 143.949219 187.089844 146.875 187.089844 Z M 152.175781 160.914062 L 167.75 160.914062 L 167.75 176.488281 L 152.175781 176.488281 Z M 310.238281 188.839844 C 304.53125 185.546875 297.921875 184.578125 291.53125 186.070312 L 279.449219 140.984375 C 277.867188 135.082031 274.066406 130.136719 268.746094 127.066406 C 268.605469 126.984375 268.464844 126.914062 268.324219 126.835938 L 268.324219 51.738281 C 268.324219 36.910156 256.261719 24.847656 241.433594 24.847656 L 224.613281 24.847656 L 224.613281 5.308594 C 224.613281 2.382812 222.238281 0.0078125 219.3125 0.0078125 L 191.566406 0.0078125 C 188.640625 0.0078125 186.265625 2.382812 186.265625 5.308594 L 186.265625 24.847656 L 153.417969 24.847656 L 153.417969 5.308594 C 153.417969 2.382812 151.042969 0.0078125 148.117188 0.0078125 L 120.375 0.0078125 C 117.445312 0.0078125 115.074219 2.382812 115.074219 5.308594 L 115.074219 24.847656 L 82.222656 24.847656 L 82.222656 5.308594 C 82.222656 2.382812 79.851562 0.0078125 76.921875 0.0078125 L 49.179688 0.0078125 C 46.25 0.0078125 43.878906 2.382812 43.878906 5.308594 L 43.878906 24.847656 L 27.054688 24.847656 C 12.226562 24.847656 0.164062 36.910156 0.164062 51.738281 L 0.164062 237.828125 C 0.164062 252.652344 12.226562 264.714844 27.054688 264.714844 L 79.40625 264.714844 C 79.644531 266.242188 79.960938 267.765625 80.363281 269.28125 C 85.527344 288.542969 103.011719 301.28125 122.070312 301.28125 C 125.757812 301.28125 129.507812 300.804688 133.234375 299.804688 L 135.222656 299.273438 L 161.90625 366.082031 C 163.226562 369.382812 165.902344 371.992188 169.246094 373.246094 C 170.695312 373.785156 172.214844 374.054688 173.730469 374.054688 C 175.757812 374.054688 177.777344 373.578125 179.613281 372.632812 L 190.4375 367.0625 C 196.316406 364.039062 198.902344 357.085938 196.445312 350.890625 L 170.96875 286.570312 C 208.636719 281.210938 244.277344 282.941406 272.265625 291.515625 L 272.589844 292.726562 C 274.171875 298.628906 277.972656 303.574219 283.292969 306.644531 C 286.84375 308.695312 290.777344 309.742188 294.757812 309.742188 C 296.738281 309.742188 298.734375 309.480469 300.699219 308.957031 C 306.601562 307.375 311.542969 303.574219 314.613281 298.253906 C 317.6875 292.933594 318.507812 286.75 316.925781 280.847656 L 304.84375 235.761719 C 311.125 233.859375 316.363281 229.714844 319.660156 224.007812 C 323.097656 218.054688 324.011719 211.117188 322.230469 204.472656 C 320.453125 197.832031 316.191406 192.28125 310.238281 188.839844 Z M 196.867188 10.609375 L 214.011719 10.609375 L 214.011719 49.21875 L 196.867188 49.21875 Z M 125.671875 10.609375 L 142.816406 10.609375 L 142.816406 49.21875 L 125.671875 49.21875 Z M 54.476562 10.609375 L 71.621094 10.609375 L 71.621094 49.21875 L 54.476562 49.21875 Z M 27.054688 35.449219 L 43.878906 35.449219 L 43.878906 54.519531 C 43.878906 57.445312 46.25 59.820312 49.179688 59.820312 L 76.921875 59.820312 C 79.851562 59.820312 82.222656 57.445312 82.222656 54.519531 L 82.222656 35.449219 L 115.074219 35.449219 L 115.074219 54.519531 C 115.074219 57.445312 117.445312 59.820312 120.375 59.820312 L 148.117188 59.820312 C 151.046875 59.820312 153.417969 57.445312 153.417969 54.519531 L 153.417969 35.449219 L 186.269531 35.449219 L 186.269531 54.519531 C 186.269531 57.445312 188.640625 59.820312 191.570312 59.820312 L 219.3125 59.820312 C 222.242188 59.820312 224.613281 57.445312 224.613281 54.519531 L 224.613281 35.449219 L 241.433594 35.449219 C 250.417969 35.449219 257.726562 42.757812 257.726562 51.738281 L 257.726562 72.683594 L 10.765625 72.683594 L 10.765625 51.738281 C 10.765625 42.757812 18.074219 35.449219 27.054688 35.449219 Z M 79.085938 254.113281 L 27.054688 254.113281 C 18.074219 254.113281 10.765625 246.808594 10.765625 237.824219 L 10.765625 83.285156 L 257.726562 83.285156 L 257.726562 123.980469 C 255.597656 123.9375 253.453125 124.191406 251.34375 124.753906 C 245.441406 126.335938 240.496094 130.136719 237.425781 135.457031 C 234.355469 140.777344 233.53125 146.960938 235.113281 152.863281 L 235.4375 154.070312 C 215.347656 175.644531 185.074219 195.078125 149.457031 209.296875 C 149.058594 208.8125 148.574219 208.390625 148.019531 208.070312 C 146.800781 207.367188 145.355469 207.179688 143.996094 207.542969 L 110.890625 216.414062 C 99.792969 219.386719 90.5 226.535156 84.71875 236.546875 C 81.546875 242.035156 79.660156 248.011719 79.085938 254.113281 Z M 130.488281 289.566406 C 127.675781 290.316406 124.851562 290.679688 122.070312 290.679688 C 107.691406 290.675781 94.5 281.070312 90.605469 266.535156 C 88.363281 258.175781 89.535156 249.40625 93.898438 241.847656 C 98.261719 234.292969 105.269531 228.894531 113.632812 226.652344 L 141.617188 219.15625 L 158.476562 282.066406 Z M 185.585938 357.636719 L 174.761719 363.203125 C 173.996094 363.597656 173.304688 363.441406 172.960938 363.316406 C 172.632812 363.195312 172.042969 362.878906 171.75 362.148438 L 145.535156 296.507812 L 161.777344 292.15625 L 186.589844 354.792969 C 187.035156 355.914062 186.613281 357.109375 185.585938 357.636719 Z M 167.90625 276.300781 L 152.667969 219.429688 C 187.441406 205.640625 217.480469 186.945312 238.632812 165.996094 L 269.070312 279.589844 C 240.277344 272.027344 204.917969 270.855469 167.90625 276.300781 Z M 305.433594 292.953125 C 303.777344 295.820312 301.121094 297.867188 297.953125 298.714844 C 294.789062 299.566406 291.460938 299.117188 288.59375 297.464844 C 285.726562 295.808594 283.679688 293.152344 282.832031 289.984375 L 245.355469 150.117188 C 244.503906 146.953125 244.949219 143.628906 246.605469 140.757812 C 248.261719 137.890625 250.917969 135.84375 254.085938 134.996094 C 255.136719 134.714844 256.203125 134.574219 257.265625 134.574219 C 259.40625 134.574219 261.527344 135.140625 263.445312 136.246094 C 266.3125 137.902344 268.359375 140.558594 269.210938 143.726562 L 306.6875 283.589844 C 307.535156 286.757812 307.089844 290.082031 305.433594 292.953125 Z M 310.480469 218.707031 C 308.601562 221.960938 305.640625 224.339844 302.097656 225.5 L 294.28125 196.332031 C 297.929688 195.566406 301.683594 196.144531 304.9375 198.023438 C 308.441406 200.046875 310.945312 203.308594 311.992188 207.21875 C 313.039062 211.125 312.5 215.203125 310.480469 218.707031 Z M 370.300781 197.082031 L 345.851562 203.628906 C 345.394531 203.753906 344.933594 203.8125 344.476562 203.8125 C 342.136719 203.8125 339.996094 202.25 339.363281 199.882812 C 338.605469 197.054688 340.28125 194.148438 343.109375 193.390625 L 367.554688 186.839844 C 370.382812 186.085938 373.289062 187.761719 374.046875 190.589844 C 374.804688 193.417969 373.125 196.324219 370.300781 197.082031 Z M 314.621094 169.542969 C 312.550781 167.472656 312.550781 164.117188 314.621094 162.046875 L 333.5 143.171875 C 335.570312 141.101562 338.925781 141.101562 340.996094 143.171875 C 343.066406 145.242188 343.066406 148.597656 340.996094 150.667969 L 322.117188 169.542969 C 321.082031 170.578125 319.726562 171.097656 318.371094 171.097656 C 317.011719 171.097656 315.65625 170.578125 314.621094 169.542969 Z M 369.132812 248.179688 C 368.5 250.546875 366.355469 252.109375 364.015625 252.109375 C 363.5625 252.109375 363.101562 252.050781 362.640625 251.929688 L 336.855469 245.019531 C 334.027344 244.261719 332.347656 241.355469 333.105469 238.527344 C 333.863281 235.699219 336.769531 234.023438 339.597656 234.777344 L 365.386719 241.6875 C 368.210938 242.445312 369.890625 245.351562 369.132812 248.179688 Z M 369.132812 248.179688 " fill-opacity="1" fill-rule="nonzero"/></g></svg>