<svg xmlns="http://www.w3.org/2000/svg" xmlns:xlink="http://www.w3.org/1999/xlink" width="500" zoomAndPan="magnify" viewBox="0 0 375 374.999991" height="500" preserveAspectRatio="xMidYMid meet" version="1.2"><defs><clipPath id="02162face3"><path d="M 78 56.792969 L 99 56.792969 L 99 114 L 78 114 Z M 78 56.792969 "/></clipPath><clipPath id="346f0abefe"><path d="M 197 56.792969 L 218 56.792969 L 218 114 L 197 114 Z M 197 56.792969 "/></clipPath><clipPath id="aa96d4bc14"><path d="M 47.519531 81 L 251 81 L 251 266 L 47.519531 266 Z M 47.519531 81 "/></clipPath></defs><g id="945d9cc3cc"><path style=" stroke:none;fill-rule:nonzero;fill:#ffffff;fill-opacity:1;" d="M 139.390625 153.296875 C 138.523438 153.296875 137.820312 154 137.820312 154.867188 L 137.820312 171.8125 C 137.820312 172.679688 138.523438 173.386719 139.390625 173.386719 L 156.335938 173.386719 C 157.203125 173.386719 157.910156 172.683594 157.910156 171.8125 L 157.910156 154.867188 C 157.910156 154 157.207031 153.296875 156.335938 153.296875 Z M 139.390625 153.296875 "/><path style=" stroke:none;fill-rule:nonzero;fill:#ffffff;fill-opacity:1;" d="M 190.078125 171.8125 L 190.078125 154.867188 C 190.078125 154 189.375 153.296875 188.503906 153.296875 L 171.558594 153.296875 C 170.691406 153.296875 169.988281 154 169.988281 154.867188 L 169.988281 171.8125 C 169.988281 172.679688 170.691406 173.386719 171.558594 173.386719 L 188.503906 173.386719 C 189.375 173.382812 190.078125 172.679688 190.078125 171.8125 Z M 190.078125 171.8125 "/><path style=" stroke:none;fill-rule:nonzero;fill:#ffffff;fill-opacity:1;" d="M 156.75 185.46875 L 139.804688 185.46875 C 138.9375 185.46875 138.234375 186.167969 138.234375 187.039062 L 138.234375 203.984375 C 138.234375 204.851562 138.933594 205.558594 139.804688 205.558594 L 156.75 205.558594 C 157.617188 205.558594 158.324219 204.855469 158.324219 203.984375 L 158.324219 187.039062 C 158.324219 186.167969 157.617188 185.46875 156.75 185.46875 Z M 156.75 185.46875 "/><path style=" stroke:none;fill-rule:nonzero;fill:#ffffff;fill-opacity:1;" d="M 127.800781 187.035156 C 127.800781 186.167969 127.097656 185.464844 126.226562 185.464844 L 109.285156 185.464844 C 108.417969 185.464844 107.710938 186.167969 107.710938 187.035156 L 107.710938 203.980469 C 107.710938 204.847656 108.414062 205.554688 109.285156 205.554688 L 126.226562 205.554688 C 127.09375 205.554688 127.800781 204.851562 127.800781 203.980469 Z M 127.800781 187.035156 "/><path style=" stroke:none;fill-rule:nonzero;fill:#ffffff;fill-opacity:1;" d="M 96.046875 187.035156 C 96.046875 186.167969 95.34375 185.464844 94.472656 185.464844 L 77.527344 185.464844 C 76.660156 185.464844 75.957031 186.167969 75.957031 187.035156 L 75.957031 203.980469 C 75.957031 204.847656 76.660156 205.554688 77.527344 205.554688 L 94.472656 205.554688 C 95.339844 205.554688 96.046875 204.851562 96.046875 203.980469 Z M 96.046875 187.035156 "/><path style=" stroke:none;fill-rule:nonzero;fill:#ffffff;fill-opacity:1;" d="M 127.800781 154.867188 C 127.800781 154 127.097656 153.296875 126.226562 153.296875 L 109.285156 153.296875 C 108.417969 153.296875 107.710938 154 107.710938 154.867188 L 107.710938 171.8125 C 107.710938 172.679688 108.414062 173.386719 109.285156 173.386719 L 126.226562 173.386719 C 127.09375 173.386719 127.800781 172.683594 127.800781 171.8125 Z M 127.800781 154.867188 "/><path style=" stroke:none;fill-rule:nonzero;fill:#ffffff;fill-opacity:1;" d="M 96.046875 154.867188 C 96.046875 154 95.34375 153.296875 94.472656 153.296875 L 77.527344 153.296875 C 76.660156 153.296875 75.957031 154 75.957031 154.867188 L 75.957031 171.8125 C 75.957031 172.679688 76.660156 173.386719 77.527344 173.386719 L 94.472656 173.386719 C 95.339844 173.386719 96.046875 172.683594 96.046875 171.8125 Z M 96.046875 154.867188 "/><path style=" stroke:none;fill-rule:nonzero;fill:#ffffff;fill-opacity:1;" d="M 126.230469 217.636719 L 109.289062 217.636719 C 108.421875 217.636719 107.714844 218.339844 107.714844 219.207031 L 107.714844 236.152344 C 107.714844 237.019531 108.417969 237.726562 109.289062 237.726562 L 126.230469 237.726562 C 127.097656 237.726562 127.804688 237.023438 127.804688 236.152344 L 127.804688 219.207031 C 127.800781 218.339844 127.097656 217.636719 126.230469 217.636719 Z M 126.230469 217.636719 "/><path style=" stroke:none;fill-rule:nonzero;fill:#ffffff;fill-opacity:1;" d="M 94.472656 217.636719 L 77.527344 217.636719 C 76.660156 217.636719 75.957031 218.339844 75.957031 219.207031 L 75.957031 236.152344 C 75.957031 237.019531 76.660156 237.726562 77.527344 237.726562 L 94.472656 237.726562 C 95.339844 237.726562 96.046875 237.023438 96.046875 236.152344 L 96.046875 219.207031 C 96.046875 218.339844 95.34375 217.636719 94.472656 217.636719 Z M 94.472656 217.636719 "/><g clip-rule="nonzero" clip-path="url(#02162face3)"><path style=" stroke:none;fill-rule:nonzero;fill:#ffffff;fill-opacity:1;" d="M 88.667969 113.703125 C 94.359375 113.703125 98.976562 109.085938 98.976562 103.394531 L 98.976562 67.101562 C 98.976562 61.410156 94.359375 56.792969 88.667969 56.792969 C 82.972656 56.792969 78.355469 61.410156 78.355469 67.101562 L 78.355469 103.394531 C 78.355469 109.085938 82.96875 113.703125 88.667969 113.703125 Z M 88.667969 113.703125 "/></g><g clip-rule="nonzero" clip-path="url(#346f0abefe)"><path style=" stroke:none;fill-rule:nonzero;fill:#ffffff;fill-opacity:1;" d="M 207.441406 113.703125 C 213.136719 113.703125 217.753906 109.085938 217.753906 103.394531 L 217.753906 67.101562 C 217.753906 61.410156 213.136719 56.792969 207.441406 56.792969 C 201.75 56.792969 197.132812 61.410156 197.132812 67.101562 L 197.132812 103.394531 C 197.132812 109.085938 201.75 113.703125 207.441406 113.703125 Z M 207.441406 113.703125 "/></g><path style=" stroke:none;fill-rule:nonzero;fill:#ffffff;fill-opacity:1;" d="M 202.910156 153.296875 C 202.042969 153.296875 201.335938 154 201.335938 154.867188 L 201.335938 171.8125 C 201.335938 172.679688 202.039062 173.386719 202.910156 173.386719 C 203.082031 173.386719 203.253906 173.355469 203.417969 173.296875 C 208.722656 171.449219 214.289062 170.164062 220.042969 169.507812 C 220.832031 169.417969 221.421875 168.742188 221.421875 167.949219 L 221.421875 154.867188 C 221.421875 154 220.71875 153.296875 219.851562 153.296875 Z M 202.910156 153.296875 "/><path style=" stroke:none;fill-rule:nonzero;fill:#ffffff;fill-opacity:1;" d="M 170.402344 187.179688 L 170.402344 195.675781 C 173.652344 191.945312 177.253906 188.523438 181.15625 185.46875 L 172.117188 185.46875 C 171.171875 185.46875 170.402344 186.234375 170.402344 187.179688 Z M 170.402344 187.179688 "/><path style=" stroke:none;fill-rule:nonzero;fill:#ffffff;fill-opacity:1;" d="M 154.664062 217.636719 L 139.804688 217.636719 C 138.9375 217.636719 138.234375 218.339844 138.234375 219.207031 L 138.234375 236.152344 C 138.234375 237.019531 138.933594 237.726562 139.804688 237.726562 L 150.488281 237.726562 C 151.273438 237.726562 151.945312 237.148438 152.046875 236.371094 C 152.796875 230.613281 154.183594 225.050781 156.132812 219.757812 C 156.511719 218.726562 155.757812 217.636719 154.664062 217.636719 Z M 154.664062 217.636719 "/><g clip-rule="nonzero" clip-path="url(#aa96d4bc14)"><path style=" stroke:none;fill-rule:nonzero;fill:#ffffff;fill-opacity:1;" d="M 74.875 250.53125 C 66.445312 250.53125 59.613281 243.699219 59.613281 235.273438 L 59.613281 134.992188 C 59.613281 134.167969 60.28125 133.5 61.101562 133.5 L 234.910156 133.5 C 235.730469 133.5 236.398438 134.171875 236.398438 134.992188 L 236.398438 169.375 C 241.136719 169.835938 245.753906 170.726562 250.207031 172.007812 L 250.207031 108.675781 C 250.207031 93.621094 238 81.417969 222.949219 81.417969 L 222.207031 81.417969 L 222.207031 103.085938 C 222.207031 111.691406 215.167969 118.632812 206.578125 118.136719 C 198.839844 117.6875 192.679688 111.246094 192.679688 103.398438 L 192.679688 81.417969 L 103.429688 81.417969 L 103.429688 103.132812 C 103.429688 111.394531 96.667969 118.300781 88.40625 118.160156 C 80.386719 118.023438 73.898438 111.453125 73.898438 103.398438 L 73.898438 81.445312 C 59.296875 81.960938 47.617188 93.949219 47.617188 108.679688 L 47.617188 238.097656 C 47.617188 253.15625 59.820312 265.355469 74.875 265.355469 L 153.722656 265.355469 C 152.519531 260.578125 151.757812 255.621094 151.492188 250.539062 L 74.875 250.539062 Z M 74.875 250.53125 "/></g><path style=" stroke:none;fill-rule:nonzero;fill:#ffffff;fill-opacity:1;" d="M 294.28125 227.097656 L 283.46875 237.910156 C 283.15625 238.21875 283.011719 238.65625 283.074219 239.089844 C 283.398438 241.5 283.570312 243.960938 283.570312 246.457031 C 283.570312 276.78125 258.785156 301.421875 228.410156 301.1875 C 198.636719 300.960938 174.332031 276.65625 174.105469 246.882812 C 173.871094 216.507812 198.511719 191.722656 228.835938 191.722656 C 240.644531 191.722656 251.59375 195.480469 260.546875 201.867188 C 261.101562 202.261719 261.859375 202.191406 262.339844 201.710938 L 271.480469 192.570312 C 272.082031 191.96875 272.011719 190.980469 271.335938 190.464844 C 259.523438 181.476562 244.796875 176.132812 228.84375 176.132812 C 191.023438 176.128906 159.789062 206.3125 158.550781 244.109375 C 157.222656 284.707031 190.511719 318.023438 231.101562 316.742188 C 268.992188 315.546875 299.25 284.199219 299.160156 246.289062 C 299.148438 239.851562 298.261719 233.621094 296.621094 227.699219 C 296.332031 226.671875 295.039062 226.339844 294.28125 227.097656 Z M 294.28125 227.097656 "/><path style=" stroke:none;fill-rule:nonzero;fill:#ffffff;fill-opacity:1;" d="M 322.707031 170.011719 C 318.269531 165.574219 311.078125 165.574219 306.640625 170.011719 L 235.488281 241.164062 L 215.472656 221.152344 C 211.039062 216.714844 203.847656 216.714844 199.410156 221.152344 C 194.972656 225.585938 194.972656 232.777344 199.410156 237.214844 L 227.453125 265.257812 C 229.671875 267.476562 232.578125 268.585938 235.488281 268.585938 C 238.394531 268.585938 241.300781 267.476562 243.519531 265.257812 L 322.707031 186.074219 C 327.140625 181.640625 327.140625 174.445312 322.707031 170.011719 Z M 322.707031 170.011719 "/></g></svg>