<svg xmlns="http://www.w3.org/2000/svg" xmlns:xlink="http://www.w3.org/1999/xlink" width="500" zoomAndPan="magnify" viewBox="0 0 375 374.999991" height="500" preserveAspectRatio="xMidYMid meet" version="1.0"><defs><clipPath id="626f17c9ac"><path d="M 0 59.894531 L 372 59.894531 L 372 302.894531 L 0 302.894531 Z M 0 59.894531 " clip-rule="nonzero"/></clipPath></defs><g clip-path="url(#626f17c9ac)"><path fill="#ffffff" d="M 322.078125 59.894531 L 49.992188 59.894531 C 22.519531 59.894531 0.136719 82.25 0.136719 109.753906 L 0.136719 252.816406 C 0.136719 280.292969 22.492188 302.671875 49.992188 302.671875 L 322.078125 302.671875 C 349.550781 302.671875 371.933594 280.316406 371.933594 252.816406 L 371.933594 109.753906 C 371.933594 82.277344 349.578125 59.894531 322.078125 59.894531 Z M 357.5 252.816406 C 357.5 272.34375 341.605469 288.238281 322.078125 288.238281 L 49.992188 288.238281 C 30.464844 288.238281 14.570312 272.34375 14.570312 252.816406 L 14.570312 109.753906 C 14.570312 90.222656 30.464844 74.328125 49.992188 74.328125 L 322.078125 74.328125 C 341.605469 74.328125 357.5 90.222656 357.5 109.753906 Z M 357.5 252.816406 " fill-opacity="1" fill-rule="nonzero"/></g><path fill="#ffffff" d="M 123.132812 184.574219 C 117.648438 187.425781 111.40625 189.0625 104.800781 189.0625 C 98.195312 189.0625 91.953125 187.453125 86.464844 184.574219 C 66.476562 192.011719 52.210938 211.269531 52.210938 233.871094 L 52.210938 241.671875 C 52.210938 247.792969 57.1875 252.765625 63.304688 252.765625 L 146.296875 252.765625 C 152.414062 252.765625 157.386719 247.792969 157.386719 241.671875 L 157.386719 233.871094 C 157.386719 211.269531 143.125 192.011719 123.132812 184.574219 Z M 123.132812 184.574219 " fill-opacity="1" fill-rule="nonzero"/><path fill="#ffffff" d="M 136.835938 149.25 C 136.835938 150.296875 136.785156 151.34375 136.683594 152.386719 C 136.578125 153.433594 136.425781 154.46875 136.21875 155.5 C 136.015625 156.527344 135.761719 157.542969 135.457031 158.546875 C 135.152344 159.550781 134.800781 160.539062 134.398438 161.507812 C 133.996094 162.476562 133.546875 163.425781 133.054688 164.351562 C 132.558594 165.273438 132.019531 166.175781 131.4375 167.046875 C 130.855469 167.917969 130.230469 168.761719 129.5625 169.570312 C 128.898438 170.382812 128.195312 171.160156 127.453125 171.902344 C 126.710938 172.644531 125.933594 173.347656 125.125 174.011719 C 124.3125 174.679688 123.472656 175.300781 122.597656 175.886719 C 121.726562 176.46875 120.828125 177.007812 119.902344 177.5 C 118.976562 177.996094 118.03125 178.445312 117.058594 178.84375 C 116.089844 179.246094 115.105469 179.601562 114.101562 179.90625 C 113.097656 180.210938 112.078125 180.464844 111.050781 180.667969 C 110.019531 180.871094 108.984375 181.027344 107.941406 181.128906 C 106.894531 181.234375 105.851562 181.285156 104.800781 181.285156 C 103.75 181.285156 102.703125 181.234375 101.660156 181.128906 C 100.617188 181.027344 99.578125 180.871094 98.550781 180.667969 C 97.523438 180.464844 96.503906 180.210938 95.5 179.90625 C 94.496094 179.601562 93.511719 179.246094 92.542969 178.84375 C 91.570312 178.445312 90.625 177.996094 89.699219 177.5 C 88.773438 177.007812 87.875 176.46875 87.003906 175.886719 C 86.128906 175.300781 85.289062 174.679688 84.476562 174.011719 C 83.667969 173.347656 82.890625 172.644531 82.148438 171.902344 C 81.40625 171.160156 80.703125 170.382812 80.035156 169.570312 C 79.371094 168.761719 78.746094 167.917969 78.164062 167.046875 C 77.582031 166.175781 77.042969 165.273438 76.546875 164.351562 C 76.054688 163.425781 75.605469 162.476562 75.203125 161.507812 C 74.800781 160.539062 74.449219 159.550781 74.144531 158.546875 C 73.839844 157.542969 73.585938 156.527344 73.378906 155.5 C 73.175781 154.46875 73.023438 153.433594 72.917969 152.386719 C 72.816406 151.34375 72.765625 150.296875 72.765625 149.25 C 72.765625 148.199219 72.816406 147.152344 72.917969 146.109375 C 73.023438 145.0625 73.175781 144.027344 73.378906 143 C 73.585938 141.96875 73.839844 140.953125 74.144531 139.949219 C 74.449219 138.945312 74.800781 137.957031 75.203125 136.988281 C 75.605469 136.019531 76.054688 135.074219 76.546875 134.148438 C 77.042969 133.222656 77.582031 132.324219 78.164062 131.449219 C 78.746094 130.578125 79.371094 129.738281 80.035156 128.925781 C 80.703125 128.113281 81.40625 127.335938 82.148438 126.597656 C 82.890625 125.855469 83.667969 125.148438 84.476562 124.484375 C 85.289062 123.820312 86.128906 123.195312 87.003906 122.613281 C 87.875 122.027344 88.773438 121.488281 89.699219 120.996094 C 90.625 120.5 91.570312 120.054688 92.542969 119.652344 C 93.511719 119.25 94.496094 118.898438 95.5 118.59375 C 96.503906 118.289062 97.523438 118.03125 98.550781 117.828125 C 99.578125 117.625 100.617188 117.46875 101.660156 117.367188 C 102.703125 117.265625 103.75 117.214844 104.800781 117.214844 C 105.851562 117.214844 106.894531 117.265625 107.941406 117.367188 C 108.984375 117.46875 110.019531 117.625 111.050781 117.828125 C 112.078125 118.03125 113.097656 118.289062 114.101562 118.59375 C 115.105469 118.898438 116.089844 119.25 117.058594 119.652344 C 118.03125 120.054688 118.976562 120.5 119.902344 120.996094 C 120.828125 121.488281 121.726562 122.027344 122.597656 122.613281 C 123.472656 123.195312 124.3125 123.820312 125.125 124.484375 C 125.933594 125.148438 126.710938 125.855469 127.453125 126.597656 C 128.195312 127.335938 128.898438 128.113281 129.5625 128.925781 C 130.230469 129.738281 130.855469 130.578125 131.4375 131.449219 C 132.019531 132.324219 132.558594 133.222656 133.054688 134.148438 C 133.546875 135.074219 133.996094 136.019531 134.398438 136.988281 C 134.800781 137.957031 135.152344 138.945312 135.457031 139.949219 C 135.761719 140.953125 136.015625 141.96875 136.21875 143 C 136.425781 144.027344 136.578125 145.0625 136.683594 146.109375 C 136.785156 147.152344 136.835938 148.199219 136.835938 149.25 Z M 136.835938 149.25 " fill-opacity="1" fill-rule="nonzero"/><path fill="#ffffff" d="M 313.617188 133.742188 L 201.882812 133.742188 C 198.003906 133.742188 194.859375 136.886719 194.859375 140.765625 C 194.859375 144.640625 198.003906 147.785156 201.882812 147.785156 L 313.617188 147.785156 C 317.492188 147.785156 320.636719 144.640625 320.636719 140.765625 C 320.636719 136.886719 317.492188 133.742188 313.617188 133.742188 Z M 313.617188 133.742188 " fill-opacity="1" fill-rule="nonzero"/><path fill="#ffffff" d="M 313.617188 173.042969 L 201.882812 173.042969 C 198.003906 173.042969 194.859375 176.1875 194.859375 180.066406 C 194.859375 183.941406 198.003906 187.085938 201.882812 187.085938 L 313.617188 187.085938 C 317.492188 187.085938 320.636719 183.941406 320.636719 180.066406 C 320.636719 176.1875 317.492188 173.042969 313.617188 173.042969 Z M 313.617188 173.042969 " fill-opacity="1" fill-rule="nonzero"/><path fill="#ffffff" d="M 313.617188 212.367188 L 201.882812 212.367188 C 198.003906 212.367188 194.859375 215.511719 194.859375 219.390625 C 194.859375 223.265625 198.003906 226.410156 201.882812 226.410156 L 313.617188 226.410156 C 317.492188 226.410156 320.636719 223.265625 320.636719 219.390625 C 320.636719 215.511719 317.492188 212.367188 313.617188 212.367188 Z M 313.617188 212.367188 " fill-opacity="1" fill-rule="nonzero"/></svg>